<svg width="311" height="125" viewBox="0 0 311 125" fill="none" xmlns="http://www.w3.org/2000/svg">
<g clip-path="url(#clip0)">
<path d="M126.288 96.1776C125.127 94.8674 124.121 93.6344 123.038 92.4784C123.038 92.4784 122.883 92.4784 122.729 92.4784C122.574 94.4051 122.729 96.3317 122.806 98.1813C122.806 98.7207 122.574 98.9519 122.187 99.1831C118.937 100.879 115.222 99.1831 114.681 95.561C113.52 89.7811 118.24 81.0727 124.973 82.6911C130.544 84.6948 129.151 92.4014 126.288 96.1776Z" fill="#F25187"/>
<path d="M214.968 96.1776C213.808 94.8674 212.802 93.6344 211.718 92.4784C211.718 92.4784 211.564 92.4784 211.409 92.4784C211.254 94.4051 211.409 96.3317 211.486 98.1813C211.486 98.7207 211.254 98.9519 210.867 99.1831C207.617 100.879 203.903 99.1831 203.361 95.561C202.2 89.7811 206.921 81.0727 213.653 82.6911C219.224 84.6948 217.832 92.4014 214.968 96.1776Z" fill="#F25187"/>
<path d="M40.0067 119.528C29.0184 119.528 18.3396 114.904 10.8335 106.89C3.17267 98.8748 -0.619066 88.2398 0.0773756 77.0654C1.39288 57.2596 17.3337 41.307 37.1436 39.9969C38.1495 39.9199 39.0781 39.9199 40.0067 39.9199C50.2986 39.9199 60.1262 43.7731 67.5549 50.8631C69.412 52.6356 70.3406 55.0247 70.1085 57.5678C69.8763 60.188 68.5608 62.5771 66.3941 64.0413C64.9239 65.0432 63.1441 65.5826 61.3643 65.5826C59.1976 65.5826 57.1082 64.7349 55.5606 63.2707C51.3046 59.2633 45.8104 57.0284 39.9293 57.0284C38.9234 57.0284 37.84 57.1054 36.7567 57.2596C26.7743 58.7238 18.5718 67.0469 17.4884 77.1424C16.792 83.693 18.7265 89.9353 23.1373 94.7904C27.3934 99.5684 33.584 102.343 40.0067 102.343C45.0366 102.343 49.7569 100.801 53.7034 97.7959C55.2511 96.64 57.1856 95.9464 59.1202 95.9464C61.0547 95.9464 62.8345 96.5629 64.3822 97.7189C66.5489 99.4143 67.787 101.88 67.787 104.578C67.787 107.275 66.5489 109.664 64.4596 111.282C57.3404 116.677 48.9057 119.528 40.0067 119.528Z" fill="#F25187"/>
<path d="M262.481 120.299C257.838 120.299 254.047 116.523 254.047 111.899V68.2028C254.047 67.3551 254.047 66.5074 254.124 65.6597C255.439 50.9402 267.666 39.8428 282.523 39.8428H282.601C282.755 39.8428 282.91 39.8428 283.065 39.8428C298 40.151 310.226 51.942 310.923 66.7386C311.31 74.5992 308.601 82.0746 303.107 87.7774C297.69 93.4803 290.339 96.6399 282.446 96.6399C279.737 96.6399 277.029 96.2546 274.398 95.484L272.773 94.8674L270.993 93.7885L270.761 98.1042V111.899C270.838 116.523 267.124 120.299 262.481 120.299ZM282.523 56.566C276.565 56.566 271.535 61.0357 270.916 66.9698C270.839 67.4322 270.839 67.8175 270.839 68.2799C270.839 68.6652 270.839 69.0505 270.916 69.4359C271.612 75.447 276.565 79.9168 282.601 79.9168C289.101 79.9168 294.363 74.6763 294.363 68.2799C294.363 61.8835 288.946 56.566 282.523 56.566Z" fill="#F25187"/>
<path d="M205.141 42.386C189.664 42.386 176.2 51.2485 169.545 64.1184C167.223 62.9624 164.592 62.3459 161.729 62.3459C157.938 62.3459 154.378 63.5789 151.515 65.5826C145.247 51.9421 131.318 42.386 115.222 42.386C111.121 42.386 107.097 43.0025 103.383 44.1585C96.8055 38.6868 91.9304 32.6757 84.1921 26.8958C73.436 18.9581 62.9119 27.8206 66.6263 38.1474C67.0906 39.3804 70.8823 47.164 71.5788 42.9254C70.7276 40.2281 68.2513 34.9106 71.5014 32.9069C74.1324 31.2885 76.6086 35.373 77.1503 36.2978C79.1623 40.074 85.0433 49.2448 87.1326 53.7916C79.7813 61.0358 75.2157 71.0543 75.2157 82.1517C75.2157 104.115 93.1685 121.994 115.222 121.994C137.276 121.994 155.229 104.115 155.229 82.1517C155.229 79.8397 154.997 77.6048 154.61 75.3699C156.235 72.9038 159.021 71.2855 161.729 71.2855C163.277 71.2855 164.902 71.8249 166.217 72.7497C165.521 75.7553 165.134 78.9149 165.134 82.0746C165.134 104.038 183.087 121.917 205.141 121.917C227.195 121.917 245.148 104.038 245.148 82.0746C245.148 60.2651 227.195 42.386 205.141 42.386ZM117.234 108.2C104.698 108.2 94.5614 98.1042 94.5614 85.6196C94.5614 73.135 104.776 63.0395 117.234 63.0395C129.693 63.0395 139.907 73.135 139.907 85.6196C139.907 98.0271 129.77 108.2 117.234 108.2ZM207.153 108.2C194.617 108.2 184.48 98.1042 184.48 85.6196C184.48 73.135 194.694 63.0395 207.153 63.0395C219.689 63.0395 229.826 73.135 229.826 85.6196C229.826 98.0271 219.689 108.2 207.153 108.2Z" fill="#F25187"/>
<path d="M152.366 48.7053C152.366 48.9365 152.056 49.0906 151.979 48.8594C151.128 47.164 149.58 43.9272 147.104 40.9217C139.211 31.2114 136.58 33.061 128.3 26.0481C112.591 12.7928 146.253 -3.31382 152.366 48.7053Z" fill="#F25187"/>
<path d="M156.932 50.4778C156.777 50.6319 156.545 50.4778 156.622 50.3237C161.497 28.5913 151.515 26.4334 145.866 12.2534C140.991 -0.0770571 156.622 -5.16337 161.961 6.62763C167.92 19.8058 166.063 37.5308 156.932 50.4778Z" fill="#F25187"/>
<path d="M170.783 48.0888C166.604 51.6338 162.348 54.1769 162.503 53.9458C166.604 46.2392 175.039 29.0536 169.622 13.1782C164.438 -2.0037 184.325 -3.69914 187.266 10.7121C189.974 24.3527 179.218 40.9217 170.783 48.0888Z" fill="#F25187"/>
<path d="M166.372 125C143.622 123.921 150.122 113.286 150.122 113.286C150.122 113.286 154.378 114.75 154.92 113.44C157.473 107.429 157.86 103.113 157.86 103.113C165.676 101.957 171.325 120.916 180.456 122.38C180.765 122.457 180.765 122.842 180.533 123.073C177.67 125.077 169.7 125.077 166.372 125Z" fill="#F25187"/>
<path d="M4.1013 27.8976H3.01795C2.24412 27.8976 1.62506 27.2811 1.62506 26.5105C1.62506 25.7398 2.24412 25.1233 3.01795 25.1233H4.17868V23.8132C4.17868 22.8884 4.95251 22.1177 5.8811 22.1177C6.80968 22.1177 7.58351 22.8884 7.58351 23.8132V25.1233H8.43472C9.20854 25.1233 9.8276 25.7398 9.8276 26.5105C9.8276 27.2811 9.20854 27.8976 8.43472 27.8976H7.58351V31.1344C7.58351 32.2904 8.82163 32.4445 9.44069 32.4445C10.2919 32.4445 10.9883 33.1381 10.9883 33.9858C10.9883 34.8335 10.2919 35.5271 9.51807 35.5271C9.28592 35.5271 9.05378 35.5271 8.97639 35.5271C7.27398 35.5271 4.02392 35.0647 4.02392 31.5197V27.8976H4.1013Z" fill="#F25187"/>
<path d="M13.7741 20.8847C14.7801 20.8847 15.4765 21.6554 15.4765 22.6572V23.2737C15.4765 23.8132 15.4765 24.1985 15.4765 24.1985L15.5539 26.4334C16.173 25.4316 17.4111 24.738 18.804 24.738C20.9707 24.738 22.5957 25.7398 22.5957 28.6683V33.6776C22.5957 34.6794 21.8219 35.4501 20.8159 35.4501C19.81 35.4501 19.0361 34.6794 19.0361 33.6776V29.2848C19.0361 28.283 18.6492 27.8977 17.8754 27.8977C16.792 27.8977 16.0956 28.5142 15.7861 29.439C15.6313 29.8243 15.6313 30.2867 15.6313 30.7491V33.6005C15.6313 34.6023 14.8575 35.373 13.8515 35.373C12.8455 35.373 12.0717 34.6023 12.0717 33.6005V22.6572C12.0717 21.6554 12.8455 20.8847 13.7741 20.8847Z" fill="#F25187"/>
<path d="M29.7922 24.6609C32.8875 24.6609 34.6673 26.8187 34.6673 29.7472C34.6673 29.8243 34.6673 30.2096 34.203 30.5179C33.5066 30.9803 33.584 30.9032 32.7328 30.9032H27.9351C28.1672 32.2133 29.2506 32.7528 30.4113 32.7528C31.0304 32.7528 31.6494 32.5987 32.1137 32.3675C32.8102 32.0592 33.6614 32.2904 33.9709 32.984C34.3578 33.6776 34.0483 34.6024 33.2744 34.9877C32.5006 35.373 31.4173 35.6813 30.0244 35.6813C26.2326 35.6813 24.2207 32.984 24.2207 30.2096C24.2981 27.127 26.3874 24.6609 29.7922 24.6609ZM31.1077 28.8224C31.1077 28.0518 30.5661 27.2811 29.7149 27.2811C28.7089 27.2811 28.1672 28.0518 28.0124 28.8224H31.1077Z" fill="#F25187"/>
</g>
<defs>
<clipPath id="clip0">
<rect width="311" height="125" fill="white"/>
</clipPath>
</defs>
</svg>
