<svg width="67" height="76" viewBox="0 0 67 76" fill="none" xmlns="http://www.w3.org/2000/svg">
<g clip-path="url(#clip0)">
<path d="M57.2939 1.91158L55.8804 1.11426V17.8579L53.6188 19.6519H43.8185L41.4627 17.8579V1.21392L40.0492 2.01124C31.097 7.09414 27.7046 18.8546 32.5105 28.3227C34.3952 32.11 37.4106 35.0999 41.0858 36.7942C41.0858 36.9936 41.0858 37.2926 41.0858 37.4919V75.4641H54.8438V37.3922C64.3614 33.7046 69.3558 22.6418 65.9634 12.5757C64.4557 7.99112 61.346 4.20386 57.2939 1.91158Z" fill="#F25187"/>
<path d="M16.8678 5.99781C16.8678 3.10753 14.6062 0.715576 11.8734 0.715576C11.7792 0.715576 11.685 0.715576 11.685 0.715576H11.5907C8.9522 0.815241 6.87907 3.10753 6.87907 5.89814C6.87907 6.89479 6.87907 7.89144 6.87907 8.88808H6.31367C3.10973 8.88808 0.565425 11.579 0.471191 14.868C0.282724 20.0505 2.3616e-05 29.9173 0.376958 36.8939C0.376958 37.5915 0.848125 38.1895 1.41353 38.3888C1.41353 38.4885 1.69623 38.5882 1.88469 38.5882C2.73279 38.4885 3.39243 37.7909 3.39243 36.7942C3.01549 29.9173 3.2982 20.2499 3.48666 15.0673C3.5809 13.4727 4.80593 12.2767 6.31367 12.177H6.87907C6.87907 20.8479 6.87907 54.3352 6.87907 64.8997V65.4977L11.7792 75.1651C11.8734 75.3645 12.1561 75.4641 12.3446 75.3645C12.4388 75.3645 12.5331 75.2648 12.5331 75.1651L17.0563 65.4977V64.8997C16.8678 48.9533 16.7736 16.0639 16.8678 5.99781ZM14.7004 64.9993L11.8734 70.9792L8.85797 64.9993H14.7004Z" fill="#F25187"/>
</g>
<defs>
<clipPath id="clip0">
<rect width="67" height="74.6489" fill="white" transform="translate(0 0.715576)"/>
</clipPath>
</defs>
</svg>
