<svg width="101" height="103" viewBox="0 0 101 103" fill="none" xmlns="http://www.w3.org/2000/svg">
<g clip-path="url(#clip0)">
<path d="M88.98 39.6C83.1982 39.6 78.4944 44 77.8085 49.8H66.343C66.049 46.3 64.6771 43 62.5212 40.4L78.6904 23.9C81.5323 25.9 85.5501 25.6 88.098 23C90.9399 20.1 90.9399 15.3 88.098 12.4C85.2561 9.5 80.5523 9.5 77.7105 12.4C75.1626 15 74.8686 19 76.8285 22L60.6592 38.5C58.1114 36.3 54.9755 34.9 51.4477 34.6V23C57.0334 22.3 61.4432 17.5 61.4432 11.6C61.4432 5.2 56.3474 0 50.1737 0C44 0 38.8062 5.2 38.8062 11.5C38.8062 17.4 43.118 22.2 48.8018 22.9V34.6C45.3719 34.9 42.1381 36.3 39.5902 38.5L36.7483 35.6C38.7082 32.7 38.4143 28.6 35.8664 26C33.0245 23.1 28.3207 23.1 25.4788 26C22.637 28.9 22.637 33.7 25.4788 36.6C28.0267 39.2 31.9465 39.5 34.8864 37.5L37.7283 40.4C35.5724 43 34.2004 46.2 33.9065 49.8H22.539C21.853 44.1 17.1492 39.6 11.3675 39.6C5.09577 39.6 0 44.8 0 51.2C0 57.6 5.09577 62.7 11.2695 62.7C17.0512 62.7 21.755 58.3 22.441 52.5H33.9065C34.2004 56 35.5724 59.3 37.7283 61.9L34.8864 64.8C32.0445 62.8 28.0267 63.1 25.4788 65.7C22.637 68.6 22.637 73.4 25.4788 76.3C28.3207 79.2 33.0245 79.2 35.8664 76.3C38.4143 73.7 38.7082 69.7 36.7483 66.7L39.5902 63.8C42.1381 66 45.2739 67.4 48.8018 67.7V79.4C43.216 80.1 38.8062 84.9 38.8062 90.8C38.8062 97.1 43.902 102.3 50.0757 102.3C56.2494 102.3 61.3452 97.1 61.3452 90.8C61.3452 84.9 57.0334 80.1 51.3497 79.4V67.7C54.7795 67.4 58.0134 66 60.5612 63.8L63.4031 66.7C61.4432 69.6 61.7372 73.7 64.2851 76.3C67.1269 79.2 71.8307 79.2 74.6726 76.3C77.5145 73.4 77.5145 68.6 74.6726 65.7C72.1247 63.1 68.2049 62.8 65.265 64.8L62.4232 61.9C64.5791 59.3 65.951 56.1 66.245 52.5H77.7105C78.3964 58.2 83.1002 62.7 88.882 62.7C95.0557 62.7 100.151 57.5 100.151 51.2C100.151 44.9 95.2517 39.6 88.98 39.6Z" fill="#F25187"/>
</g>
<defs>
<clipPath id="clip0">
<rect width="100.347" height="102.4" fill="white"/>
</clipPath>
</defs>
</svg>
