<svg xmlns="http://www.w3.org/2000/svg" xmlns:xlink="http://www.w3.org/1999/xlink" viewBox="0 0 691.1 479"><defs><style>.cls-1,.cls-6{fill:#1f1216;}.cls-18,.cls-2{fill:#562636;}.cls-13,.cls-3{fill:#f25187;}.cls-4{fill:url(#linear-gradient);}.cls-5{fill:#f2f2f2;}.cls-6{stroke:#1f1216;stroke-width:2px;}.cls-13,.cls-17,.cls-18,.cls-6{stroke-miterlimit:10;}.cls-7{fill:url(#linear-gradient-2);}.cls-8{opacity:0.9;}.cls-9{fill:#00c9b1;}.cls-10{fill:url(#linear-gradient-3);}.cls-11{fill:#666;}.cls-12{fill:#b3b3b3;}.cls-13{stroke:#562636;}.cls-14{fill:url(#radial-gradient);}.cls-15{fill:gray;}.cls-16{fill:#e24c7f;}.cls-17{fill:none;}.cls-17,.cls-18{stroke:#00c9b1;}.cls-19{opacity:0.6;}</style><linearGradient id="linear-gradient" x1="83.53" y1="455.17" x2="907.53" y2="76.5" gradientUnits="userSpaceOnUse"><stop offset="0" stop-color="#1f1216" stop-opacity="0"/><stop offset="0.48" stop-color="#562636"/></linearGradient><linearGradient id="linear-gradient-2" x1="183.14" y1="88.5" x2="434.2" y2="-5.98" gradientUnits="userSpaceOnUse"><stop offset="0.03" stop-color="#f25187"/><stop offset="0.79" stop-color="#f2f2f2"/></linearGradient><linearGradient id="linear-gradient-3" x1="-821.5" y1="147.44" x2="-490.91" y2="147.44" gradientTransform="matrix(0.71, 0.01, 0.01, 0.72, 579.19, 303.48)" gradientUnits="userSpaceOnUse"><stop offset="0" stop-color="#1f1216" stop-opacity="0"/><stop offset="1" stop-color="#1f1216"/></linearGradient><radialGradient id="radial-gradient" cx="244.1" cy="271.14" fx="217.55470906580388" r="68.74" gradientTransform="translate(48.4 -499.1) rotate(3.6) scale(1 2.79)" gradientUnits="userSpaceOnUse"><stop offset="0.17" stop-color="#f25187" stop-opacity="0"/><stop offset="0.75" stop-color="#f2f2f2"/></radialGradient></defs><g id="Layer_7" data-name="Layer 7"><polygon class="cls-1" points="553.1 312.4 530.1 321.9 524.3 319.5 520.4 321.1 499 312.3 499.1 307.4 499.2 307.4 526.3 318.5 553 307.5 553.1 312.4"/><polygon class="cls-2" points="553.1 307.4 553 307.5 526.3 318.5 499.2 307.4 499 307.3 526.3 296.1 553.1 307.4"/><polygon class="cls-1" points="462.4 300.5 462.4 303.6 443.5 311.7 439.4 310.1 461 300.6 457.5 299 462.4 300.5"/><polygon class="cls-1" points="551.9 334.7 528.9 344.3 523.2 342.1 551.7 330.9 551.7 330.9 551.9 334.7"/><polygon class="cls-1" points="484.7 314 484.7 318.6 474.4 323.5 467.5 320.8 483.5 314.1 484.7 314"/><polygon class="cls-1" points="387.5 277.7 386.9 280 374.9 285.5 370.4 283.8 386.1 277.6 387.5 277.7"/><polygon class="cls-1" points="377.5 266.5 353.6 277.4 348.8 275.5 375.3 264.6 377.2 264.3 377.5 266.5"/><path class="cls-3" d="M410.2,300Z"/><path class="cls-2" d="M410.2,300h0Z"/><polygon class="cls-1" points="450.8 243.1 450.8 243.1 450.7 243.1 450.8 243.1"/><polygon class="cls-1" points="450.8 247.1 440.3 251.5 432.5 248.7 432.5 244.7 440.3 247.5 450.8 243.1 450.8 247.1"/><polygon class="cls-1" points="400.6 248.5 392.2 252 384.2 248 384.1 244.1 384.5 244.1 392.2 248 400.5 244.6 400.6 248.5"/><polygon class="cls-1" points="410.3 233.6 409.8 233.4 410.3 233.4 410.3 233.6"/><polygon class="cls-1" points="410.4 237.6 397.1 243.1 392.3 241.1 387.1 242.9 381.5 240.6 381.4 236.8 381.7 236.7 392.3 241.1 410.3 233.7 410.4 237.6"/><polygon class="cls-1" points="429.7 232.8 422.4 235.4 418.8 233.9 418.8 230 419 230 422.4 231.4 429.6 228.8 429.7 232.8"/><path class="cls-4" d="M551.8,330.9h-.1l-28.5,11.2,5.7,2.2,9.8,3.7L220.6,479.4,57.4,482l1-117.3L313.2,261.9l15.1,5.8,27.6-11.6,20.2,8.2H376l-27.2,11.2,4.8,1.9,2.5.9L371,272l15.2,5.5h-.1l-15.7,6.2,4.5,1.7,25.5,9.7,6.8-2.5,10.5,4.3,18.2-7.5,21.6,9.5,3.5,1.6-21.6,9.5,4.1,1.6,11.2,4.2,16.7-6.8,12.2,4.9h-.1l-16,6.7,6.9,2.7,20.9,8,25.1-10.4,3.9-1.6,5.8,2.4Z"/><polygon class="cls-1" points="539.2 355 296.3 480 217.8 480.5 401.2 404.7 420.9 396.6 440 388.7 459.6 380.6 538.7 347.9 539.2 355"/><polygon class="cls-5" points="459.6 380.6 440 388.7 420.9 396.6 401.2 404.7 205.7 324.2 261.4 299.1 459.6 380.6"/><polygon class="cls-2" points="459.6 380.6 440 388.7 420.6 380.7 440.4 372.6 459.6 380.6"/><polygon class="cls-2" points="420.6 364.6 401.3 356.4 381.5 364.6 401.1 372.7 420.6 364.6"/><polygon class="cls-2" points="381.5 348.3 362.2 340.3 342.8 348.3 362.2 356.4 381.5 348.3"/><polygon class="cls-2" points="342.6 332.2 323.1 324.2 303.8 332.1 323.2 340.3 342.6 332.2"/><polygon class="cls-2" points="303.5 316.1 283.9 308 264.4 316.1 284.7 324.2 303.5 316.1"/><polygon class="cls-2" points="264.8 332.1 244.8 324.2 224.9 332.1 245 340.2 264.8 332.1"/><polygon class="cls-2" points="264.4 348.4 284.1 340.2 303.8 348.3 283.9 356.4 264.4 348.4"/><polygon class="cls-2" points="303.4 364.5 323.2 372.5 342.8 364.4 323.1 356.4 303.4 364.5"/><polygon class="cls-2" points="342.8 380.6 362.2 372.7 381.9 380.7 361.8 388.9 342.8 380.6"/><polygon class="cls-2" points="420.9 396.6 401.2 404.7 381.5 396.7 401.1 388.6 420.9 396.6"/><polygon class="cls-2" points="381.9 380.7 401.1 372.7 420.6 380.7 401.1 388.6 381.9 380.7"/><polygon class="cls-2" points="381.5 364.6 362.2 356.4 342.8 364.4 362.2 372.7 381.5 364.6"/><polygon class="cls-2" points="342.8 348.3 323.1 356.4 303.8 348.3 323.2 340.3 342.8 348.3"/><polygon class="cls-2" points="303.8 332.1 284.7 324.2 264.8 332.1 284.1 340.2 303.8 332.1"/><path class="cls-3" d="M329.8,277.5l24.7,10.4-8,3.8-17.3-7.3-9.5,4.5,16.9,7.1-8.1,3.8-16.9-7.1-18.3,8.7-7.4-3.1Z"/><path class="cls-3" d="M359.7,290l7.4,3.2-43.9,20.7-7.4-3.1Z"/><path class="cls-3" d="M367,306l-29.4,13.9-7.5-3.1L374,296.1l7.7,3.1-12.3,20.2L397.8,306l7.5,3.1-43.9,20.7-7.2-3Z"/><path class="cls-3" d="M412.2,312l7.4,3.1-43.9,20.8-7.4-3.2Z"/><path class="cls-3" d="M397.6,333.2c-.8,2.5.3,5.4,5.1,7.4s8.5,1.4,11,.2,1.4-3.3-1.4-5.6-9.4-7.1.4-11.8c7.3-3.4,18.2-4.1,26.4-.7,5.6,2.3,8.1,5.3,7.5,8.6l-11,1.5c.5-2.7-1.7-5-5.1-6.4a12.3,12.3,0,0,0-9.6-.1c-3,1.4-1,3.1,1.8,5.3s9.3,7.3-.4,11.9a35.5,35.5,0,0,1-28.1.8c-6.7-2.8-8.7-6.1-7.8-9.5Z"/><path class="cls-3" d="M456.3,353.2l-16.4-6.9L421.4,355l-7.4-3.1,43.9-20.7,7.4,3.1-17.2,8.1,16.5,6.9,17.2-8.1,7.5,3.1L445.4,365l-7.5-3.1Z"/><path class="cls-2" d="M222.8,338.6h0Z"/><path class="cls-6" d="M323.6,37.5,305.7,73.1l-.6.5L163.6,132.5l-2.9,1.3-5.1-2.5a1.6,1.6,0,0,1-.9-1.5V64.2a1.8,1.8,0,0,1,1-1.6L297.1,4.1a2,2,0,0,1,1.5,0l7.1,2.7.6,1.4,17.3,28.1A1.3,1.3,0,0,1,323.6,37.5Z"/><path class="cls-6" d="M233.2,154.4h0a1.4,1.4,0,0,0,1-1.4l3-76.9h-6V153A1.5,1.5,0,0,0,233.2,154.4Z"/><path class="cls-7" d="M323.1,37.1l-18,35.7a1,1,0,0,1-.6.5L161.4,132.8a.9.9,0,0,1-1.3-.8l-.4-64.6a1,1,0,0,1,.6-.9L304,6.9a1.2,1.2,0,0,1,1.5.4L323,36A.9.9,0,0,1,323.1,37.1Z"/><path class="cls-2" d="M195,62.1l-6.6,2.8L188,90.3a9,9,0,0,1-5.4,8.3,5.2,5.2,0,0,1-5.4-.4l-3.3,7.6a14.9,14.9,0,0,0,2,1.5l3.3-7.6a5.3,5.3,0,0,0,5.4.4,9,9,0,0,0,5.5-8.3l.3-25.3,7.3-3.2Z"/><path class="cls-2" d="M218.7,51.4c-10.5,3.8-18,15.8-18.1,27.2A17.3,17.3,0,0,0,207,91.7c-2.8-2.2-4.5-6.2-4.4-11.6.2-11.4,7.9-22.8,18.2-27.2,4.7-2,8.7-2.1,11.8-.6A19.1,19.1,0,0,0,218.7,51.4Zm8.2,8.2c1.4,1.5,2.1,3.9,2,6.9-.1,7.1-4.3,14.2-10.6,16.9-2.5,1-4.6,1.1-6.2.4,1.8,2.1,4.6,2.7,8.2,1.1,6.4-2.7,10.6-9.8,10.7-16.9C231,63.7,229.5,60.7,226.9,59.6Z"/><path class="cls-2" d="M262,43.1a5.1,5.1,0,0,1,.2,1.3,6.9,6.9,0,0,1-4.1,6l-7.1,3v2.4l9.1-3.9a6.7,6.7,0,0,0,4.1-5.9C264.2,44.2,263.4,43.1,262,43.1Zm.4,15.1a6.1,6.1,0,0,1,.2,1.5,6.9,6.9,0,0,1-4.5,6.3l-7.3,3.2v2.4l9.4-4.1a7,7,0,0,0,4.5-6.3C264.7,59.4,263.9,58.2,262.4,58.2Zm-2.5-23.7-18.1,7.7L241.3,80l2.1,1.5.5-37.8L262,36c2.6-1.2,4.8-1.3,6.4-.7C266.9,33.3,264,32.7,259.9,34.5Zm7.3,16.9a7.9,7.9,0,0,1-1.5,1.2,5.1,5.1,0,0,1,3,.1A8.7,8.7,0,0,0,267.2,51.4Z"/><path class="cls-2" d="M301.1,21.6c-3.4-2-7.9-1.9-13.4.4-8,3.5-13,10.7-13.1,17a9,9,0,0,0,4.4,7.4c-1.5-1-2.4-2.8-2.4-5.9.1-6.3,5.1-13.5,13.2-17,5.5-2.3,10-2.4,13.3-.4ZM288.8,36.8a21.6,21.6,0,0,1-4.7.4c.3,2.1,3.1,1.7,6.8,1.1s8.1-1.4,10.6.6C299.1,36.3,292.8,36,288.8,36.8Zm5.2,9.4a1.9,1.9,0,0,1,.1.8c0,2.1-2,5.1-6,6.8s-8.5,1.3-10.9-.5l-4.1,7.9a11.3,11.3,0,0,0,2.1,1.5l4.1-7.9c2.4,1.8,6.1,2.5,10.8.5s6-4.7,6-6.8S295.4,46.4,294,46.2Z"/><g class="cls-8"><path class="cls-9" d="M197.7,63.9V89.3a19.2,19.2,0,0,1-12.1,18.4c-3.4,1.6-6.6,2-9.1.4l3.2-7.6a5.3,5.3,0,0,0,5.4.3,9.1,9.1,0,0,0,5.3-8.4V67.1Z"/><path class="cls-9" d="M233.5,53.1a1.8,1.8,0,0,1,.7.5l-.3-.2Zm0,0h0l-.4-.3Z"/><path class="cls-9" d="M234.3,53.7h0a.1.1,0,0,0-.1-.1l-.3-.2-.4-.3h0l-.4-.3-.7-.4c-3-1.5-7.1-1.3-11.8.7-10.2,4.6-17.8,16.1-17.8,27.5,0,5.4,1.7,9.4,4.6,11.5a.1.1,0,0,0,.1.1c3.2,2.3,7.8,2.5,13.1.1,10.3-4.5,17.9-16,17.9-27.5C238.5,59.7,237,55.9,234.3,53.7Zm-13.7,6.6c2.5-1.1,4.6-1.2,6.3-.5s4.1,4,4.1,8.3c0,7.1-4.1,14.3-10.4,17.1-3.6,1.6-6.5,1-8.2-1s-2.1-3.9-2.1-6.9C210.3,70.2,214.3,63.1,220.6,60.3Z"/><path class="cls-9" d="M268.5,52.3a5.1,5.1,0,0,0-3,0l1.5-1.2A14.3,14.3,0,0,0,271.4,41c0-3-1.2-5.3-3.4-6.1s-3.7-.4-6.4.8l-18,7.9V81.5l18.5-8.2A16.2,16.2,0,0,0,272,58.7C272,55.4,270.6,53.1,268.5,52.3Zm-17.6.9V47.3l9.1-4a4.1,4.1,0,0,1,1.7-.5c1.4,0,2.3,1.1,2.3,2.8a6.8,6.8,0,0,1-4,6l-9.1,4Zm9.3,14.1-9.4,4.1V62.5l9.3-4.1a4.6,4.6,0,0,1,2.1-.5c1.5,0,2.3,1.2,2.3,2.9A7,7,0,0,1,260.2,67.3Z"/><path class="cls-9" d="M303.3,43.7c0,6.9-4.5,14.1-13.7,18.1-6.5,2.9-11.2,2.6-14.5.4l4-7.9c2.4,1.7,6.2,2.4,10.9.3s5.9-4.7,5.9-6.8a2.1,2.1,0,0,0-2.1-2.3,18.1,18.1,0,0,0-4.8.5c-3.5.6-7.6,1.5-10.2-.1h0c-1.5-.9-2.5-2.7-2.5-5.8,0-6.3,4.9-13.6,13-17.1,5.4-2.4,9.9-2.6,13.3-.6L298.5,30c-2.7-1.6-6.4-1.3-9.8.2s-5,3.8-5,6a.9.9,0,0,0,.1.5c.3,2,3,1.6,6.7.9s8.2-1.5,10.7.5h0C302.5,39.1,303.3,40.8,303.3,43.7Z"/></g><path class="cls-10" d="M228.9,393.7s0-2.1-2.7-8.5c.6-.1,7.4,11.7,7.4,11.7-14.4-.8-33.1-1.6-33.2-1.2a6.1,6.1,0,0,1-2,2.5l-1,.6a13.6,13.6,0,0,1-3.2,1.6l-1.9.7,9.1,1.3c1,.2,1.4.4.8.7l-11.9,4.8-6.2,2.5.9,1.6q.1.3-.9.6l-11.6,2.6,5-2.2L153,422.9l-1.6.6h0l9.3,1.3,1.1.2-11.7.8h-1a41.7,41.7,0,0,1-5,0,22.5,22.5,0,0,1-3.8-.3L81.8,417c-2.5-.4-3.3-1.1-1.8-1.6l3.3-1.4,8.8-3.4h-3c-18.3.2-36.8.3-54.9-2.8l-1.8-.4-3.1-.7h0l-2.2-.7c-.1,0-.2,0-.2-.1a4,4,0,0,0,1.6,1c-8.1.3-16.2.3-24.2-.1-2-.2-4.2-.4-4.3-.8s1.6-.6,3.5-.7a51.9,51.9,0,0,1,5.6.1l5.5.2c1.6.1,3.6-.1,3.7-.4s-1.4-.4-2.7-.6l-8.1-.7L4,403.5c-.9-.2-1.4-.5-.8-.7a8.5,8.5,0,0,1,2.9-.4H9.8l7.9.7a15.1,15.1,0,0,0,3.2.3c.8-.1,1.4-.2,1.5-.4a.3.3,0,0,0-.1-.2l-1-.3c-1.4-.3-3.4-.5-5.2-.7s-3.5-.6-3.6-1,2.3-.9,5-1a40.9,40.9,0,0,1,6.3.3l.5-.4.5-.3c20.8-12.3,50.3-12.3,74-14.6a380,380,0,0,1,68.3-.2c10.7-.9,17-4.5,27.7-5.4l15.7,2.7c2-.2-5.8.3-12,.5-4,.1-12.9,3.1-17.8,4l1.1.2a75.6,75.6,0,0,1,11.9,2.8l6.8,2.7C211.2,392.4,214.5,392.9,228.9,393.7Z"/><path class="cls-1" d="M199.5,377l8,3.3-19,.4c-7.7.6-6.5-4.2-6.5-4.2l-4.2-56.6,7,6.6v-9.9l6.2,6.6,8.2-10.4c-3,16.7-8.5,57.9-8.3,57.8s18.9-8.7,19.5-9l-10,9.6,26.7-6S211.1,372.4,199.5,377Z"/><path class="cls-5" d="M377.2,230.7l-12.4-5.4-2.4,3-56.3,69.5L288.2,320a3.4,3.4,0,0,1-3.7.9l-79.3-32.2L270,207.4l13.6-17.1,5-6.3a7.6,7.6,0,0,1,8.8-2.3l72.1,29a9.9,9.9,0,0,1,3.5,2.4,10.1,10.1,0,0,1,2.6,5.5Z"/><path class="cls-11" d="M292.1,196l-1.5-.6-2.7,3.7-3-1.2,8.3-11,5.6,2.4c2.5,1,2.8,3.2,1.2,5.2a5.6,5.6,0,0,1-4.7,2.4l-.7,5-3.4-1.4Zm4.5-4.5-2.3-1-1.8,2.5,2.3.9a2.1,2.1,0,0,0,2.3-.6A1.1,1.1,0,0,0,296.6,191.5Z"/><path class="cls-11" d="M304.4,191.6l8.3,3.4-1.8,2.4-5.4-2.2-1.4,1.8,5.3,2.2-1.8,2.4-5.3-2.2-1.4,1.9,5.3,2.3-1.8,2.4-8.3-3.5Z"/><path class="cls-11" d="M309.6,203.3a4.2,4.2,0,0,0,2.5,3,2.2,2.2,0,0,0,2.4-.3c.4-.6-.1-1.2-1.1-1.9s-3.9-2.7-1.9-5.3a5.8,5.8,0,0,1,7-1.6,5.8,5.8,0,0,1,3.5,3.5l-3.1,1.3a4.3,4.3,0,0,0-2.4-2.4c-.9-.4-1.6-.2-1.9.3s.1,1,1.2,1.8,3.7,2.7,1.9,5.2a6,6,0,0,1-7.5,1.7c-2.3-.9-3.4-2.3-3.7-3.8Z"/><path class="cls-11" d="M324.6,200l3,1.2-4.8,6.4c-1,1.3-1,2.6.6,3.2a3.1,3.1,0,0,0,3.9-1.3l4.9-6.4,2.9,1.3-4.9,6.5a6.9,6.9,0,0,1-8.7,2.4c-3.6-1.5-3.8-4.1-1.8-6.8Z"/><path class="cls-11" d="M344.4,212.9l-8.4,6.2-1.3-.5,2.7-8.6-5.6,7.4-2.9-1.2,8.3-11,4,1.7-2.3,7.2,7.1-5.2,4,1.7-8.2,10.9-3-1.2Z"/><path class="cls-11" d="M352,211.4l8.3,3.4-1.8,2.4-5.3-2.2-1.4,1.8L357,219l-1.8,2.4-5.2-2.2-1.5,2,5.4,2.2-1.8,2.4-8.3-3.5Z"/><polygon class="cls-11" points="336.5 232.4 276.4 207.2 278.5 204.8 338.9 229.8 336.5 232.4"/><path class="cls-12" d="M309.6,268a128.5,128.5,0,0,1-3.5,29.8L288.2,320a3.4,3.4,0,0,1-3.7.9l-79.3-32.2L270,207.4a32.5,32.5,0,0,1,9.1,1.4l3.1,1.1h0l3.5,1.6,1.8,1.1c11.4,7.2,18,21.1,20.7,37.2.2,1.1.3,2.3.5,3.4s.5,4,.6,5.9a2.8,2.8,0,0,0,.1.9c0,1.3.1,2.5.1,3.8S309.6,266.6,309.6,268Z"/><polygon class="cls-11" points="338.9 241.3 273.2 214.1 274.3 211.4 340.6 238.8 338.9 241.3"/><polygon class="cls-11" points="325.2 243.1 270.2 219.5 271.3 216.7 327 240.6 325.2 243.1"/><polygon class="cls-11" points="331.4 254.1 269.9 228.5 271 225.8 332.9 251.9 331.4 254.1"/><polygon class="cls-11" points="318 258.5 293.9 248.5 296 245.9 319.8 256 318 258.5"/><polygon class="cls-11" points="312 264.4 288 254.5 290.1 252.5 313.3 262 312 264.4"/><polygon class="cls-11" points="307.3 271 283.2 261 284.3 258.3 309.1 268.5 307.3 271"/><polygon class="cls-11" points="302.5 277.5 278.4 267.6 279.6 264.8 304.9 274.5 302.5 277.5"/><path class="cls-1" d="M278,223.2s13.6,5.8,18.5,1.1c0,0-3.8,11.9-15,13.3l-3.5.6-4.9-7.8Z"/><path class="cls-13" d="M285.6,276.1a76.9,76.9,0,0,1-2.2,18.5,70.4,70.4,0,0,1-3.1,9.5,67.8,67.8,0,0,1-9.3,15.5,59.1,59.1,0,0,1-6.4,6.8l-2.8,2.5-1.6,1.3h-.1a76.3,76.3,0,0,1-9.6,6.4,65.4,65.4,0,0,1-5.9,3,70.2,70.2,0,0,1-8.2,3.3l-4.3,1.3-3.4.8h-.4l-2.1.4a56.1,56.1,0,0,1-10.4,1h-2.2a72.8,72.8,0,0,1-17.6-3.3c-2.7-.9-5.5-2-8.2-3.2l-1.3-.6-4-2c-16.2-8.8-31.2-24.2-35.4-48.1a79.5,79.5,0,0,1-1.1-13.3v-1a178.2,178.2,0,0,1,8.6-52.7c.4-1.3.9-2.5,1.3-3.8h0c6-17,14.7-32.2,25.9-42.6l1.3-1.2a52.9,52.9,0,0,1,9.6-6.9,27.9,27.9,0,0,1,3.4-1.8c1.1-.6,2.3-1,3.4-1.5a46.7,46.7,0,0,1,16.3-3l4.5.2h0l5.2.8,2.7.7,2.9,1c16.3,5.7,29.3,20.6,38.4,39.4.7,1.4,1.4,2.8,2,4.3s2.1,4.9,3.1,7.5c.1.3.3.7.4,1.1s1.2,3.2,1.7,4.8,1.2,3.6,1.7,5.5A174.4,174.4,0,0,1,285.6,276.1Z"/><path class="cls-14" d="M285.6,276.1a76.9,76.9,0,0,1-2.2,18.5,70.4,70.4,0,0,1-3.1,9.5,67.8,67.8,0,0,1-9.3,15.5,59.1,59.1,0,0,1-6.4,6.8l-2.8,2.5-1.6,1.3h-.1a76.3,76.3,0,0,1-9.6,6.4,65.4,65.4,0,0,1-5.9,3,70.2,70.2,0,0,1-8.2,3.3c-1.5-4.9.4-11.2,2.3-16.4a13.4,13.4,0,0,0,.7-1.8,20.5,20.5,0,0,1-.6-5.6c-.5-10.2-6.8-19.2-13.2-27.1s-13.3-16.1-15.8-26c-1.2-5.2-1-11.2,2.7-15s9.5-4.5,14.4-3,9,5.1,12.7,8.7a21.6,21.6,0,0,0,5.4,4.6c2,1.2,4.7,1.7,6.8.6h.2a4.4,4.4,0,0,0,1.5-1.2c2.5-2.6.9-5.5.8-10.3,0-.2.1-8.2.1-9.9.1-6.8-.2-13.6-.7-20.4-.9-11.2-2.5-22.6-6.8-33-.5-1.3-1-2.5-1.6-3.7a54.3,54.3,0,0,0-8.9-13.3c-1.8-2.1-4-3.7-5.3-5.8,16.3,5.7,29.3,20.6,38.4,39.4.7,1.4,1.4,2.8,2,4.3s2.1,4.9,3.1,7.5c.1.3.3.7.4,1.1s1.2,3.2,1.7,4.8,1.2,3.6,1.7,5.5A174.4,174.4,0,0,1,285.6,276.1Z"/><path class="cls-2" d="M261.8,329.2h0a84.3,84.3,0,0,1-9.6,6.4c-2,1.1-3.9,2.1-5.9,3a74.1,74.1,0,0,1-12.6,4.6l-3.3.8H230l-2.1.4a56.1,56.1,0,0,1-10.4,1h-5.2l-1.1-.2h-.7l-1.1-.2-1.3-.2-1.2-.2-1.3-.3-1-.2-.9-.2h-.3l-1-.2-4.7-1.3c-2.7-.9-5.5-2-8.3-3.2l-1.2-.6-4.1-2c-16.1-8.8-31.1-24.2-35.3-48h0l-.3-1.5a9.9,9.9,0,0,0-.2-1.7,10,10,0,0,0-.2-1.6h0c0-.5-.1-1.1-.1-1.7s-.1-1.1-.2-1.6v-1.5a13.4,13.4,0,0,1-.1-2v-1.7h0v-.9h0a174.6,174.6,0,0,1,8.6-52.7c.4-1.3.8-2.6,1.3-3.8h0l5.5,24.3c5.1,21.9-12.2,26.8,1.5,54.2,8.9,17.9,21.7,12.4,36.3,15.7,18.6,4.3,11.1,17,25.7,19.3C226.6,331.1,250,334.7,261.8,329.2Z"/><path class="cls-1" d="M270.5,384.1c-1,.4-32,12.2-36.9,12.5-7.7.6-6.5-4.1-6.5-4.1v-1.8l-4.1-9.5,3.5,2.2-3.5-47.6,7.1,6.6v-9.8l6.2,6.5,8.2-10.3c-3,16.7-8.5,57.8-8.4,57.7l23.2-10.1-13.7,10.7Z"/><path class="cls-15" d="M377.2,230.7l-12.4-5.4,5.7-8.6a2.7,2.7,0,0,1,4.9.9,3.6,3.6,0,0,1,.2,1Z"/><ellipse class="cls-1" cx="270.3" cy="220.1" rx="4.7" ry="7" transform="translate(-45.5 72.5) rotate(-14.1)"/><path class="cls-2" d="M282.4,296.3a62.3,62.3,0,0,1-3.9,9.1c-2.9,5.7-3.3,7.5-7.3,11.7-9-3.6-20.7-6.8-24.3-10.4-6-6.1-3.7-11.2-3.7-11.2l12.7,5.2Z"/><path class="cls-1" d="M252.3,282.4l64.8-7.8a4.2,4.2,0,0,0,2.5-1.2l4.9-5.3a1.2,1.2,0,0,1,1.6-.3h0a1.5,1.5,0,0,1,.6,1.5l-1.6,5,8.4-9.9-7,16.3a4.5,4.5,0,0,1-2.4,2.3l-59.3,22.6a18.8,18.8,0,0,1-14-.2c-3.3-1.5-6.2-5.6-6.6-8.3l9.3-1.1a.7.7,0,0,0,.5-.9l-3.2-7.5,2.7-.4Z"/><path class="cls-2" d="M199.5,164.6c-.9,2.9-4.9,7.4-5.4,10.5-2.3,1.5-4.2,4.1-6.5,5.6s-9.3,4.6-13.9,4.6c0,0,4.6-5.5,6.5-7.4l2.8-2.8a55.4,55.4,0,0,1,9.7-7.2,27.9,27.9,0,0,1,3.4-1.8C197.2,165.5,198.4,165.1,199.5,164.6Z"/><path class="cls-1" d="M221,160.6a38.6,38.6,0,0,0-12.9-20.5c-1.6-1.4-3.8-2.7-5.8-1.8s-2.5,3-2,4.8a11.8,11.8,0,0,0,3.4,4.6,17.3,17.3,0,0,1,4,4.1c.8,1.3,1.1,3.4-.3,4.2s-3,0-4.3-.9l-7.6-5.1a11.6,11.6,0,0,0-3.8-2,4.4,4.4,0,0,0-4,1,3.7,3.7,0,0,0-.5,3.5,8.1,8.1,0,0,0,2.1,3.1,22.4,22.4,0,0,0,7.5,5c1.1.5,2.5,1.1,2.7,2.2a2.1,2.1,0,0,1-1.3,2.4,4.2,4.2,0,0,1-2.9.2c-2.2-.5-4.1-1.8-6.1-2.8s-4.5-1.6-6.5-.7-3.5,4.4-2.6,6.9,3.3,4.3,5.9,5.2a27.9,27.9,0,0,0,8.1,1.2C201.7,167.4,210.1,161.6,221,160.6Z"/><path class="cls-3" d="M410.2,300Z"/><path class="cls-2" d="M410.2,300h0Z"/><polygon class="cls-1" points="580 274.3 579.9 279.5 553.1 290.7 526.3 280.2 526.2 280.2 526.1 274.3 526.1 274.2 526.3 274.2 526.3 274.3 553.1 285.3 579.8 274.3 580 274.3"/><polygon class="cls-2" points="579.9 274.3 579.8 274.3 553.1 285.3 526.3 274.3 526.3 274.2 553.1 263.2 579.9 274.3"/><polygon class="cls-1" points="469 287.3 455.9 292.5 445.2 288.6 445.5 285.7 455.9 289.5 468.7 284.4 468.8 284.5 469 287.3"/><polygon class="cls-1" points="392.3 263.2 419.6 274.3 414.6 276.2 392.3 267.2 392.3 263.2 392.4 263.2 392.3 263.2"/><polygon class="cls-1" points="446.5 267.3 424.3 276.3 419.6 274.3 446.3 263.3 446.4 263.3 446.5 267.3"/><polygon class="cls-1" points="428 277.9 427.9 277.9 428 277.9 428 277.9"/><polygon class="cls-1" points="428 281.9 416.5 286.3 407.8 283 407.6 279.1 416.5 282.3 428 278 428 281.9"/><polygon class="cls-2" points="446.5 263.3 446.3 263.3 419.6 274.3 392.3 263.2 392.4 263.2 418.8 252.5 446.5 263.3"/><polygon class="cls-1" points="593.2 257.9 593 263.6 579.7 268.8 566.5 263.6 566.2 257.9 566.2 257.9 579.6 262.9 593.2 258 592.9 257.9 593.2 257.9"/><polygon class="cls-1" points="526.3 280.3 499.5 291.6 489.3 287.1 489.2 281 490.1 280.8 489.3 281.1 499.5 285.6 526.1 274.3 526.2 274.3 526.3 280.3"/><polygon class="cls-2" points="593.2 258 579.6 262.9 566.2 257.9 566.1 257.8 580 252.1 592.9 257.9 593.2 258"/><polygon class="cls-2" points="526.3 274.3 526.1 274.3 499.5 285.6 489.3 281.1 490.1 280.8 516.6 270.3 526.3 274.3"/><polygon class="cls-2" points="450.8 243.1 440.3 247.5 432.5 244.7 432.5 244.7 443.6 240.3 450.7 243.1 450.8 243.1"/><polygon class="cls-2" points="400.6 244.5 400.5 244.6 392.2 248 384.5 244.1 384.2 244 387.1 242.9 392.3 241.1 397.1 243.1 400.6 244.5"/><polygon class="cls-2" points="469 284.3 468.7 284.4 455.9 289.5 445.5 285.7 445.2 285.6 457.6 280.5 469 284.3"/><polygon class="cls-2" points="428 277.9 428 278 416.5 282.3 407.6 279.1 407.5 279.1 414.6 276.2 419.6 274.3 424.3 276.3 427.9 277.9 428 277.9"/><polygon class="cls-2" points="428 277.9 428 278 428 277.9 428 277.9 428 277.9"/><polygon class="cls-2" points="410.3 233.7 392.3 241.1 381.7 236.7 381.5 236.6 400.2 229 409.8 233.4 410.3 233.6 410.3 233.7"/><polygon class="cls-2" points="410.3 233.6 410.3 233.7 410.4 233.6 410.3 233.6 410.3 233.6"/><polygon class="cls-2" points="429.6 228.8 429.6 228.8 422.4 231.4 419 230 418.8 229.9 425.7 227.3 429.6 228.8"/><polygon class="cls-2" points="429.6 228.8 429.6 228.8 429.7 228.8 429.6 228.8 429.6 228.8"/><path class="cls-3" d="M410.2,300Z"/><path class="cls-2" d="M410.2,300h0Z"/><polygon class="cls-1" points="569.1 336.4 569 339.2 561.2 342 553.2 339 553.3 336 561.2 339 568.5 336.3 569.1 336.4"/><polygon class="cls-2" points="569 336.2 568.5 336.3 561.2 339 553.3 336 553.2 336 561.2 333 569 336.2"/><polygon class="cls-1" points="591 316.9 579.7 321.6 569.4 317.2 569.4 314.5 569.8 314.4 579.7 318.6 590.6 314.1 591 314.1 591 316.9"/><polygon class="cls-2" points="591 313.9 590.6 314.1 579.7 318.6 569.8 314.4 569.4 314.2 581.1 309.6 591 313.9"/><path class="cls-2" d="M554.5,479h-6V333.3a2.3,2.3,0,0,1,2.3-2.3h1.3a2.4,2.4,0,0,1,2.4,2.3Z"/><path class="cls-16" d="M490.4,388.4c1.5-1.5,107.7-44,107.7-44l3.9,1-2.1,41-98.5,42.8-23-13Z"/><path class="cls-17" d="M494,394.5c1.5-1.5,109.5-45,109.5-45v43l-98.5,42-22.5-13Z"/><path class="cls-2" d="M526.6,393.4,520.4,413l-2.2.9-7.1-14.4.4,17-5,1.9-.6-23.6L513,392l6.1,12.6,5.3-17,7.1-2.8.6,23.7-5.1,1.9Z"/><path class="cls-2" d="M536.2,383l16.7-6.5v4.3l-11.7,4.6.2,5.1,11.4-4.5v4.4l-11.4,4.4v5.5l11.7-4.5v4.3l-16.7,6.5Z"/><path class="cls-2" d="M556.9,374.9l16.7-6.5v4.3L562,377.3v5.1l11.5-4.4v4.3l-11.5,4.5.2,5.5,11.7-4.6v4.4l-16.8,6.5Z"/><path class="cls-2" d="M583.1,369.2l-6.9,2.7v-4.4l18.8-7.4v4.4l-6.8,2.7.4,19.2-5,2Z"/><polygon class="cls-2" points="627.7 395.2 610.2 411.7 606.6 413.9 624 397.5 612 372 490.5 322.5 490.5 322.2 494.9 320.4 615.7 369.7 627.7 395.2"/><polygon class="cls-18" points="624 397.5 606.6 413.9 606.5 414 491.5 367 490.5 322.5 490.5 322.5 612 372 624 397.5"/><path class="cls-5" d="M505.6,339.1l17.9,7.2-.2,4.4-12.5-5-.3,5.3,12.3,4.9-.2,4.4-12.3-4.9-.2,5.6,12.5,5-.2,4.5-17.9-7.2Z"/><path class="cls-5" d="M532.8,358.1l-.8,16.2-5.4-2.2,1.1-24.1,5.6,2.2,11,20.4.7-15.7,5.4,2.2-1.1,24.1-5.2-2.1Z"/><path class="cls-5" d="M555.4,359.1l10,4c7.9,3.2,13.2,10.2,12.9,17.5s-6,9.8-14,6.6l-10-4Zm9.1,23.6c5,2,8.1-.2,8.3-4.3s-2.4-8.7-7.6-10.8l-4.6-1.8-.7,15.1Z"/><path class="cls-5" d="M583.1,387.3a18.7,18.7,0,0,0,8,6.5c2.9,1.2,4.4.4,4.5-.9s-2.1-3.3-5-5.2-9.4-5.7-9.1-11.1,3.9-5.8,9.9-3.5a22.5,22.5,0,0,1,9.7,7.4L598,383a17.6,17.6,0,0,0-7.2-5.5c-2.4-1-3.7-.5-3.8.9s2,3,4.9,4.9,9.4,5.9,9.2,11.2-3.7,6.4-10.5,3.7a23.8,23.8,0,0,1-10.6-8.1Z"/></g></svg>