<svg xmlns="http://www.w3.org/2000/svg" xmlns:xlink="http://www.w3.org/1999/xlink" viewBox="0 0 691.1 479"><defs><style>.cls-1,.cls-6{fill:#1f1216;}.cls-18,.cls-2{fill:#562636;}.cls-13,.cls-3{fill:#f25187;}.cls-4{fill:url(#linear-gradient);}.cls-5{fill:#f2f2f2;}.cls-6{stroke:#1f1216;stroke-width:2px;}.cls-13,.cls-17,.cls-18,.cls-6{stroke-miterlimit:10;}.cls-7{fill:url(#linear-gradient-2);}.cls-8{opacity:0.9;}.cls-9{fill:#00c9b1;}.cls-10{fill:url(#linear-gradient-3);}.cls-11{fill:#666;}.cls-12{fill:#b3b3b3;}.cls-13{stroke:#562636;}.cls-14{fill:url(#radial-gradient);}.cls-15{fill:gray;}.cls-16{fill:#e24c7f;}.cls-17{fill:none;}.cls-17,.cls-18{stroke:#00c9b1;}.cls-19{opacity:0.6;}</style><linearGradient id="linear-gradient" x1="83.53" y1="452.22" x2="907.53" y2="73.55" gradientUnits="userSpaceOnUse"><stop offset="0" stop-color="#1f1216" stop-opacity="0"/><stop offset="0.48" stop-color="#562636"/></linearGradient><linearGradient id="linear-gradient-2" x1="183.14" y1="85.55" x2="434.2" y2="-8.93" gradientUnits="userSpaceOnUse"><stop offset="0.03" stop-color="#f25187"/><stop offset="0.79" stop-color="#f2f2f2"/></linearGradient><linearGradient id="linear-gradient-3" x1="-821.43" y1="143.35" x2="-490.84" y2="143.35" gradientTransform="matrix(0.71, 0.01, 0.01, 0.72, 579.19, 303.48)" gradientUnits="userSpaceOnUse"><stop offset="0" stop-color="#1f1216" stop-opacity="0"/><stop offset="1" stop-color="#1f1216"/></linearGradient><radialGradient id="radial-gradient" cx="244.1" cy="268.19" fx="217.55470906580393" r="68.74" gradientTransform="matrix(1, 0.06, -0.18, 2.78, 47.84, -493.85)" gradientUnits="userSpaceOnUse"><stop offset="0.17" stop-color="#f25187" stop-opacity="0"/><stop offset="0.75" stop-color="#f2f2f2"/></radialGradient></defs><g id="Layer_7" data-name="Layer 7"><polygon class="cls-1" points="553.1 309.5 530.1 319 524.3 316.5 520.4 318.1 499 309.3 499.1 304.4 499.2 304.4 526.3 315.5 553 304.5 553.1 309.5"/><polygon class="cls-2" points="553.1 304.5 553 304.5 526.3 315.5 499.2 304.4 499 304.3 526.3 293.1 553.1 304.5"/><polygon class="cls-1" points="462.4 297.6 462.4 300.7 443.5 308.7 439.4 307.2 461 297.6 457.5 296.1 462.4 297.6"/><polygon class="cls-1" points="551.9 331.7 528.9 341.3 523.2 339.1 551.7 327.9 551.7 327.9 551.9 331.7"/><polygon class="cls-1" points="484.7 311 484.7 315.7 474.4 320.5 467.5 317.9 483.5 311.1 484.7 311"/><polygon class="cls-1" points="387.5 274.7 386.9 277.1 374.9 282.5 370.4 280.8 386.1 274.6 387.5 274.7"/><polygon class="cls-1" points="377.5 263.6 353.6 274.4 348.8 272.5 375.3 261.7 377.2 261.3 377.5 263.6"/><path class="cls-3" d="M410.2,297Z"/><path class="cls-2" d="M410.2,297a.1.1,0,0,0-.1.1.1.1,0,0,0,.1-.1Z"/><polygon class="cls-1" points="450.8 240.1 450.8 240.2 450.7 240.1 450.8 240.1"/><polygon class="cls-1" points="450.8 244.2 440.3 248.5 432.5 245.7 432.5 241.8 440.3 244.5 450.8 240.2 450.8 244.2"/><polygon class="cls-1" points="400.6 245.6 392.2 249 384.2 245 384.1 241.1 384.5 241.2 392.2 245 400.5 241.6 400.6 245.6"/><polygon class="cls-1" points="410.3 230.6 409.8 230.4 410.3 230.4 410.3 230.6"/><polygon class="cls-1" points="410.4 234.7 397.1 240.1 392.3 238.1 387.1 240 381.5 237.7 381.4 233.8 381.7 233.7 392.3 238.1 410.3 230.7 410.4 234.7"/><polygon class="cls-1" points="429.7 229.8 422.4 232.4 418.8 231 418.8 227.1 419 227 422.4 228.4 429.6 225.9 429.7 229.8"/><path class="cls-4" d="M551.8,327.9h-.1l-28.5,11.2,5.7,2.2,9.8,3.8L220.6,476.4,57.4,479l1-117.3L313.2,259l15.1,5.7,27.6-11.5,20.2,8.1H376l-27.2,11.1,4.8,1.9,2.5.9L371,269l15.2,5.5h-.1l-15.7,6.2,4.5,1.7,25.5,9.8,6.8-2.6,10.5,4.4,18.2-7.6,21.6,9.6,3.5,1.5-21.6,9.6,4.1,1.5,11.2,4.3,16.7-6.8,12.2,4.9h-.1l-16,6.8,6.9,2.6,20.9,8,25.1-10.4,3.9-1.6,5.8,2.5Z"/><polygon class="cls-1" points="539.2 352.1 296.3 477 217.8 477.5 401.2 401.8 420.9 393.6 440 385.7 459.6 377.6 538.7 345 539.2 352.1"/><polygon class="cls-5" points="459.6 377.6 440 385.7 420.9 393.6 401.2 401.8 205.7 321.2 261.4 296.2 459.6 377.6"/><polygon class="cls-2" points="459.6 377.6 440 385.7 420.6 377.8 440.4 369.6 459.6 377.6"/><polygon class="cls-2" points="420.6 361.6 401.3 353.5 381.5 361.6 401.1 369.7 420.6 361.6"/><polygon class="cls-2" points="381.5 345.3 362.2 337.3 342.8 345.3 362.2 353.5 381.5 345.3"/><polygon class="cls-2" points="342.6 329.3 323.1 321.2 303.8 329.2 323.2 337.4 342.6 329.3"/><polygon class="cls-2" points="303.5 313.1 283.9 305.1 264.4 313.1 284.7 321.2 303.5 313.1"/><polygon class="cls-2" points="264.8 329.1 244.8 321.2 224.9 329.1 245 337.3 264.8 329.1"/><polygon class="cls-2" points="264.4 345.4 284.1 337.3 303.8 345.3 283.9 353.5 264.4 345.4"/><polygon class="cls-2" points="303.4 361.6 323.2 369.6 342.8 361.5 323.1 353.5 303.4 361.6"/><polygon class="cls-2" points="342.8 377.7 362.2 369.7 381.9 377.8 361.8 385.9 342.8 377.7"/><polygon class="cls-2" points="420.9 393.6 401.2 401.8 381.5 393.7 401.1 385.7 420.9 393.6"/><polygon class="cls-2" points="381.9 377.8 401.1 369.7 420.6 377.8 401.1 385.7 381.9 377.8"/><polygon class="cls-2" points="381.5 361.6 362.2 353.5 342.8 361.5 362.2 369.7 381.5 361.6"/><polygon class="cls-2" points="342.8 345.3 323.1 353.5 303.8 345.3 323.2 337.4 342.8 345.3"/><polygon class="cls-2" points="303.8 329.2 284.7 321.2 264.8 329.1 284.1 337.3 303.8 329.2"/><path class="cls-3" d="M329.8,274.6l24.7,10.3-8,3.8-17.3-7.2-9.5,4.5,16.9,7.1-8.1,3.8-16.9-7.1-18.3,8.6-7.4-3.1Z"/><path class="cls-3" d="M359.7,287.1l7.4,3.1-43.9,20.7-7.4-3.1Z"/><path class="cls-3" d="M367,303l-29.4,13.9-7.5-3.1L374,293.1l7.7,3.2-12.3,20.2,28.4-13.4,7.5,3.1-43.9,20.7-7.2-3Z"/><path class="cls-3" d="M412.2,309.1l7.4,3.1-43.9,20.7-7.4-3.1Z"/><path class="cls-3" d="M397.6,330.2c-.8,2.6.3,5.4,5.1,7.5a14.9,14.9,0,0,0,11,.2c3.3-1.6,1.4-3.4-1.4-5.6s-9.4-7.2.4-11.8c7.3-3.5,18.2-4.2,26.4-.7,5.6,2.3,8.1,5.2,7.5,8.6l-11,1.5c.5-2.8-1.7-5.1-5.1-6.5a11.8,11.8,0,0,0-9.6,0c-3,1.4-1,3,1.8,5.3s9.3,7.3-.4,11.9c-8.1,3.7-18.7,4.7-28.1.8-6.7-2.9-8.7-6.2-7.8-9.5Z"/><path class="cls-3" d="M456.3,350.2l-16.4-6.9L421.4,352l-7.4-3.1,43.9-20.7,7.4,3.1-17.2,8.2,16.5,6.9,17.2-8.2,7.5,3.2-43.9,20.7-7.5-3.2Z"/><path class="cls-2" d="M222.8,335.7h0Z"/><path class="cls-6" d="M323.6,34.5,305.7,70.1a1.7,1.7,0,0,1-.6.6L163.6,129.5l-2.9,1.4-5.1-2.5a1.7,1.7,0,0,1-.9-1.6V61.2a1.8,1.8,0,0,1,1-1.6L297.1,1.2a2.6,2.6,0,0,1,1.5-.1l7.1,2.8.6,1.3,17.3,28.2A1.1,1.1,0,0,1,323.6,34.5Z"/><path class="cls-6" d="M233.2,151.5h0a1.5,1.5,0,0,0,1-1.4l3-77h-6V150A1.5,1.5,0,0,0,233.2,151.5Z"/><path class="cls-7" d="M323.1,34.2l-18,35.6a.9.9,0,0,1-.6.6L161.4,129.9a1,1,0,0,1-1.3-.9l-.4-64.6a1.1,1.1,0,0,1,.6-.9L304,3.9a1.3,1.3,0,0,1,1.5.5L323,33A1.1,1.1,0,0,1,323.1,34.2Z"/><path class="cls-2" d="M195,59.2,188.4,62,188,87.3a9.2,9.2,0,0,1-5.4,8.4,5.5,5.5,0,0,1-5.4-.4l-3.3,7.5c.4.3,1.5,1.4,2,1.5l3.3-7.5a5.5,5.5,0,0,0,5.4.4,9.3,9.3,0,0,0,5.5-8.4l.3-25.3,7.3-3.1Z"/><path class="cls-2" d="M218.7,48.4c-10.5,3.9-18,15.8-18.1,27.3A17.4,17.4,0,0,0,207,88.8c-2.8-2.2-4.5-6.2-4.4-11.6.2-11.5,7.9-22.9,18.2-27.3,4.7-2,8.7-2.1,11.8-.5A19.1,19.1,0,0,0,218.7,48.4Zm8.2,8.3c1.4,1.5,2.1,3.9,2,6.9-.1,7-4.3,14.2-10.6,16.9-2.5,1-4.6,1.1-6.2.4,1.8,2.1,4.6,2.6,8.2,1.1,6.4-2.7,10.6-9.9,10.7-16.9C231,60.7,229.5,57.7,226.9,56.7Z"/><path class="cls-2" d="M262,40.2a5.1,5.1,0,0,1,.2,1.3,6.7,6.7,0,0,1-4.1,5.9l-7.1,3v2.4l9.1-3.9a6.6,6.6,0,0,0,4.1-5.9C264.2,41.3,263.4,40.2,262,40.2Zm.4,15a7.7,7.7,0,0,1,.2,1.5,7.1,7.1,0,0,1-4.5,6.4l-7.3,3.1v2.4l9.4-4a7.2,7.2,0,0,0,4.5-6.4C264.7,56.5,263.9,55.3,262.4,55.2Zm-2.5-23.7-18.1,7.7-.5,37.9,2.1,1.5.5-37.9L262,33c2.6-1.1,4.8-1.3,6.4-.7C266.9,30.4,264,29.8,259.9,31.5Zm7.3,17-1.5,1.2a4.4,4.4,0,0,1,3,.1A5.8,5.8,0,0,0,267.2,48.5Z"/><path class="cls-2" d="M301.1,18.7c-3.4-2.1-7.9-1.9-13.4.4-8,3.4-13,10.6-13.1,16.9a8.8,8.8,0,0,0,4.4,7.4c-1.5-1-2.4-2.7-2.4-5.9.1-6.3,5.1-13.5,13.2-16.9,5.5-2.3,10-2.5,13.3-.4ZM288.8,33.8a22.8,22.8,0,0,1-4.7.5c.3,2.1,3.1,1.6,6.8,1s8.1-1.4,10.6.6C299.1,33.4,292.8,33.1,288.8,33.8Zm5.2,9.5a1.5,1.5,0,0,1,.1.7c0,2.2-2,5.1-6,6.8s-8.5,1.3-10.9-.4l-4.1,7.8a11.3,11.3,0,0,0,2.1,1.5l4.1-7.8c2.4,1.7,6.1,2.5,10.8.4s6-4.6,6-6.8S295.4,43.4,294,43.3Z"/><g class="cls-8"><path class="cls-9" d="M197.7,60.9V86.4a19.4,19.4,0,0,1-12.1,18.4c-3.4,1.5-6.6,1.9-9.1.4l3.2-7.6a5.5,5.5,0,0,0,5.4.3,9.1,9.1,0,0,0,5.3-8.4V64.1Z"/><path class="cls-9" d="M233.5,50.1l.7.5-.3-.2Zm0,0h0l-.4-.3Z"/><path class="cls-9" d="M234.3,50.8h0a.1.1,0,0,1-.1-.1l-.3-.2-.4-.3h0l-.4-.3-.7-.3c-3-1.5-7.1-1.4-11.8.7-10.2,4.5-17.8,16-17.8,27.4,0,5.5,1.7,9.4,4.6,11.6h.1c3.2,2.2,7.8,2.4,13.1.1,10.3-4.6,17.9-16.1,17.9-27.5C238.5,56.8,237,53,234.3,50.8Zm-13.7,6.5c2.5-1,4.6-1.2,6.3-.5s4.1,4.1,4.1,8.4c0,7-4.1,14.2-10.4,17-3.6,1.6-6.5,1.1-8.2-1s-2.1-3.9-2.1-6.9C210.3,67.2,214.3,60.1,220.6,57.3Z"/><path class="cls-9" d="M268.5,49.4a5.1,5.1,0,0,0-3-.1,7.9,7.9,0,0,0,1.5-1.2,13.9,13.9,0,0,0,4.4-10c0-3-1.2-5.3-3.4-6.1s-3.7-.4-6.4.7l-18,8V78.5l18.5-8.1A16.3,16.3,0,0,0,272,55.8C272,52.4,270.6,50.1,268.5,49.4Zm-17.6.9v-6l9.1-4a3.8,3.8,0,0,1,1.7-.4c1.4,0,2.3,1.1,2.3,2.8a6.6,6.6,0,0,1-4,5.9l-9.1,4.1Zm9.3,14-9.4,4.2v-9l9.3-4.1a6.3,6.3,0,0,1,2.1-.5c1.5.1,2.3,1.3,2.3,3A7,7,0,0,1,260.2,64.3Z"/><path class="cls-9" d="M303.3,40.7c0,6.9-4.5,14.1-13.7,18.2-6.5,2.9-11.2,2.5-14.5.4l4-7.9c2.4,1.7,6.2,2.4,10.9.3s5.9-4.7,5.9-6.9a2,2,0,0,0-2.1-2.2,17.4,17.4,0,0,0-4.8.4c-3.5.7-7.6,1.5-10.2-.1h0c-1.5-.9-2.5-2.7-2.5-5.8,0-6.3,4.9-13.6,13-17.2,5.4-2.4,9.9-2.5,13.3-.6L298.5,27c-2.7-1.6-6.4-1.3-9.8.2s-5,3.8-5,6.1a.6.6,0,0,0,.1.4c.3,2.1,3,1.6,6.7,1s8.2-1.6,10.7.4h0C302.5,36.2,303.3,37.9,303.3,40.7Z"/></g><path class="cls-10" d="M228.9,390.7s0-2.1-2.7-8.5c.6,0,7.4,11.8,7.4,11.8-14.4-.8-33.1-1.7-33.2-1.3a5.1,5.1,0,0,1-2,2.5l-1,.7-3.2,1.6-1.9.7,9.1,1.3c1,.1,1.4.4.8.6l-11.9,4.8-6.2,2.5.9,1.7c.1.2-.2.4-.9.5l-11.6,2.6,5-2.2L153,419.9l-1.6.7h0l9.3,1.3h1.1l-11.7.9h-6l-3.8-.4L81.8,414c-2.5-.4-3.3-1-1.8-1.6l3.3-1.3,8.8-3.5h-3c-18.3.1-36.8.2-54.9-2.8l-1.8-.4-3.1-.7h0l-2.2-.6h-.2a9.1,9.1,0,0,0,1.6,1c-8.1.3-16.2.3-24.2-.2-2-.1-4.2-.4-4.3-.7s1.6-.7,3.5-.8a51.9,51.9,0,0,1,5.6.1c1.8.1,3.6.3,5.5.3a11.8,11.8,0,0,0,3.7-.4c.2-.3-1.4-.5-2.7-.6l-8.1-.8L4,400.5c-.9-.2-1.4-.4-.8-.7a12.3,12.3,0,0,1,2.9-.4H9.8c2.9.1,5.6.4,7.9.7a15.7,15.7,0,0,0,3.2.2,3,3,0,0,0,1.5-.3c0-.1,0-.2-.1-.2s-.5-.3-1-.4-3.4-.5-5.2-.7-3.5-.5-3.6-.9,2.3-1,5-1a41.9,41.9,0,0,1,6.3.2l.5-.3.5-.3c20.8-12.4,50.3-12.4,74-14.6a371,371,0,0,1,68.3-.2c10.7-.9,17-4.6,27.7-5.5l15.7,2.7c2-.1-5.8.4-12,.5-4,.1-12.9,3.2-17.8,4.1l1.1.2a92.5,92.5,0,0,1,11.9,2.7l6.8,2.8C211.2,389.4,214.5,389.9,228.9,390.7Z"/><path class="cls-1" d="M199.5,374l8,3.3-19,.4c-7.7.6-6.5-4.1-6.5-4.1l-4.2-56.7,7,6.6v-9.8l6.2,6.5,8.2-10.3c-3,16.7-8.5,57.8-8.3,57.7l19.5-8.9-10,9.5,26.7-5.9S211.1,369.4,199.5,374Z"/><path class="cls-5" d="M377.2,227.8l-12.4-5.4-2.4,2.9-56.3,69.6L288.2,317a3.1,3.1,0,0,1-3.7.9l-79.3-32.2L270,204.4l13.6-17.1,5-6.2a7.6,7.6,0,0,1,8.8-2.4l72.1,29.1a8.8,8.8,0,0,1,3.5,2.4,9.8,9.8,0,0,1,2.6,5.4Z"/><path class="cls-11" d="M292.1,193l-1.5-.6-2.7,3.7-3-1.2,8.3-10.9,5.6,2.3c2.5,1.1,2.8,3.3,1.2,5.3a5.4,5.4,0,0,1-4.7,2.3l-.7,5-3.4-1.4Zm4.5-4.5-2.3-1-1.8,2.5,2.3,1a2,2,0,0,0,2.3-.7A1.1,1.1,0,0,0,296.6,188.5Z"/><path class="cls-11" d="M304.4,188.6l8.3,3.5-1.8,2.3-5.4-2.2-1.4,1.8,5.3,2.2-1.8,2.4-5.3-2.2-1.4,2,5.3,2.2-1.8,2.4-8.3-3.4Z"/><path class="cls-11" d="M309.6,200.4a3.9,3.9,0,0,0,2.5,2.9,2,2,0,0,0,2.4-.3c.4-.6-.1-1.1-1.1-1.9s-3.9-2.7-1.9-5.3,4.1-2.7,7-1.5a5.4,5.4,0,0,1,3.5,3.4l-3.1,1.4a4.2,4.2,0,0,0-2.4-2.5c-.9-.4-1.6-.2-1.9.3s.1,1.1,1.2,1.8,3.7,2.8,1.9,5.3-4.5,2.9-7.5,1.7-3.4-2.3-3.7-3.9Z"/><path class="cls-11" d="M324.6,197l3,1.3-4.8,6.4c-1,1.3-1,2.5.6,3.2a3.2,3.2,0,0,0,3.9-1.3l4.9-6.4,2.9,1.2-4.9,6.5a6.9,6.9,0,0,1-8.7,2.5c-3.6-1.5-3.8-4.1-1.8-6.8Z"/><path class="cls-11" d="M344.4,209.9l-8.4,6.2-1.3-.5,2.7-8.6-5.6,7.4-2.9-1.2,8.3-10.9,4,1.6-2.3,7.2,7.1-5.2,4,1.7-8.2,10.9-3-1.2Z"/><path class="cls-11" d="M352,208.4l8.3,3.5-1.8,2.4-5.3-2.3-1.4,1.9L357,216l-1.8,2.4-5.2-2.1-1.5,1.9,5.4,2.3-1.8,2.3-8.3-3.4Z"/><polygon class="cls-11" points="336.5 229.4 276.4 204.3 278.5 201.9 338.9 226.9 336.5 229.4"/><path class="cls-12" d="M309.6,265.1a129.2,129.2,0,0,1-3.5,29.8L288.2,317a3.1,3.1,0,0,1-3.7.9l-79.3-32.2L270,204.4a36.6,36.6,0,0,1,9.1,1.4l3.1,1.1h0l3.5,1.7,1.8,1c11.4,7.3,18,21.2,20.7,37.2.2,1.1.3,2.3.5,3.5s.5,3.9.6,5.9a1.9,1.9,0,0,0,.1.8c0,1.3.1,2.6.1,3.9S309.6,263.7,309.6,265.1Z"/><polygon class="cls-11" points="338.9 238.4 273.2 211.2 274.3 208.4 340.6 235.8 338.9 238.4"/><polygon class="cls-11" points="325.2 240.2 270.2 216.5 271.3 213.8 327 237.6 325.2 240.2"/><polygon class="cls-11" points="331.4 251.2 269.9 225.6 271 222.8 332.9 248.9 331.4 251.2"/><polygon class="cls-11" points="318 255.5 293.9 245.6 296 243 319.8 253.1 318 255.5"/><polygon class="cls-11" points="312 261.5 288 251.5 290.1 249.5 313.3 259 312 261.5"/><polygon class="cls-11" points="307.3 268 283.2 258.1 284.3 255.3 309.1 265.6 307.3 268"/><polygon class="cls-11" points="302.5 274.5 278.4 264.6 279.6 261.9 304.9 271.5 302.5 274.5"/><path class="cls-1" d="M278,220.2s13.6,5.8,18.5,1.1c0,0-3.8,11.9-15,13.3l-3.5.7-4.9-7.8Z"/><path class="cls-13" d="M285.6,273.1a76.3,76.3,0,0,1-2.2,18.5,66.1,66.1,0,0,1-3.1,9.5,68.5,68.5,0,0,1-9.3,15.6,58.1,58.1,0,0,1-6.4,6.7l-2.8,2.5-1.6,1.4h-.1a77.1,77.1,0,0,1-9.6,6.5,65.4,65.4,0,0,1-5.9,3c-2.7,1.2-5.5,2.3-8.2,3.2a41.4,41.4,0,0,1-4.3,1.3l-3.4.9h-.4l-2.1.4a56.1,56.1,0,0,1-10.4,1h-2.2a68.3,68.3,0,0,1-17.6-3.3,69.4,69.4,0,0,1-8.2-3.2l-1.3-.6-4-2c-16.2-8.7-31.2-24.2-35.4-48a81.7,81.7,0,0,1-1.1-13.4v-1a178.2,178.2,0,0,1,8.6-52.7c.4-1.3.9-2.5,1.3-3.8h0c6-17,14.7-32.2,25.9-42.6l1.3-1.2a58.3,58.3,0,0,1,9.6-6.9l3.4-1.8,3.4-1.4a44.5,44.5,0,0,1,16.3-3,33.9,33.9,0,0,1,4.5.2h0a43.4,43.4,0,0,1,5.2.8l2.7.7a24.6,24.6,0,0,1,2.9.9c16.3,5.8,29.3,20.6,38.4,39.4.7,1.4,1.4,2.9,2,4.3s2.1,5,3.1,7.5c.1.4.3.7.4,1.1s1.2,3.2,1.7,4.9,1.2,3.6,1.7,5.4A174.9,174.9,0,0,1,285.6,273.1Z"/><path class="cls-14" d="M285.6,273.1a76.3,76.3,0,0,1-2.2,18.5,66.1,66.1,0,0,1-3.1,9.5,68.5,68.5,0,0,1-9.3,15.6,58.1,58.1,0,0,1-6.4,6.7l-2.8,2.5-1.6,1.4h-.1a77.1,77.1,0,0,1-9.6,6.5,65.4,65.4,0,0,1-5.9,3c-2.7,1.2-5.5,2.3-8.2,3.2-1.5-4.9.4-11.2,2.3-16.4a12.2,12.2,0,0,0,.7-1.7,21.7,21.7,0,0,1-.6-5.7c-.5-10.2-6.8-19.1-13.2-27.1s-13.3-16-15.8-26c-1.2-5.1-1-11.1,2.7-15s9.5-4.5,14.4-2.9,9,5,12.7,8.7a23.9,23.9,0,0,0,5.4,4.6c2,1.1,4.7,1.6,6.8.5h.2a5.8,5.8,0,0,0,1.5-1.1c2.5-2.7.9-5.6.8-10.4,0-.2.1-8.1.1-9.9.1-6.8-.2-13.6-.7-20.4-.9-11.2-2.5-22.5-6.8-33-.5-1.2-1-2.5-1.6-3.7a56.3,56.3,0,0,0-8.9-13.3c-1.8-2.1-4-3.6-5.3-5.8,16.3,5.8,29.3,20.6,38.4,39.4.7,1.4,1.4,2.9,2,4.3s2.1,5,3.1,7.5c.1.4.3.7.4,1.1s1.2,3.2,1.7,4.9,1.2,3.6,1.7,5.4A174.9,174.9,0,0,1,285.6,273.1Z"/><path class="cls-2" d="M261.8,326.3h0a73.7,73.7,0,0,1-9.6,6.5c-2,1.1-3.9,2.1-5.9,3a83,83,0,0,1-12.6,4.5l-3.3.9H230l-2.1.4a56.1,56.1,0,0,1-10.4,1h-8.1l-1.3-.3-1.2-.2-1.3-.2-1-.2-.9-.2h-.3l-1-.3-4.7-1.3a78.2,78.2,0,0,1-8.3-3.2l-1.2-.6-4.1-2c-16.1-8.7-31.1-24.1-35.3-48h0l-.3-1.6a8.8,8.8,0,0,0-.2-1.6,8.8,8.8,0,0,0-.2-1.6h0c0-.6-.1-1.1-.1-1.7s-.1-1.1-.2-1.7v-1.5a12.1,12.1,0,0,1-.1-1.9v-1.8h0v-1h0a175.1,175.1,0,0,1,8.6-52.7c.4-1.3.8-2.5,1.3-3.8h0l5.5,24.4c5.1,21.9-12.2,26.7,1.5,54.2,8.9,17.9,21.7,12.4,36.3,15.7,18.6,4.2,11.1,17,25.7,19.2C226.6,328.1,250,331.7,261.8,326.3Z"/><path class="cls-1" d="M270.5,381.2c-1,.3-32,12.1-36.9,12.5-7.7.6-6.5-4.1-6.5-4.1v-1.8l-4.1-9.5,3.5,2.2-3.5-47.6,7.1,6.6v-9.9l6.2,6.6,8.2-10.4c-3,16.7-8.5,57.9-8.4,57.8s23.2-10.2,23.2-10.2l-13.7,10.7Z"/><path class="cls-15" d="M377.2,227.8l-12.4-5.4,5.7-8.7a2.7,2.7,0,0,1,4.9,1,2.9,2.9,0,0,1,.2.9Z"/><ellipse class="cls-1" cx="270.3" cy="217.2" rx="4.7" ry="7" transform="translate(-44.8 72.4) rotate(-14.1)"/><path class="cls-2" d="M282.4,293.3a63.6,63.6,0,0,1-3.9,9.2c-2.9,5.6-3.3,7.4-7.3,11.6-9-3.5-20.7-6.8-24.3-10.4-6-6.1-3.7-11.1-3.7-11.1l12.7,5.2Z"/><path class="cls-1" d="M252.3,279.4l64.8-7.7a4.4,4.4,0,0,0,2.5-1.3l4.9-5.3a1.3,1.3,0,0,1,1.6-.2h0a1.4,1.4,0,0,1,.6,1.5l-1.6,4.9,8.4-9.9-7,16.4a4.9,4.9,0,0,1-2.4,2.3l-59.3,22.6a19.3,19.3,0,0,1-14-.2c-3.3-1.5-6.2-5.7-6.6-8.4l9.3-1.1a.6.6,0,0,0,.5-.9l-3.2-7.5,2.7-.3Z"/><path class="cls-2" d="M199.5,161.7c-.9,2.9-4.9,7.4-5.4,10.5-2.3,1.4-4.2,4-6.5,5.6s-9.3,4.6-13.9,4.6c0,0,4.6-5.6,6.5-7.4l2.8-2.8a56,56,0,0,1,9.7-7.3l3.4-1.8Z"/><path class="cls-1" d="M221,157.7a38.5,38.5,0,0,0-12.9-20.6c-1.6-1.3-3.8-2.6-5.8-1.8a4.1,4.1,0,0,0-2,4.9,11.5,11.5,0,0,0,3.4,4.5,22.1,22.1,0,0,1,4,4.1c.8,1.4,1.1,3.4-.3,4.3s-3-.1-4.3-.9l-7.6-5.2a11.3,11.3,0,0,0-3.8-1.9,3.9,3.9,0,0,0-4,1,3.6,3.6,0,0,0-.5,3.5,8.6,8.6,0,0,0,2.1,3,22.7,22.7,0,0,0,7.5,5.1c1.1.4,2.5,1,2.7,2.2a2.2,2.2,0,0,1-1.3,2.4,4.8,4.8,0,0,1-2.9.2c-2.2-.5-4.1-1.8-6.1-2.8s-4.5-1.6-6.5-.7-3.5,4.3-2.6,6.8a9.2,9.2,0,0,0,5.9,5.3,27.8,27.8,0,0,0,8.1,1.1C201.7,164.5,210.1,158.6,221,157.7Z"/><path class="cls-3" d="M410.2,297Z"/><path class="cls-2" d="M410.2,297a.1.1,0,0,0-.1.1.1.1,0,0,0,.1-.1Z"/><polygon class="cls-1" points="580 271.3 579.9 276.5 553.1 287.7 526.3 277.3 526.2 277.3 526.1 271.4 526.1 271.3 526.3 271.3 526.3 271.3 553.1 282.4 579.8 271.3 580 271.3"/><polygon class="cls-2" points="579.9 271.3 579.8 271.3 553.1 282.4 526.3 271.3 526.3 271.3 553.1 260.2 579.9 271.3"/><polygon class="cls-1" points="469 284.4 455.9 289.5 445.2 285.7 445.5 282.7 455.9 286.5 468.7 281.5 468.8 281.5 469 284.4"/><polygon class="cls-1" points="392.3 260.2 419.6 271.3 414.6 273.3 392.3 264.2 392.3 260.2 392.4 260.2 392.3 260.2"/><polygon class="cls-1" points="446.5 264.3 424.3 273.4 419.6 271.3 446.3 260.4 446.4 260.4 446.5 264.3"/><polygon class="cls-1" points="428 275 427.9 274.9 428 274.9 428 275"/><polygon class="cls-1" points="428 279 416.5 283.4 407.8 280 407.6 276.2 416.5 279.4 428 275 428 279"/><polygon class="cls-2" points="446.5 260.3 446.3 260.4 419.6 271.3 392.3 260.2 392.4 260.2 418.8 249.5 446.5 260.3"/><polygon class="cls-1" points="593.2 254.9 593 260.7 579.7 265.8 566.5 260.6 566.2 254.9 566.2 254.9 579.6 260 593.2 255 592.9 254.9 593.2 254.9"/><polygon class="cls-1" points="526.3 277.3 499.5 288.7 489.3 284.2 489.2 278 490.1 277.8 489.3 278.2 499.5 282.7 526.1 271.4 526.2 271.3 526.3 277.3"/><polygon class="cls-2" points="593.2 255 579.6 260 566.2 254.9 566.1 254.8 580 249.2 592.9 254.9 593.2 255"/><polygon class="cls-2" points="526.3 271.3 526.1 271.4 499.5 282.7 489.3 278.2 490.1 277.8 516.6 267.3 526.3 271.3"/><polygon class="cls-2" points="450.8 240.2 440.3 244.5 432.5 241.8 432.5 241.7 443.6 237.4 450.7 240.1 450.8 240.2"/><polygon class="cls-2" points="400.6 241.6 400.5 241.6 392.2 245 384.5 241.2 384.2 241 387.1 240 392.3 238.1 397.1 240.1 400.6 241.6"/><polygon class="cls-2" points="469 281.4 468.7 281.5 455.9 286.5 445.5 282.7 445.2 282.7 457.6 277.5 469 281.4"/><polygon class="cls-2" points="428 275 428 275 416.5 279.4 407.6 276.2 407.5 276.1 414.6 273.3 419.6 271.3 424.3 273.4 427.9 274.9 428 275"/><polygon class="cls-2" points="428 275 428 275 428 275 428 275 428 275"/><polygon class="cls-2" points="410.3 230.7 392.3 238.1 381.7 233.7 381.5 233.7 400.2 226 409.8 230.4 410.3 230.6 410.3 230.7"/><polygon class="cls-2" points="410.3 230.6 410.3 230.7 410.4 230.7 410.3 230.6 410.3 230.6"/><polygon class="cls-2" points="429.6 225.8 429.6 225.9 422.4 228.4 419 227 418.8 227 425.7 224.3 429.6 225.8"/><polygon class="cls-2" points="429.6 225.8 429.6 225.9 429.7 225.8 429.6 225.8 429.6 225.8"/><path class="cls-3" d="M410.2,297Z"/><path class="cls-2" d="M410.2,297a.1.1,0,0,0-.1.1.1.1,0,0,0,.1-.1Z"/><polygon class="cls-1" points="569.1 333.4 569 336.2 561.2 339 553.2 336 553.3 333.1 561.2 336 568.5 333.4 569.1 333.4"/><polygon class="cls-2" points="569 333.2 568.5 333.4 561.2 336 553.3 333.1 553.2 333 561.2 330 569 333.2"/><polygon class="cls-1" points="591 313.9 579.7 318.6 569.4 314.2 569.4 311.5 569.8 311.4 579.7 315.6 590.6 311.1 591 311.2 591 313.9"/><polygon class="cls-2" points="591 310.9 590.6 311.1 579.7 315.6 569.8 311.4 569.4 311.2 581.1 306.6 591 310.9"/><path class="cls-2" d="M600.6,479h-6V333.3a2.3,2.3,0,0,1,2.3-2.3h1.3a2.4,2.4,0,0,1,2.4,2.3Z"/><path class="cls-16" d="M536.5,388.4c1.5-1.5,107.7-44,107.7-44l3.9,1-2.1,41-98.5,42.8-23-13Z"/><path class="cls-17" d="M540.1,394.5c1.5-1.5,109.5-45,109.5-45v43l-98.5,42-22.5-13Z"/><path class="cls-2" d="M572.7,393.4,566.5,413l-2.2.9-7.1-14.4.4,17-5,1.9-.6-23.6,7-2.8,6.1,12.6,5.4-17,7.1-2.8.6,23.7-5.1,1.9Z"/><path class="cls-2" d="M582.3,383l16.7-6.5v4.3l-11.7,4.6.2,5.1L599,386v4.4l-11.4,4.4v5.5l11.7-4.5v4.3l-16.7,6.5Z"/><path class="cls-2" d="M603,374.9l16.7-6.5v4.3l-11.7,4.6v5.1l11.5-4.4v4.3l-11.5,4.5.2,5.5,11.7-4.6v4.4l-16.8,6.5Z"/><path class="cls-2" d="M629.2,369.2l-6.9,2.7v-4.4l18.8-7.4v4.4l-6.9,2.7.5,19.2-5,2Z"/><polygon class="cls-2" points="673.8 395.2 656.3 411.7 652.7 413.9 670.1 397.5 658.1 372 536.6 322.5 536.6 322.2 541 320.4 661.8 369.7 673.8 395.2"/><polygon class="cls-18" points="670.1 397.5 652.7 413.9 652.6 414 537.6 367 536.6 322.5 536.6 322.5 658.1 372 670.1 397.5"/><path class="cls-5" d="M551.6,339.1l18,7.2-.2,4.4-12.6-5-.2,5.3,12.3,4.9-.2,4.4-12.3-4.9-.2,5.6,12.5,5-.2,4.5-17.9-7.2Z"/><path class="cls-5" d="M578.8,358.1l-.7,16.2-5.4-2.2,1.1-24.1,5.5,2.2,11.1,20.4.7-15.7,5.4,2.2-1.1,24.1-5.2-2.1Z"/><path class="cls-5" d="M601.5,359.1l10,4c7.9,3.2,13.2,10.2,12.9,17.5s-6.1,9.8-14,6.6l-10-4Zm9.1,23.6c5,2,8.1-.2,8.3-4.3s-2.4-8.7-7.6-10.8l-4.6-1.8-.7,15.1Z"/><path class="cls-5" d="M629.2,387.3a17.8,17.8,0,0,0,7.9,6.5c3,1.2,4.5.4,4.6-.9s-2.1-3.3-5-5.2-9.4-5.7-9.1-11.1,3.9-5.8,9.9-3.5a22.5,22.5,0,0,1,9.7,7.4l-3.1,2.5a17.6,17.6,0,0,0-7.2-5.5c-2.4-1-3.8-.5-3.8.9s2,3,4.9,4.9,9.4,5.9,9.2,11.2-3.7,6.4-10.5,3.7a23.8,23.8,0,0,1-10.6-8.1Z"/></g></svg>