<svg width="86" height="71" viewBox="0 0 86 71" fill="none" xmlns="http://www.w3.org/2000/svg">
<g clip-path="url(#clip0)">
<path d="M42.6762 0.1875L32.0734 69.445L31.9409 70.3125H42.9413L53.5441 1.05503L53.8091 0.1875H42.6762ZM26.772 10.7424L23.9888 12.7666L2.51816 27.37L0 29.105V41.5396L2.51816 43.13L23.9888 57.7334L26.772 59.7576V45.8772L11.2655 35.3223L26.772 24.7674C26.772 24.6228 26.772 10.7424 26.772 10.7424ZM58.978 10.7424V24.6228L74.4845 35.1777L58.978 45.7326V59.613L61.7612 57.5888L83.2318 42.9854L85.75 41.395V29.105L83.2318 27.5146L61.7612 12.7666L58.978 10.7424Z" fill="#F25187"/>
</g>
<defs>
<clipPath id="clip0">
<rect width="85.75" height="70.125" fill="white" transform="translate(0 0.1875)"/>
</clipPath>
</defs>
</svg>
