<svg xmlns="http://www.w3.org/2000/svg" xmlns:xlink="http://www.w3.org/1999/xlink" viewBox="0 0 586.2 616.2"><defs><style>.cls-1{opacity:0.6;}.cls-2{fill:#562636;}.cls-3{fill:#1f1216;}.cls-4,.cls-9{fill:#f25187;}.cls-11,.cls-12,.cls-13,.cls-5{fill:none;}.cls-13,.cls-16,.cls-18,.cls-19,.cls-5{stroke:#f25187;}.cls-11,.cls-12,.cls-13,.cls-14,.cls-15,.cls-16,.cls-17,.cls-18,.cls-19,.cls-5,.cls-9{stroke-miterlimit:10;}.cls-6{fill:url(#radial-gradient);}.cls-7{fill-opacity:0.84;fill:url(#radial-gradient-3);}.cls-8{fill:url(#radial-gradient-4);}.cls-11,.cls-12,.cls-14,.cls-15,.cls-17,.cls-9{stroke:#562636;}.cls-10{fill-opacity:0.3;fill:url(#linear-gradient);}.cls-11,.cls-13,.cls-14,.cls-15,.cls-16,.cls-17,.cls-18,.cls-19{stroke-linecap:round;}.cls-13{stroke-width:2px;}.cls-14{fill:url(#radial-gradient-5);}.cls-15{fill:url(#radial-gradient-6);}.cls-16{fill:url(#radial-gradient-7);}.cls-17{fill:url(#radial-gradient-8);}.cls-18{fill:url(#radial-gradient-9);}.cls-19{fill:url(#radial-gradient-10);}.cls-20{fill:url(#linear-gradient-2);}.cls-21{opacity:0.29;fill:url(#radial-gradient-11);}.cls-22{fill-opacity:0.17;fill:url(#radial-gradient-12);}.cls-23{fill-opacity:0.37;fill:url(#radial-gradient-13);}</style><radialGradient id="radial-gradient" cx="310.95" cy="59.03" r="83.3" gradientTransform="translate(3.2 -33.3) rotate(2.1) scale(1 1.37)" gradientUnits="userSpaceOnUse"><stop offset="0.14" stop-color="#f25187"/><stop offset="0.79" stop-color="#f25187" stop-opacity="0"/></radialGradient><radialGradient id="radial-gradient-3" cx="321.95" cy="25.94" r="101.42" gradientTransform="matrix(1, 0.03, -0.05, 1.72, 1.4, -27.78)" gradientUnits="userSpaceOnUse"><stop offset="0" stop-color="#00c9b1"/><stop offset="0.62" stop-color="#00c9b1" stop-opacity="0"/></radialGradient><radialGradient id="radial-gradient-4" cx="322.34" cy="301.2" r="31.9" gradientTransform="translate(0 -235) scale(1 1.78)" gradientUnits="userSpaceOnUse"><stop offset="0.37" stop-color="#fff"/><stop offset="0.48" stop-color="#fde4ec" stop-opacity="0.84"/><stop offset="0.73" stop-color="#f89fbd" stop-opacity="0.45"/><stop offset="1" stop-color="#f25187" stop-opacity="0"/></radialGradient><linearGradient id="linear-gradient" x1="388.58" y1="270.02" x2="336.94" y2="305.52" gradientUnits="userSpaceOnUse"><stop offset="0.18" stop-color="#00c9b1"/><stop offset="0.57" stop-color="#00c9b1" stop-opacity="0"/></linearGradient><radialGradient id="radial-gradient-5" cx="134.82" cy="212.95" r="5.11" gradientTransform="translate(11 -83.3) rotate(2.1) scale(1 1.37)" xlink:href="#radial-gradient"/><radialGradient id="radial-gradient-6" cx="137.85" cy="223.97" r="3.86" gradientTransform="translate(11.6 -87.4) rotate(2.1) scale(1 1.37)" xlink:href="#radial-gradient"/><radialGradient id="radial-gradient-7" cx="237.25" cy="269.38" r="8.02" gradientTransform="translate(14 -107.8) rotate(2.1) scale(1 1.37)" xlink:href="#radial-gradient"/><radialGradient id="radial-gradient-8" cx="186.49" cy="376.26" r="13" gradientTransform="translate(19.4 -145.2) rotate(2.1) scale(1 1.37)" xlink:href="#radial-gradient"/><radialGradient id="radial-gradient-9" cx="219.6" cy="392.31" r="10.22" gradientTransform="translate(20.3 -152.3) rotate(2.1) scale(1 1.37)" xlink:href="#radial-gradient"/><radialGradient id="radial-gradient-10" cx="591.52" cy="524.57" r="11.92" gradientTransform="matrix(1.16, 0.04, -0.06, 1.56, -404.68, -380.27)" xlink:href="#radial-gradient"/><linearGradient id="linear-gradient-2" x1="289.51" y1="260.72" x2="427.05" y2="323.37" gradientUnits="userSpaceOnUse"><stop offset="0.16" stop-color="#f25187" stop-opacity="0"/><stop offset="0.73" stop-color="#f2f2f2"/></linearGradient><radialGradient id="radial-gradient-11" cx="291.66" cy="133.34" r="51.78" gradientTransform="translate(0 74.7) scale(1 0.44)" gradientUnits="userSpaceOnUse"><stop offset="0.14" stop-color="#f25187"/><stop offset="0.89" stop-color="#f25187" stop-opacity="0"/></radialGradient><radialGradient id="radial-gradient-12" cx="433.59" cy="111.64" fx="425.6870828060787" r="192.44" gradientTransform="translate(0 40.4) scale(1 0.64)" gradientUnits="userSpaceOnUse"><stop offset="0.06" stop-color="#00c9b1"/><stop offset="0.65" stop-color="#00c9b1" stop-opacity="0"/></radialGradient><radialGradient id="radial-gradient-13" cx="449.01" cy="197.51" fx="437.0179123423771" r="48.27" gradientTransform="matrix(-0.99, 0.11, -0.27, -2.38, 949.26, 615.66)" gradientUnits="userSpaceOnUse"><stop offset="0.17" stop-color="#00c9b1"/><stop offset="0.86" stop-color="#00c9b1" stop-opacity="0"/></radialGradient></defs><g id="Layer_10" data-name="Layer 10"><path class="cls-2" d="M586.2,465.7,369.4,574.1l-12.1-2.7-2,1,7.2,5.1-8.2,4.1-21.4-8.5,10.6,10.4-4.5,5.7-54,27L0,459.3l23.2-9.7c1.2-.5,11.8,3.7,13.1,3.2s-6.2-6-4.5-6.7,10.1-6.9,13-8.1c1.2-.5,7.6,13.1,8.8,12.6s-.6-8.3,0-8.6c29.7-12.3,62-30.6,101-46.7l7.7,41h-6.9L100.1,452v3.9H96v3.4l71.1,3.1,6.8,36.2,8,3.3V459.3l15.8,5.6,44.3,15.7,3.3,42.5,9.3,3,7.7-4.7,3.3-42.6,126.6-55.6,11.6-5.2,1.3,50.7,10-4.2,5.5-67L546,455.4l10.5-1.9Z"/><polygon class="cls-3" points="405.2 468.7 348.3 450.6 249.9 503.1 262.4 521.4 254.7 526.1 112.7 530.6 30.7 476.2 96.1 459.3 167.2 462.4 264.2 423.4 398.7 460 402.5 461.7 405.2 468.7"/><path class="cls-4" d="M443.7,129.2,442.6,142,415.4,464.2l-10.2,4.5L403.9,418,265.7,478.8l-3.3,42.6-7.7,4.7L240.1,269.4,237,214.3v-.2c25.4-10.6,81.2-33.4,129.6-53.2l5.7-2.3,2.9-1.2Z"/><polygon class="cls-5" points="166.2 455.9 166 455.9 165.2 451.7 166.2 455.9"/><path class="cls-3" d="M245.8,522.8l-3.3-42.6-61-21.6v42.5l-7-2.9-7.9-41.8h.3l-1.2-4.8L115.6,185.2l107.5,35.4.2-.2,13.2-5.6,17.7,310.6Z"/><path class="cls-2" d="M116.2,185.9,222.7,221l.5.2.3-.3,12.6-5.3,8,142.3,9.5,166.8-7.3-2.3-3.2-41.9v-.6l-.6-.2L198.1,464l-15.8-5.6-1.3-.5v42.5l-6.1-2.5-6.7-35.7-1-5.3h.3l-.3-1.2-1-4.2-.8-4.1v-.8l-1.3-6.5-.7-4-7.7-41L116.2,185.9m-1.3-1.5,39.7,210.9,7.7,41,.8,4,1.2,6.5v.8l.8,4.1,1,4.2H166l1.2,6.5,6.8,36.2,8,3.3V459.3l15.8,5.6,44.3,15.7,3.3,42.5,9.3,3-9.6-168.2L237,214.1,223,220,114.9,184.4Z"/><polygon class="cls-3" points="72.6 170 70.5 159.9 222.5 210.5 222.5 219.3 72.6 170"/><path class="cls-2" d="M71.2,160.6l56.5,18.8L222,210.8v7.9l-92.2-30.3L73,169.7l-1.8-9.1m-1.4-1.5,2.4,11.3,57.3,18.9L223,220v-9.9l-95-31.6L69.8,159.1Z"/><polygon class="cls-3" points="128.1 178 71.7 159.2 364.2 90.1 449.9 116.1 297.6 178.8 223 209.6 128.1 178"/><path class="cls-2" d="M364.2,90.6l84.3,25.6-5.4,2.2-145.6,60L222.9,209l-94.6-31.5L73.5,159.3l192.7-45.5,98-23.2m0-1.1-98.3,23.3L69.8,159.1,128,178.5l95,31.6,74.8-30.8,145.7-60,7.9-3.2L364.2,89.5Z"/><path class="cls-2" d="M324,44c0,12.4-11.9,26.2-20.2,34.2L304,116a3.6,3.6,0,0,1-1.2,2.7c-3.9,3.5-13.5,5.2-21.9,2.3a2.2,2.2,0,0,1-1.3-1.2l-14-35.1c-2.9-1.4-10.8-4.5-13.3-6.5A44,44,0,1,1,324,44Z"/><path class="cls-6" d="M324,44c0,12.4-11.9,26.2-20.2,34.2L304,116a3.6,3.6,0,0,1-1.2,2.7c-3.9,3.5-13.5,5.2-21.9,2.3a2.2,2.2,0,0,1-1.3-1.2l-14-35.1c-2.9-1.4-10.8-4.5-13.3-6.5A44,44,0,1,1,324,44Z"/><path class="cls-6" d="M324,44c0,12.4-11.9,26.2-20.2,34.2L304,116a3.6,3.6,0,0,1-1.2,2.7c-3.9,3.5-13.5,5.2-21.9,2.3a2.2,2.2,0,0,1-1.3-1.2l-14-35.1c-2.9-1.4-10.8-4.5-13.3-6.5A44,44,0,1,1,324,44Z"/><path class="cls-7" d="M299.6,120.7a13.6,13.6,0,0,0,3.2-2A3.6,3.6,0,0,0,304,116l-.2-37.8c8.3-8,20.2-21.8,20.2-34.2A44,44,0,0,0,279.9,0a43.5,43.5,0,0,0-12.5,1.9s-16,33.7-2.6,55.6,23.5,20,24.4,25.5S299.6,120.7,299.6,120.7Z"/><polygon class="cls-3" points="420.5 180.8 412.8 311 412.8 312 412.7 312 276 370.9 273.6 248.6 273.5 242.7 301.4 231.1 411.1 185.2 420.5 180.8"/><path class="cls-2" d="M420.5,180.8,412.8,311l-9.1-2.9s5.4-91.6,7.4-122.9Z"/><path class="cls-2" d="M322.7,283.5c-.3-.7.2-1.6.5-2.2a17.4,17.4,0,0,0,1.1-1.8c.4-1.4-.9-2.9-2.2-3.6a2.3,2.3,0,0,0-1.1-.3,1,1,0,0,0-.8.6c-.1.4.2.9,0,1.4a1.1,1.1,0,0,1-.9.4,3.1,3.1,0,0,1-1-.5l-3.3-2.3a4,4,0,0,0-1.5-.9,2.2,2.2,0,0,0-1.8.1,1.3,1.3,0,0,0-.4,1.6,2.1,2.1,0,0,0,1.2.8c.5.2,1,.5,1.1,1a1.2,1.2,0,0,1-.5.9,1.7,1.7,0,0,1-1.1.3,7.1,7.1,0,0,1-2.5-.6,4.3,4.3,0,0,0-2.5,0,1.5,1.5,0,0,0-1,2c.2.6.9.9,1.5,1.1a12.5,12.5,0,0,1,1.9.3c.6.2,1.2.7,1.2,1.3a9.2,9.2,0,0,1,6.2-1.9,8.9,8.9,0,0,1,5.9,2.4c.2,0,.3.3.1.3S322.5,283.6,322.7,283.5Z"/><path class="cls-4" d="M332.9,336.9l-57.5,21.8-.8-36.4c1.7-.9,22.1-23.6,32.4-35.5l2-2.4a13.5,13.5,0,0,1,8-4.5h1.3a5.3,5.3,0,0,1,4.2,3.9,8.4,8.4,0,0,1,.7-2.4,3.4,3.4,0,0,1,.9.8,7.3,7.3,0,0,1,2.3,4.6Z"/><path class="cls-8" d="M332.9,336.9,307,346.7s-20.6-41.4,0-59.9c.8-.8,1.4-1.7,2-2.4a13.5,13.5,0,0,1,8-4.5h1.3a5.3,5.3,0,0,1,4.2,3.9,8.4,8.4,0,0,1,.7-2.4,3.4,3.4,0,0,1,.9.8,7.3,7.3,0,0,1,2.3,4.6Z"/><path class="cls-2" d="M412.8,311v1L276,370.9l-.6-38.1,93-35.5Z"/><polygon class="cls-2" points="190.8 462.5 186.4 500 182 501.9 182 459.3 190.8 462.5"/><polygon class="cls-3" points="171.1 346.4 151.4 246.3 213.3 271.8 218.5 365.9 171.1 346.4"/><path class="cls-2" d="M152.1,247.1l53.7,22.1,7,2.9,5.2,93.1L171.5,346l-19.4-98.9m-1.4-1.7,19.9,101.3,48.5,20-5.3-95.2-7.6-3.2-55.5-22.9Z"/><polygon class="cls-4" points="329.6 338.6 303.1 327.2 303.1 325.1 349.2 307.2 375 315.9 375 318 329.6 338.6"/><polygon class="cls-9" points="329.6 336.5 303.1 325.1 349.2 307.2 375 315.9 329.6 336.5"/><path class="cls-3" d="M96.6,458.8v-2.4h4.1v-4l54.9-15.6h7.6l4.5,25.1Z"/><path class="cls-2" d="M162.6,437.3l4.4,24.1-69.9-3v-1.5h4.2v-4.1l54.5-15.5h7m.9-1h-8.1L100.1,452v3.9H96v3.4l72.1,3.1-4.7-26.1Z"/><path class="cls-2" d="M139.6,452.8v3.1H120.2V453h19.4Z"/><path class="cls-3" d="M166.2,455.9H147.6c-.1,0-.1-.5-.1-1.1s.1-3.1.1-3.1h16.5Z"/><polygon class="cls-4" points="165.2 451.7 147.6 451.7 164.4 447.6 165.2 451.7"/><path class="cls-3" d="M164.3,446.8l-16.7,4.9s-.1,1.9-.1,3.1l-7.9,1.1v-3.1H120.2l42.9-12.7Z"/><path class="cls-4" d="M120.2,453v2.2l-5.3.7v-4.2l-14.8.3,55.3-15.7h6.9l.8,4Z"/><polygon class="cls-5" points="245.1 357.9 254.7 526.1 245.1 357.9 245.1 357.9"/><polygon class="cls-2" points="327.8 335.8 334.4 286.7 381.6 267 383.5 267.4 375 315.9 329.6 336.5 327.8 335.8"/><polygon class="cls-4" points="329.6 336.5 336.1 287.7 383.1 267.8 375 315.9 329.6 336.5"/><polygon class="cls-10" points="344.9 284 383.1 267.8 378.9 292.8 344.9 284"/><polygon class="cls-4" points="157.9 248.4 182 340.4 170.6 346.7 150.6 246.3 157.9 248.4"/><polygon class="cls-2" points="182 340.4 219.1 355.3 219.1 366.7 170.6 346.7 182 340.4"/><polygon class="cls-4" points="451.4 116.1 451.4 126 445.2 128.5 233.2 215.8 223 220 223 210.1 236.4 204.6 451.4 116.1"/><ellipse class="cls-2" cx="321.1" cy="291.4" rx="1.4" ry="2.1"/><ellipse class="cls-2" cx="325" cy="290.7" rx="1" ry="2.1"/><path class="cls-2" d="M322.5,296.2l.7-4.1s6.6,5.2,6.6,6.2S322.5,296.2,322.5,296.2Z"/><line class="cls-11" x1="249.9" y1="398.2" x2="322.9" y2="369.3"/><line class="cls-11" x1="264.2" y1="398.2" x2="337.2" y2="369.3"/><line class="cls-11" x1="343.5" y1="403.9" x2="416.5" y2="375.1"/><path class="cls-12" d="M257.8,48.1c-4.2,5.6-2.6,14.6,3.3,18.4s12.9,2.9,17,7.7c2.6,3,3,7.4,2.5,11.4s-1.6,7.9-1.5,11.9,1.8,8.4,5.4,10.1"/><path class="cls-12" d="M294.6,34.4c-3.8,6.4-2.3,14.5.1,21.5s5.5,14.1,4.8,21.5c-1.1,9.9-9.2,18.6-8.5,28.5"/><path class="cls-12" d="M264.8,61.4a15,15,0,0,0,6.4-9.3c.2-1.3,0-3.1-1.3-3.2a2.1,2.1,0,0,0-1.8,1,5.6,5.6,0,0,0-.3,6,5.5,5.5,0,0,0,5.4,2.5,7.4,7.4,0,0,0,4.6-3.1A19.1,19.1,0,0,0,280,50a5.3,5.3,0,0,0,.3-2.2,2.2,2.2,0,0,0-1.2-1.8,2.1,2.1,0,0,0-2.3.9,5.3,5.3,0,0,0-.8,2.5,9.9,9.9,0,0,0,.3,4.2,5.1,5.1,0,0,0,2.6,3.3c2.5,1.3,5.7-.5,7-3s1.3-5.5,1.2-8.3"/><path class="cls-13" d="M270.1,105.1c12.5,5.7,30.5,0,35-5.2"/><path class="cls-13" d="M273.5,109.7c12.5,5.7,30.5-.1,35-5.3"/><path class="cls-13" d="M274.2,114.8c12.2,4.9,30.3-.6,35-5.2"/><line class="cls-14" x1="120.2" y1="210.1" x2="137.4" y2="216"/><line class="cls-15" x1="127.7" y1="221.7" x2="139.6" y2="226.4"/><path class="cls-16" d="M219.1,264.4c9.8,5.2,6.1,2.9,21.3,10.4"/><line class="cls-17" x1="147.5" y1="369.3" x2="193.3" y2="383.8"/><path class="cls-18" d="M177.3,389.5c4.7,2.9,49.7,5.8,49.7,5.8"/><line class="cls-19" x1="220" y1="452.8" x2="254.7" y2="470.7"/><path class="cls-2" d="M321.6,300.1a1.6,1.6,0,0,1-.9.7.8.8,0,0,1-1-.5.8.8,0,0,1,.1-.9,6.1,6.1,0,0,1,1.6-1.6l.8-1a.8.8,0,0,0,.2-.5c.1-.1.1-.1.2,0s0,.1,0,.2a6.7,6.7,0,0,1-.4,2.4A3.4,3.4,0,0,1,321.6,300.1Z"/><path class="cls-2" d="M324.6,298.7c.1.3.3.7.6.7a.6.6,0,0,0,.7-.6,1,1,0,0,0-.3-.9l-.7-.7-.5-.6a.8.8,0,0,1-.2-.4l-.2-.3c-.1.1,0,.4,0,.5a1.3,1.3,0,0,0,.1.6,4.3,4.3,0,0,0,.2,1.1Z"/><polygon class="cls-20" points="381.6 267 328.5 220 273.5 242.7 274.6 288.6 291.5 304.3 299.3 323.6 327.8 335.8 334.4 286.7 381.6 267"/><path class="cls-3" d="M359.2,308.4a5.7,5.7,0,0,1-4.5.5,3.3,3.3,0,0,1-1.9-3.2c0-2.8,2.3-6.3,5.4-8l.4-.2a5.6,5.6,0,0,1,4.4-.7c.3.1.4.3.4.7a2.1,2.1,0,0,1-.5,1.2,2.4,2.4,0,0,1-.8.6,1,1,0,0,1-.9.1,3.9,3.9,0,0,0-2.5.4l-.4.3a5.6,5.6,0,0,0-2.8,4.2,1.8,1.8,0,0,0,1,2,3.1,3.1,0,0,0,2.6-.3,7.9,7.9,0,0,0,2-1.7l.8-.7a1.2,1.2,0,0,1,.8-.1c.4,0,.6.3.6.7a1.8,1.8,0,0,1-.5,1.1A11.7,11.7,0,0,1,359.2,308.4Z"/><ellipse class="cls-21" cx="291.7" cy="133.3" rx="58.7" ry="23.7"/><path class="cls-2" d="M417.1,168.8,376,184l4.3-2.7,36.5-13.4c.2-.2.5,0,.6.3A.4.4,0,0,1,417.1,168.8Z"/><path class="cls-2" d="M375.2,157.4l-2.9,1.2-5.7,2.3L237,214.3l3.1,55.1.3-14.4,33.2.9V242.7L376,184l-13.6,5h-.2a.7.7,0,0,1-.5-.4.4.4,0,0,1,.3-.6l18.3-6.8L442.6,142l1.1-12.8ZM339.3,184l-44.8,22.4h-.2a.5.5,0,0,1-.5-.3.6.6,0,0,1,.3-.7l44.7-22.3a.4.4,0,0,1,.7.2A.6.6,0,0,1,339.3,184Z"/><ellipse class="cls-2" cx="206.3" cy="517" rx="1.9" ry="0.9"/><circle class="cls-2" cx="214.3" cy="512.5" r="1.2"/><circle class="cls-2" cx="213.7" cy="502.5" r="0.6"/><circle class="cls-2" cx="203.3" cy="504.2" r="1.1"/><ellipse class="cls-2" cx="187" cy="520.3" rx="2.1" ry="1"/><ellipse class="cls-2" cx="223.5" cy="527.6" rx="3.5" ry="1.4"/><circle class="cls-4" cx="233.9" cy="535.2" r="1"/><circle class="cls-4" cx="243.9" cy="551.1" r="1.3"/><circle class="cls-4" cx="316.2" cy="518.2" r="1.1"/><circle class="cls-4" cx="284.9" cy="549.6" r="1.5"/><circle class="cls-4" cx="289.1" cy="563.5" r="1.5"/><circle class="cls-2" cx="284" cy="529.3" r="1.8"/><ellipse class="cls-4" cx="266.2" cy="541.3" rx="3.8" ry="1.2"/><ellipse class="cls-2" cx="312.1" cy="483.7" rx="3" ry="1.2"/><circle class="cls-2" cx="319.2" cy="492.1" r="1.9"/><circle class="cls-2" cx="294" cy="491.1" r="0.9"/><ellipse class="cls-4" cx="383.3" cy="509.7" rx="4.9" ry="1.6"/><circle class="cls-4" cx="378.1" cy="527.6" r="1.4"/><circle class="cls-4" cx="375.8" cy="536.1" r="0.9"/><ellipse class="cls-4" cx="368" cy="511.5" rx="1.4" ry="0.2"/><ellipse class="cls-4" cx="368" cy="523.8" rx="1.4" ry="0.3"/><ellipse class="cls-4" cx="362.5" cy="530.1" rx="2.1" ry="1"/><ellipse class="cls-4" cx="354.3" cy="534.7" rx="2.1" ry="0.5"/><ellipse class="cls-4" cx="356.3" cy="520.9" rx="2.1" ry="0.5"/><ellipse class="cls-4" cx="392.7" cy="484.6" rx="1.4" ry="0.3"/><circle class="cls-4" cx="463.3" cy="453.5" r="1.9"/><circle class="cls-4" cx="454.1" cy="465.8" r="0.7"/><circle class="cls-4" cx="460.1" cy="471.4" r="0.8"/><circle class="cls-4" cx="467.9" cy="475.4" r="0.9"/><circle class="cls-4" cx="464.6" cy="483.1" r="0.6"/><circle class="cls-4" cx="460.4" cy="437" r="1"/><circle class="cls-4" cx="473.4" cy="435.1" r="0.9"/><circle class="cls-4" cx="484.2" cy="441.2" r="0.9"/><circle class="cls-4" cx="487.7" cy="454.9" r="0.6"/><ellipse class="cls-4" cx="437.1" cy="437" rx="3.1" ry="1"/><ellipse class="cls-4" cx="445.6" cy="426.4" rx="1.2" ry="0.2"/><ellipse class="cls-4" cx="429.3" cy="458.6" rx="1.6" ry="2.7"/><ellipse class="cls-4" cx="433.5" cy="470.1" rx="0.5" ry="1.4"/><circle class="cls-4" cx="430.5" cy="500.7" r="1.2"/><circle class="cls-2" cx="392" cy="459.3" r="0.7"/><circle class="cls-2" cx="369.4" cy="470.1" r="1.4"/><circle class="cls-2" cx="371.7" cy="484" r="0.9"/><ellipse class="cls-2" cx="50.9" cy="459.6" rx="2.8" ry="1"/><ellipse class="cls-2" cx="60.4" cy="474.2" rx="0.5" ry="2"/><ellipse class="cls-2" cx="65.5" cy="479.3" rx="1" ry="3.1"/><circle class="cls-2" cx="72.2" cy="478.5" r="0.9"/><circle class="cls-3" cx="76.5" cy="461" r="0.3"/><ellipse class="cls-3" cx="72.3" cy="446.8" rx="2.5" ry="0.7"/><ellipse class="cls-3" cx="75" cy="450.6" rx="1.9" ry="1"/><circle class="cls-3" cx="64" cy="459.9" r="1.3"/><circle class="cls-3" cx="77.1" cy="468" r="0.5"/><circle class="cls-3" cx="88.7" cy="466.1" r="0.3"/><circle class="cls-3" cx="98.9" cy="462.5" r="1.2"/><circle class="cls-3" cx="103.6" cy="437" r="1"/><circle class="cls-3" cx="112.9" cy="426.4" r="0.2"/><ellipse class="cls-3" cx="126.4" cy="421.5" rx="1.2" ry="0.2"/><circle class="cls-3" cx="116" cy="479.5" r="1.1"/><circle class="cls-3" cx="127" cy="490.8" r="0.6"/><circle class="cls-3" cx="232.1" cy="513.1" r="0.6"/><circle class="cls-4" cx="301.2" cy="530.6" r="0.5"/><circle class="cls-4" cx="312.9" cy="515.4" r="0.8"/><circle class="cls-4" cx="320" cy="510.5" r="0.8"/><circle class="cls-4" cx="324.4" cy="525.6" r="0.5"/><circle class="cls-4" cx="329.7" cy="537.1" r="0.1"/><ellipse class="cls-4" cx="385.8" cy="488" rx="2.3" ry="0.3"/><circle class="cls-4" cx="389.1" cy="473.2" r="1"/><circle class="cls-3" cx="388.4" cy="458.9" r="0.3"/><ellipse class="cls-3" cx="480" cy="421.5" rx="1"/><polygon class="cls-3" points="405.2 468.7 401 466.5 392.3 423.2 403.9 418 405.2 468.7"/><path class="cls-22" d="M451.4,126c-.1,2.4-150.7,62-150.7,62l-2.9-8.7-31.9-66.5,98.3-23.3,87.2,26.6S451.5,123.6,451.4,126Z"/><polygon class="cls-23" points="398.7 148 398.7 189.6 420.5 180.8 425.4 345.8 443.7 129.2 398.7 148"/></g></svg>