<svg xmlns="http://www.w3.org/2000/svg" xmlns:xlink="http://www.w3.org/1999/xlink" viewBox="0 0 488.8 402.8"><defs><style>.cls-1,.cls-14{fill:none;}.cls-2{isolation:isolate;}.cls-3{fill:#562636;}.cls-4{fill:#1f1216;}.cls-5{fill:url(#radial-gradient);}.cls-6{fill:#efefef;}.cls-11,.cls-7{fill:#f25187;}.cls-8{fill:url(#linear-gradient);}.cls-9{opacity:0.27;}.cls-10{fill:#00c9b1;}.cls-11,.cls-14{stroke:#562636;stroke-miterlimit:10;}.cls-12{fill:#e6e6e6;}.cls-13{fill:#f2f2f2;}.cls-15{fill:url(#linear-gradient-2);}.cls-16{clip-path:url(#clip-path);}.cls-17{fill:#666;}.cls-18{clip-path:url(#clip-path-2);}.cls-19{fill:#999;mix-blend-mode:darken;}.cls-20{opacity:0.6;}</style><radialGradient id="radial-gradient" cx="247.47" cy="124.32" r="171.91" gradientTransform="translate(195.7 374.8) rotate(-93) scale(1 0.52)" gradientUnits="userSpaceOnUse"><stop offset="0.08" stop-color="#f2f2f2"/><stop offset="0.24" stop-color="#f2f0f1" stop-opacity="0.99"/><stop offset="0.33" stop-color="#f2ebed" stop-opacity="0.96"/><stop offset="0.41" stop-color="#f2e2e7" stop-opacity="0.9"/><stop offset="0.47" stop-color="#f2d4de" stop-opacity="0.82"/><stop offset="0.53" stop-color="#f2c3d3" stop-opacity="0.71"/><stop offset="0.59" stop-color="#f2aec5" stop-opacity="0.58"/><stop offset="0.64" stop-color="#f295b4" stop-opacity="0.42"/><stop offset="0.69" stop-color="#f278a1" stop-opacity="0.24"/><stop offset="0.74" stop-color="#f2588b" stop-opacity="0.04"/><stop offset="0.75" stop-color="#f25187" stop-opacity="0"/></radialGradient><linearGradient id="linear-gradient" x1="216.88" y1="211.58" x2="-2.46" y2="-22.49" gradientUnits="userSpaceOnUse"><stop offset="0.03" stop-color="#f25187"/><stop offset="0.79" stop-color="#00c9b1"/></linearGradient><linearGradient id="linear-gradient-2" x1="244.28" y1="146.73" x2="316.52" y2="146.73" gradientUnits="userSpaceOnUse"><stop offset="0.37" stop-color="#f2f2f2"/><stop offset="0.48" stop-color="#f2f0f1" stop-opacity="0.99"/><stop offset="0.55" stop-color="#f2ebed" stop-opacity="0.96"/><stop offset="0.6" stop-color="#f2e2e7" stop-opacity="0.9"/><stop offset="0.65" stop-color="#f2d4de" stop-opacity="0.82"/><stop offset="0.69" stop-color="#f2c3d3" stop-opacity="0.71"/><stop offset="0.73" stop-color="#f2aec5" stop-opacity="0.58"/><stop offset="0.76" stop-color="#f295b4" stop-opacity="0.42"/><stop offset="0.8" stop-color="#f278a1" stop-opacity="0.24"/><stop offset="0.83" stop-color="#f2588b" stop-opacity="0.04"/><stop offset="0.84" stop-color="#f25187" stop-opacity="0"/></linearGradient><clipPath id="clip-path"><path class="cls-1" d="M448.1,221.9l-25.9,10.4-75.3,30.4-16.4-6.9a14.9,14.9,0,0,0-9.1-.2l-4.2,1.7a4.9,4.9,0,0,1-2.7-.2L296.8,250a7.6,7.6,0,0,1-3.1-2.5l-4.6-6.3c-.6-1.1-2.8-2-4-2.5l-8.1-3.2-21.1-8.4v-6.8l104.7-37,32.6,14.5a4,4,0,0,1,1.8,1.6l2.8,4.2a7.9,7.9,0,0,0,3.2,2.8l10.9,4.9a62.7,62.7,0,0,0,6.6,2.9,6.1,6.1,0,0,0,4-.1l3.7-1.2a4.2,4.2,0,0,1,2.9.2l18.9,3.8Z"/></clipPath><clipPath id="clip-path-2"><path class="cls-1" d="M448.1,189.1l-25.9,10.5-75.3,30.3L330.5,223c-2.2-1-6.9-1-9.1-.2l-4.2,1.7a4.1,4.1,0,0,1-2.7-.2l-17.7-7.1a7.4,7.4,0,0,1-3.1-2.4l-4.6-6.4c-.6-1.1-2.8-1.9-4-2.4l-8.1-3.3-21.1-8.4,1.2-93.7,99.4-23.8L448,101.7Z"/></clipPath></defs><g class="cls-2"><g id="Layer_7" data-name="Layer 7"><polygon class="cls-3" points="488.8 243.5 488.8 342.4 473.7 348.6 473.7 272.5 349.7 323.8 339 328.2 340.1 401.2 340.1 402.8 325.4 397.2 324.3 327.1 15.5 198.7 15.5 272 4 267.4 4 167.2 155.9 105.2 478.1 239 487.8 243.1 488.8 243.5"/><polygon class="cls-4" points="488.8 243.5 488.8 341.2 473.7 347.5 473.7 272.5 349.7 323.4 349.7 397 340.1 401.2 339 401.7 338.9 399 336.9 306.7 336.9 305.6 349.7 300.2 486.3 243.7 486.8 243.5 487.8 243.1 488.8 243.5"/><path class="cls-3" d="M354.4,178.5l-19.1-.2-1.5-2.6V179l-43.4-16.4-64.1-24.4L233.9,79l.6-4.3h0l.2-1.2.2-2.1.2-1.4V69l3.2-24.4a15.2,15.2,0,0,1,4.2-8.7l1.6-1.3c0-.1.1-.1.2-.2h.2a15.5,15.5,0,0,1,6-2.1h0l3-.5a4.8,4.8,0,0,0,1.2,0h.1l1,.2h.1a25.2,25.2,0,0,1,6.6,2h0a24.4,24.4,0,0,1,8.3,6.3l3.8,4.5,2.2,2.5,14.6,16.7c16.6,18.8,35.7,39.7,41.9,45.5l3.4.9,8.4-2.6c0-12.3,17.9-25,17.9-25C381.8,101.9,354.4,178.5,354.4,178.5Z"/><path class="cls-5" d="M319.9,142.7c-2.2,6.3-7,10.3-12.7,13.7a62.3,62.3,0,0,1-16.9,6.2l-64.1-24.4L233.9,79l-1.3.6a.8.8,0,0,1-.8-1.2l2-2.8h-.5c-1.6,0-2.9-1.7-2.9-3.9s1.3-3.8,2.9-3.8a2.3,2.3,0,0,1,1.9,1l3.2-24.4a15.2,15.2,0,0,1,4.2-8.7l1.6-1.3-.6-.7,1,.4c1.4.6,3.8-1.1,6-2.1h0c1.2-.6,2.3-.9,3-.5s5.3,1.4,9,2.2h0a24.4,24.4,0,0,1,8.3,6.3l3.8,4.5,2.2,2.5,14.6,16.7a62.2,62.2,0,0,1,6.8,26.8C298.7,112.4,309.5,123.7,319.9,142.7Z"/><ellipse class="cls-3" cx="248.3" cy="59.8" rx="2.6" ry="3.9"/><ellipse class="cls-3" cx="241.1" cy="58.5" rx="1.9" ry="3.9"/><path class="cls-3" d="M240.9,75.6l-7,3.4-1.3.6a.8.8,0,0,1-.8-1.2l2-2.8.7-.9,1.6-2.2,1.2-1.6h.6a2.9,2.9,0,0,1,1.7,1.6l1.1,2.3a1.7,1.7,0,0,1,.2.5Z"/><path class="cls-3" d="M246,73.3l-.8.3-3.1,1.5-1.2.6v-.5c-.5-1.3-1.8-4.3-3-4.4a.7.7,0,0,0-.6.2l.9-1.4,6.2-8.4,1.4,11.2Z"/><path class="cls-4" d="M247.4,80a3.1,3.1,0,0,0,1.7,1.3,1.7,1.7,0,0,0,1.9-.9,1.7,1.7,0,0,0-.2-1.7,14.7,14.7,0,0,0-3-3.1l-1.5-1.7c-.2-.3-.3-.7-.5-1s-.1-.2-.2-.1-.1.3-.1.5a16.2,16.2,0,0,0,.7,4.4A10.1,10.1,0,0,0,247.4,80Z"/><path class="cls-3" d="M241.9,73.5c-.3.6-.7,1.2-1.3,1.3a1.4,1.4,0,0,1-1.3-1.2,2.2,2.2,0,0,1,.6-1.7l1.4-1.4.9-1.1.4-.6c.1-.2.1-.5.3-.6a2.7,2.7,0,0,1,0,.9,4.1,4.1,0,0,1-.1,1.1,8,8,0,0,1-.5,2.1A5.6,5.6,0,0,1,241.9,73.5Z"/><path class="cls-4" d="M277.9,46.3a1.8,1.8,0,0,1-1,.9,2,2,0,0,1-2-.1,4.6,4.6,0,0,1-2.1-2.8,18.9,18.9,0,0,0-1.3-3.3c-.8-1.1-2.4-1.9-3.4-1.1s-.6,2.6,0,3.8,1.3,2.8.4,3.8a2.4,2.4,0,0,1-3.4-.4,9.5,9.5,0,0,1-1.5-3.4,18.7,18.7,0,0,0-6.6-9.1c-1.2-.9-3.2-1.6-4.2-.4a2.8,2.8,0,0,0,.1,2.9,21.3,21.3,0,0,1,1.6,2.5c0,.2.1.4.1.6a2,2,0,0,1-.9,2.1c-1,.5-2.2-.4-3-1.2l-5.4-5.3-1.1-1.2-.6-.7A4.2,4.2,0,0,1,243,32c0-1.7,1.9-2.9,3.3-3.6,3.8-1.8,8.3-.8,12,.7A42.1,42.1,0,0,1,277,43.5,3.3,3.3,0,0,1,277.9,46.3Z"/><ellipse class="cls-6" cx="233.3" cy="71.8" rx="2.3" ry="3.3"/><ellipse class="cls-6" cx="243.8" cy="75.1" rx="2.3" ry="3.3"/><path class="cls-4" d="M246.6,74.2a3.7,3.7,0,0,0-.8-1.8,2.5,2.5,0,0,0-2-1.2,2.1,2.1,0,0,0-1.2.4h-.1a3.6,3.6,0,0,0-1.2,1.5l-.9-1.7a4,4,0,0,0-2.2-1.8H238a2.5,2.5,0,0,0-2,.8,3.9,3.9,0,0,0-.8-1.4,2.3,2.3,0,0,0-1.9-1c-1.6,0-2.9,1.7-2.9,3.8s1.3,3.9,2.9,3.9h.5l.7-.9,1.6-2.2V72l1.2-1.1h.6c.3,0,.5.2.8.4a.3.3,0,0,1,.1.2l.4.4c0,.1.1.2.2.3s.1.2.2.3h0l.3.5h0l.3.6h0l.3.6c0,.2.1.3.2.5h0v.2c0,.1.1.2.1.3v.4c.2,1.9,1.4,3.3,2.9,3.3a2.8,2.8,0,0,0,2.3-1.5,6,6,0,0,0,.6-2.3C246.7,74.8,246.6,74.5,246.6,74.2Zm-13.3.3c-.9,0-1.7-1.2-1.7-2.7s.8-2.6,1.7-2.6,1.5.9,1.6,2.1a.7.7,0,0,1,.1.5,7.6,7.6,0,0,1-.3,1.6C234.3,74,233.8,74.5,233.3,74.5Zm8.8.6h0c0-1.5.8-2.7,1.7-2.7a1.8,1.8,0,0,1,1.4,1.2,4,4,0,0,1,.3,1.5c0,1.4-.8,2.7-1.7,2.7S242.1,76.5,242.1,75.1Z"/><polygon class="cls-7" points="5.3 167.2 155.9 105.7 476.9 239.9 485.5 243.5 336.7 306.2 336.7 306.2 5.3 167.2"/><path class="cls-3" d="M155.9,106.3,476.7,240.4l7.5,3.1L336.7,305.7,6.6,167.2l149.3-60.9m0-1.1L4,167.2,336.7,306.8h.2l149.9-63.2-9.7-4.1L155.9,105.2Z"/><path class="cls-3" d="M7.8,2.2,1.3,4.7,7.8,94.2c0,.8.5-.1,1.4.2l205.8,94,5.4-4.2a2.2,2.2,0,0,0,3-2l2-92.5a2.3,2.3,0,0,0-1.3-2.1L10.9.2A2.2,2.2,0,0,0,7.8,2.2Z"/><path class="cls-8" d="M0,6.5v92a2.1,2.1,0,0,0,1.3,2l211.2,88a2.2,2.2,0,0,0,3.1-2l2-92.5a2.1,2.1,0,0,0-1.3-2L3.1,4.5A2.2,2.2,0,0,0,0,6.5Z"/><g class="cls-9"><path class="cls-10" d="M32.1,36.3,24.3,57.8l-2.5-1.1L14,28.7V53.5L8.1,51V16.6L16.3,20,23,44.3l6.8-18.6,8.3,3.5V63.6l-6-2.5Z"/><path class="cls-10" d="M56.6,36.4C65,39.9,71.1,49.9,71.1,60.3S65,75.5,56.6,72,42.2,58.5,42.2,48.1,48.3,32.9,56.6,36.4Zm0,6.5c-5.1-2.2-8.4,1.3-8.4,7.8s3.3,12.7,8.4,14.8S65,64.1,65,57.7,61.7,45,56.6,42.9Z"/><path class="cls-10" d="M85.4,71.1l-4.3-1.8V81.7l-5.9-2.5V44.8l13,5.4c5.7,2.4,9.2,8.6,9.2,15s-3,8-6,7.7l6.2,15.7-6.7-2.8Zm1.9-15-6.2-2.6V63l6.2,2.6c2.4,1,4.1-.1,4.1-3A7,7,0,0,0,87.3,56.1Z"/><path class="cls-10" d="M101.9,56l19.5,8.2v6.3l-13.6-5.8v7.5l13.4,5.6v6.3l-13.4-5.6v8l13.6,5.8v6.3l-19.5-8.2Z"/><path class="cls-10" d="M136.7,70.6l19.5,8.2v6.3l-13.7-5.8v7.5l13.4,5.6v6.3l-13.4-5.6v8l13.7,5.8v6.3L136.7,105Z"/><path class="cls-10" d="M171.9,107.2l-6.9,9.7-7-3,10-13.4-9.4-20.7,7,2.9,6.3,14.4,6.3-9.1,7.1,3-9.4,12.8,10,21.9-7-3Z"/><path class="cls-10" d="M188.5,92.3l12.9,5.5c6.1,2.5,9.3,8.9,9.3,15s-3.3,9.6-9.3,7.1l-7-3v12.3l-5.9-2.4Zm12.2,11.4-6.3-2.6v9.5l6.3,2.6c2.3,1,4-.1,4-3A7.2,7.2,0,0,0,200.7,103.7Z"/><path class="cls-10" d="M18.4,88,14,86.2V98.5L8.1,96.1V61.6l13,5.5c5.8,2.4,9.4,8.6,9.4,15s-3.1,8.1-6.1,7.7l6.3,15.7-6.8-2.8Zm1.9-15L14,70.4v9.5l6.3,2.6c2.3,1,4.1-.1,4.1-3A7.2,7.2,0,0,0,20.3,73Z"/><path class="cls-10" d="M35,72.9l19.7,8.3v6.3L40.9,81.7v7.5l13.5,5.7v6.3L40.9,95.5v8l13.8,5.8v6.3L35,107.3Z"/><path class="cls-10" d="M83.5,122.7l2.1,3.8L81.4,129l-2.2-4.2a12.4,12.4,0,0,1-6.6-1c-8.4-3.6-14.6-13.6-14.6-24s6.2-15.2,14.6-11.7,14.6,13.6,14.6,24C87.2,116.9,85.8,120.6,83.5,122.7Zm-8-4.8-3.2-6,4.2-2.4,3.1,6a10.4,10.4,0,0,0,1.5-6c0-6.4-3.4-12.7-8.5-14.9s-8.5,1.4-8.5,7.8,3.3,12.7,8.5,14.9A7.9,7.9,0,0,0,75.5,117.9Z"/><path class="cls-10" d="M91.4,96.6l6,2.5v20.5c0,4.8,2.1,9,6.5,10.8s6.4-.6,6.4-5.4V104.5l6,2.6v20.6c0,8.6-4,12.7-12.4,9.2s-12.5-11.1-12.5-19.6Z"/><path class="cls-10" d="M121.8,109.4l5.9,2.5v34.4l-5.9-2.5Z"/><path class="cls-10" d="M143.6,140.6l-4.4-1.8v12.3l-5.9-2.5V114.2l13,5.5c5.8,2.4,9.4,8.6,9.4,15s-3.1,8.1-6.1,7.7l6.3,15.7-6.9-2.8Zm1.8-15-6.2-2.6v9.5l6.2,2.6c2.4,1,4.2-.1,4.2-3A7.1,7.1,0,0,0,145.4,125.6Z"/><path class="cls-10" d="M160.2,125.5l19.7,8.3v6.3l-13.8-5.8v7.5l13.5,5.6v6.3l-13.5-5.6v8l13.8,5.8v6.3l-19.7-8.3Z"/><path class="cls-10" d="M184.5,135.7l11,4.7c8.8,3.6,14.9,13,14.9,23.4s-6.1,14.7-14.9,11l-11-4.6Zm11,32.6c5.6,2.4,8.8-1.2,8.8-7s-3-12.1-8.8-14.5l-5-2.1v21.5Z"/></g><path class="cls-3" d="M32.1,36.3,24.3,57.8l-2.5-1.1L14,28.7V53.5L8.1,51V16.6L16.3,20,23,44.3l6.8-18.6,8.3,3.5V63.6l-6-2.5Z"/><path class="cls-3" d="M56.6,36.4C65,39.9,71.1,49.9,71.1,60.3S65,75.5,56.6,72,42.2,58.5,42.2,48.1,48.3,32.9,56.6,36.4Zm0,6.5c-5.1-2.2-8.4,1.3-8.4,7.8s3.3,12.7,8.4,14.8S65,64.1,65,57.7,61.7,45,56.6,42.9Z"/><path class="cls-3" d="M85.4,71.1l-4.3-1.8V81.7l-5.9-2.5V44.8l13,5.4c5.7,2.4,9.2,8.6,9.2,15s-3,8-6,7.7l6.2,15.7-6.7-2.8Zm1.9-15-6.2-2.6V63l6.2,2.6c2.4,1,4.1-.1,4.1-3A7,7,0,0,0,87.3,56.1Z"/><path class="cls-3" d="M101.9,56l19.5,8.2v6.3l-13.6-5.8v7.5l13.4,5.6v6.3l-13.4-5.6v8l13.6,5.8v6.3l-19.5-8.2Z"/><path class="cls-3" d="M136.7,70.6l19.5,8.2v6.3l-13.7-5.8v7.5l13.4,5.6v6.3l-13.4-5.6v8l13.7,5.8v6.3L136.7,105Z"/><path class="cls-3" d="M171.9,107.2l-6.9,9.7-7-3,10-13.4-9.4-20.7,7,2.9,6.3,14.4,6.3-9.1,7.1,3-9.4,12.8,10,21.9-7-3Z"/><path class="cls-3" d="M188.5,92.3l12.9,5.5c6.1,2.5,9.3,8.9,9.3,15s-3.3,9.6-9.3,7.1l-7-3v12.3l-5.9-2.4Zm12.2,11.4-6.3-2.6v9.5l6.3,2.6c2.3,1,4-.1,4-3A7.2,7.2,0,0,0,200.7,103.7Z"/><path class="cls-3" d="M18.4,88,14,86.2V98.5L8.1,96.1V61.6l13,5.5c5.8,2.4,9.4,8.6,9.4,15s-3.1,8.1-6.1,7.7l6.3,15.7-6.8-2.8Zm1.9-15L14,70.4v9.5l6.3,2.6c2.3,1,4.1-.1,4.1-3A7.2,7.2,0,0,0,20.3,73Z"/><path class="cls-3" d="M35,72.9l19.7,8.3v6.3L40.9,81.7v7.5l13.5,5.7v6.3L40.9,95.5v8l13.8,5.8v6.3L35,107.3Z"/><path class="cls-3" d="M83.5,122.7l2.1,3.8L81.4,129l-2.2-4.2a12.4,12.4,0,0,1-6.6-1c-8.4-3.6-14.6-13.6-14.6-24s6.2-15.2,14.6-11.7,14.6,13.6,14.6,24C87.2,116.9,85.8,120.6,83.5,122.7Zm-8-4.8-3.2-6,4.2-2.4,3.1,6a10.4,10.4,0,0,0,1.5-6c0-6.4-3.4-12.7-8.5-14.9s-8.5,1.4-8.5,7.8,3.3,12.7,8.5,14.9A7.9,7.9,0,0,0,75.5,117.9Z"/><path class="cls-3" d="M91.4,96.6l6,2.5v20.5c0,4.8,2.1,9,6.5,10.8s6.4-.6,6.4-5.4V104.5l6,2.6v20.6c0,8.6-4,12.7-12.4,9.2s-12.5-11.1-12.5-19.6Z"/><path class="cls-3" d="M121.8,109.4l5.9,2.5v34.4l-5.9-2.5Z"/><path class="cls-3" d="M143.6,140.6l-4.4-1.8v12.3l-5.9-2.5V114.2l13,5.5c5.8,2.4,9.4,8.6,9.4,15s-3.1,8.1-6.1,7.7l6.3,15.7-6.9-2.8Zm1.8-15-6.2-2.6v9.5l6.2,2.6c2.4,1,4.2-.1,4.2-3A7.1,7.1,0,0,0,145.4,125.6Z"/><path class="cls-3" d="M160.2,125.5l19.7,8.3v6.3l-13.8-5.8v7.5l13.5,5.6v6.3l-13.5-5.6v8l13.8,5.8v6.3l-19.7-8.3Z"/><path class="cls-3" d="M184.5,135.7l11,4.7c8.8,3.6,14.9,13,14.9,23.4s-6.1,14.7-14.9,11l-11-4.6Zm11,32.6c5.6,2.4,8.8-1.2,8.8-7s-3-12.1-8.8-14.5l-5-2.1v21.5Z"/><path class="cls-11" d="M453.1,221.9v25.7l-105.9,43-94.8-39.1v-25l108-45.1L395,196.5a4.8,4.8,0,0,1,1.6,1.2l2.3,4c1.1,1.5,1.6,2.6,3.3,3.4l17.2,7.7a6.4,6.4,0,0,0,4.7.1l3.2-1.4a2.8,2.8,0,0,1,2.2.1Z"/><path class="cls-3" d="M448.1,221.9l-25.9,10.4-75.3,30.4-16.4-6.9a14.9,14.9,0,0,0-9.1-.2l-4.2,1.7a4.9,4.9,0,0,1-2.7-.2L296.8,250a7.6,7.6,0,0,1-3.1-2.5l-4.6-6.3c-.6-1.1-2.8-2-4-2.5l-8.1-3.2-21.1-8.4,104.7-43.8,32.6,14.5a4,4,0,0,1,1.8,1.6l2.8,4.2a7.9,7.9,0,0,0,3.2,2.8l10.9,4.9a62.7,62.7,0,0,0,6.6,2.9,6.1,6.1,0,0,0,4-.1l3.7-1.2a4.2,4.2,0,0,1,2.9.2Z"/><path class="cls-12" d="M269,251.4l-3.5-1.3-.6,1-1.9-.7,3.9-5.8,2.1.8,2.2,8.1-1.8-.7Zm-2.9-2.4,2.6,1-.9-3.8Z"/><path class="cls-12" d="M272.8,246.8l3.6,1.4a3.5,3.5,0,0,1,2.4,3.3c-.2,1.2-1.2,1.9-2.9,1.2l-2-.8-.3,2.6-1.7-.7Zm3.2,2.6-1.7-.7-.3,2,1.8.6c.7.3,1.2.1,1.3-.5A1.6,1.6,0,0,0,276,249.4Z"/><path class="cls-12" d="M280.1,249.6l3.6,1.4c1.7.7,2.6,2.1,2.4,3.3s-1.2,1.9-2.9,1.2l-2-.7-.3,2.5-1.7-.7Zm3.3,2.6-1.8-.7-.2,2,1.7.7c.7.2,1.2,0,1.3-.6S284,252.5,283.4,252.2Z"/><path class="cls-12" d="M287.4,252.4l1.7.7-.7,5.7,3.3,1.3-.2,1.3-4.9-1.9Z"/><path class="cls-12" d="M293.5,254.8l1.7.6-.8,7.1-1.7-.7Z"/><path class="cls-12" d="M296,259.4c.2-2.1,2.2-2.9,4.5-2a5.1,5.1,0,0,1,3.1,3h-1.5a2.9,2.9,0,0,0-1.7-1.7c-1.4-.5-2.6,0-2.7,1.4a3.1,3.1,0,0,0,2.1,3.2c.9.3,1.6.2,2-.3l1.4,1.2a3.3,3.3,0,0,1-3.6.4C297.3,263.7,295.7,261.6,296,259.4Z"/><path class="cls-12" d="M309,266.8l-3.5-1.3-.6,1-1.8-.7,3.8-5.8,2.1.8,2.2,8.1-1.8-.7Zm-2.9-2.4,2.6,1-.9-3.7Z"/><path class="cls-12" d="M314.2,265.2l-.6,4.7-1.7-.7.9-7,1.7.7,3.1,5.9.5-4.5,1.7.6-.9,7-1.6-.6Z"/><path class="cls-12" d="M323,267.5l-2.3-.9.2-1.3,6.2,2.4-.2,1.3-2.2-.8-.7,5.7-1.7-.7Z"/><path class="cls-12" d="M327.9,273.1a4.8,4.8,0,0,0,2.3,1.9c1,.4,1.5.2,1.5-.2s-.6-1-1.5-1.5-2.8-1.7-2.6-3.3,1.3-1.7,3.2-1a6.4,6.4,0,0,1,2.9,2.2l-1,.7a5.7,5.7,0,0,0-2.2-1.6c-.7-.3-1.2-.2-1.2.3s.6.8,1.4,1.4,2.9,1.7,2.7,3.3-1.3,1.8-3.4,1a6.8,6.8,0,0,1-3.2-2.4Z"/><path class="cls-3" d="M252.4,192.4a99.8,99.8,0,0,1-16.1,6.6,26.9,26.9,0,0,1-17.9-.9h0a.7.7,0,0,1-.3-.6.8.8,0,0,1,.7-.8c.3,0,.5.2.7.5,1.4-1.3,4.2-3.6,7.5-6.2-6.7-5.7,2-19,3.4-6.6a4.8,4.8,0,0,1,0,1.2l-.4,3,1.5-1.1V187a2.4,2.4,0,0,1,0-1.2c1-6.9,4.1-5.7,5.3-2.3a63.1,63.1,0,0,1,8.6-5.3C254.8,173.4,252.4,192.4,252.4,192.4Z"/><circle class="cls-13" cx="228.6" cy="195" r="1.1"/><path class="cls-14" d="M252.1,184.5a29.3,29.3,0,0,0,10.9-6.7c2.6-2.8,4-7,2.4-10.5s-4.6-4.9-7.9-5.6-6.7-.5-10-.8-6.8-1-9.3-3.3-3.5-6-3.7-9.5.3-6.9.2-10.4-.9-7.1-3.1-9.7-6.4-3.8-9.4-2"/><path class="cls-15" d="M293.6,129.1a24.1,24.1,0,0,1-20,13c-.1,13.2-8.8,25-21.2,29.7-1,6.1-6,11.4-11.8,13.7a165.4,165.4,0,0,1,29.7-64.2c-1.6-2.5.9-10.5,7.7-13.3,0,0-.9,7.6,6.1,8.7a20.4,20.4,0,0,1-2.3,11.1,19.2,19.2,0,0,0,11.4-5.3C293.4,125.2,293.4,126.4,293.6,129.1Z"/><path class="cls-3" d="M102.2,142.8l4.8,21.6c2.6,8.7,3.5,7.7,6.2,8.6s4.2-1.5,5.5-8.6l2.4-13.7Z"/><polygon class="cls-4" points="15.6 272.6 22.9 269.1 22.9 201.2 15.6 198.1 15.6 272.6"/><g class="cls-16"><polygon class="cls-17" points="265.3 238.7 359.9 201.8 440.1 233.2 349.7 270.1 265.3 238.7"/><polygon class="cls-13" points="265.3 237.5 359.9 200.7 440.1 232 349.7 269 265.3 237.5"/><polygon class="cls-17" points="265.3 236.4 359.9 199.6 440.1 230.9 349.7 267.9 265.3 236.4"/><polygon class="cls-13" points="265.3 235.3 359.9 198.4 440.1 229.8 349.7 266.7 265.3 235.3"/><polygon class="cls-17" points="265.3 234.2 359.9 197.3 440.1 228.6 349.7 265.6 265.3 234.2"/><polygon class="cls-13" points="265.3 233 359.9 196.2 440.1 227.5 349.7 264.5 265.3 233"/><polygon class="cls-17" points="265.3 231.9 359.9 195 440.1 226.4 349.7 263.4 265.3 231.9"/><polygon class="cls-13" points="265.3 230.8 359.9 193.9 440.1 225.2 349.7 262.2 265.3 230.8"/><polygon class="cls-17" points="265.3 229.6 359.9 192.8 440.1 224.1 349.7 261.1 265.3 229.6"/><polygon class="cls-13" points="265.3 228.5 359.9 191.6 440.1 223 349.7 260 265.3 228.5"/><polygon class="cls-17" points="265.3 227.4 359.9 190.5 440.1 221.9 349.7 258.8 265.3 227.4"/><polygon class="cls-13" points="265.3 226.2 359.9 189.4 440.1 220.7 349.7 257.7 265.3 226.2"/></g><path class="cls-11" d="M453.1,189.1v25.7l-105.9,43-94.8-39.1v-25l108-45.1L395,163.7a4.8,4.8,0,0,1,1.6,1.2l2.3,4c1.1,1.5,1.6,2.6,3.3,3.4l17.2,7.7a5.9,5.9,0,0,0,4.7.1l3.2-1.3a2.8,2.8,0,0,1,2.2,0Z"/><path class="cls-3" d="M448.1,189.1l-25.9,10.5-75.3,30.3L330.5,223c-2.2-1-6.9-1-9.1-.2l-4.2,1.7a4.1,4.1,0,0,1-2.7-.2l-17.7-7.1a7.4,7.4,0,0,1-3.1-2.4l-4.6-6.4c-.6-1.1-2.8-1.9-4-2.4l-8.1-3.3-21.1-8.4,104.7-43.8L393.2,165a4.6,4.6,0,0,1,1.8,1.6l2.8,4.2a7.2,7.2,0,0,0,3.2,2.8l10.9,4.9a62.7,62.7,0,0,0,6.6,2.9,6.8,6.8,0,0,0,4,0l3.7-1.2a3.7,3.7,0,0,1,2.9.1Z"/><path class="cls-12" d="M269,218.7l-3.5-1.4-.6,1-1.9-.7,3.9-5.8,2.1.8,2.2,8.2-1.8-.7Zm-2.9-2.5,2.6,1-.9-3.7Z"/><path class="cls-12" d="M272.8,214l3.6,1.4a3.5,3.5,0,0,1,2.4,3.3c-.2,1.2-1.2,1.9-2.9,1.2l-2-.7-.3,2.5-1.7-.7Zm3.2,2.6-1.7-.6-.3,1.9,1.8.7c.7.2,1.2,0,1.3-.6A1.7,1.7,0,0,0,276,216.6Z"/><path class="cls-12" d="M280.1,216.9l3.6,1.4a3.2,3.2,0,0,1,2.4,3.2c-.1,1.3-1.2,1.9-2.9,1.3l-2-.8-.3,2.5-1.7-.6Zm3.3,2.6-1.8-.7-.2,1.9,1.7.7c.7.2,1.2.1,1.3-.5A1.4,1.4,0,0,0,283.4,219.5Z"/><path class="cls-12" d="M287.4,219.7l1.7.6-.7,5.7,3.3,1.3-.2,1.3-4.9-1.9Z"/><path class="cls-12" d="M293.5,222l1.7.7-.8,7-1.7-.7Z"/><path class="cls-12" d="M296,226.6c.2-2.1,2.2-2.9,4.5-2a5.1,5.1,0,0,1,3.1,3h-1.5a3.3,3.3,0,0,0-1.7-1.8c-1.4-.5-2.6.1-2.7,1.4a3.1,3.1,0,0,0,2.1,3.2,1.6,1.6,0,0,0,2-.3l1.4,1.2c-.7.7-1.8,1.1-3.6.4A5.1,5.1,0,0,1,296,226.6Z"/><path class="cls-12" d="M309,234.1l-3.5-1.4-.6,1-1.8-.7,3.8-5.8,2.1.8,2.2,8.2-1.8-.7Zm-2.9-2.5,2.6,1-.9-3.7Z"/><path class="cls-12" d="M314.2,232.4l-.6,4.7-1.7-.6.9-7.1,1.7.7,3.1,5.9.5-4.5,1.7.6-.9,7.1-1.6-.7Z"/><path class="cls-12" d="M323,234.7l-2.3-.8.2-1.3,6.2,2.4-.2,1.3-2.2-.9-.7,5.7-1.7-.7Z"/><path class="cls-12" d="M327.9,240.4a5.5,5.5,0,0,0,2.3,1.9c1,.3,1.5.1,1.5-.3s-.6-1-1.5-1.5-2.8-1.7-2.6-3.3,1.3-1.6,3.2-.9a6.2,6.2,0,0,1,2.9,2.1l-1,.8a5.1,5.1,0,0,0-2.2-1.7c-.7-.3-1.2-.1-1.2.3s.6.9,1.4,1.4,2.9,1.7,2.7,3.3-1.3,1.9-3.4,1a6.6,6.6,0,0,1-3.2-2.3Z"/><g class="cls-18"><polygon class="cls-17" points="266.4 209.3 361 172.4 441.2 203.8 350.8 240.8 266.4 209.3"/><polygon class="cls-13" points="266.4 208.2 361 171.3 441.2 202.6 350.8 239.6 266.4 208.2"/><polygon class="cls-17" points="266.4 207 361 170.2 441.2 201.5 350.8 238.5 266.4 207"/><polygon class="cls-13" points="266.4 205.9 361 169.1 441.2 200.4 350.8 237.4 266.4 205.9"/><polygon class="cls-17" points="266.4 204.8 361 167.9 441.2 199.3 350.8 236.2 266.4 204.8"/><polygon class="cls-13" points="266.4 203.6 361 166.8 441.2 198.1 350.8 235.1 266.4 203.6"/><polygon class="cls-17" points="266.4 202.5 361 165.7 441.2 197 350.8 234 266.4 202.5"/><polygon class="cls-13" points="266.4 201.4 361 164.5 441.2 195.9 350.8 232.8 266.4 201.4"/><polygon class="cls-17" points="266.4 200.3 361 163.4 441.2 194.7 350.8 231.7 266.4 200.3"/><polygon class="cls-13" points="266.4 199.1 361 162.3 441.2 193.6 350.8 230.6 266.4 199.1"/><polygon class="cls-17" points="266.4 198 361 161.1 441.2 192.5 350.8 229.5 266.4 198"/><polygon class="cls-13" points="441.2 191.3 439.8 191.9 350.8 228.3 267.9 197.4 266.4 196.9 269.4 195.7 270.9 195.1 272.4 194.6 272.4 194.6 273.9 194 275.3 193.4 361 160 390.3 171.5 432.7 188 435.6 189.1 437 189.7 437 189.7 441.2 191.3"/><polygon class="cls-17" points="441.2 190.2 438.4 191.4 350.8 227.2 269.4 196.8 266.4 195.7 269.4 194.6 270.9 194 272.4 193.4 272.4 193.4 273.8 192.8 361 158.9 391.8 170.9 434.1 187.5 434.1 187.5 435.6 188 437 188.6 437 188.6 441.2 190.2"/><polygon class="cls-13" points="441.2 189.1 437 190.8 437 190.8 350.8 226.1 270.9 196.3 269.4 195.7 266.4 194.6 269.4 193.5 270.9 192.9 272.4 192.3 272.4 192.3 361 157.7 393.2 170.3 435.5 186.9 435.6 186.9 437 187.4 437 187.4 441.2 189.1"/><polygon class="cls-17" points="441.2 188 437 189.7 437 189.7 435.6 190.3 350.8 224.9 272.4 195.7 272.4 195.7 270.9 195.1 269.4 194.6 266.4 193.5 269.4 192.3 270.9 191.7 361 156.6 394.6 169.7 394.6 169.7 437 186.3 441.2 188"/><polygon class="cls-13" points="441.2 186.8 437 188.6 437 188.6 435.6 189.1 434.1 189.7 350.8 223.8 273.9 195.1 272.4 194.6 272.4 194.6 270.9 194 269.4 193.5 266.4 192.3 269.4 191.2 361 155.5 396 169.2 438.4 185.7 441.2 186.8"/><polygon class="cls-17" points="441.2 185.7 437 187.4 435.6 188 432.7 189.2 350.8 222.7 275.3 194.5 273.9 194 272.4 193.4 270.9 192.9 269.4 192.3 266.4 191.2 269.4 190.1 270.9 189.5 272.4 188.9 272.4 188.9 273.9 188.3 276.8 187.2 278.3 186.6 284.2 184.3 284.2 184.3 285.7 183.7 287.2 183.1 294.6 180.2 296.1 179.7 296.1 179.7 297.6 179.1 300.5 177.9 361 154.4 397.4 168.6 397.4 168.6 408.7 173 412.9 174.7 414.4 175.2 415.8 175.8 415.8 175.8 417.2 176.3 417.2 176.3 418.6 176.9 418.6 176.9 420 177.4 420 177.4 421.4 178 427.1 180.2 428.5 180.7 428.5 180.7 435.6 183.5 437 184 437 184 441.2 185.7"/><polygon class="cls-13" points="441.2 184.6 439.8 185.1 350.8 221.5 267.9 190.6 266.4 190.1 269.4 188.9 270.9 188.4 272.4 187.8 272.4 187.8 273.9 187.2 276.8 186 278.3 185.5 284.2 183.2 284.2 183.2 285.7 182.6 287.2 182 294.6 179.1 296.1 178.5 296.1 178.5 297.6 177.9 299 177.4 299 177.4 361 153.2 398.8 168 410.1 172.4 412.9 173.5 414.4 174.1 415.8 174.6 417.2 175.2 417.2 175.2 418.6 175.7 418.6 175.7 420 176.3 420 176.3 421.4 176.8 427.1 179.1 428.5 179.6 428.5 179.6 435.6 182.4 437 182.9 437 182.9 441.2 184.6"/><polygon class="cls-17" points="441.2 183.4 438.4 184.6 350.8 220.4 269.4 190.1 266.4 189 269.4 187.8 270.9 187.2 272.4 186.6 272.4 186.6 273.9 186.1 276.8 184.9 278.3 184.3 284.2 182 284.2 182 285.7 181.4 287.2 180.9 294.6 178 296.1 177.4 296.1 177.4 297.6 176.8 297.6 176.8 361 152.1 400.2 167.4 411.5 171.8 412.9 172.4 414.4 173 415.8 173.5 417.2 174.1 417.2 174.1 418.6 174.6 418.6 174.6 420 175.2 420 175.2 421.4 175.7 427.1 177.9 428.5 178.5 428.5 178.5 435.6 181.2 437 181.8 437 181.8 441.2 183.4"/><polygon class="cls-13" points="441.2 182.3 437 184 437 184 350.8 219.3 270.9 189.5 269.4 188.9 266.4 187.8 269.4 186.7 270.9 186.1 272.4 185.5 272.4 185.5 273.9 184.9 276.8 183.8 278.3 183.2 284.2 180.9 284.2 180.9 285.7 180.3 287.2 179.7 294.6 176.9 296.1 176.3 296.1 176.3 361 151 401.6 166.9 412.9 171.3 414.4 171.8 415.8 172.4 417.2 172.9 417.2 172.9 418.6 173.5 418.6 173.5 420 174 420 174 421.4 174.6 427.1 176.8 428.5 177.3 428.5 177.3 435.6 180.1 437 180.7 437 180.7 441.2 182.3"/><polygon class="cls-17" points="441.2 181.2 437 182.9 437 182.9 435.6 183.5 350.8 218.2 272.4 188.9 272.4 188.9 270.9 188.4 269.4 187.8 266.4 186.7 269.4 185.5 270.9 185 272.4 184.4 272.4 184.4 273.9 183.8 276.8 182.6 278.3 182.1 284.2 179.8 284.2 179.8 285.7 179.2 287.2 178.6 294.6 175.7 294.6 175.7 361 149.8 403.1 166.3 414.4 170.7 415.8 171.2 415.8 171.2 417.2 171.8 417.2 171.8 418.6 172.3 418.6 172.3 420 172.9 420 172.9 421.4 173.5 427.1 175.7 428.5 176.2 428.5 176.2 435.6 179 437 179.5 437 179.5 441.2 181.2"/><polygon class="cls-13" points="441.2 180.1 437 181.8 437 181.8 435.6 182.4 434.1 182.9 350.8 217 273.9 188.3 272.4 187.8 272.4 187.8 270.9 187.2 269.4 186.7 266.4 185.6 269.4 184.4 270.9 183.8 272.4 183.3 272.4 183.3 273.9 182.7 276.8 181.5 278.3 180.9 284.2 178.6 284.2 178.6 285.7 178.1 287.2 177.5 293.1 175.2 361 148.7 404.5 165.7 415.8 170.1 417.2 170.7 417.2 170.7 418.6 171.2 418.6 171.2 420 171.8 420 171.8 421.4 172.3 427.1 174.5 428.5 175.1 428.5 175.1 435.6 177.8 437 178.4 437 178.4 441.2 180.1"/><polygon class="cls-17" points="441.2 178.9 437 180.7 437 180.7 435.6 181.2 432.7 182.4 350.8 215.9 275.3 187.7 273.9 187.2 272.4 186.6 272.4 186.6 270.9 186.1 269.4 185.5 266.4 184.4 269.4 183.3 270.9 182.7 272.4 182.1 272.4 182.1 273.9 181.5 276.8 180.4 278.3 179.8 284.2 177.5 284.2 177.5 285.7 176.9 287.2 176.3 291.6 174.6 361 147.6 405.9 165.1 417.2 169.5 418.6 170.1 418.6 170.1 420 170.6 420 170.6 421.4 171.2 427.1 173.4 428.5 173.9 428.5 173.9 435.6 176.7 437 177.3 437 177.3 441.2 178.9"/><polygon class="cls-13" points="441.2 177.8 437 179.5 437 179.5 435.6 180.1 431.3 181.8 350.8 214.8 276.8 187.2 273.9 186.1 272.4 185.5 272.4 185.5 270.9 185 269.4 184.4 266.4 183.3 269.4 182.2 270.9 181.6 272.4 181 272.4 181 273.9 180.4 276.8 179.3 278.3 178.7 284.2 176.4 284.2 176.4 285.7 175.8 287.2 175.2 290.1 174.1 361 146.4 407.3 164.5 407.3 164.5 418.6 169 418.6 169 420 169.5 420 169.5 421.4 170.1 427.1 172.3 428.5 172.8 428.5 172.8 435.6 175.6 437 176.1 437 176.1 441.2 177.8"/><polygon class="cls-17" points="441.2 176.7 437 178.4 437 178.4 435.6 179 429.9 181.3 350.8 213.6 278.3 186.6 276.8 186 273.9 184.9 272.4 184.4 272.4 184.4 270.9 183.8 269.4 183.3 266.4 182.2 269.4 181 270.9 180.4 272.4 179.9 272.4 179.9 273.9 179.3 276.8 178.1 278.3 177.6 284.2 175.2 284.2 175.2 285.7 174.7 287.2 174.1 288.7 173.5 361 145.3 408.7 164 420 168.4 421.4 168.9 427.1 171.1 428.5 171.7 428.5 171.7 435.6 174.5 437 175 437 175 441.2 176.7"/><polygon class="cls-13" points="441.2 175.5 437 177.3 437 177.3 435.6 177.8 428.5 180.7 428.5 180.7 350.8 212.5 279.8 186 278.3 185.5 276.8 184.9 273.9 183.8 272.4 183.3 272.4 183.3 270.9 182.7 269.4 182.2 266.4 181 269.4 179.9 270.9 179.3 272.4 178.7 272.4 178.7 273.9 178.2 276.8 177 278.3 176.4 284.2 174.1 284.2 174.1 285.7 173.5 287.2 173 287.2 173 361 144.2 410.1 163.4 421.4 167.8 422.8 168.4 427.1 170 428.5 170.6 428.5 170.6 435.6 173.3 437 173.9 437 173.9 441.2 175.5"/><polygon class="cls-17" points="441.2 174.4 437 176.1 437 176.1 435.6 176.7 428.5 179.6 428.5 179.6 427.1 180.2 350.8 211.4 281.3 185.4 278.3 184.3 276.8 183.8 273.9 182.7 272.4 182.1 272.4 182.1 270.9 181.6 269.4 181 266.4 179.9 269.4 178.8 270.9 178.2 272.4 177.6 272.4 177.6 273.9 177 276.8 175.9 278.3 175.3 284.2 173 284.2 173 285.7 172.4 285.7 172.4 361 143.1 411.5 162.8 422.8 167.2 424.3 167.8 427.1 168.9 428.5 169.4 428.5 169.4 435.6 172.2 437 172.7 437 172.7 441.2 174.4"/><polygon class="cls-13" points="441.2 173.3 437 175 437 175 435.6 175.6 428.5 178.5 428.5 178.5 427.1 179.1 425.7 179.6 350.8 210.2 282.7 184.9 278.3 183.2 276.8 182.6 273.9 181.5 272.4 181 272.4 181 270.9 180.4 269.4 179.9 266.4 178.8 269.4 177.6 270.9 177.1 272.4 176.5 272.4 176.5 273.9 175.9 276.8 174.7 278.3 174.2 284.2 171.9 284.2 171.9 361 141.9 412.9 162.2 424.2 166.7 425.7 167.2 427.1 167.8 428.5 168.3 428.5 168.3 435.6 171.1 437 171.6 437 171.6 441.2 173.3"/><polygon class="cls-17" points="441.2 172.1 437 173.9 437 173.9 435.6 174.5 428.5 177.3 428.5 177.3 427.1 177.9 424.3 179.1 350.8 209.1 284.2 184.3 284.2 184.3 278.3 182.1 276.8 181.5 273.9 180.4 272.4 179.9 272.4 179.9 270.9 179.3 269.4 178.8 266.4 177.7 269.4 176.5 270.9 175.9 272.4 175.3 272.4 175.3 273.9 174.8 276.8 173.6 278.3 173 282.7 171.3 361 140.8 414.4 161.7 425.7 166.1 425.7 166.1 427.1 166.6 428.5 167.2 428.5 167.2 435.6 169.9 437 170.5 437 170.5 441.2 172.1"/><polygon class="cls-13" points="441.2 171 437 172.7 437 172.7 435.6 173.3 428.5 176.2 427.1 176.8 422.8 178.5 350.8 208 285.7 183.7 284.2 183.2 282.7 182.6 278.3 180.9 276.8 180.4 273.9 179.3 272.4 178.7 270.9 178.2 269.4 177.6 266.4 176.5 269.4 175.4 270.9 174.8 272.4 174.2 272.4 174.2 273.9 173.6 276.8 172.5 278.3 171.9 281.3 170.8 361 139.7 415.8 161.1 415.8 161.1 427.1 165.5 428.5 166 428.5 166 435.6 168.8 437 169.3 437 169.3 441.2 171"/><polygon class="cls-17" points="441.2 169.9 437 171.6 437 171.6 435.6 172.2 428.5 175.1 428.5 175.1 427.1 175.7 421.4 178 350.8 206.9 287.2 183.1 285.7 182.6 284.2 182 284.2 182 278.3 179.8 276.8 179.3 273.9 178.2 272.4 177.6 272.4 177.6 270.9 177.1 269.4 176.5 266.4 175.4 269.4 174.2 270.9 173.7 272.4 173.1 272.4 173.1 273.9 172.5 276.8 171.3 278.3 170.8 279.8 170.2 361 138.5 417.2 160.5 428.5 164.9 435.6 167.7 437 168.2 437 168.2 441.2 169.9"/><polygon class="cls-13" points="441.2 168.8 437 170.5 437 170.5 435.6 171.1 428.5 173.9 428.5 173.9 427.1 174.5 421.4 176.8 420 177.4 420 177.4 350.8 205.7 288.7 182.5 287.2 182 285.7 181.4 284.2 180.9 284.2 180.9 278.3 178.7 276.8 178.1 273.9 177 272.4 176.5 272.4 176.5 270.9 175.9 269.4 175.4 266.4 174.3 269.4 173.1 270.9 172.5 272.4 172 272.4 172 273.9 171.4 276.8 170.2 278.3 169.6 361 137.4 418.6 159.9 429.9 164.3 435.6 166.5 437 167.1 437 167.1 441.2 168.8"/><polygon class="cls-17" points="441.2 167.6 437 169.3 437 169.3 435.6 169.9 428.5 172.8 428.5 172.8 427.1 173.4 421.4 175.7 420 176.3 420 176.3 418.6 176.9 418.6 176.9 350.8 204.6 290.1 182 287.2 180.9 285.7 180.3 284.2 179.8 284.2 179.8 278.3 177.6 276.8 177 273.9 175.9 272.4 175.3 272.4 175.3 270.9 174.8 269.4 174.2 266.4 173.1 269.4 172 270.9 171.4 272.4 170.8 272.4 170.8 273.9 170.2 276.8 169.1 361 136.3 420 159.3 431.3 163.8 435.6 165.4 437 166 437 166 441.2 167.6"/><polygon class="cls-13" points="441.2 166.5 437 168.2 437 168.2 435.6 168.8 428.5 171.7 428.5 171.7 427.1 172.3 421.4 174.6 420 175.2 420 175.2 418.6 175.7 418.6 175.7 417.2 176.3 417.2 176.3 350.8 203.5 291.6 181.4 287.2 179.7 285.7 179.2 284.2 178.6 284.2 178.6 278.3 176.4 276.8 175.9 273.9 174.8 272.4 174.2 272.4 174.2 270.9 173.7 269.4 173.1 266.4 172 269.4 170.9 270.9 170.3 272.4 169.7 272.4 169.7 273.9 169.1 275.3 168.5 275.3 168.5 361 135.1 421.4 158.8 432.7 163.2 435.6 164.3 437 164.8 437 164.8 441.2 166.5"/><polygon class="cls-17" points="441.2 165.4 437 167.1 437 167.1 435.6 167.7 428.5 170.6 428.5 170.6 427.1 171.1 421.4 173.5 420 174 420 174 418.6 174.6 418.6 174.6 417.2 175.2 417.2 175.2 415.8 175.8 415.8 175.8 350.8 202.3 293.1 180.8 287.2 178.6 285.7 178.1 284.2 177.5 284.2 177.5 278.3 175.3 276.8 174.7 273.9 173.6 272.4 173.1 272.4 173.1 270.9 172.5 269.4 172 266.4 170.9 269.4 169.7 270.9 169.1 272.4 168.6 272.4 168.6 273.8 168 361 134 422.8 158.2 434.1 162.6 434.1 162.6 435.6 163.2 437 163.7 437 163.7 441.2 165.4"/><polygon class="cls-13" points="441.2 164.2 437 166 437 166 435.6 166.5 428.5 169.4 428.5 169.4 427.1 170 421.4 172.3 420 172.9 420 172.9 418.6 173.5 418.6 173.5 417.2 174.1 417.2 174.1 415.8 174.6 414.4 175.2 350.8 201.2 294.6 180.2 287.2 177.5 285.7 176.9 284.2 176.4 284.2 176.4 278.3 174.2 276.8 173.6 273.9 172.5 272.4 172 272.4 172 270.9 171.4 269.4 170.9 266.4 169.7 269.4 168.6 270.9 168 272.4 167.4 272.4 167.4 361 132.9 424.2 157.6 424.3 157.6 435.5 162 435.6 162 437 162.6 437 162.6 441.2 164.2"/><polygon class="cls-17" points="441.2 163.1 437 164.8 437 164.8 435.6 165.4 428.5 168.3 428.5 168.3 427.1 168.9 421.4 171.2 420 171.8 420 171.8 418.6 172.3 418.6 172.3 417.2 172.9 417.2 172.9 415.8 173.5 414.4 174.1 412.9 174.7 350.8 200.1 296.1 179.7 296.1 179.7 294.6 179.1 287.2 176.3 285.7 175.8 284.2 175.2 284.2 175.2 278.3 173 276.8 172.5 273.9 171.4 272.4 170.8 272.4 170.8 270.9 170.3 269.4 169.7 266.4 168.6 269.4 167.5 270.9 166.9 361 131.8 425.7 157 437 161.4 441.2 163.1"/><polygon class="cls-13" points="441.2 162 437 163.7 437 163.7 435.6 164.3 428.5 167.2 428.5 167.2 427.1 167.8 421.4 170.1 420 170.6 420 170.6 418.6 171.2 418.6 171.2 417.2 171.8 417.2 171.8 415.8 172.4 414.4 173 412.9 173.5 411.5 174.1 350.8 198.9 297.6 179.1 296.1 178.5 296.1 178.5 294.6 178 287.2 175.2 285.7 174.7 284.2 174.1 284.2 174.1 278.3 171.9 276.8 171.3 273.9 170.2 272.4 169.7 272.4 169.7 270.9 169.1 269.4 168.6 266.4 167.5 269.4 166.3 361 130.6 427.1 156.4 438.4 160.9 441.2 162"/><polygon class="cls-17" points="441.2 160.8 437 162.6 435.6 163.2 428.5 166 427.1 166.6 421.4 168.9 420 169.5 418.6 170.1 417.2 170.7 414.4 171.8 412.9 172.4 410.1 173.6 350.8 197.8 299 178.5 297.6 177.9 296.1 177.4 294.6 176.9 287.2 174.1 285.7 173.5 284.2 173 282.7 172.4 278.3 170.8 276.8 170.2 273.9 169.1 272.4 168.6 270.9 168 269.4 167.5 266.4 166.4 269.4 165.2 270.9 164.6 272.4 164.1 272.4 164.1 273.9 163.5 276.8 162.3 278.3 161.7 279.8 161.2 361 129.5 428.5 155.9 428.5 155.9 435.6 158.6 437 159.2 437 159.2 441.2 160.8"/><polygon class="cls-13" points="441.2 159.7 439.8 160.3 350.8 196.7 267.9 165.8 266.4 165.2 269.4 164.1 270.9 163.5 272.4 162.9 272.4 162.9 273.9 162.3 276.8 161.2 278.3 160.6 361 128.4 429.9 155.3 435.6 157.5 437 158.1 437 158.1 441.2 159.7"/><polygon class="cls-17" points="441.2 158.6 438.4 159.7 350.8 195.6 269.4 165.2 266.4 164.1 269.4 162.9 270.9 162.4 272.4 161.8 272.4 161.8 273.9 161.2 276.8 160.1 361 127.2 431.3 154.7 435.6 156.4 437 156.9 437 156.9 441.2 158.6"/><polygon class="cls-13" points="441.2 157.5 437 159.2 437 159.2 350.8 194.4 270.9 164.6 269.4 164.1 266.4 163 269.4 161.8 270.9 161.2 272.4 160.7 272.4 160.7 273.9 160.1 275.3 159.5 361 126.1 432.7 154.1 435.6 155.2 437 155.8 437 155.8 441.2 157.5"/><polygon class="cls-17" points="441.2 156.3 437 158.1 437 158.1 435.6 158.6 350.8 193.3 272.4 164.1 272.4 164.1 270.9 163.5 269.4 162.9 266.4 161.8 269.4 160.7 270.9 160.1 270.9 160.1 272.4 159.5 273.8 158.9 273.9 158.9 361 125 434.1 153.6 435.5 154.1 435.6 154.1 437 154.7 437 154.7 438.4 155.2 441.2 156.3"/><polygon class="cls-13" points="441.2 155.2 437 156.9 437 156.9 435.6 157.5 434.1 158.1 350.8 192.2 273.9 163.5 272.4 162.9 272.4 162.9 270.9 162.4 269.4 161.8 266.4 160.7 269.4 159.6 270.9 159 270.9 159 272.4 158.4 361 123.8 435.5 153 435.6 153 437 153.5 437 153.5 438.4 154.1 441.2 155.2"/><polygon class="cls-17" points="441.2 154.1 437 155.8 437 155.8 435.6 156.4 432.7 157.5 350.8 191 275.3 162.9 273.9 162.3 272.4 161.8 272.4 161.8 270.9 161.2 269.4 160.7 266.4 159.6 269.4 158.4 270.9 157.8 270.9 157.8 361 122.7 437 152.4 437 152.4 438.4 153 441.2 154.1"/><polygon class="cls-13" points="441.2 152.9 438.4 154.1 437 154.7 437 154.7 435.6 155.2 431.3 157 350.8 189.9 276.8 162.3 273.9 161.2 272.4 160.7 272.4 160.7 270.9 160.1 270.9 160.1 269.4 159.6 266.4 158.4 269.4 157.3 361 121.6 438.4 151.8 441.2 152.9"/><polygon class="cls-17" points="441.2 151.8 438.4 153 437 153.5 437 153.5 435.6 154.1 435.5 154.1 434.1 154.7 429.9 156.4 350.8 188.8 278.3 161.7 276.8 161.2 273.9 160.1 272.4 159.5 270.9 159 270.9 159 269.4 158.4 266.4 157.3 267.9 156.7 361 120.5 439.8 151.2 441.2 151.8"/><polygon class="cls-13" points="441.2 150.7 438.4 151.8 437 152.4 436.5 152.6 436.3 152.7 436.3 152.7 435.6 153 435.5 153 434.1 153.6 428.5 155.9 428.5 155.9 350.8 187.6 279.8 161.2 278.3 160.6 276.8 160.1 273.9 158.9 273.8 158.9 272.4 158.4 270.9 157.8 270.9 157.8 269.4 157.3 266.4 156.2 361 119.3 441.2 150.7"/><polygon class="cls-19" points="441.2 152.9 439.8 153.5 441.2 154.1 439.8 154.6 441.2 155.2 439.8 155.8 441.2 156.3 439.8 156.9 441.2 157.5 439.8 158 441.2 158.6 439.8 159.2 441.2 159.7 439.8 160.3 441.2 160.8 439.8 161.4 441.2 162 439.8 162.5 441.2 163.1 439.8 163.7 441.2 164.2 439.8 164.8 441.2 165.4 439.8 165.9 441.2 166.5 439.8 167.1 441.2 167.6 439.8 168.2 441.2 168.8 439.8 169.3 441.2 169.9 439.8 170.5 441.2 171 439.8 171.6 441.2 172.1 439.8 172.7 441.2 173.3 439.8 173.8 441.2 174.4 439.8 175 441.2 175.5 439.8 176.1 441.2 176.7 439.8 177.2 441.2 177.8 439.8 178.4 441.2 178.9 439.8 179.5 441.2 180.1 439.8 180.6 441.2 181.2 439.8 181.8 441.2 182.3 439.8 182.9 441.2 183.4 439.8 184 441.2 184.6 439.8 185.1 441.2 185.7 439.8 186.3 441.2 186.8 439.8 187.4 441.2 188 439.8 188.5 441.2 189.1 439.8 189.7 441.2 190.2 439.8 190.8 441.2 191.3 439.8 191.9 350.8 228.3 350.8 187.6 388.9 172.1 390.3 171.5 393.2 170.3 394.6 169.7 394.6 169.7 396 169.2 397.4 168.6 397.4 168.6 398.8 168 400.2 167.4 404.5 165.7 405.9 165.1 407.3 164.5 407.3 164.5 412.9 162.2 414.4 161.7 415.8 161.1 415.8 161.1 420 159.3 421.4 158.8 424.2 157.6 424.3 157.6 425.7 157 427.1 156.4 428.5 155.9 428.5 155.9 434.1 153.6 435.5 153 435.6 153 436.3 152.7 436.3 152.7 436.5 152.6 437 152.4 437 152.4 438.4 151.8 439.8 151.2 441.2 151.8 439.8 152.4 441.2 152.9"/></g><polygon class="cls-19" points="349.5 257.2 349.1 261.8 440.1 225.2 440.1 220.3 349.5 257.2"/><path class="cls-17" d="M362.1,175.8l1.7.7,5.4-2.4,3.3,1.2-15.9,6.9-6.4-2.3c-2.9-1.1-2.1-2.7.8-4a15.1,15.1,0,0,1,7.4-1.1l3.2-3.5,3.8,1.4Zm-8,2.8,2.7.9,3.5-1.5-2.6-1a5.1,5.1,0,0,0-3.4.2C353.2,177.7,353.3,178.2,354.1,178.6Z"/><path class="cls-17" d="M343.9,177.6l-9.4-3.5,3.5-1.5,6.1,2.2,2.6-1.1-5.9-2.2,3.5-1.5,5.9,2.2,2.9-1.3-6.1-2.2,3.4-1.5,9.4,3.4Z"/><path class="cls-17" d="M342.4,168.5c.2-.9-.3-1.8-2-2.4a4,4,0,0,0-3.2-.1c-.9.4-.4.8.6,1.5s3.8,2.4.1,4a14.5,14.5,0,0,1-10.1.3c-2.1-.8-3.1-1.8-3-2.9l4.7-.6c0,.9.9,1.6,2,2a3.6,3.6,0,0,0,2.7.1c.9-.4.4-.8-.7-1.5s-3.7-2.4-.1-4a14.4,14.4,0,0,1,10.6-.3c2.6.9,3.4,2,3.2,3.2Z"/><path class="cls-17" d="M321,169.1l-3.4-1.3,9.3-4c1.9-.8,2.5-1.7.7-2.4a8.4,8.4,0,0,0-5.8.5l-9.4,4-3.3-1.2,9.4-4.1c4-1.7,8.6-2.3,12.7-.7s3.1,3.4-.8,5.1Z"/><path class="cls-17" d="M300.7,157.5l14-3.5,1.5.5-7.6,5.9,10.8-4.7,3.3,1.2-15.9,6.9-4.6-1.7,6.3-4.8-11.7,2.9-4.6-1.7,16-6.9,3.3,1.2Z"/><path class="cls-17" d="M289.9,157.6l-9.4-3.4,3.5-1.5,6.1,2.2,2.6-1.1-5.9-2.2,3.5-1.6,5.9,2.2,2.9-1.2-6.1-2.2,3.5-1.5,9.3,3.4Z"/><rect class="cls-17" x="342" y="117.9" width="1.2" height="78.88" transform="translate(71.8 419.7) rotate(-68.8)"/><rect class="cls-17" x="338.3" y="119.3" width="1.2" height="79.41" transform="translate(67.9 417.3) rotate(-68.8)"/><rect class="cls-17" x="353.5" y="113.3" width="1.2" height="78.23" transform="translate(85.3 428.7) rotate(-69.1)"/><rect class="cls-17" x="378.9" y="156.6" width="1.2" height="18.28" transform="translate(87.5 459.4) rotate(-68.8)"/><rect class="cls-17" x="356.8" y="112" width="1.2" height="77.12" transform="translate(87.6 429.1) rotate(-68.8)"/><rect class="cls-17" x="361.7" y="110.7" width="1.2" height="77.12" transform="translate(91.9 432.8) rotate(-68.8)"/><rect class="cls-17" x="373.7" y="106.4" width="1.2" height="77.12" transform="translate(103.5 441.3) rotate(-68.8)"/><rect class="cls-17" x="397.1" y="145.5" width="1.2" height="23.15" transform="translate(107.2 470.8) rotate(-68.8)"/><rect class="cls-17" x="376.5" y="104.6" width="1.2" height="77.12" transform="translate(107 442.8) rotate(-68.8)"/><rect class="cls-17" x="380.1" y="103.1" width="1.2" height="77.12" transform="translate(110.7 445.2) rotate(-68.8)"/><rect class="cls-17" x="392.3" y="98" width="1.2" height="77.12" transform="translate(123.3 453.3) rotate(-68.8)"/><polygon class="cls-17" points="172.6 233.6 168.5 235.2 168.5 286.9 165.9 288.1 82.4 253.4 82.7 199.4 90.7 197.5 172.6 231 172.6 233.6"/><polygon class="cls-13" points="171.9 230.9 164.9 233.3 164.9 288 82.4 253.4 80 197.5 85.6 195.1 171.9 230.9"/><path class="cls-7" d="M100.2,224.6l-7-2.9.3,7.9-3.2-1.3-.6-18.9,3.1,1.3.3,7.4,7,2.9-.3-7.4,3.2,1.3.7,18.9-3.2-1.3Z"/><path class="cls-7" d="M107,217.6c-.1-1.2.7-1.9,1.6-1.5a3.7,3.7,0,0,1,1.8,2.9c0,1.2-.7,1.8-1.7,1.4A3.2,3.2,0,0,1,107,217.6Zm.4,4.3,2.8,1.1.5,13.7-2.8-1.2Z"/><path class="cls-7" d="M114.4,224.7l2.8,1.2v1.9a2.8,2.8,0,0,1,3.3-.8l.2,3.5-.8-.4a2.3,2.3,0,0,0-2.6.4l.3,9.1-2.8-1.2Z"/><path class="cls-7" d="M123.3,224.3c0-1.2.7-1.8,1.6-1.4a3,3,0,0,1,1.8,2.8c0,1.2-.7,1.9-1.6,1.5A3.7,3.7,0,0,1,123.3,224.3Zm.5,4.3,2.8,1.2.5,13.6-2.8-1.1Z"/><path class="cls-7" d="M138.2,239.9a3.5,3.5,0,0,0-2.1-3.4,2,2,0,0,0-2.4.6l.4,9.2-2.9-1.1-.5-13.7,2.9,1.1v1.8a3.1,3.1,0,0,1,3.7-.5c2.4.9,3.6,3.1,3.7,5.8l.3,9.6-2.8-1.1Z"/><path class="cls-7" d="M146.6,252.4a7.2,7.2,0,0,0,3.4,3.1c1.3.5,2.9.4,2.8-2.3v-1.4a2.6,2.6,0,0,1-3.3.8c-2.7-1.1-4.8-4.3-5-8.9s1.8-6.1,4.5-5a6.8,6.8,0,0,1,3.4,3.5v-1.8l2.8,1.2.5,12.7c.2,5.2-3,5.2-5.6,4.1a10.2,10.2,0,0,1-4.7-3.9Zm5.9-7.6a4.7,4.7,0,0,0-2.5-2.5c-1.6-.7-2.6.3-2.6,2.6a5.4,5.4,0,0,0,2.9,4.9,2,2,0,0,0,2.4-.6Z"/><path class="cls-7" d="M100,242.6l-2.7,8.8-1.1-.4-3.5-11.4.4,10.1-2.4-1-.5-14.1,3.3,1.4,3,9.9,2.4-7.7,3.4,1.4.5,14.1-2.4-1Z"/><path class="cls-7" d="M109.7,255.5a2.2,2.2,0,0,1-2.5.3,5.3,5.3,0,0,1-2.9-4.5c-.1-2.4,1.4-2.7,2.7-2.1a5.2,5.2,0,0,1,2.6,2.3V250a2.8,2.8,0,0,0-1.8-2.4,2.1,2.1,0,0,0-2.3.2l-.9-2.1a3.6,3.6,0,0,1,3.5-.2,5.8,5.8,0,0,1,3.6,5.4l.3,6.6-2.2-.9Zm-.1-2.6a3.3,3.3,0,0,0-1.7-1.6c-.9-.4-1.5-.1-1.5.9a2.5,2.5,0,0,0,1.6,2.1c.7.3,1.3.3,1.7-.2Z"/><path class="cls-7" d="M119.2,254.4a2.6,2.6,0,0,0-1.6-2.5,1.4,1.4,0,0,0-1.8.4l.3,6.9-2.1-.9-.4-10.2,2.1.9v1.3a2.6,2.6,0,0,1,2.8-.4,4.3,4.3,0,0,1,2.7,4.3l.3,7.2-2.1-.8Z"/><path class="cls-7" d="M128.4,263.3a2.4,2.4,0,0,1-2.5.2A5.1,5.1,0,0,1,123,259c-.1-2.4,1.4-2.7,2.6-2.1a4.5,4.5,0,0,1,2.6,2.3v-1.5a2.8,2.8,0,0,0-1.8-2.4,2.3,2.3,0,0,0-2.3.2l-.9-2.1a3.2,3.2,0,0,1,3.4-.1,5.5,5.5,0,0,1,3.7,5.3l.2,6.6-2.1-.9Zm-.1-2.7a3.7,3.7,0,0,0-1.7-1.6c-.9-.3-1.5-.1-1.5.9a2.3,2.3,0,0,0,1.6,2.1c.7.3,1.3.3,1.6-.1Z"/><path class="cls-7" d="M133.5,267a5.3,5.3,0,0,0,2.5,2.4c1,.4,2.2.3,2.1-1.7v-1a1.9,1.9,0,0,1-2.4.5c-2-.8-3.6-3.2-3.8-6.6s1.4-4.6,3.4-3.8a5.3,5.3,0,0,1,2.5,2.6v-1.3l2.1.9.4,9.5c.1,3.9-2.2,3.9-4.2,3.1a7.7,7.7,0,0,1-3.5-3Zm4.4-5.6a4.4,4.4,0,0,0-1.9-1.9c-1.2-.5-1.9.2-1.9,2a4.1,4.1,0,0,0,2.2,3.6,1.3,1.3,0,0,0,1.7-.4Z"/><path class="cls-7" d="M145.7,261.1c2.4,1,4.1,3.9,4.2,7.3v.6l-6-2.5a4.2,4.2,0,0,0,2.4,3.3,2.2,2.2,0,0,0,2.1-.1l1,2.1a3.2,3.2,0,0,1-3.2.1c-2.5-1-4.4-3.9-4.5-7.2S143.2,260.1,145.7,261.1Zm-1.9,3.6,4,1.6a3.8,3.8,0,0,0-2.1-3.1C144.4,262.7,143.9,263.7,143.8,264.7Z"/><path class="cls-7" d="M151.2,263.7l2.1.8v1.4a2.1,2.1,0,0,1,2.5-.6V268l-.6-.3a1.6,1.6,0,0,0-1.9.3l.2,6.7-2.1-.8Z"/></g></g></svg>