<svg width="422" height="320" viewBox="0 0 422 320" fill="none" xmlns="http://www.w3.org/2000/svg">
<path fill-rule="evenodd" clip-rule="evenodd" d="M422 15H6V238H6.719L6.71949 320L94.8195 238H422V15Z" fill="#F25187"/>
<mask id="path-2-inside-1" fill="white">
<path fill-rule="evenodd" clip-rule="evenodd" d="M404 0H0V223H0.698248L0.69873 305L86.2574 223H404V0Z"/>
</mask>
<path fill-rule="evenodd" clip-rule="evenodd" d="M404 0H0V223H0.698248L0.69873 305L86.2574 223H404V0Z" fill="#1F1216"/>
<path d="M0 0V-2H-2V0H0ZM404 0H406V-2H404V0ZM0 223H-2V225H0V223ZM0.698248 223L2.69825 223L2.69824 221H0.698248V223ZM0.69873 305H-1.30127L-1.30124 309.687L2.0826 306.444L0.69873 305ZM86.2574 223V221H85.4537L84.8735 221.556L86.2574 223ZM404 223V225H406V223H404ZM0 2H404V-2H0V2ZM2 223V0H-2V223H2ZM0.698248 221H0V225H0.698248V221ZM2.69873 305L2.69825 223L-1.30175 223L-1.30127 305H2.69873ZM84.8735 221.556L-0.685136 303.556L2.0826 306.444L87.6413 224.444L84.8735 221.556ZM404 221H86.2574V225H404V221ZM402 0V223H406V0H402Z" fill="#F25187" mask="url(#path-2-inside-1)"/>
<path d="M40.146 44.928L39.306 54.378H36.198L36.408 44.928H40.146ZM33.888 44.928L33.006 54.378H29.94L30.108 44.928H33.888ZM52.0304 75.336L45.6884 52.782C45.3804 51.802 45.1144 50.934 44.8904 50.178C44.6664 49.394 44.5544 48.75 44.5544 48.246C44.1064 48.274 43.7004 48.302 43.3364 48.33C42.9724 48.33 42.6224 48.344 42.2864 48.372L42.4124 45.6H53.9624L53.7944 47.91C52.5624 47.91 51.7224 48.162 51.2744 48.666C50.8264 49.17 50.7564 50.122 51.0644 51.522L53.3324 61.182C53.5564 62.246 53.7804 63.254 54.0044 64.206C54.2284 65.13 54.4664 66.25 54.7184 67.566H54.8024C54.9144 67.146 55.0964 66.586 55.3484 65.886C55.6004 65.158 55.8524 64.388 56.1044 63.576C56.3844 62.764 56.6364 62.036 56.8604 61.392C57.0844 60.72 57.2524 60.23 57.3644 59.922L62.5724 45.558H65.4704L69.5444 61.14C69.8244 62.204 70.0764 63.296 70.3004 64.416C70.5524 65.508 70.7904 66.614 71.0144 67.734H71.0984C71.4064 66.866 71.7284 65.956 72.0644 65.004C72.4004 64.052 72.7364 63.058 73.0724 62.022C73.4924 60.846 73.8704 59.782 74.2064 58.83C74.5424 57.878 74.8364 57.01 75.0884 56.226C75.3684 55.414 75.6204 54.658 75.8444 53.958C76.0964 53.23 76.3484 52.516 76.6004 51.816C76.7964 51.2 77.0344 50.57 77.3144 49.926C77.6224 49.254 77.9724 48.68 78.3644 48.204C77.8604 48.232 77.2864 48.26 76.6424 48.288C75.9984 48.316 75.4804 48.344 75.0884 48.372L75.2144 45.6H84.3704L84.2444 47.91C83.6844 47.966 83.1804 48.078 82.7324 48.246C82.2844 48.414 81.8644 48.68 81.4724 49.044C81.1084 49.408 80.7444 49.912 80.3804 50.556C80.0164 51.2 79.6524 52.012 79.2884 52.992L71.0144 75.336H68.2004L63.8324 59.796C63.4684 58.564 63.1884 57.444 62.9924 56.436C62.7964 55.428 62.6144 54.476 62.4464 53.58H62.3624C62.1104 54.504 61.8444 55.414 61.5644 56.31C61.3124 57.206 61.0044 58.13 60.6404 59.082L54.7184 75.336H52.0304ZM92.3684 53.538C93.5164 53.538 94.5524 53.72 95.4764 54.084C96.4284 54.42 97.1704 54.966 97.7024 55.722C98.2344 56.478 98.5004 57.458 98.5004 58.662C98.5004 59.81 98.1364 60.79 97.4084 61.602C96.7084 62.414 95.7704 63.086 94.5944 63.618C93.4464 64.122 92.2004 64.542 90.8564 64.878C89.5124 65.214 88.2104 65.452 86.9504 65.592C86.9504 67.244 87.1324 68.56 87.4964 69.54C87.8604 70.492 88.3504 71.178 88.9664 71.598C89.6104 71.99 90.3104 72.186 91.0664 72.186C91.6544 72.186 92.2984 72.074 92.9984 71.85C93.7264 71.598 94.4404 71.15 95.1404 70.506C95.8404 69.862 96.4564 68.966 96.9884 67.818L99.0044 68.826C98.2204 70.534 97.3524 71.878 96.4004 72.858C95.4484 73.81 94.4404 74.482 93.3764 74.874C92.3124 75.266 91.2064 75.462 90.0584 75.462C87.4544 75.49 85.4384 74.72 84.0104 73.152C82.5824 71.584 81.8684 69.316 81.8684 66.348C81.8684 64.892 82.0784 63.422 82.4984 61.938C82.9184 60.426 83.5484 59.04 84.3884 57.78C85.2564 56.52 86.3484 55.498 87.6644 54.714C88.9804 53.93 90.5484 53.538 92.3684 53.538ZM91.8644 55.848C90.8004 55.848 89.9324 56.226 89.2604 56.982C88.5884 57.71 88.0704 58.648 87.7064 59.796C87.3704 60.916 87.1464 62.078 87.0344 63.282C88.5464 63.03 89.8204 62.666 90.8564 62.19C91.8924 61.686 92.6904 61.098 93.2504 60.426C93.8104 59.754 94.0904 59.012 94.0904 58.2C94.0624 57.444 93.8384 56.87 93.4184 56.478C92.9984 56.058 92.4804 55.848 91.8644 55.848ZM107.394 44.928L106.512 54.378H103.194L103.362 44.928H107.394ZM112.324 75C112.268 74.552 112.24 74.23 112.24 74.034C112.24 73.81 112.24 73.558 112.24 73.278C112.24 72.746 112.268 72.102 112.324 71.346C112.38 70.562 112.45 69.666 112.534 68.658C112.646 67.65 112.772 66.544 112.912 65.34C113.08 64.08 113.22 62.988 113.332 62.064C113.472 61.14 113.57 60.384 113.626 59.796C113.682 59.18 113.71 58.704 113.71 58.368C113.738 57.864 113.682 57.486 113.542 57.234C113.43 56.982 113.234 56.856 112.954 56.856C112.59 56.856 112.198 57.122 111.778 57.654C111.358 58.158 110.966 59.082 110.602 60.426L108.67 59.88C108.782 59.32 108.964 58.676 109.216 57.948C109.468 57.22 109.818 56.52 110.266 55.848C110.714 55.176 111.26 54.63 111.904 54.21C112.548 53.762 113.318 53.538 114.214 53.538C115.25 53.538 116.076 53.86 116.692 54.504C117.308 55.148 117.616 56.212 117.616 57.696C117.588 58.2 117.532 58.788 117.448 59.46C117.364 60.104 117.252 60.832 117.112 61.644H117.196C117.952 59.404 118.736 57.71 119.548 56.562C120.388 55.386 121.214 54.588 122.026 54.168C122.866 53.748 123.664 53.538 124.42 53.538C125.4 53.538 126.198 53.804 126.814 54.336C127.43 54.868 127.738 55.582 127.738 56.478C127.738 57.122 127.5 57.71 127.024 58.242C126.576 58.774 125.974 59.04 125.218 59.04C124.658 59.04 124.154 58.858 123.706 58.494C123.258 58.13 123.034 57.64 123.034 57.024C122.474 56.912 121.9 57.178 121.312 57.822C120.752 58.438 120.206 59.306 119.674 60.426C119.17 61.546 118.722 62.792 118.33 64.164C117.938 65.536 117.616 66.936 117.364 68.364C117.14 69.792 117.028 71.136 117.028 72.396C117.028 72.76 117.042 73.208 117.07 73.74C117.098 74.244 117.126 74.664 117.154 75H112.324ZM139.085 53.538C140.233 53.538 141.269 53.72 142.193 54.084C143.145 54.42 143.887 54.966 144.419 55.722C144.951 56.478 145.217 57.458 145.217 58.662C145.217 59.81 144.853 60.79 144.125 61.602C143.425 62.414 142.487 63.086 141.311 63.618C140.163 64.122 138.917 64.542 137.573 64.878C136.229 65.214 134.927 65.452 133.667 65.592C133.667 67.244 133.849 68.56 134.213 69.54C134.577 70.492 135.067 71.178 135.683 71.598C136.327 71.99 137.027 72.186 137.783 72.186C138.371 72.186 139.015 72.074 139.715 71.85C140.443 71.598 141.157 71.15 141.857 70.506C142.557 69.862 143.173 68.966 143.705 67.818L145.721 68.826C144.937 70.534 144.069 71.878 143.117 72.858C142.165 73.81 141.157 74.482 140.093 74.874C139.029 75.266 137.923 75.462 136.775 75.462C134.171 75.49 132.155 74.72 130.727 73.152C129.299 71.584 128.585 69.316 128.585 66.348C128.585 64.892 128.795 63.422 129.215 61.938C129.635 60.426 130.265 59.04 131.105 57.78C131.973 56.52 133.065 55.498 134.381 54.714C135.697 53.93 137.265 53.538 139.085 53.538ZM138.581 55.848C137.517 55.848 136.649 56.226 135.977 56.982C135.305 57.71 134.787 58.648 134.423 59.796C134.087 60.916 133.863 62.078 133.751 63.282C135.263 63.03 136.537 62.666 137.573 62.19C138.609 61.686 139.407 61.098 139.967 60.426C140.527 59.754 140.807 59.012 140.807 58.2C140.779 57.444 140.555 56.87 140.135 56.478C139.715 56.058 139.197 55.848 138.581 55.848ZM167.913 43.29C167.829 44.102 167.731 44.928 167.619 45.768C167.507 46.608 167.395 47.42 167.283 48.204C167.199 48.988 167.115 49.73 167.031 50.43C166.779 52.614 166.541 54.63 166.317 56.478C166.121 58.298 165.939 59.964 165.771 61.476C165.631 62.96 165.505 64.29 165.393 65.466C165.281 66.614 165.197 67.622 165.141 68.49C165.085 69.33 165.057 70.044 165.057 70.632C165.057 71.136 165.113 71.514 165.225 71.766C165.365 72.018 165.561 72.144 165.813 72.144C166.205 72.144 166.611 71.892 167.031 71.388C167.451 70.856 167.843 69.918 168.207 68.574L170.139 69.12C169.999 69.764 169.775 70.45 169.467 71.178C169.159 71.906 168.753 72.606 168.249 73.278C167.773 73.922 167.185 74.454 166.485 74.874C165.785 75.266 164.959 75.462 164.007 75.462C162.943 75.462 162.075 75.168 161.403 74.58C160.731 73.964 160.381 72.984 160.353 71.64C160.353 70.744 160.395 69.666 160.479 68.406C160.563 67.146 160.661 65.774 160.773 64.29C160.913 62.806 161.067 61.28 161.235 59.712C161.403 58.116 161.571 56.534 161.739 54.966C161.935 53.37 162.117 51.858 162.285 50.43C162.369 49.786 162.453 49.198 162.537 48.666C162.621 48.106 162.705 47.574 162.789 47.07C162.313 47.098 161.795 47.126 161.235 47.154C160.675 47.154 160.213 47.168 159.849 47.196L160.017 44.508C161.277 44.508 162.313 44.452 163.125 44.34C163.937 44.2 164.567 44.032 165.015 43.836C165.491 43.64 165.827 43.458 166.023 43.29H167.913ZM182.357 53.538C183.925 53.538 185.325 53.902 186.557 54.63C187.817 55.358 188.811 56.422 189.539 57.822C190.295 59.194 190.673 60.874 190.673 62.862C190.673 65.074 190.253 67.146 189.413 69.078C188.573 71.01 187.369 72.564 185.801 73.74C184.261 74.888 182.399 75.462 180.215 75.462C178.339 75.462 176.785 75.042 175.553 74.202C174.321 73.334 173.397 72.186 172.781 70.758C172.193 69.302 171.899 67.706 171.899 65.97C171.899 63.73 172.319 61.672 173.159 59.796C173.999 57.892 175.203 56.38 176.771 55.26C178.339 54.112 180.201 53.538 182.357 53.538ZM181.727 55.89C180.775 55.862 179.935 56.254 179.207 57.066C178.479 57.85 177.919 58.914 177.527 60.258C177.135 61.602 176.939 63.086 176.939 64.71C176.911 65.606 176.953 66.544 177.065 67.524C177.177 68.476 177.373 69.372 177.653 70.212C177.961 71.052 178.367 71.738 178.871 72.27C179.375 72.802 180.005 73.068 180.761 73.068C181.629 73.096 182.357 72.816 182.945 72.228C183.561 71.64 184.051 70.884 184.415 69.96C184.779 69.036 185.045 68.056 185.213 67.02C185.409 65.984 185.521 65.004 185.549 64.08C185.577 63.268 185.535 62.386 185.423 61.434C185.339 60.482 185.157 59.586 184.877 58.746C184.625 57.906 184.233 57.234 183.701 56.73C183.197 56.198 182.539 55.918 181.727 55.89ZM204.054 53.538C205.622 53.538 207.022 53.902 208.254 54.63C209.514 55.358 210.508 56.422 211.236 57.822C211.992 59.194 212.37 60.874 212.37 62.862C212.37 65.074 211.95 67.146 211.11 69.078C210.27 71.01 209.066 72.564 207.498 73.74C205.958 74.888 204.096 75.462 201.912 75.462C200.036 75.462 198.482 75.042 197.25 74.202C196.018 73.334 195.094 72.186 194.478 70.758C193.89 69.302 193.596 67.706 193.596 65.97C193.596 63.73 194.016 61.672 194.856 59.796C195.696 57.892 196.9 56.38 198.468 55.26C200.036 54.112 201.898 53.538 204.054 53.538ZM203.424 55.89C202.472 55.862 201.632 56.254 200.904 57.066C200.176 57.85 199.616 58.914 199.224 60.258C198.832 61.602 198.636 63.086 198.636 64.71C198.608 65.606 198.65 66.544 198.762 67.524C198.874 68.476 199.07 69.372 199.35 70.212C199.658 71.052 200.064 71.738 200.568 72.27C201.072 72.802 201.702 73.068 202.458 73.068C203.326 73.096 204.054 72.816 204.642 72.228C205.258 71.64 205.748 70.884 206.112 69.96C206.476 69.036 206.742 68.056 206.91 67.02C207.106 65.984 207.218 65.004 207.246 64.08C207.274 63.268 207.232 62.386 207.12 61.434C207.036 60.482 206.854 59.586 206.574 58.746C206.322 57.906 205.93 57.234 205.398 56.73C204.894 56.198 204.236 55.918 203.424 55.89ZM229.699 75.462C228.523 75.462 227.543 75.056 226.759 74.244C226.003 73.432 225.261 72.018 224.533 70.002C224.169 69.05 223.833 68.28 223.525 67.692C223.245 67.076 222.867 66.698 222.391 66.558C222.251 66.502 222.111 66.46 221.971 66.432C221.831 66.404 221.677 66.418 221.509 66.474C221.313 67.37 221.145 68.378 221.005 69.498C220.893 70.59 220.837 71.556 220.837 72.396C220.837 72.76 220.851 73.194 220.879 73.698C220.907 74.174 220.935 74.608 220.963 75H216.175C216.119 74.552 216.091 74.216 216.091 73.992C216.091 73.768 216.091 73.53 216.091 73.278C216.091 72.802 216.119 71.99 216.175 70.842C216.231 69.666 216.301 68.28 216.385 66.684C216.497 65.06 216.623 63.31 216.763 61.434C216.931 59.558 217.099 57.682 217.267 55.806C217.463 53.902 217.687 52.096 217.939 50.388C217.995 49.772 218.065 49.198 218.149 48.666C218.261 48.134 218.373 47.602 218.485 47.07C218.009 47.098 217.477 47.126 216.889 47.154C216.301 47.154 215.825 47.168 215.461 47.196L215.629 44.508C216.917 44.508 217.967 44.452 218.779 44.34C219.591 44.2 220.221 44.032 220.669 43.836C221.145 43.64 221.481 43.458 221.677 43.29H223.609C223.469 44.186 223.315 45.138 223.147 46.146C223.007 47.154 222.867 48.176 222.727 49.212C222.615 50.22 222.503 51.228 222.391 52.236C222.223 53.636 222.055 54.98 221.887 56.268C221.719 57.556 221.565 58.802 221.425 60.006H221.467C222.167 58.354 222.923 57.066 223.735 56.142C224.547 55.19 225.373 54.518 226.213 54.126C227.053 53.734 227.879 53.538 228.691 53.538C229.727 53.538 230.567 53.734 231.211 54.126C231.855 54.518 232.331 55.05 232.639 55.722C232.947 56.394 233.101 57.164 233.101 58.032C233.101 58.9 232.835 59.866 232.303 60.93C231.771 61.966 230.917 62.918 229.741 63.786C228.593 64.654 227.039 65.284 225.079 65.676V65.718C226.171 65.746 226.969 66.026 227.473 66.558C228.005 67.09 228.425 67.734 228.733 68.49C229.013 69.078 229.265 69.638 229.489 70.17C229.741 70.702 229.993 71.122 230.245 71.43C230.497 71.738 230.763 71.892 231.043 71.892C231.407 71.92 231.743 71.738 232.051 71.346C232.359 70.926 232.667 70.184 232.975 69.12L234.865 69.666C234.669 70.59 234.347 71.5 233.899 72.396C233.451 73.264 232.877 73.992 232.177 74.58C231.477 75.168 230.651 75.462 229.699 75.462ZM221.845 64.248C224.113 64.248 225.807 63.716 226.927 62.652C228.047 61.56 228.607 60.062 228.607 58.158C228.607 57.794 228.565 57.458 228.481 57.15C228.397 56.814 228.257 56.548 228.061 56.352C227.865 56.128 227.585 56.03 227.221 56.058C226.661 56.058 226.031 56.408 225.331 57.108C224.631 57.78 223.973 58.732 223.357 59.964C222.741 61.196 222.237 62.624 221.845 64.248ZM241.945 53.538C243.317 53.538 244.283 53.972 244.843 54.84C245.431 55.68 245.725 56.814 245.725 58.242C245.725 58.97 245.655 59.894 245.515 61.014C245.375 62.134 245.207 63.324 245.011 64.584C244.843 65.844 244.675 67.034 244.507 68.154C244.367 69.246 244.297 70.142 244.297 70.842C244.297 71.318 244.381 71.654 244.549 71.85C244.717 72.046 244.927 72.144 245.179 72.144C245.543 72.144 245.935 71.892 246.355 71.388C246.775 70.856 247.181 69.918 247.573 68.574L249.463 69.12C249.351 69.708 249.141 70.366 248.833 71.094C248.525 71.822 248.119 72.522 247.615 73.194C247.139 73.838 246.551 74.384 245.851 74.832C245.151 75.252 244.353 75.462 243.457 75.462C242.001 75.462 240.979 75.07 240.391 74.286C239.803 73.502 239.509 72.396 239.509 70.968C239.509 70.016 239.579 68.98 239.719 67.86C239.887 66.712 240.069 65.564 240.265 64.416C240.461 63.24 240.629 62.12 240.769 61.056C240.909 59.992 240.979 59.04 240.979 58.2C240.979 57.752 240.909 57.416 240.769 57.192C240.629 56.968 240.419 56.856 240.139 56.856C239.803 56.856 239.425 57.122 239.005 57.654C238.585 58.158 238.179 59.082 237.787 60.426L235.897 59.88C235.981 59.32 236.177 58.676 236.485 57.948C236.793 57.22 237.199 56.52 237.703 55.848C238.235 55.176 238.851 54.63 239.551 54.21C240.251 53.762 241.049 53.538 241.945 53.538ZM243.751 43.458C244.563 43.458 245.235 43.752 245.767 44.34C246.299 44.928 246.537 45.67 246.481 46.566C246.481 47.434 246.201 48.162 245.641 48.75C245.081 49.338 244.381 49.632 243.541 49.632C242.701 49.632 242.015 49.338 241.483 48.75C240.979 48.162 240.727 47.434 240.727 46.566C240.783 45.67 241.105 44.928 241.693 44.34C242.281 43.752 242.967 43.458 243.751 43.458ZM269.199 75.462C267.715 75.462 266.707 75.07 266.175 74.286C265.671 73.474 265.419 72.368 265.419 70.968C265.419 70.128 265.475 69.19 265.587 68.154C265.699 67.09 265.825 65.998 265.965 64.878C266.133 63.73 266.273 62.638 266.385 61.602C266.497 60.538 266.553 59.6 266.553 58.788C266.553 58.396 266.511 58.046 266.427 57.738C266.343 57.43 266.189 57.192 265.965 57.024C265.769 56.856 265.489 56.772 265.125 56.772C264.509 56.772 263.893 57.108 263.277 57.78C262.661 58.424 262.059 59.306 261.471 60.426C260.911 61.518 260.407 62.736 259.959 64.08C259.511 65.424 259.147 66.81 258.867 68.238C258.615 69.638 258.489 70.968 258.489 72.228C258.489 72.62 258.503 73.096 258.531 73.656C258.559 74.216 258.587 74.664 258.615 75H253.827C253.771 74.552 253.729 74.23 253.701 74.034C253.701 73.81 253.701 73.558 253.701 73.278C253.701 72.746 253.729 72.116 253.785 71.388C253.869 70.632 253.967 69.764 254.079 68.784C254.191 67.804 254.317 66.712 254.457 65.508C254.597 64.444 254.709 63.52 254.793 62.736C254.905 61.952 254.989 61.28 255.045 60.72C255.129 60.132 255.185 59.642 255.213 59.25C255.241 58.83 255.255 58.48 255.255 58.2C255.255 57.724 255.185 57.388 255.045 57.192C254.933 56.968 254.751 56.856 254.499 56.856C254.135 56.856 253.743 57.122 253.323 57.654C252.903 58.158 252.511 59.082 252.147 60.426L250.215 59.88C250.327 59.32 250.509 58.676 250.761 57.948C251.013 57.22 251.363 56.52 251.811 55.848C252.259 55.176 252.805 54.63 253.449 54.21C254.093 53.762 254.863 53.538 255.759 53.538C256.487 53.538 257.103 53.706 257.607 54.042C258.139 54.35 258.531 54.826 258.783 55.47C259.063 56.086 259.189 56.884 259.161 57.864C259.133 58.48 259.077 59.026 258.993 59.502C258.937 59.978 258.867 60.468 258.783 60.972H258.867C259.623 58.984 260.421 57.458 261.261 56.394C262.101 55.302 262.955 54.56 263.823 54.168C264.691 53.748 265.545 53.538 266.385 53.538C267.561 53.538 268.499 53.804 269.199 54.336C269.927 54.84 270.459 55.554 270.795 56.478C271.131 57.402 271.299 58.466 271.299 59.67C271.299 60.846 271.201 62.12 271.005 63.492C270.837 64.836 270.655 66.152 270.459 67.44C270.263 68.7 270.165 69.82 270.165 70.8C270.165 71.248 270.235 71.584 270.375 71.808C270.515 72.032 270.711 72.144 270.963 72.144C271.327 72.144 271.719 71.892 272.139 71.388C272.559 70.856 272.951 69.918 273.315 68.574L275.247 69.12C275.135 69.68 274.925 70.324 274.617 71.052C274.309 71.78 273.903 72.48 273.399 73.152C272.895 73.824 272.293 74.384 271.593 74.832C270.893 75.252 270.095 75.462 269.199 75.462ZM282.946 86.382C282.106 86.382 281.28 86.298 280.468 86.13C279.684 85.99 278.984 85.752 278.368 85.416C277.752 85.08 277.262 84.646 276.898 84.114C276.534 83.61 276.338 83.008 276.31 82.308C276.31 81.916 276.408 81.496 276.604 81.048C276.8 80.628 277.08 80.278 277.444 79.998C277.808 79.718 278.284 79.578 278.872 79.578C279.544 79.578 280.104 79.788 280.552 80.208C281.028 80.628 281.266 81.216 281.266 81.972C281.266 82.392 281.182 82.798 281.014 83.19C281.182 83.442 281.504 83.638 281.98 83.778C282.484 83.946 282.932 84.03 283.324 84.03C284.584 84.03 285.578 83.68 286.306 82.98C287.034 82.28 287.58 81.328 287.944 80.124C288.308 78.948 288.588 77.632 288.784 76.176C288.98 74.636 289.162 73.222 289.33 71.934C289.526 70.618 289.764 69.358 290.044 68.154H290.002C289.442 69.638 288.868 70.87 288.28 71.85C287.692 72.802 287.076 73.544 286.432 74.076C285.816 74.58 285.186 74.93 284.542 75.126C283.926 75.35 283.296 75.462 282.652 75.462C281.532 75.462 280.538 75.168 279.67 74.58C278.802 73.964 278.116 73.082 277.612 71.934C277.136 70.758 276.898 69.33 276.898 67.65C276.898 65.746 277.122 63.954 277.57 62.274C278.046 60.566 278.774 59.068 279.754 57.78C280.762 56.464 282.036 55.428 283.576 54.672C285.144 53.916 286.978 53.538 289.078 53.538C289.918 53.538 290.898 53.608 292.018 53.748C293.138 53.888 294.188 54.098 295.168 54.378C295.084 55.61 294.986 57.052 294.874 58.704C294.762 60.356 294.636 62.078 294.496 63.87C294.384 65.662 294.258 67.412 294.118 69.12C293.978 70.828 293.838 72.354 293.698 73.698C293.474 76.358 292.956 78.626 292.144 80.502C291.332 82.406 290.17 83.862 288.658 84.87C287.146 85.878 285.242 86.382 282.946 86.382ZM284.08 72.312C284.752 72.312 285.382 71.976 285.97 71.304C286.586 70.632 287.146 69.722 287.65 68.574C288.154 67.426 288.588 66.152 288.952 64.752C289.344 63.324 289.666 61.882 289.918 60.426C290.17 58.942 290.338 57.542 290.422 56.226C290.17 56.142 289.834 56.072 289.414 56.016C289.022 55.932 288.616 55.89 288.196 55.89C287.048 55.89 286.068 56.184 285.256 56.772C284.444 57.36 283.786 58.2 283.282 59.292C282.806 60.356 282.442 61.588 282.19 62.988C281.966 64.388 281.854 65.914 281.854 67.566C281.854 68.49 281.938 69.316 282.106 70.044C282.274 70.744 282.526 71.304 282.862 71.724C283.198 72.116 283.604 72.312 284.08 72.312ZM322.058 43.08C323.234 43.08 324.144 43.346 324.788 43.878C325.432 44.382 325.754 45.054 325.754 45.894C325.754 46.146 325.684 46.454 325.544 46.818C325.404 47.182 325.166 47.504 324.83 47.784C324.494 48.036 324.032 48.162 323.444 48.162C322.856 48.134 322.366 47.896 321.974 47.448C321.582 46.972 321.428 46.398 321.512 45.726C321.484 45.67 321.386 45.642 321.218 45.642C321.078 45.614 320.924 45.6 320.756 45.6C320.224 45.628 319.776 45.894 319.412 46.398C319.076 46.874 318.796 47.532 318.572 48.372C318.348 49.184 318.18 50.08 318.068 51.06C317.956 52.04 317.844 53.02 317.732 54H323.36L323.108 56.478L317.606 56.562C317.522 57.598 317.438 58.788 317.354 60.132C317.27 61.448 317.172 62.82 317.06 64.248C316.948 65.676 316.836 67.062 316.724 68.406C316.612 69.75 316.5 70.954 316.388 72.018C316.22 73.558 315.996 75.028 315.716 76.428C315.464 77.856 315.128 79.172 314.708 80.376C314.288 81.58 313.742 82.63 313.07 83.526C312.398 84.45 311.572 85.15 310.592 85.626C309.64 86.13 308.506 86.382 307.19 86.382C305.986 86.382 305.062 86.13 304.418 85.626C303.774 85.15 303.452 84.492 303.452 83.652C303.452 83.344 303.522 83.008 303.662 82.644C303.802 82.28 304.054 81.958 304.418 81.678C304.754 81.398 305.202 81.272 305.762 81.3C306.35 81.328 306.84 81.566 307.232 82.014C307.596 82.462 307.736 83.022 307.652 83.694C307.876 83.806 308.142 83.862 308.45 83.862C309.094 83.862 309.598 83.512 309.962 82.812C310.354 82.14 310.648 81.23 310.844 80.082C311.04 78.934 311.194 77.646 311.306 76.218C311.446 74.79 311.586 73.348 311.726 71.892C311.81 70.828 311.894 69.638 311.978 68.322C312.09 66.978 312.188 65.606 312.272 64.206C312.384 62.778 312.496 61.406 312.608 60.09C312.72 58.774 312.818 57.612 312.902 56.604L309.416 56.646L309.752 54H313.196C313.476 51.872 313.938 49.996 314.582 48.372C315.254 46.748 316.192 45.46 317.396 44.508C318.6 43.556 320.154 43.08 322.058 43.08ZM334.279 53.538C335.847 53.538 337.247 53.902 338.479 54.63C339.739 55.358 340.733 56.422 341.461 57.822C342.217 59.194 342.595 60.874 342.595 62.862C342.595 65.074 342.175 67.146 341.335 69.078C340.495 71.01 339.291 72.564 337.723 73.74C336.183 74.888 334.321 75.462 332.137 75.462C330.261 75.462 328.707 75.042 327.475 74.202C326.243 73.334 325.319 72.186 324.703 70.758C324.115 69.302 323.821 67.706 323.821 65.97C323.821 63.73 324.241 61.672 325.081 59.796C325.921 57.892 327.125 56.38 328.693 55.26C330.261 54.112 332.123 53.538 334.279 53.538ZM333.649 55.89C332.697 55.862 331.857 56.254 331.129 57.066C330.401 57.85 329.841 58.914 329.449 60.258C329.057 61.602 328.861 63.086 328.861 64.71C328.833 65.606 328.875 66.544 328.987 67.524C329.099 68.476 329.295 69.372 329.575 70.212C329.883 71.052 330.289 71.738 330.793 72.27C331.297 72.802 331.927 73.068 332.683 73.068C333.551 73.096 334.279 72.816 334.867 72.228C335.483 71.64 335.973 70.884 336.337 69.96C336.701 69.036 336.967 68.056 337.135 67.02C337.331 65.984 337.443 65.004 337.471 64.08C337.499 63.268 337.457 62.386 337.345 61.434C337.261 60.482 337.079 59.586 336.799 58.746C336.547 57.906 336.155 57.234 335.623 56.73C335.119 56.198 334.461 55.918 333.649 55.89ZM348.164 75C348.108 74.552 348.08 74.23 348.08 74.034C348.08 73.81 348.08 73.558 348.08 73.278C348.08 72.746 348.108 72.102 348.164 71.346C348.22 70.562 348.29 69.666 348.374 68.658C348.486 67.65 348.612 66.544 348.752 65.34C348.92 64.08 349.06 62.988 349.172 62.064C349.312 61.14 349.41 60.384 349.466 59.796C349.522 59.18 349.55 58.704 349.55 58.368C349.578 57.864 349.522 57.486 349.382 57.234C349.27 56.982 349.074 56.856 348.794 56.856C348.43 56.856 348.038 57.122 347.618 57.654C347.198 58.158 346.806 59.082 346.442 60.426L344.51 59.88C344.622 59.32 344.804 58.676 345.056 57.948C345.308 57.22 345.658 56.52 346.106 55.848C346.554 55.176 347.1 54.63 347.744 54.21C348.388 53.762 349.158 53.538 350.054 53.538C351.09 53.538 351.916 53.86 352.532 54.504C353.148 55.148 353.456 56.212 353.456 57.696C353.428 58.2 353.372 58.788 353.288 59.46C353.204 60.104 353.092 60.832 352.952 61.644H353.036C353.792 59.404 354.576 57.71 355.388 56.562C356.228 55.386 357.054 54.588 357.866 54.168C358.706 53.748 359.504 53.538 360.26 53.538C361.24 53.538 362.038 53.804 362.654 54.336C363.27 54.868 363.578 55.582 363.578 56.478C363.578 57.122 363.34 57.71 362.864 58.242C362.416 58.774 361.814 59.04 361.058 59.04C360.498 59.04 359.994 58.858 359.546 58.494C359.098 58.13 358.874 57.64 358.874 57.024C358.314 56.912 357.74 57.178 357.152 57.822C356.592 58.438 356.046 59.306 355.514 60.426C355.01 61.546 354.562 62.792 354.17 64.164C353.778 65.536 353.456 66.936 353.204 68.364C352.98 69.792 352.868 71.136 352.868 72.396C352.868 72.76 352.882 73.208 352.91 73.74C352.938 74.244 352.966 74.664 352.994 75H348.164ZM35.274 129.462C33.986 129.462 32.796 129.28 31.704 128.916C30.612 128.524 29.716 127.978 29.016 127.278C28.344 126.55 28.008 125.696 28.008 124.716C28.008 123.932 28.232 123.302 28.68 122.826C29.156 122.322 29.73 122.07 30.402 122.07C31.102 122.07 31.648 122.308 32.04 122.784C32.46 123.232 32.67 123.764 32.67 124.38C32.67 124.576 32.642 124.786 32.586 125.01C32.558 125.234 32.488 125.458 32.376 125.682C32.544 126.074 32.936 126.41 33.552 126.69C34.196 126.97 34.784 127.11 35.316 127.11C36.632 127.11 37.584 126.816 38.172 126.228C38.76 125.64 39.054 124.912 39.054 124.044C39.054 123.428 38.83 122.896 38.382 122.448C37.934 121.972 37.36 121.524 36.66 121.104C35.96 120.656 35.218 120.208 34.434 119.76C33.286 119.088 32.292 118.444 31.452 117.828C30.64 117.212 30.024 116.568 29.604 115.896C29.184 115.196 28.974 114.384 28.974 113.46C28.974 112.452 29.282 111.5 29.898 110.604C30.514 109.708 31.396 108.98 32.544 108.42C33.692 107.832 35.078 107.538 36.702 107.538C37.794 107.538 38.858 107.72 39.894 108.084C40.93 108.42 41.784 108.924 42.456 109.596C43.128 110.268 43.464 111.066 43.464 111.99C43.464 112.662 43.254 113.25 42.834 113.754C42.414 114.23 41.84 114.468 41.112 114.468C40.44 114.468 39.894 114.244 39.474 113.796C39.082 113.348 38.886 112.816 38.886 112.2C38.886 111.976 38.9 111.766 38.928 111.57C38.984 111.374 39.068 111.178 39.18 110.982C38.984 110.618 38.634 110.338 38.13 110.142C37.654 109.946 37.122 109.848 36.534 109.848C36.086 109.848 35.61 109.96 35.106 110.184C34.63 110.38 34.224 110.674 33.888 111.066C33.552 111.43 33.384 111.878 33.384 112.41C33.384 112.858 33.496 113.25 33.72 113.586C33.944 113.922 34.336 114.286 34.896 114.678C35.456 115.07 36.212 115.546 37.164 116.106C38.116 116.666 39.082 117.268 40.062 117.912C41.07 118.528 41.91 119.256 42.582 120.096C43.254 120.908 43.59 121.916 43.59 123.12C43.59 124.352 43.226 125.444 42.498 126.396C41.798 127.348 40.818 128.104 39.558 128.664C38.298 129.196 36.87 129.462 35.274 129.462ZM57.3 107.538C58.868 107.538 60.268 107.902 61.5 108.63C62.76 109.358 63.754 110.422 64.482 111.822C65.238 113.194 65.616 114.874 65.616 116.862C65.616 119.074 65.196 121.146 64.356 123.078C63.516 125.01 62.312 126.564 60.744 127.74C59.204 128.888 57.342 129.462 55.158 129.462C53.282 129.462 51.728 129.042 50.496 128.202C49.264 127.334 48.34 126.186 47.724 124.758C47.136 123.302 46.842 121.706 46.842 119.97C46.842 117.73 47.262 115.672 48.102 113.796C48.942 111.892 50.146 110.38 51.714 109.26C53.282 108.112 55.144 107.538 57.3 107.538ZM56.67 109.89C55.718 109.862 54.878 110.254 54.15 111.066C53.422 111.85 52.862 112.914 52.47 114.258C52.078 115.602 51.882 117.086 51.882 118.71C51.854 119.606 51.896 120.544 52.008 121.524C52.12 122.476 52.316 123.372 52.596 124.212C52.904 125.052 53.31 125.738 53.814 126.27C54.318 126.802 54.948 127.068 55.704 127.068C56.572 127.096 57.3 126.816 57.888 126.228C58.504 125.64 58.994 124.884 59.358 123.96C59.722 123.036 59.988 122.056 60.156 121.02C60.352 119.984 60.464 119.004 60.492 118.08C60.52 117.268 60.478 116.386 60.366 115.434C60.282 114.482 60.1 113.586 59.82 112.746C59.568 111.906 59.176 111.234 58.644 110.73C58.14 110.198 57.482 109.918 56.67 109.89ZM97.6453 129.462C96.1893 129.462 95.1953 129.07 94.6633 128.286C94.1593 127.474 93.9073 126.368 93.9073 124.968C93.9073 124.128 93.9633 123.19 94.0753 122.154C94.2153 121.09 94.3553 119.998 94.4953 118.878C94.6353 117.73 94.7613 116.638 94.8733 115.602C95.0133 114.538 95.0833 113.6 95.0833 112.788C95.0833 112.396 95.0413 112.046 94.9573 111.738C94.8733 111.43 94.7333 111.192 94.5373 111.024C94.3413 110.856 94.0473 110.772 93.6553 110.772C93.0393 110.772 92.4233 111.094 91.8073 111.738C91.2193 112.382 90.6453 113.25 90.0853 114.342C89.5533 115.434 89.0773 116.652 88.6573 117.996C88.2653 119.34 87.9433 120.712 87.6913 122.112C87.4393 123.512 87.3133 124.842 87.3133 126.102C87.3133 126.494 87.3273 126.956 87.3553 127.488C87.3833 128.02 87.4113 128.524 87.4393 129H82.6513C82.5953 128.552 82.5673 128.132 82.5673 127.74C82.5673 127.32 82.5673 126.998 82.5673 126.774C82.5673 125.598 82.6233 124.352 82.7353 123.036C82.8473 121.72 82.9733 120.418 83.1133 119.13C83.2813 117.814 83.4213 116.61 83.5333 115.518C83.6453 114.398 83.7013 113.474 83.7013 112.746C83.7013 112.158 83.5893 111.682 83.3653 111.318C83.1693 110.954 82.7913 110.772 82.2313 110.772C81.6433 110.772 81.0413 111.108 80.4253 111.78C79.8093 112.424 79.2213 113.306 78.6613 114.426C78.1293 115.518 77.6393 116.736 77.1913 118.08C76.7713 119.424 76.4353 120.81 76.1833 122.238C75.9313 123.638 75.8053 124.968 75.8053 126.228C75.8053 126.62 75.8053 127.096 75.8053 127.656C75.8333 128.216 75.8613 128.664 75.8893 129H71.1433C71.0873 128.552 71.0593 128.23 71.0593 128.034C71.0593 127.81 71.0593 127.558 71.0593 127.278C71.0593 126.746 71.0733 126.13 71.1013 125.43C71.1573 124.73 71.2413 123.918 71.3533 122.994C71.4933 122.042 71.6333 120.978 71.7733 119.802C71.8853 118.71 71.9833 117.758 72.0673 116.946C72.1793 116.134 72.2773 115.434 72.3613 114.846C72.4453 114.23 72.5013 113.712 72.5293 113.292C72.5853 112.844 72.6133 112.48 72.6133 112.2C72.6133 111.724 72.5433 111.388 72.4033 111.192C72.2633 110.968 72.0673 110.856 71.8153 110.856C71.4793 110.856 71.1013 111.122 70.6813 111.654C70.2613 112.158 69.8553 113.082 69.4633 114.426L67.5313 113.88C67.6433 113.32 67.8253 112.676 68.0773 111.948C68.3573 111.22 68.7213 110.52 69.1693 109.848C69.6173 109.176 70.1633 108.63 70.8073 108.21C71.4513 107.762 72.2213 107.538 73.1173 107.538C73.8173 107.538 74.4193 107.692 74.9233 108C75.4273 108.308 75.8193 108.77 76.0993 109.386C76.3793 109.974 76.5053 110.758 76.4773 111.738C76.4773 112.354 76.4353 112.914 76.3513 113.418C76.2673 113.894 76.1833 114.384 76.0993 114.888H76.1833C76.9393 112.928 77.7373 111.416 78.5773 110.352C79.4173 109.288 80.2713 108.56 81.1393 108.168C82.0073 107.748 82.8333 107.538 83.6173 107.538C84.5973 107.538 85.3953 107.748 86.0113 108.168C86.6553 108.588 87.1173 109.162 87.3973 109.89C87.7053 110.618 87.8593 111.444 87.8593 112.368C87.8593 112.76 87.8313 113.138 87.7753 113.502C87.7473 113.866 87.6773 114.314 87.5653 114.846H87.6493C88.4053 112.886 89.1893 111.374 90.0013 110.31C90.8133 109.246 91.6393 108.518 92.4793 108.126C93.3473 107.734 94.1593 107.538 94.9153 107.538C96.0913 107.538 97.0293 107.804 97.7293 108.336C98.4573 108.84 98.9753 109.554 99.2833 110.478C99.6193 111.402 99.7873 112.466 99.7873 113.67C99.7873 114.846 99.6893 116.12 99.4933 117.492C99.3253 118.836 99.1293 120.152 98.9053 121.44C98.7093 122.7 98.6113 123.82 98.6113 124.8C98.6113 125.248 98.6813 125.584 98.8213 125.808C98.9613 126.032 99.1573 126.144 99.4093 126.144C99.7733 126.144 100.165 125.892 100.585 125.388C101.005 124.856 101.411 123.918 101.803 122.574L103.735 123.12C103.623 123.68 103.413 124.324 103.105 125.052C102.797 125.78 102.391 126.48 101.887 127.152C101.383 127.824 100.781 128.384 100.081 128.832C99.3813 129.252 98.5693 129.462 97.6453 129.462ZM115.829 107.538C116.977 107.538 118.013 107.72 118.937 108.084C119.889 108.42 120.631 108.966 121.163 109.722C121.695 110.478 121.961 111.458 121.961 112.662C121.961 113.81 121.597 114.79 120.869 115.602C120.169 116.414 119.231 117.086 118.055 117.618C116.907 118.122 115.661 118.542 114.317 118.878C112.973 119.214 111.671 119.452 110.411 119.592C110.411 121.244 110.593 122.56 110.957 123.54C111.321 124.492 111.811 125.178 112.427 125.598C113.071 125.99 113.771 126.186 114.527 126.186C115.115 126.186 115.759 126.074 116.459 125.85C117.187 125.598 117.901 125.15 118.601 124.506C119.301 123.862 119.917 122.966 120.449 121.818L122.465 122.826C121.681 124.534 120.813 125.878 119.861 126.858C118.909 127.81 117.901 128.482 116.837 128.874C115.773 129.266 114.667 129.462 113.519 129.462C110.915 129.49 108.899 128.72 107.471 127.152C106.043 125.584 105.329 123.316 105.329 120.348C105.329 118.892 105.539 117.422 105.959 115.938C106.379 114.426 107.009 113.04 107.849 111.78C108.717 110.52 109.809 109.498 111.125 108.714C112.441 107.93 114.009 107.538 115.829 107.538ZM115.325 109.848C114.261 109.848 113.393 110.226 112.721 110.982C112.049 111.71 111.531 112.648 111.167 113.796C110.831 114.916 110.607 116.078 110.495 117.282C112.007 117.03 113.281 116.666 114.317 116.19C115.353 115.686 116.151 115.098 116.711 114.426C117.271 113.754 117.551 113.012 117.551 112.2C117.523 111.444 117.299 110.87 116.879 110.478C116.459 110.058 115.941 109.848 115.325 109.848ZM135.64 107.538C137.208 107.538 138.608 107.902 139.84 108.63C141.1 109.358 142.094 110.422 142.822 111.822C143.578 113.194 143.956 114.874 143.956 116.862C143.956 119.074 143.536 121.146 142.696 123.078C141.856 125.01 140.652 126.564 139.084 127.74C137.544 128.888 135.682 129.462 133.498 129.462C131.622 129.462 130.068 129.042 128.836 128.202C127.604 127.334 126.68 126.186 126.064 124.758C125.476 123.302 125.182 121.706 125.182 119.97C125.182 117.73 125.602 115.672 126.442 113.796C127.282 111.892 128.486 110.38 130.054 109.26C131.622 108.112 133.484 107.538 135.64 107.538ZM135.01 109.89C134.058 109.862 133.218 110.254 132.49 111.066C131.762 111.85 131.202 112.914 130.81 114.258C130.418 115.602 130.222 117.086 130.222 118.71C130.194 119.606 130.236 120.544 130.348 121.524C130.46 122.476 130.656 123.372 130.936 124.212C131.244 125.052 131.65 125.738 132.154 126.27C132.658 126.802 133.288 127.068 134.044 127.068C134.912 127.096 135.64 126.816 136.228 126.228C136.844 125.64 137.334 124.884 137.698 123.96C138.062 123.036 138.328 122.056 138.496 121.02C138.692 119.984 138.804 119.004 138.832 118.08C138.86 117.268 138.818 116.386 138.706 115.434C138.622 114.482 138.44 113.586 138.16 112.746C137.908 111.906 137.516 111.234 136.984 110.73C136.48 110.198 135.822 109.918 135.01 109.89ZM164.855 129.462C163.371 129.462 162.363 129.07 161.831 128.286C161.327 127.474 161.075 126.368 161.075 124.968C161.075 124.128 161.131 123.19 161.243 122.154C161.355 121.09 161.481 119.998 161.621 118.878C161.789 117.73 161.929 116.638 162.041 115.602C162.153 114.538 162.209 113.6 162.209 112.788C162.209 112.396 162.167 112.046 162.083 111.738C161.999 111.43 161.845 111.192 161.621 111.024C161.425 110.856 161.145 110.772 160.781 110.772C160.165 110.772 159.549 111.108 158.933 111.78C158.317 112.424 157.715 113.306 157.127 114.426C156.567 115.518 156.063 116.736 155.615 118.08C155.167 119.424 154.803 120.81 154.523 122.238C154.271 123.638 154.145 124.968 154.145 126.228C154.145 126.62 154.159 127.096 154.187 127.656C154.215 128.216 154.243 128.664 154.271 129H149.483C149.427 128.552 149.385 128.23 149.357 128.034C149.357 127.81 149.357 127.558 149.357 127.278C149.357 126.746 149.385 126.116 149.441 125.388C149.525 124.632 149.623 123.764 149.735 122.784C149.847 121.804 149.973 120.712 150.113 119.508C150.253 118.444 150.365 117.52 150.449 116.736C150.561 115.952 150.645 115.28 150.701 114.72C150.785 114.132 150.841 113.642 150.869 113.25C150.897 112.83 150.911 112.48 150.911 112.2C150.911 111.724 150.841 111.388 150.701 111.192C150.589 110.968 150.407 110.856 150.155 110.856C149.791 110.856 149.399 111.122 148.979 111.654C148.559 112.158 148.167 113.082 147.803 114.426L145.871 113.88C145.983 113.32 146.165 112.676 146.417 111.948C146.669 111.22 147.019 110.52 147.467 109.848C147.915 109.176 148.461 108.63 149.105 108.21C149.749 107.762 150.519 107.538 151.415 107.538C152.143 107.538 152.759 107.706 153.263 108.042C153.795 108.35 154.187 108.826 154.439 109.47C154.719 110.086 154.845 110.884 154.817 111.864C154.789 112.48 154.733 113.026 154.649 113.502C154.593 113.978 154.523 114.468 154.439 114.972H154.523C155.279 112.984 156.077 111.458 156.917 110.394C157.757 109.302 158.611 108.56 159.479 108.168C160.347 107.748 161.201 107.538 162.041 107.538C163.217 107.538 164.155 107.804 164.855 108.336C165.583 108.84 166.115 109.554 166.451 110.478C166.787 111.402 166.955 112.466 166.955 113.67C166.955 114.846 166.857 116.12 166.661 117.492C166.493 118.836 166.311 120.152 166.115 121.44C165.919 122.7 165.821 123.82 165.821 124.8C165.821 125.248 165.891 125.584 166.031 125.808C166.171 126.032 166.367 126.144 166.619 126.144C166.983 126.144 167.375 125.892 167.795 125.388C168.215 124.856 168.607 123.918 168.971 122.574L170.903 123.12C170.791 123.68 170.581 124.324 170.273 125.052C169.965 125.78 169.559 126.48 169.055 127.152C168.551 127.824 167.949 128.384 167.249 128.832C166.549 129.252 165.751 129.462 164.855 129.462ZM183.054 107.538C184.202 107.538 185.238 107.72 186.162 108.084C187.114 108.42 187.856 108.966 188.388 109.722C188.92 110.478 189.186 111.458 189.186 112.662C189.186 113.81 188.822 114.79 188.094 115.602C187.394 116.414 186.456 117.086 185.28 117.618C184.132 118.122 182.886 118.542 181.542 118.878C180.198 119.214 178.896 119.452 177.636 119.592C177.636 121.244 177.818 122.56 178.182 123.54C178.546 124.492 179.036 125.178 179.652 125.598C180.296 125.99 180.996 126.186 181.752 126.186C182.34 126.186 182.984 126.074 183.684 125.85C184.412 125.598 185.126 125.15 185.826 124.506C186.526 123.862 187.142 122.966 187.674 121.818L189.69 122.826C188.906 124.534 188.038 125.878 187.086 126.858C186.134 127.81 185.126 128.482 184.062 128.874C182.998 129.266 181.892 129.462 180.744 129.462C178.14 129.49 176.124 128.72 174.696 127.152C173.268 125.584 172.554 123.316 172.554 120.348C172.554 118.892 172.764 117.422 173.184 115.938C173.604 114.426 174.234 113.04 175.074 111.78C175.942 110.52 177.034 109.498 178.35 108.714C179.666 107.93 181.234 107.538 183.054 107.538ZM182.55 109.848C181.486 109.848 180.618 110.226 179.946 110.982C179.274 111.71 178.756 112.648 178.392 113.796C178.056 114.916 177.832 116.078 177.72 117.282C179.232 117.03 180.506 116.666 181.542 116.19C182.578 115.686 183.376 115.098 183.936 114.426C184.496 113.754 184.776 113.012 184.776 112.2C184.748 111.444 184.524 110.87 184.104 110.478C183.684 110.058 183.166 109.848 182.55 109.848ZM228.808 107.538C229.816 107.538 230.67 107.804 231.37 108.336C232.098 108.868 232.672 109.596 233.092 110.52C233.512 111.416 233.778 112.424 233.89 113.544C234.002 114.664 233.974 115.812 233.806 116.988C233.666 118.388 233.274 119.816 232.63 121.272C232.014 122.728 231.188 124.086 230.152 125.346C229.144 126.578 227.982 127.572 226.666 128.328C225.35 129.084 223.936 129.462 222.424 129.462C221.36 129.462 220.478 129.224 219.778 128.748C219.106 128.244 218.63 127.53 218.35 126.606C218.098 125.654 218.042 124.534 218.182 123.246C217.762 124.646 217.174 125.808 216.418 126.732C215.662 127.656 214.808 128.342 213.856 128.79C212.932 129.238 211.994 129.462 211.042 129.462C209.306 129.462 208.06 128.902 207.304 127.782C206.548 126.634 206.17 125.136 206.17 123.288C206.17 122.42 206.226 121.468 206.338 120.432C206.45 119.396 206.562 118.36 206.674 117.324C206.814 116.26 206.926 115.28 207.01 114.384C207.122 113.488 207.178 112.774 207.178 112.242C207.178 111.738 207.108 111.388 206.968 111.192C206.828 110.968 206.632 110.856 206.38 110.856C205.988 110.856 205.582 111.122 205.162 111.654C204.77 112.158 204.392 113.082 204.028 114.426L202.096 113.88C202.208 113.32 202.404 112.676 202.684 111.948C202.992 111.22 203.398 110.52 203.902 109.848C204.406 109.176 205.008 108.63 205.708 108.21C206.408 107.762 207.206 107.538 208.102 107.538C209.082 107.538 209.852 107.748 210.412 108.168C210.972 108.56 211.364 109.106 211.588 109.806C211.84 110.478 211.966 111.262 211.966 112.158C211.966 113.054 211.91 114.062 211.798 115.182C211.714 116.302 211.588 117.436 211.42 118.584C211.28 119.732 211.154 120.796 211.042 121.776C210.958 122.756 210.916 123.554 210.916 124.17C210.916 124.506 210.944 124.87 211 125.262C211.056 125.626 211.182 125.948 211.378 126.228C211.602 126.48 211.91 126.606 212.302 126.606C213.086 126.606 213.786 126.298 214.402 125.682C215.046 125.066 215.606 124.24 216.082 123.204C216.558 122.14 216.95 120.964 217.258 119.676C217.566 118.36 217.804 117.002 217.972 115.602C218.14 114.202 218.224 112.858 218.224 111.57C218.224 111.066 218.196 110.478 218.14 109.806C218.112 109.106 218.07 108.504 218.014 108H222.844C222.9 108.476 222.928 108.868 222.928 109.176C222.956 109.456 222.97 109.722 222.97 109.974C222.97 111.038 222.914 112.228 222.802 113.544C222.69 114.832 222.55 116.134 222.382 117.45C222.242 118.766 222.116 119.998 222.004 121.146C221.892 122.266 221.836 123.204 221.836 123.96C221.836 124.52 221.962 125.108 222.214 125.724C222.466 126.312 222.97 126.62 223.726 126.648C224.482 126.648 225.266 126.396 226.078 125.892C226.89 125.36 227.66 124.646 228.388 123.75C229.116 122.854 229.732 121.818 230.236 120.642C230.74 119.466 231.062 118.22 231.202 116.904C231.258 116.512 231.286 116.064 231.286 115.56C231.286 115.028 231.244 114.51 231.16 114.006C231.104 113.474 230.978 112.998 230.782 112.578C230.614 112.158 230.362 111.85 230.026 111.654C229.802 111.906 229.522 112.116 229.186 112.284C228.878 112.452 228.542 112.536 228.178 112.536C227.674 112.536 227.156 112.354 226.624 111.99C226.092 111.598 225.826 110.996 225.826 110.184C225.826 109.82 225.91 109.428 226.078 109.008C226.274 108.588 226.596 108.238 227.044 107.958C227.492 107.678 228.08 107.538 228.808 107.538ZM241.78 107.538C243.152 107.538 244.118 107.972 244.678 108.84C245.266 109.68 245.56 110.814 245.56 112.242C245.56 112.97 245.49 113.894 245.35 115.014C245.21 116.134 245.042 117.324 244.846 118.584C244.678 119.844 244.51 121.034 244.342 122.154C244.202 123.246 244.132 124.142 244.132 124.842C244.132 125.318 244.216 125.654 244.384 125.85C244.552 126.046 244.762 126.144 245.014 126.144C245.378 126.144 245.77 125.892 246.19 125.388C246.61 124.856 247.016 123.918 247.408 122.574L249.298 123.12C249.186 123.708 248.976 124.366 248.668 125.094C248.36 125.822 247.954 126.522 247.45 127.194C246.974 127.838 246.386 128.384 245.686 128.832C244.986 129.252 244.188 129.462 243.292 129.462C241.836 129.462 240.814 129.07 240.226 128.286C239.638 127.502 239.344 126.396 239.344 124.968C239.344 124.016 239.414 122.98 239.554 121.86C239.722 120.712 239.904 119.564 240.1 118.416C240.296 117.24 240.464 116.12 240.604 115.056C240.744 113.992 240.814 113.04 240.814 112.2C240.814 111.752 240.744 111.416 240.604 111.192C240.464 110.968 240.254 110.856 239.974 110.856C239.638 110.856 239.26 111.122 238.84 111.654C238.42 112.158 238.014 113.082 237.622 114.426L235.732 113.88C235.816 113.32 236.012 112.676 236.32 111.948C236.628 111.22 237.034 110.52 237.538 109.848C238.07 109.176 238.686 108.63 239.386 108.21C240.086 107.762 240.884 107.538 241.78 107.538ZM243.586 97.458C244.398 97.458 245.07 97.752 245.602 98.34C246.134 98.928 246.372 99.67 246.316 100.566C246.316 101.434 246.036 102.162 245.476 102.75C244.916 103.338 244.216 103.632 243.376 103.632C242.536 103.632 241.85 103.338 241.318 102.75C240.814 102.162 240.562 101.434 240.562 100.566C240.618 99.67 240.94 98.928 241.528 98.34C242.116 97.752 242.802 97.458 243.586 97.458ZM259.837 101.784L259.039 108H264.751L264.541 110.478L258.787 110.562C258.675 111.626 258.549 112.76 258.409 113.964C258.269 115.14 258.143 116.302 258.031 117.45C257.947 118.598 257.863 119.662 257.779 120.642C257.695 121.594 257.653 122.378 257.653 122.994C257.653 123.414 257.695 123.862 257.779 124.338C257.863 124.814 258.045 125.22 258.325 125.556C258.605 125.892 259.053 126.06 259.669 126.06C259.921 126.06 260.257 126.004 260.677 125.892C261.097 125.752 261.559 125.5 262.063 125.136C262.567 124.744 263.043 124.142 263.491 123.33L265.297 124.464C264.401 126.116 263.337 127.362 262.105 128.202C260.873 129.042 259.515 129.462 258.031 129.462C256.631 129.462 255.567 129.168 254.839 128.58C254.111 127.992 253.621 127.222 253.369 126.27C253.117 125.318 252.991 124.324 252.991 123.288C253.047 122.28 253.117 121.09 253.201 119.718C253.285 118.346 253.397 116.876 253.537 115.308C253.677 113.712 253.831 112.144 253.999 110.604L250.513 110.646L250.807 108C252.851 108 254.349 107.468 255.301 106.404C256.281 105.312 256.995 103.772 257.443 101.784H259.837ZM283.599 129.462C282.143 129.462 281.149 129.07 280.617 128.286C280.085 127.474 279.819 126.368 279.819 124.968C279.819 124.128 279.875 123.19 279.987 122.154C280.099 121.09 280.225 119.998 280.365 118.878C280.505 117.73 280.631 116.638 280.743 115.602C280.855 114.538 280.911 113.6 280.911 112.788C280.911 112.396 280.855 112.046 280.743 111.738C280.659 111.43 280.519 111.192 280.323 111.024C280.127 110.856 279.833 110.772 279.441 110.772C278.853 110.772 278.251 111.094 277.635 111.738C277.019 112.382 276.417 113.25 275.829 114.342C275.269 115.434 274.765 116.652 274.317 117.996C273.869 119.34 273.505 120.726 273.225 122.154C272.973 123.582 272.847 124.94 272.847 126.228C272.847 126.62 272.861 127.096 272.889 127.656C272.917 128.216 272.945 128.664 272.973 129H268.227C268.199 128.552 268.171 128.23 268.143 128.034C268.143 127.81 268.143 127.558 268.143 127.278C268.143 126.13 268.171 124.772 268.227 123.204C268.311 121.636 268.395 119.998 268.479 118.29C268.591 116.554 268.717 114.832 268.857 113.124C268.997 111.416 269.137 109.82 269.277 108.336C269.417 106.824 269.557 105.508 269.697 104.388C269.781 103.828 269.865 103.254 269.949 102.666C270.033 102.078 270.117 101.546 270.201 101.07L267.261 101.196L267.429 98.508C268.717 98.508 269.767 98.452 270.579 98.34C271.391 98.2 272.021 98.032 272.469 97.836C272.917 97.64 273.253 97.458 273.477 97.29H275.367C275.283 98.074 275.171 98.984 275.031 100.02C274.891 101.056 274.751 102.064 274.611 103.044C274.499 104.024 274.401 104.808 274.317 105.396C274.261 105.76 274.191 106.32 274.107 107.076C274.023 107.832 273.925 108.672 273.813 109.596C273.701 110.52 273.589 111.444 273.477 112.368C273.365 113.292 273.239 114.132 273.099 114.888H273.183C273.911 112.928 274.695 111.416 275.535 110.352C276.403 109.288 277.271 108.56 278.139 108.168C279.035 107.748 279.889 107.538 280.701 107.538C282.465 107.538 283.725 108.112 284.481 109.26C285.265 110.38 285.657 111.85 285.657 113.67C285.657 114.846 285.573 116.12 285.405 117.492C285.237 118.836 285.055 120.152 284.859 121.44C284.663 122.7 284.565 123.82 284.565 124.8C284.565 125.248 284.621 125.584 284.733 125.808C284.873 126.032 285.083 126.144 285.363 126.144C285.727 126.144 286.119 125.892 286.539 125.388C286.959 124.856 287.365 123.918 287.757 122.574L289.605 123.12C289.493 123.68 289.283 124.324 288.975 125.052C288.695 125.78 288.303 126.48 287.799 127.152C287.295 127.824 286.693 128.384 285.993 128.832C285.321 129.252 284.523 129.462 283.599 129.462ZM57.45 183.462C55.994 183.462 55 183.07 54.468 182.286C53.964 181.474 53.712 180.368 53.712 178.968C53.712 178.128 53.768 177.19 53.88 176.154C54.02 175.09 54.16 173.998 54.3 172.878C54.44 171.73 54.566 170.638 54.678 169.602C54.818 168.538 54.888 167.6 54.888 166.788C54.888 166.396 54.846 166.046 54.762 165.738C54.678 165.43 54.538 165.192 54.342 165.024C54.146 164.856 53.852 164.772 53.46 164.772C52.844 164.772 52.228 165.094 51.612 165.738C51.024 166.382 50.45 167.25 49.89 168.342C49.358 169.434 48.882 170.652 48.462 171.996C48.07 173.34 47.748 174.712 47.496 176.112C47.244 177.512 47.118 178.842 47.118 180.102C47.118 180.494 47.132 180.956 47.16 181.488C47.188 182.02 47.216 182.524 47.244 183H42.456C42.4 182.552 42.372 182.132 42.372 181.74C42.372 181.32 42.372 180.998 42.372 180.774C42.372 179.598 42.428 178.352 42.54 177.036C42.652 175.72 42.778 174.418 42.918 173.13C43.086 171.814 43.226 170.61 43.338 169.518C43.45 168.398 43.506 167.474 43.506 166.746C43.506 166.158 43.394 165.682 43.17 165.318C42.974 164.954 42.596 164.772 42.036 164.772C41.448 164.772 40.846 165.108 40.23 165.78C39.614 166.424 39.026 167.306 38.466 168.426C37.934 169.518 37.444 170.736 36.996 172.08C36.576 173.424 36.24 174.81 35.988 176.238C35.736 177.638 35.61 178.968 35.61 180.228C35.61 180.62 35.61 181.096 35.61 181.656C35.638 182.216 35.666 182.664 35.694 183H30.948C30.892 182.552 30.864 182.23 30.864 182.034C30.864 181.81 30.864 181.558 30.864 181.278C30.864 180.746 30.878 180.13 30.906 179.43C30.962 178.73 31.046 177.918 31.158 176.994C31.298 176.042 31.438 174.978 31.578 173.802C31.69 172.71 31.788 171.758 31.872 170.946C31.984 170.134 32.082 169.434 32.166 168.846C32.25 168.23 32.306 167.712 32.334 167.292C32.39 166.844 32.418 166.48 32.418 166.2C32.418 165.724 32.348 165.388 32.208 165.192C32.068 164.968 31.872 164.856 31.62 164.856C31.284 164.856 30.906 165.122 30.486 165.654C30.066 166.158 29.66 167.082 29.268 168.426L27.336 167.88C27.448 167.32 27.63 166.676 27.882 165.948C28.162 165.22 28.526 164.52 28.974 163.848C29.422 163.176 29.968 162.63 30.612 162.21C31.256 161.762 32.026 161.538 32.922 161.538C33.622 161.538 34.224 161.692 34.728 162C35.232 162.308 35.624 162.77 35.904 163.386C36.184 163.974 36.31 164.758 36.282 165.738C36.282 166.354 36.24 166.914 36.156 167.418C36.072 167.894 35.988 168.384 35.904 168.888H35.988C36.744 166.928 37.542 165.416 38.382 164.352C39.222 163.288 40.076 162.56 40.944 162.168C41.812 161.748 42.638 161.538 43.422 161.538C44.402 161.538 45.2 161.748 45.816 162.168C46.46 162.588 46.922 163.162 47.202 163.89C47.51 164.618 47.664 165.444 47.664 166.368C47.664 166.76 47.636 167.138 47.58 167.502C47.552 167.866 47.482 168.314 47.37 168.846H47.454C48.21 166.886 48.994 165.374 49.806 164.31C50.618 163.246 51.444 162.518 52.284 162.126C53.152 161.734 53.964 161.538 54.72 161.538C55.896 161.538 56.834 161.804 57.534 162.336C58.262 162.84 58.78 163.554 59.088 164.478C59.424 165.402 59.592 166.466 59.592 167.67C59.592 168.846 59.494 170.12 59.298 171.492C59.13 172.836 58.934 174.152 58.71 175.44C58.514 176.7 58.416 177.82 58.416 178.8C58.416 179.248 58.486 179.584 58.626 179.808C58.766 180.032 58.962 180.144 59.214 180.144C59.578 180.144 59.97 179.892 60.39 179.388C60.81 178.856 61.216 177.918 61.608 176.574L63.54 177.12C63.428 177.68 63.218 178.324 62.91 179.052C62.602 179.78 62.196 180.48 61.692 181.152C61.188 181.824 60.586 182.384 59.886 182.832C59.186 183.252 58.374 183.462 57.45 183.462ZM75.634 161.538C77.202 161.538 78.602 161.902 79.834 162.63C81.094 163.358 82.088 164.422 82.816 165.822C83.572 167.194 83.95 168.874 83.95 170.862C83.95 173.074 83.53 175.146 82.69 177.078C81.85 179.01 80.646 180.564 79.078 181.74C77.538 182.888 75.676 183.462 73.492 183.462C71.616 183.462 70.062 183.042 68.83 182.202C67.598 181.334 66.674 180.186 66.058 178.758C65.47 177.302 65.176 175.706 65.176 173.97C65.176 171.73 65.596 169.672 66.436 167.796C67.276 165.892 68.48 164.38 70.048 163.26C71.616 162.112 73.478 161.538 75.634 161.538ZM75.004 163.89C74.052 163.862 73.212 164.254 72.484 165.066C71.756 165.85 71.196 166.914 70.804 168.258C70.412 169.602 70.216 171.086 70.216 172.71C70.188 173.606 70.23 174.544 70.342 175.524C70.454 176.476 70.65 177.372 70.93 178.212C71.238 179.052 71.644 179.738 72.148 180.27C72.652 180.802 73.282 181.068 74.038 181.068C74.906 181.096 75.634 180.816 76.222 180.228C76.838 179.64 77.328 178.884 77.692 177.96C78.056 177.036 78.322 176.056 78.49 175.02C78.686 173.984 78.798 173.004 78.826 172.08C78.854 171.268 78.812 170.386 78.7 169.434C78.616 168.482 78.434 167.586 78.154 166.746C77.902 165.906 77.51 165.234 76.978 164.73C76.474 164.198 75.816 163.918 75.004 163.89ZM89.5193 183C89.4633 182.552 89.4353 182.23 89.4353 182.034C89.4353 181.81 89.4353 181.558 89.4353 181.278C89.4353 180.746 89.4633 180.102 89.5193 179.346C89.5753 178.562 89.6453 177.666 89.7293 176.658C89.8413 175.65 89.9673 174.544 90.1073 173.34C90.2753 172.08 90.4153 170.988 90.5273 170.064C90.6673 169.14 90.7653 168.384 90.8213 167.796C90.8773 167.18 90.9053 166.704 90.9053 166.368C90.9333 165.864 90.8773 165.486 90.7373 165.234C90.6253 164.982 90.4293 164.856 90.1493 164.856C89.7853 164.856 89.3933 165.122 88.9733 165.654C88.5533 166.158 88.1613 167.082 87.7973 168.426L85.8653 167.88C85.9773 167.32 86.1593 166.676 86.4113 165.948C86.6633 165.22 87.0133 164.52 87.4613 163.848C87.9093 163.176 88.4553 162.63 89.0993 162.21C89.7433 161.762 90.5133 161.538 91.4093 161.538C92.4453 161.538 93.2713 161.86 93.8873 162.504C94.5033 163.148 94.8113 164.212 94.8113 165.696C94.7833 166.2 94.7273 166.788 94.6433 167.46C94.5593 168.104 94.4473 168.832 94.3073 169.644H94.3913C95.1473 167.404 95.9313 165.71 96.7433 164.562C97.5833 163.386 98.4093 162.588 99.2213 162.168C100.061 161.748 100.859 161.538 101.615 161.538C102.595 161.538 103.393 161.804 104.009 162.336C104.625 162.868 104.933 163.582 104.933 164.478C104.933 165.122 104.695 165.71 104.219 166.242C103.771 166.774 103.169 167.04 102.413 167.04C101.853 167.04 101.349 166.858 100.901 166.494C100.453 166.13 100.229 165.64 100.229 165.024C99.6693 164.912 99.0953 165.178 98.5073 165.822C97.9473 166.438 97.4013 167.306 96.8693 168.426C96.3653 169.546 95.9173 170.792 95.5253 172.164C95.1333 173.536 94.8113 174.936 94.5593 176.364C94.3353 177.792 94.2233 179.136 94.2233 180.396C94.2233 180.76 94.2373 181.208 94.2653 181.74C94.2933 182.244 94.3213 182.664 94.3493 183H89.5193ZM116.281 161.538C117.429 161.538 118.465 161.72 119.389 162.084C120.341 162.42 121.083 162.966 121.615 163.722C122.147 164.478 122.413 165.458 122.413 166.662C122.413 167.81 122.049 168.79 121.321 169.602C120.621 170.414 119.683 171.086 118.507 171.618C117.359 172.122 116.113 172.542 114.769 172.878C113.425 173.214 112.123 173.452 110.863 173.592C110.863 175.244 111.045 176.56 111.409 177.54C111.773 178.492 112.263 179.178 112.879 179.598C113.523 179.99 114.223 180.186 114.979 180.186C115.567 180.186 116.211 180.074 116.911 179.85C117.639 179.598 118.353 179.15 119.053 178.506C119.753 177.862 120.369 176.966 120.901 175.818L122.917 176.826C122.133 178.534 121.265 179.878 120.313 180.858C119.361 181.81 118.353 182.482 117.289 182.874C116.225 183.266 115.119 183.462 113.971 183.462C111.367 183.49 109.351 182.72 107.923 181.152C106.495 179.584 105.781 177.316 105.781 174.348C105.781 172.892 105.991 171.422 106.411 169.938C106.831 168.426 107.461 167.04 108.301 165.78C109.169 164.52 110.261 163.498 111.577 162.714C112.893 161.93 114.461 161.538 116.281 161.538ZM115.777 163.848C114.713 163.848 113.845 164.226 113.173 164.982C112.501 165.71 111.983 166.648 111.619 167.796C111.283 168.916 111.059 170.078 110.947 171.282C112.459 171.03 113.733 170.666 114.769 170.19C115.805 169.686 116.603 169.098 117.163 168.426C117.723 167.754 118.003 167.012 118.003 166.2C117.975 165.444 117.751 164.87 117.331 164.478C116.911 164.058 116.393 163.848 115.777 163.848ZM147.124 161.538C148.272 161.538 149.308 161.72 150.232 162.084C151.184 162.42 151.926 162.966 152.458 163.722C152.99 164.478 153.256 165.458 153.256 166.662C153.256 167.81 152.892 168.79 152.164 169.602C151.464 170.414 150.526 171.086 149.35 171.618C148.202 172.122 146.956 172.542 145.612 172.878C144.268 173.214 142.966 173.452 141.706 173.592C141.706 175.244 141.888 176.56 142.252 177.54C142.616 178.492 143.106 179.178 143.722 179.598C144.366 179.99 145.066 180.186 145.822 180.186C146.41 180.186 147.054 180.074 147.754 179.85C148.482 179.598 149.196 179.15 149.896 178.506C150.596 177.862 151.212 176.966 151.744 175.818L153.76 176.826C152.976 178.534 152.108 179.878 151.156 180.858C150.204 181.81 149.196 182.482 148.132 182.874C147.068 183.266 145.962 183.462 144.814 183.462C142.21 183.49 140.194 182.72 138.766 181.152C137.338 179.584 136.624 177.316 136.624 174.348C136.624 172.892 136.834 171.422 137.254 169.938C137.674 168.426 138.304 167.04 139.144 165.78C140.012 164.52 141.104 163.498 142.42 162.714C143.736 161.93 145.304 161.538 147.124 161.538ZM146.62 163.848C145.556 163.848 144.688 164.226 144.016 164.982C143.344 165.71 142.826 166.648 142.462 167.796C142.126 168.916 141.902 170.078 141.79 171.282C143.302 171.03 144.576 170.666 145.612 170.19C146.648 169.686 147.446 169.098 148.006 168.426C148.566 167.754 148.846 167.012 148.846 166.2C148.818 165.444 148.594 164.87 148.174 164.478C147.754 164.058 147.236 163.848 146.62 163.848ZM158.626 183.462C157.674 183.462 156.918 183.224 156.358 182.748C155.798 182.244 155.518 181.6 155.518 180.816C155.518 180.032 155.742 179.402 156.19 178.926C156.666 178.45 157.212 178.212 157.828 178.212C158.5 178.212 158.99 178.394 159.298 178.758C159.634 179.094 159.844 179.444 159.928 179.808C160.488 179.696 161.076 179.066 161.692 177.918C162.308 176.77 163.036 174.95 163.876 172.458C163.4 171.17 163.008 170.064 162.7 169.14C162.392 168.188 162.07 167.334 161.734 166.578C161.454 165.962 161.202 165.556 160.978 165.36C160.754 165.136 160.474 165.01 160.138 164.982C159.746 164.982 159.354 165.22 158.962 165.696C158.598 166.144 158.36 167.068 158.248 168.468L156.274 168.258C156.302 167.67 156.414 166.998 156.61 166.242C156.806 165.486 157.1 164.744 157.492 164.016C157.912 163.288 158.472 162.7 159.172 162.252C159.9 161.776 160.796 161.538 161.86 161.538C162.952 161.538 163.778 161.86 164.338 162.504C164.926 163.12 165.43 163.974 165.85 165.066C166.046 165.57 166.228 166.074 166.396 166.578C166.564 167.082 166.774 167.768 167.026 168.636C167.67 167.012 168.286 165.738 168.874 164.814C169.49 163.862 170.064 163.148 170.596 162.672C171.156 162.196 171.66 161.888 172.108 161.748C172.584 161.608 173.018 161.538 173.41 161.538C174.306 161.538 174.978 161.79 175.426 162.294C175.874 162.77 176.098 163.386 176.098 164.142C176.098 164.758 175.874 165.304 175.426 165.78C174.978 166.256 174.432 166.494 173.788 166.494C173.228 166.494 172.794 166.382 172.486 166.158C172.206 165.934 171.968 165.71 171.772 165.486C171.492 165.626 171.17 165.906 170.806 166.326C170.47 166.718 170.078 167.334 169.63 168.174C169.21 169.014 168.692 170.162 168.076 171.618C168.496 172.71 168.902 173.76 169.294 174.768C169.714 175.748 170.12 176.644 170.512 177.456C170.932 178.24 171.324 178.87 171.688 179.346C172.08 179.794 172.444 180.018 172.78 180.018C173.228 180.018 173.592 179.794 173.872 179.346C174.18 178.87 174.418 178.016 174.586 176.784L176.518 177.078C176.462 177.722 176.336 178.408 176.14 179.136C175.944 179.864 175.65 180.564 175.258 181.236C174.866 181.88 174.348 182.412 173.704 182.832C173.06 183.252 172.248 183.462 171.268 183.462C170.568 183.462 169.966 183.35 169.462 183.126C168.958 182.902 168.482 182.51 168.034 181.95C167.614 181.39 167.166 180.606 166.69 179.598C166.242 178.562 165.682 177.246 165.01 175.65H164.968C164.38 177.386 163.806 178.786 163.246 179.85C162.714 180.886 162.182 181.67 161.65 182.202C161.146 182.706 160.628 183.042 160.096 183.21C159.592 183.378 159.102 183.462 158.626 183.462ZM179.077 193.71V191.484C179.805 191.484 180.337 191.288 180.673 190.896C181.009 190.504 181.247 189.958 181.387 189.258C181.527 188.586 181.625 187.83 181.681 186.99C181.961 183.994 182.199 181.334 182.395 179.01C182.591 176.658 182.745 174.628 182.857 172.92C182.997 171.212 183.095 169.826 183.151 168.762C183.235 167.67 183.277 166.886 183.277 166.41C183.277 165.878 183.207 165.486 183.067 165.234C182.955 164.982 182.759 164.856 182.479 164.856C182.115 164.856 181.723 165.122 181.303 165.654C180.883 166.158 180.491 167.082 180.127 168.426L178.195 167.88C178.307 167.32 178.489 166.676 178.741 165.948C178.993 165.22 179.343 164.52 179.791 163.848C180.239 163.176 180.785 162.63 181.429 162.21C182.101 161.762 182.885 161.538 183.781 161.538C184.789 161.538 185.601 161.86 186.217 162.504C186.833 163.148 187.141 164.17 187.141 165.57C187.141 166.186 187.099 166.76 187.015 167.292C186.959 167.796 186.889 168.314 186.805 168.846H186.889C187.589 166.858 188.345 165.346 189.157 164.31C189.997 163.246 190.851 162.518 191.719 162.126C192.587 161.734 193.399 161.538 194.155 161.538C195.499 161.538 196.619 161.888 197.515 162.588C198.411 163.288 199.083 164.24 199.531 165.444C199.979 166.648 200.203 168.034 200.203 169.602C200.203 172.29 199.755 174.684 198.859 176.784C197.991 178.856 196.661 180.494 194.869 181.698C193.105 182.874 190.879 183.462 188.191 183.462C187.967 183.462 187.715 183.448 187.435 183.42C187.155 183.42 186.889 183.406 186.637 183.378C186.553 185.002 186.469 186.304 186.385 187.284C186.329 188.292 186.273 189.076 186.217 189.636C186.189 190.224 186.133 190.728 186.049 191.148C186.497 191.092 186.973 191.05 187.477 191.022C188.009 191.022 188.443 191.022 188.779 191.022V193.71H179.077ZM188.737 181.152C189.773 181.152 190.655 180.886 191.383 180.354C192.139 179.822 192.755 179.136 193.231 178.296C193.735 177.456 194.127 176.532 194.407 175.524C194.687 174.516 194.883 173.522 194.995 172.542C195.135 171.562 195.205 170.68 195.205 169.896C195.205 168.776 195.121 167.838 194.953 167.082C194.785 166.298 194.519 165.71 194.155 165.318C193.819 164.926 193.385 164.73 192.853 164.73C192.209 164.73 191.593 165.024 191.005 165.612C190.445 166.172 189.913 166.984 189.409 168.048C188.933 169.084 188.513 170.316 188.149 171.744C187.785 173.172 187.477 174.754 187.225 176.49C187.141 177.162 187.057 177.862 186.973 178.59C186.889 179.29 186.819 180.032 186.763 180.816C187.127 180.9 187.477 180.984 187.813 181.068C188.177 181.124 188.485 181.152 188.737 181.152ZM213.611 161.538C214.759 161.538 215.795 161.72 216.719 162.084C217.671 162.42 218.413 162.966 218.945 163.722C219.477 164.478 219.743 165.458 219.743 166.662C219.743 167.81 219.379 168.79 218.651 169.602C217.951 170.414 217.013 171.086 215.837 171.618C214.689 172.122 213.443 172.542 212.099 172.878C210.755 173.214 209.453 173.452 208.193 173.592C208.193 175.244 208.375 176.56 208.739 177.54C209.103 178.492 209.593 179.178 210.209 179.598C210.853 179.99 211.553 180.186 212.309 180.186C212.897 180.186 213.541 180.074 214.241 179.85C214.969 179.598 215.683 179.15 216.383 178.506C217.083 177.862 217.699 176.966 218.231 175.818L220.247 176.826C219.463 178.534 218.595 179.878 217.643 180.858C216.691 181.81 215.683 182.482 214.619 182.874C213.555 183.266 212.449 183.462 211.301 183.462C208.697 183.49 206.681 182.72 205.253 181.152C203.825 179.584 203.111 177.316 203.111 174.348C203.111 172.892 203.321 171.422 203.741 169.938C204.161 168.426 204.791 167.04 205.631 165.78C206.499 164.52 207.591 163.498 208.907 162.714C210.223 161.93 211.791 161.538 213.611 161.538ZM213.107 163.848C212.043 163.848 211.175 164.226 210.503 164.982C209.831 165.71 209.313 166.648 208.949 167.796C208.613 168.916 208.389 170.078 208.277 171.282C209.789 171.03 211.063 170.666 212.099 170.19C213.135 169.686 213.933 169.098 214.493 168.426C215.053 167.754 215.333 167.012 215.333 166.2C215.305 165.444 215.081 164.87 214.661 164.478C214.241 164.058 213.723 163.848 213.107 163.848ZM225.609 183C225.553 182.552 225.525 182.23 225.525 182.034C225.525 181.81 225.525 181.558 225.525 181.278C225.525 180.746 225.553 180.102 225.609 179.346C225.665 178.562 225.735 177.666 225.819 176.658C225.931 175.65 226.057 174.544 226.197 173.34C226.365 172.08 226.505 170.988 226.617 170.064C226.757 169.14 226.855 168.384 226.911 167.796C226.967 167.18 226.995 166.704 226.995 166.368C227.023 165.864 226.967 165.486 226.827 165.234C226.715 164.982 226.519 164.856 226.239 164.856C225.875 164.856 225.483 165.122 225.063 165.654C224.643 166.158 224.251 167.082 223.887 168.426L221.955 167.88C222.067 167.32 222.249 166.676 222.501 165.948C222.753 165.22 223.103 164.52 223.551 163.848C223.999 163.176 224.545 162.63 225.189 162.21C225.833 161.762 226.603 161.538 227.499 161.538C228.535 161.538 229.361 161.86 229.977 162.504C230.593 163.148 230.901 164.212 230.901 165.696C230.873 166.2 230.817 166.788 230.733 167.46C230.649 168.104 230.537 168.832 230.397 169.644H230.481C231.237 167.404 232.021 165.71 232.833 164.562C233.673 163.386 234.499 162.588 235.311 162.168C236.151 161.748 236.949 161.538 237.705 161.538C238.685 161.538 239.483 161.804 240.099 162.336C240.715 162.868 241.023 163.582 241.023 164.478C241.023 165.122 240.785 165.71 240.309 166.242C239.861 166.774 239.259 167.04 238.503 167.04C237.943 167.04 237.439 166.858 236.991 166.494C236.543 166.13 236.319 165.64 236.319 165.024C235.759 164.912 235.185 165.178 234.597 165.822C234.037 166.438 233.491 167.306 232.959 168.426C232.455 169.546 232.007 170.792 231.615 172.164C231.223 173.536 230.901 174.936 230.649 176.364C230.425 177.792 230.313 179.136 230.313 180.396C230.313 180.76 230.327 181.208 230.355 181.74C230.383 182.244 230.411 182.664 230.439 183H225.609ZM247.071 161.538C248.443 161.538 249.409 161.972 249.969 162.84C250.557 163.68 250.851 164.814 250.851 166.242C250.851 166.97 250.781 167.894 250.641 169.014C250.501 170.134 250.333 171.324 250.137 172.584C249.969 173.844 249.801 175.034 249.633 176.154C249.493 177.246 249.423 178.142 249.423 178.842C249.423 179.318 249.507 179.654 249.675 179.85C249.843 180.046 250.053 180.144 250.305 180.144C250.669 180.144 251.061 179.892 251.481 179.388C251.901 178.856 252.307 177.918 252.699 176.574L254.589 177.12C254.477 177.708 254.267 178.366 253.959 179.094C253.651 179.822 253.245 180.522 252.741 181.194C252.265 181.838 251.677 182.384 250.977 182.832C250.277 183.252 249.479 183.462 248.583 183.462C247.127 183.462 246.105 183.07 245.517 182.286C244.929 181.502 244.635 180.396 244.635 178.968C244.635 178.016 244.705 176.98 244.845 175.86C245.013 174.712 245.195 173.564 245.391 172.416C245.587 171.24 245.755 170.12 245.895 169.056C246.035 167.992 246.105 167.04 246.105 166.2C246.105 165.752 246.035 165.416 245.895 165.192C245.755 164.968 245.545 164.856 245.265 164.856C244.929 164.856 244.551 165.122 244.131 165.654C243.711 166.158 243.305 167.082 242.913 168.426L241.023 167.88C241.107 167.32 241.303 166.676 241.611 165.948C241.919 165.22 242.325 164.52 242.829 163.848C243.361 163.176 243.977 162.63 244.677 162.21C245.377 161.762 246.175 161.538 247.071 161.538ZM248.877 151.458C249.689 151.458 250.361 151.752 250.893 152.34C251.425 152.928 251.663 153.67 251.607 154.566C251.607 155.434 251.327 156.162 250.767 156.75C250.207 157.338 249.507 157.632 248.667 157.632C247.827 157.632 247.141 157.338 246.609 156.75C246.105 156.162 245.853 155.434 245.853 154.566C245.909 153.67 246.231 152.928 246.819 152.34C247.407 151.752 248.093 151.458 248.877 151.458ZM266.808 161.538C267.956 161.538 268.992 161.72 269.916 162.084C270.868 162.42 271.61 162.966 272.142 163.722C272.674 164.478 272.94 165.458 272.94 166.662C272.94 167.81 272.576 168.79 271.848 169.602C271.148 170.414 270.21 171.086 269.034 171.618C267.886 172.122 266.64 172.542 265.296 172.878C263.952 173.214 262.65 173.452 261.39 173.592C261.39 175.244 261.572 176.56 261.936 177.54C262.3 178.492 262.79 179.178 263.406 179.598C264.05 179.99 264.75 180.186 265.506 180.186C266.094 180.186 266.738 180.074 267.438 179.85C268.166 179.598 268.88 179.15 269.58 178.506C270.28 177.862 270.896 176.966 271.428 175.818L273.444 176.826C272.66 178.534 271.792 179.878 270.84 180.858C269.888 181.81 268.88 182.482 267.816 182.874C266.752 183.266 265.646 183.462 264.498 183.462C261.894 183.49 259.878 182.72 258.45 181.152C257.022 179.584 256.308 177.316 256.308 174.348C256.308 172.892 256.518 171.422 256.938 169.938C257.358 168.426 257.988 167.04 258.828 165.78C259.696 164.52 260.788 163.498 262.104 162.714C263.42 161.93 264.988 161.538 266.808 161.538ZM266.304 163.848C265.24 163.848 264.372 164.226 263.7 164.982C263.028 165.71 262.51 166.648 262.146 167.796C261.81 168.916 261.586 170.078 261.474 171.282C262.986 171.03 264.26 170.666 265.296 170.19C266.332 169.686 267.13 169.098 267.69 168.426C268.25 167.754 268.53 167.012 268.53 166.2C268.502 165.444 268.278 164.87 267.858 164.478C267.438 164.058 266.92 163.848 266.304 163.848ZM294.136 183.462C292.652 183.462 291.644 183.07 291.112 182.286C290.608 181.474 290.356 180.368 290.356 178.968C290.356 178.128 290.412 177.19 290.524 176.154C290.636 175.09 290.762 173.998 290.902 172.878C291.07 171.73 291.21 170.638 291.322 169.602C291.434 168.538 291.49 167.6 291.49 166.788C291.49 166.396 291.448 166.046 291.364 165.738C291.28 165.43 291.126 165.192 290.902 165.024C290.706 164.856 290.426 164.772 290.062 164.772C289.446 164.772 288.83 165.108 288.214 165.78C287.598 166.424 286.996 167.306 286.408 168.426C285.848 169.518 285.344 170.736 284.896 172.08C284.448 173.424 284.084 174.81 283.804 176.238C283.552 177.638 283.426 178.968 283.426 180.228C283.426 180.62 283.44 181.096 283.468 181.656C283.496 182.216 283.524 182.664 283.552 183H278.764C278.708 182.552 278.666 182.23 278.638 182.034C278.638 181.81 278.638 181.558 278.638 181.278C278.638 180.746 278.666 180.116 278.722 179.388C278.806 178.632 278.904 177.764 279.016 176.784C279.128 175.804 279.254 174.712 279.394 173.508C279.534 172.444 279.646 171.52 279.73 170.736C279.842 169.952 279.926 169.28 279.982 168.72C280.066 168.132 280.122 167.642 280.15 167.25C280.178 166.83 280.192 166.48 280.192 166.2C280.192 165.724 280.122 165.388 279.982 165.192C279.87 164.968 279.688 164.856 279.436 164.856C279.072 164.856 278.68 165.122 278.26 165.654C277.84 166.158 277.448 167.082 277.084 168.426L275.152 167.88C275.264 167.32 275.446 166.676 275.698 165.948C275.95 165.22 276.3 164.52 276.748 163.848C277.196 163.176 277.742 162.63 278.386 162.21C279.03 161.762 279.8 161.538 280.696 161.538C281.424 161.538 282.04 161.706 282.544 162.042C283.076 162.35 283.468 162.826 283.72 163.47C284 164.086 284.126 164.884 284.098 165.864C284.07 166.48 284.014 167.026 283.93 167.502C283.874 167.978 283.804 168.468 283.72 168.972H283.804C284.56 166.984 285.358 165.458 286.198 164.394C287.038 163.302 287.892 162.56 288.76 162.168C289.628 161.748 290.482 161.538 291.322 161.538C292.498 161.538 293.436 161.804 294.136 162.336C294.864 162.84 295.396 163.554 295.732 164.478C296.068 165.402 296.236 166.466 296.236 167.67C296.236 168.846 296.138 170.12 295.942 171.492C295.774 172.836 295.592 174.152 295.396 175.44C295.2 176.7 295.102 177.82 295.102 178.8C295.102 179.248 295.172 179.584 295.312 179.808C295.452 180.032 295.648 180.144 295.9 180.144C296.264 180.144 296.656 179.892 297.076 179.388C297.496 178.856 297.888 177.918 298.252 176.574L300.184 177.12C300.072 177.68 299.862 178.324 299.554 179.052C299.246 179.78 298.84 180.48 298.336 181.152C297.832 181.824 297.23 182.384 296.53 182.832C295.83 183.252 295.032 183.462 294.136 183.462ZM312.083 161.538C313.343 161.538 314.463 161.748 315.443 162.168C316.451 162.588 317.249 163.176 317.837 163.932C318.425 164.66 318.719 165.528 318.719 166.536C318.719 167.292 318.495 167.922 318.047 168.426C317.627 168.902 317.053 169.14 316.325 169.14C315.457 169.168 314.841 168.916 314.477 168.384C314.141 167.852 313.973 167.376 313.973 166.956C313.973 166.704 314.001 166.424 314.057 166.116C314.141 165.808 314.267 165.514 314.435 165.234C314.323 164.814 314.043 164.492 313.595 164.268C313.147 164.016 312.615 163.89 311.999 163.89C310.991 163.89 310.165 164.198 309.521 164.814C308.877 165.43 308.359 166.214 307.967 167.166C307.603 168.118 307.337 169.14 307.169 170.232C307.001 171.296 306.917 172.304 306.917 173.256C306.861 174.908 307.015 176.238 307.379 177.246C307.771 178.254 308.275 178.996 308.891 179.472C309.535 179.92 310.221 180.158 310.949 180.186C311.537 180.214 312.181 180.116 312.881 179.892C313.609 179.668 314.323 179.22 315.023 178.548C315.723 177.848 316.353 176.84 316.913 175.524L319.013 176.532C318.257 178.296 317.389 179.682 316.409 180.69C315.457 181.698 314.435 182.412 313.343 182.832C312.279 183.224 311.173 183.434 310.025 183.462C307.561 183.434 305.573 182.678 304.061 181.194C302.577 179.71 301.835 177.414 301.835 174.306C301.835 172.934 302.031 171.506 302.423 170.022C302.843 168.538 303.473 167.166 304.313 165.906C305.153 164.618 306.217 163.568 307.505 162.756C308.793 161.944 310.319 161.538 312.083 161.538ZM332.023 161.538C333.171 161.538 334.207 161.72 335.131 162.084C336.083 162.42 336.825 162.966 337.357 163.722C337.889 164.478 338.155 165.458 338.155 166.662C338.155 167.81 337.791 168.79 337.063 169.602C336.363 170.414 335.425 171.086 334.249 171.618C333.101 172.122 331.855 172.542 330.511 172.878C329.167 173.214 327.865 173.452 326.605 173.592C326.605 175.244 326.787 176.56 327.151 177.54C327.515 178.492 328.005 179.178 328.621 179.598C329.265 179.99 329.965 180.186 330.721 180.186C331.309 180.186 331.953 180.074 332.653 179.85C333.381 179.598 334.095 179.15 334.795 178.506C335.495 177.862 336.111 176.966 336.643 175.818L338.659 176.826C337.875 178.534 337.007 179.878 336.055 180.858C335.103 181.81 334.095 182.482 333.031 182.874C331.967 183.266 330.861 183.462 329.713 183.462C327.109 183.49 325.093 182.72 323.665 181.152C322.237 179.584 321.523 177.316 321.523 174.348C321.523 172.892 321.733 171.422 322.153 169.938C322.573 168.426 323.203 167.04 324.043 165.78C324.911 164.52 326.003 163.498 327.319 162.714C328.635 161.93 330.203 161.538 332.023 161.538ZM331.519 163.848C330.455 163.848 329.587 164.226 328.915 164.982C328.243 165.71 327.725 166.648 327.361 167.796C327.025 168.916 326.801 170.078 326.689 171.282C328.201 171.03 329.475 170.666 330.511 170.19C331.547 169.686 332.345 169.098 332.905 168.426C333.465 167.754 333.745 167.012 333.745 166.2C333.717 165.444 333.493 164.87 333.073 164.478C332.653 164.058 332.135 163.848 331.519 163.848ZM344.441 177.54C345.253 177.54 345.911 177.848 346.415 178.464C346.919 179.052 347.143 179.766 347.087 180.606C347.059 181.446 346.765 182.174 346.205 182.79C345.645 183.378 344.959 183.672 344.147 183.672C343.307 183.672 342.635 183.378 342.131 182.79C341.627 182.174 341.389 181.446 341.417 180.606C341.473 179.766 341.795 179.052 342.383 178.464C342.999 177.848 343.685 177.54 344.441 177.54ZM361.339 152.928L360.499 162.378H357.391L357.601 152.928H361.339ZM355.081 152.928L354.199 162.378H351.133L351.301 152.928H355.081Z" fill="#FEFEFE"/>
</svg>
