<svg width="85" height="85" viewBox="0 0 85 85" fill="none" xmlns="http://www.w3.org/2000/svg">
<g clip-path="url(#clip0)">
<path d="M0 51.2819V4.87883C0 2.16837 2.36413 0 5.3193 0H58.1577C53.6658 4.33673 52.8384 10.9503 56.2663 16.0459C55.4389 16.3712 54.6115 16.8048 53.9022 17.3469L47.9919 21.7921L42.1998 17.5638C38.0625 14.5281 32.034 15.1786 28.7242 18.9732C25.4144 22.7679 26.0055 28.4056 30.2609 31.4413C30.3791 31.4413 30.3791 31.5497 30.4973 31.5497L42.1998 40.0064C45.2731 42.2832 49.6468 42.5 53.0748 40.6569V56.0523H5.3193C2.36413 56.1607 0 53.9923 0 51.2819ZM68.678 17.4554C73.6427 17.4554 77.6617 13.7691 77.6617 9.21556C77.6617 4.66199 73.6427 0.975765 68.678 0.975765C63.7134 0.975765 59.6943 4.66199 59.6943 9.21556C59.6943 13.7691 63.7134 17.4554 68.678 17.4554ZM74.4702 84.6747C76.8343 84.6747 78.7256 82.94 78.7256 80.7717V48.7883C81.9172 48.2462 84.2813 45.6441 84.2813 42.6084V26.7793C84.2813 23.3099 81.2079 20.4911 77.4253 20.4911H59.9308C58.9851 20.4911 58.0395 20.8163 57.3302 21.3584L47.8737 28.514L38.6536 21.6837C36.8805 20.3827 34.3981 20.7079 32.9796 22.2258C32.8614 22.3342 32.7432 22.4426 32.625 22.6594C31.5612 24.2857 32.034 26.3457 33.6889 27.5383L45.5095 35.9949C47.0462 37.0791 49.174 37.0791 50.5924 35.9949L58.5123 29.9235V80.7717C58.3941 82.94 60.1672 84.7832 62.4131 84.8916C64.7772 85 66.7867 83.3737 66.9049 81.3138C66.9049 81.0969 66.9049 80.9885 66.9049 80.7717V58.0038C66.9049 57.2449 67.6142 56.5944 68.4416 56.5944C68.5598 56.5944 68.678 56.5944 68.678 56.5944C69.3873 56.7028 69.9783 57.3533 69.9783 58.1122V80.8801C70.2147 82.94 72.106 84.6747 74.4702 84.6747Z" fill="#F25187"/>
</g>
<defs>
<clipPath id="clip0">
<rect width="84.2813" height="85" fill="white"/>
</clipPath>
</defs>
</svg>
