<svg width="58" height="41" viewBox="0 0 58 41" fill="none" xmlns="http://www.w3.org/2000/svg">
<path d="M21.8662 0.511963C9.91424 6.27197 0.698242 18.224 0.698242 29.312C0.698242 36.944 6.17024 40.976 11.9302 40.976C18.4102 40.976 24.7462 35.504 24.7462 28.592C24.7462 22.544 20.5702 19.232 15.8182 19.232C15.5302 19.232 14.6662 19.232 14.3782 19.376C16.6822 14.336 23.3062 9.58397 28.4902 7.27996L21.8662 0.511963ZM51.0982 0.511963C39.1462 6.27197 30.0742 18.224 30.0742 29.312C30.0742 36.944 35.2582 40.976 41.1622 40.976C47.6422 40.976 53.9782 35.504 53.9782 28.592C53.9782 22.544 49.8022 19.232 45.0502 19.232C44.6182 19.232 43.8982 19.232 43.6102 19.376C45.9142 14.336 52.5382 9.58397 57.5782 7.27996L51.0982 0.511963Z" fill="#F25187"/>
</svg>
