<svg width="450" height="250" viewBox="0 0 450 250" fill="none" xmlns="http://www.w3.org/2000/svg">
<g clip-path="url(#clip0)">
<path d="M126.034 51.346H130.354V49.942H126.034V51.346ZM136.863 55H138.663V50.374H141.921C144.369 50.374 145.755 48.682 145.755 46.684C145.755 44.686 144.387 42.994 141.921 42.994H136.863V55ZM143.901 46.684C143.901 47.944 142.983 48.79 141.687 48.79H138.663V44.578H141.687C142.983 44.578 143.901 45.424 143.901 46.684ZM147.388 56.944L147.136 58.402C147.388 58.474 147.874 58.528 148.144 58.528C149.404 58.51 150.358 58.024 150.916 56.656L155.2 46.306H153.454L150.736 53.128L148.018 46.306H146.29L149.872 55.09L149.368 56.242C149.098 56.89 148.702 57.088 148.108 57.088C147.892 57.088 147.586 57.034 147.388 56.944ZM158.909 55.216C159.755 55.216 160.259 54.982 160.601 54.658L160.187 53.434C160.025 53.614 159.683 53.776 159.305 53.776C158.747 53.776 158.459 53.326 158.459 52.714V47.728H160.223V46.306H158.459V43.93H156.839V46.306H155.399V47.728H156.839V53.074C156.839 54.442 157.541 55.216 158.909 55.216ZM167.885 55H169.505V48.862C169.505 47.026 168.569 46.09 166.715 46.09C165.383 46.09 164.213 46.828 163.637 47.53V42.994H162.017V55H163.637V48.79C164.105 48.142 165.023 47.53 166.031 47.53C167.147 47.53 167.885 47.962 167.885 49.402V55ZM175.941 55.216C178.659 55.216 180.333 53.164 180.333 50.644C180.333 48.142 178.659 46.09 175.941 46.09C173.241 46.09 171.549 48.142 171.549 50.644C171.549 53.164 173.241 55.216 175.941 55.216ZM175.941 53.776C174.213 53.776 173.241 52.3 173.241 50.644C173.241 49.006 174.213 47.53 175.941 47.53C177.687 47.53 178.641 49.006 178.641 50.644C178.641 52.3 177.687 53.776 175.941 53.776ZM188.258 55H189.878V48.898C189.878 47.062 188.924 46.09 187.088 46.09C185.738 46.09 184.586 46.828 184.01 47.53V46.306H182.39V55H184.01V48.79C184.478 48.142 185.396 47.53 186.404 47.53C187.52 47.53 188.258 47.998 188.258 49.438V55ZM126.034 75.346H130.354V73.942H126.034V75.346ZM143.775 79H145.863L142.785 74.194C144.315 73.996 145.773 72.844 145.773 70.684C145.773 68.47 144.207 66.994 141.921 66.994H136.863V79H138.663V74.374H140.913L143.775 79ZM143.919 70.684C143.919 71.944 142.983 72.79 141.687 72.79H138.663V68.578H141.687C142.983 68.578 143.919 69.424 143.919 70.684ZM152.631 79H154.431V74.374H157.689C160.137 74.374 161.523 72.682 161.523 70.684C161.523 68.686 160.155 66.994 157.689 66.994H152.631V79ZM159.669 70.684C159.669 71.944 158.751 72.79 157.455 72.79H154.431V68.578H157.455C158.751 68.578 159.669 69.424 159.669 70.684ZM163.335 79H164.955V72.952C165.333 72.304 166.431 71.692 167.241 71.692C167.457 71.692 167.637 71.71 167.799 71.746V70.108C166.647 70.108 165.621 70.774 164.955 71.638V70.306H163.335V79ZM173.269 79.216C175.987 79.216 177.661 77.164 177.661 74.644C177.661 72.142 175.987 70.09 173.269 70.09C170.569 70.09 168.877 72.142 168.877 74.644C168.877 77.164 170.569 79.216 173.269 79.216ZM173.269 77.776C171.541 77.776 170.569 76.3 170.569 74.644C170.569 73.006 171.541 71.53 173.269 71.53C175.015 71.53 175.969 73.006 175.969 74.644C175.969 76.3 175.015 77.776 173.269 77.776ZM179.646 81.232C180.69 82.222 181.752 82.528 183.21 82.528C185.352 82.528 187.53 81.646 187.53 78.658V70.306H185.91V71.566C185.208 70.63 184.182 70.09 183.048 70.09C180.798 70.09 179.178 71.782 179.178 74.572C179.178 77.416 180.798 79.072 183.048 79.072C184.218 79.072 185.244 78.442 185.91 77.578V78.712C185.91 80.548 184.56 81.196 183.21 81.196C182.022 81.196 181.14 80.872 180.42 80.044L179.646 81.232ZM185.91 76.336C185.46 77.038 184.47 77.632 183.498 77.632C181.878 77.632 180.87 76.372 180.87 74.572C180.87 72.79 181.878 71.53 183.498 71.53C184.47 71.53 185.46 72.106 185.91 72.808V76.336ZM190.107 79H191.727V72.952C192.105 72.304 193.203 71.692 194.013 71.692C194.229 71.692 194.409 71.71 194.571 71.746V70.108C193.419 70.108 192.393 70.774 191.727 71.638V70.306H190.107V79ZM201.553 79H203.173V73.132C203.173 70.918 201.571 70.09 199.681 70.09C198.277 70.09 197.089 70.558 196.117 71.512L196.819 72.628C197.593 71.854 198.439 71.476 199.429 71.476C200.671 71.476 201.553 72.124 201.553 73.204V74.644C200.887 73.87 199.879 73.492 198.709 73.492C197.251 73.492 195.685 74.356 195.685 76.336C195.685 78.244 197.269 79.216 198.709 79.216C199.879 79.216 200.869 78.802 201.553 78.046V79ZM201.553 77.092C201.067 77.74 200.221 78.082 199.321 78.082C198.151 78.082 197.323 77.38 197.323 76.354C197.323 75.328 198.151 74.626 199.321 74.626C200.221 74.626 201.067 74.968 201.553 75.616V77.092ZM216.335 79H217.955V72.718C217.955 70.972 217.091 70.09 215.489 70.09C214.211 70.09 213.059 70.9 212.555 71.71C212.285 70.774 211.511 70.09 210.197 70.09C208.901 70.09 207.749 70.99 207.389 71.53V70.306H205.769V79H207.389V72.79C207.821 72.16 208.667 71.53 209.513 71.53C210.611 71.53 211.043 72.196 211.043 73.204V79H212.663V72.772C213.077 72.142 213.941 71.53 214.823 71.53C215.885 71.53 216.335 72.196 216.335 73.204V79ZM231.101 79H232.721V72.718C232.721 70.972 231.857 70.09 230.255 70.09C228.977 70.09 227.825 70.9 227.321 71.71C227.051 70.774 226.277 70.09 224.963 70.09C223.667 70.09 222.515 70.99 222.155 71.53V70.306H220.535V79H222.155V72.79C222.587 72.16 223.433 71.53 224.279 71.53C225.377 71.53 225.809 72.196 225.809 73.204V79H227.429V72.772C227.843 72.142 228.707 71.53 229.589 71.53C230.651 71.53 231.101 72.196 231.101 73.204V79ZM236.092 68.848C236.668 68.848 237.136 68.398 237.136 67.822C237.136 67.246 236.668 66.778 236.092 66.778C235.534 66.778 235.048 67.246 235.048 67.822C235.048 68.398 235.534 68.848 236.092 68.848ZM235.3 79H236.92V70.306H235.3V79ZM245.369 79H246.989V72.898C246.989 71.062 246.035 70.09 244.199 70.09C242.849 70.09 241.697 70.828 241.121 71.53V70.306H239.501V79H241.121V72.79C241.589 72.142 242.507 71.53 243.515 71.53C244.631 71.53 245.369 71.998 245.369 73.438V79ZM249.484 81.232C250.528 82.222 251.59 82.528 253.048 82.528C255.19 82.528 257.368 81.646 257.368 78.658V70.306H255.748V71.566C255.046 70.63 254.02 70.09 252.886 70.09C250.636 70.09 249.016 71.782 249.016 74.572C249.016 77.416 250.636 79.072 252.886 79.072C254.056 79.072 255.082 78.442 255.748 77.578V78.712C255.748 80.548 254.398 81.196 253.048 81.196C251.86 81.196 250.978 80.872 250.258 80.044L249.484 81.232ZM255.748 76.336C255.298 77.038 254.308 77.632 253.336 77.632C251.716 77.632 250.708 76.372 250.708 74.572C250.708 72.79 251.716 71.53 253.336 71.53C254.308 71.53 255.298 72.106 255.748 72.808V76.336ZM126.034 99.346H130.354V97.942H126.034V99.346ZM145.305 103H147.105V90.994H145.305V96.034H138.663V90.994H136.863V103H138.663V97.636H145.305V103ZM155.094 103H156.714V97.132C156.714 94.918 155.112 94.09 153.222 94.09C151.818 94.09 150.63 94.558 149.658 95.512L150.36 96.628C151.134 95.854 151.98 95.476 152.97 95.476C154.212 95.476 155.094 96.124 155.094 97.204V98.644C154.428 97.87 153.42 97.492 152.25 97.492C150.792 97.492 149.226 98.356 149.226 100.336C149.226 102.244 150.81 103.216 152.25 103.216C153.42 103.216 154.41 102.802 155.094 102.046V103ZM155.094 101.092C154.608 101.74 153.762 102.082 152.862 102.082C151.692 102.082 150.864 101.38 150.864 100.354C150.864 99.328 151.692 98.626 152.862 98.626C153.762 98.626 154.608 98.968 155.094 99.616V101.092ZM165.502 103H167.122V90.994H165.502V95.566C164.8 94.63 163.774 94.09 162.658 94.09C160.39 94.09 158.77 95.872 158.77 98.662C158.77 101.506 160.39 103.216 162.658 103.216C163.81 103.216 164.854 102.622 165.502 101.758V103ZM165.502 100.516C165.052 101.218 164.08 101.776 163.09 101.776C161.47 101.776 160.462 100.462 160.462 98.662C160.462 96.844 161.47 95.53 163.09 95.53C164.08 95.53 165.052 96.106 165.502 96.808V100.516ZM173.568 103.216C176.286 103.216 177.96 101.164 177.96 98.644C177.96 96.142 176.286 94.09 173.568 94.09C170.868 94.09 169.176 96.142 169.176 98.644C169.176 101.164 170.868 103.216 173.568 103.216ZM173.568 101.776C171.84 101.776 170.868 100.3 170.868 98.644C170.868 97.006 171.84 95.53 173.568 95.53C175.314 95.53 176.268 97.006 176.268 98.644C176.268 100.3 175.314 101.776 173.568 101.776ZM183.869 103.216C186.587 103.216 188.261 101.164 188.261 98.644C188.261 96.142 186.587 94.09 183.869 94.09C181.169 94.09 179.477 96.142 179.477 98.644C179.477 101.164 181.169 103.216 183.869 103.216ZM183.869 101.776C182.141 101.776 181.169 100.3 181.169 98.644C181.169 97.006 182.141 95.53 183.869 95.53C185.615 95.53 186.569 97.006 186.569 98.644C186.569 100.3 185.615 101.776 183.869 101.776ZM191.938 106.312V101.74C192.64 102.694 193.648 103.216 194.782 103.216C197.05 103.216 198.652 101.488 198.652 98.644C198.652 95.8 197.05 94.09 194.782 94.09C193.612 94.09 192.568 94.684 191.938 95.548V94.306H190.318V106.312H191.938ZM196.96 98.644C196.96 100.462 195.97 101.776 194.35 101.776C193.36 101.776 192.37 101.182 191.938 100.498V96.808C192.37 96.106 193.36 95.53 194.35 95.53C195.97 95.53 196.96 96.844 196.96 98.644ZM205.383 103H207.183V98.374H210.441C212.889 98.374 214.275 96.682 214.275 94.684C214.275 92.686 212.907 90.994 210.441 90.994H205.383V103ZM212.421 94.684C212.421 95.944 211.503 96.79 210.207 96.79H207.183V92.578H210.207C211.503 92.578 212.421 93.424 212.421 94.684ZM216.087 103H217.707V90.994H216.087V103ZM225.652 103H227.272V97.132C227.272 94.918 225.67 94.09 223.78 94.09C222.376 94.09 221.188 94.558 220.216 95.512L220.918 96.628C221.692 95.854 222.538 95.476 223.528 95.476C224.77 95.476 225.652 96.124 225.652 97.204V98.644C224.986 97.87 223.978 97.492 222.808 97.492C221.35 97.492 219.784 98.356 219.784 100.336C219.784 102.244 221.368 103.216 222.808 103.216C223.978 103.216 224.968 102.802 225.652 102.046V103ZM225.652 101.092C225.166 101.74 224.32 102.082 223.42 102.082C222.25 102.082 221.422 101.38 221.422 100.354C221.422 99.328 222.25 98.626 223.42 98.626C224.32 98.626 225.166 98.968 225.652 99.616V101.092ZM232.263 103.216C233.109 103.216 233.613 102.982 233.955 102.658L233.541 101.434C233.379 101.614 233.037 101.776 232.659 101.776C232.101 101.776 231.813 101.326 231.813 100.714V95.728H233.577V94.306H231.813V91.93H230.193V94.306H228.753V95.728H230.193V101.074C230.193 102.442 230.895 103.216 232.263 103.216ZM235.766 103H237.386V95.728H239.15V94.306H237.386V93.73C237.386 92.686 237.872 92.146 238.682 92.146C238.97 92.146 239.24 92.218 239.456 92.344L239.834 91.138C239.456 90.922 238.97 90.814 238.412 90.814C236.864 90.814 235.766 91.858 235.766 93.73V94.306H234.326V95.728H235.766V103ZM244.549 103.216C247.267 103.216 248.941 101.164 248.941 98.644C248.941 96.142 247.267 94.09 244.549 94.09C241.849 94.09 240.157 96.142 240.157 98.644C240.157 101.164 241.849 103.216 244.549 103.216ZM244.549 101.776C242.821 101.776 241.849 100.3 241.849 98.644C241.849 97.006 242.821 95.53 244.549 95.53C246.295 95.53 247.249 97.006 247.249 98.644C247.249 100.3 246.295 101.776 244.549 101.776ZM250.997 103H252.617V96.952C252.995 96.304 254.093 95.692 254.903 95.692C255.119 95.692 255.299 95.71 255.461 95.746V94.108C254.309 94.108 253.283 94.774 252.617 95.638V94.306H250.997V103ZM267.645 103H269.265V96.718C269.265 94.972 268.401 94.09 266.799 94.09C265.521 94.09 264.369 94.9 263.865 95.71C263.595 94.774 262.821 94.09 261.507 94.09C260.211 94.09 259.059 94.99 258.699 95.53V94.306H257.079V103H258.699V96.79C259.131 96.16 259.977 95.53 260.823 95.53C261.921 95.53 262.353 96.196 262.353 97.204V103H263.973V96.772C264.387 96.142 265.251 95.53 266.133 95.53C267.195 95.53 267.645 96.196 267.645 97.204V103ZM278.592 106.582L279.582 105.826C278.412 103.576 277.728 101.542 277.728 98.626C277.728 95.71 278.412 93.676 279.582 91.408L278.592 90.67C276.936 92.83 275.964 95.728 275.964 98.626C275.964 101.524 276.936 104.44 278.592 106.582ZM285.049 103.216C287.767 103.216 289.441 101.164 289.441 98.644C289.441 96.142 287.767 94.09 285.049 94.09C282.349 94.09 280.657 96.142 280.657 98.644C280.657 101.164 282.349 103.216 285.049 103.216ZM285.049 101.776C283.321 101.776 282.349 100.3 282.349 98.644C282.349 97.006 283.321 95.53 285.049 95.53C286.795 95.53 287.749 97.006 287.749 98.644C287.749 100.3 286.795 101.776 285.049 101.776ZM291.497 103H293.117V96.952C293.495 96.304 294.593 95.692 295.403 95.692C295.619 95.692 295.799 95.71 295.961 95.746V94.108C294.809 94.108 293.783 94.774 293.117 95.638V94.306H291.497V103ZM301.518 101.308C302.544 102.442 304.11 103.216 306.252 103.216C309.492 103.216 310.788 101.47 310.788 99.598C310.788 97.042 308.502 96.43 306.54 95.908C305.046 95.53 303.75 95.188 303.75 94.108C303.75 93.1 304.668 92.416 306 92.416C307.296 92.416 308.556 92.848 309.474 93.82L310.518 92.488C309.456 91.408 307.998 90.814 306.144 90.814C303.642 90.814 301.896 92.254 301.896 94.234C301.896 96.682 304.128 97.24 306.054 97.744C307.584 98.14 308.952 98.5 308.952 99.76C308.952 100.624 308.268 101.614 306.324 101.614C304.65 101.614 303.354 100.822 302.544 99.922L301.518 101.308ZM313.629 92.848C314.205 92.848 314.673 92.398 314.673 91.822C314.673 91.246 314.205 90.778 313.629 90.778C313.071 90.778 312.585 91.246 312.585 91.822C312.585 92.398 313.071 92.848 313.629 92.848ZM312.837 103H314.457V94.306H312.837V103ZM327.604 103H329.224V96.718C329.224 94.972 328.36 94.09 326.758 94.09C325.48 94.09 324.328 94.9 323.824 95.71C323.554 94.774 322.78 94.09 321.466 94.09C320.17 94.09 319.018 94.99 318.658 95.53V94.306H317.038V103H318.658V96.79C319.09 96.16 319.936 95.53 320.782 95.53C321.88 95.53 322.312 96.196 322.312 97.204V103H323.932V96.772C324.346 96.142 325.21 95.53 326.092 95.53C327.154 95.53 327.604 96.196 327.604 97.204V103ZM332.596 92.848C333.172 92.848 333.64 92.398 333.64 91.822C333.64 91.246 333.172 90.778 332.596 90.778C332.038 90.778 331.552 91.246 331.552 91.822C331.552 92.398 332.038 92.848 332.596 92.848ZM331.804 103H333.424V94.306H331.804V103ZM336.005 103H337.625V90.994H336.005V103ZM345.57 103H347.19V97.132C347.19 94.918 345.588 94.09 343.698 94.09C342.294 94.09 341.106 94.558 340.134 95.512L340.836 96.628C341.61 95.854 342.456 95.476 343.446 95.476C344.688 95.476 345.57 96.124 345.57 97.204V98.644C344.904 97.87 343.896 97.492 342.726 97.492C341.268 97.492 339.702 98.356 339.702 100.336C339.702 102.244 341.286 103.216 342.726 103.216C343.896 103.216 344.886 102.802 345.57 102.046V103ZM345.57 101.092C345.084 101.74 344.238 102.082 343.338 102.082C342.168 102.082 341.34 101.38 341.34 100.354C341.34 99.328 342.168 98.626 343.338 98.626C344.238 98.626 345.084 98.968 345.57 99.616V101.092ZM349.786 103H351.406V96.952C351.784 96.304 352.882 95.692 353.692 95.692C353.908 95.692 354.088 95.71 354.25 95.746V94.108C353.098 94.108 352.072 94.774 351.406 95.638V94.306H349.786V103ZM356.751 98.626C356.751 101.542 356.067 103.576 354.879 105.826L355.869 106.582C357.543 104.44 358.515 101.524 358.515 98.626C358.515 95.728 357.543 92.83 355.869 90.67L354.879 91.408C356.067 93.676 356.751 95.71 356.751 98.626ZM126.034 123.346H130.354V121.942H126.034V123.346ZM136.125 125.308C137.151 126.442 138.717 127.216 140.859 127.216C144.099 127.216 145.395 125.47 145.395 123.598C145.395 121.042 143.109 120.43 141.147 119.908C139.653 119.53 138.357 119.188 138.357 118.108C138.357 117.1 139.275 116.416 140.607 116.416C141.903 116.416 143.163 116.848 144.081 117.82L145.125 116.488C144.063 115.408 142.605 114.814 140.751 114.814C138.249 114.814 136.503 116.254 136.503 118.234C136.503 120.682 138.735 121.24 140.661 121.744C142.191 122.14 143.559 122.5 143.559 123.76C143.559 124.624 142.875 125.614 140.931 125.614C139.257 125.614 137.961 124.822 137.151 123.922L136.125 125.308ZM159.073 121.006C159.073 117.442 156.607 114.796 153.025 114.796C149.443 114.796 146.977 117.442 146.977 121.006C146.977 124.57 149.443 127.216 153.025 127.216C154.213 127.216 155.275 126.928 156.175 126.406L157.273 127.612L158.515 126.55L157.453 125.38C158.479 124.282 159.073 122.752 159.073 121.006ZM153.025 125.614C150.451 125.614 148.831 123.634 148.831 121.006C148.831 118.36 150.451 116.398 153.025 116.398C155.563 116.398 157.219 118.36 157.219 121.006C157.219 122.194 156.877 123.256 156.265 124.066L154.681 122.302L153.421 123.364L155.023 125.128C154.447 125.434 153.781 125.614 153.025 125.614ZM161.244 127H168.498V125.416H163.044V114.994H161.244V127ZM175.113 127H179.397C183.141 127 185.625 124.48 185.625 121.006C185.625 117.55 183.141 114.994 179.397 114.994H175.113V127ZM176.913 125.416V116.578H179.397C182.223 116.578 183.771 118.54 183.771 121.006C183.771 123.436 182.169 125.416 179.397 125.416H176.913ZM193.133 127H194.753V121.132C194.753 118.918 193.151 118.09 191.261 118.09C189.857 118.09 188.669 118.558 187.697 119.512L188.399 120.628C189.173 119.854 190.019 119.476 191.009 119.476C192.251 119.476 193.133 120.124 193.133 121.204V122.644C192.467 121.87 191.459 121.492 190.289 121.492C188.831 121.492 187.265 122.356 187.265 124.336C187.265 126.244 188.849 127.216 190.289 127.216C191.459 127.216 192.449 126.802 193.133 126.046V127ZM193.133 125.092C192.647 125.74 191.801 126.082 190.901 126.082C189.731 126.082 188.903 125.38 188.903 124.354C188.903 123.328 189.731 122.626 190.901 122.626C191.801 122.626 192.647 122.968 193.133 123.616V125.092ZM199.743 127.216C200.589 127.216 201.093 126.982 201.435 126.658L201.021 125.434C200.859 125.614 200.517 125.776 200.139 125.776C199.581 125.776 199.293 125.326 199.293 124.714V119.728H201.057V118.306H199.293V115.93H197.673V118.306H196.233V119.728H197.673V125.074C197.673 126.442 198.375 127.216 199.743 127.216ZM208.215 127H209.835V121.132C209.835 118.918 208.233 118.09 206.343 118.09C204.939 118.09 203.751 118.558 202.779 119.512L203.481 120.628C204.255 119.854 205.101 119.476 206.091 119.476C207.333 119.476 208.215 120.124 208.215 121.204V122.644C207.549 121.87 206.541 121.492 205.371 121.492C203.913 121.492 202.347 122.356 202.347 124.336C202.347 126.244 203.931 127.216 205.371 127.216C206.541 127.216 207.531 126.802 208.215 126.046V127ZM208.215 125.092C207.729 125.74 206.883 126.082 205.983 126.082C204.813 126.082 203.985 125.38 203.985 124.354C203.985 123.328 204.813 122.626 205.983 122.626C206.883 122.626 207.729 122.968 208.215 123.616V125.092ZM212.431 127H214.051V125.758C214.699 126.622 215.725 127.216 216.895 127.216C219.145 127.216 220.765 125.506 220.765 122.662C220.765 119.872 219.163 118.09 216.895 118.09C215.761 118.09 214.735 118.63 214.051 119.566V114.994H212.431V127ZM214.051 124.516V120.826C214.483 120.124 215.473 119.53 216.463 119.53C218.083 119.53 219.091 120.844 219.091 122.662C219.091 124.48 218.083 125.776 216.463 125.776C215.473 125.776 214.483 125.218 214.051 124.516ZM228.201 127H229.821V121.132C229.821 118.918 228.219 118.09 226.329 118.09C224.925 118.09 223.737 118.558 222.765 119.512L223.467 120.628C224.241 119.854 225.087 119.476 226.077 119.476C227.319 119.476 228.201 120.124 228.201 121.204V122.644C227.535 121.87 226.527 121.492 225.357 121.492C223.899 121.492 222.333 122.356 222.333 124.336C222.333 126.244 223.917 127.216 225.357 127.216C226.527 127.216 227.517 126.802 228.201 126.046V127ZM228.201 125.092C227.715 125.74 226.869 126.082 225.969 126.082C224.799 126.082 223.971 125.38 223.971 124.354C223.971 123.328 224.799 122.626 225.969 122.626C226.869 122.626 227.715 122.968 228.201 123.616V125.092ZM231.661 125.866C232.543 126.766 233.821 127.216 235.279 127.216C237.565 127.216 238.789 126.046 238.789 124.552C238.789 122.554 236.989 122.14 235.477 121.798C234.397 121.546 233.461 121.294 233.461 120.538C233.461 119.836 234.145 119.404 235.243 119.404C236.341 119.404 237.313 119.854 237.817 120.466L238.537 119.332C237.799 118.63 236.719 118.09 235.225 118.09C233.101 118.09 231.913 119.278 231.913 120.664C231.913 122.536 233.641 122.932 235.117 123.274C236.233 123.526 237.223 123.814 237.223 124.678C237.223 125.416 236.575 125.92 235.351 125.92C234.181 125.92 233.029 125.326 232.435 124.678L231.661 125.866ZM240.297 122.644C240.297 125.38 242.205 127.216 244.797 127.216C246.201 127.216 247.425 126.766 248.289 125.92L247.533 124.858C246.885 125.524 245.877 125.884 244.959 125.884C243.213 125.884 242.133 124.66 242.007 123.184H248.883V122.788C248.883 120.124 247.263 118.09 244.653 118.09C242.115 118.09 240.297 120.124 240.297 122.644ZM244.653 119.422C246.489 119.422 247.263 120.862 247.299 122.014H241.989C242.079 120.826 242.907 119.422 244.653 119.422ZM250.154 125.866C251.036 126.766 252.314 127.216 253.772 127.216C256.058 127.216 257.282 126.046 257.282 124.552C257.282 122.554 255.482 122.14 253.97 121.798C252.89 121.546 251.954 121.294 251.954 120.538C251.954 119.836 252.638 119.404 253.736 119.404C254.834 119.404 255.806 119.854 256.31 120.466L257.03 119.332C256.292 118.63 255.212 118.09 253.718 118.09C251.594 118.09 250.406 119.278 250.406 120.664C250.406 122.536 252.134 122.932 253.61 123.274C254.726 123.526 255.716 123.814 255.716 124.678C255.716 125.416 255.068 125.92 253.844 125.92C252.674 125.92 251.522 125.326 250.928 124.678L250.154 125.866ZM126.034 147.346H130.354V145.942H126.034V147.346ZM147.195 151H148.995V138.994H146.421L142.929 147.616L139.437 138.994H136.863V151H138.663V141.46L142.551 151H143.307L147.195 141.46V151ZM156.992 151H158.612V145.132C158.612 142.918 157.01 142.09 155.12 142.09C153.716 142.09 152.528 142.558 151.556 143.512L152.258 144.628C153.032 143.854 153.878 143.476 154.868 143.476C156.11 143.476 156.992 144.124 156.992 145.204V146.644C156.326 145.87 155.318 145.492 154.148 145.492C152.69 145.492 151.124 146.356 151.124 148.336C151.124 150.244 152.708 151.216 154.148 151.216C155.318 151.216 156.308 150.802 156.992 150.046V151ZM156.992 149.092C156.506 149.74 155.66 150.082 154.76 150.082C153.59 150.082 152.762 149.38 152.762 148.354C152.762 147.328 153.59 146.626 154.76 146.626C155.66 146.626 156.506 146.968 156.992 147.616V149.092ZM160.668 146.644C160.668 149.254 162.468 151.216 165.096 151.216C166.734 151.216 167.724 150.532 168.354 149.686L167.274 148.696C166.752 149.416 166.05 149.776 165.168 149.776C163.458 149.776 162.36 148.444 162.36 146.644C162.36 144.844 163.458 143.53 165.168 143.53C166.05 143.53 166.752 143.872 167.274 144.61L168.354 143.62C167.724 142.774 166.734 142.09 165.096 142.09C162.468 142.09 160.668 144.034 160.668 146.644ZM176.006 151H177.626V144.862C177.626 143.026 176.69 142.09 174.836 142.09C173.504 142.09 172.334 142.828 171.758 143.53V138.994H170.138V151H171.758V144.79C172.226 144.142 173.144 143.53 174.152 143.53C175.268 143.53 176.006 143.962 176.006 145.402V151ZM181.002 140.848C181.578 140.848 182.046 140.398 182.046 139.822C182.046 139.246 181.578 138.778 181.002 138.778C180.444 138.778 179.958 139.246 179.958 139.822C179.958 140.398 180.444 140.848 181.002 140.848ZM180.21 151H181.83V142.306H180.21V151ZM190.279 151H191.899V144.898C191.899 143.062 190.945 142.09 189.109 142.09C187.759 142.09 186.607 142.828 186.031 143.53V142.306H184.411V151H186.031V144.79C186.499 144.142 187.417 143.53 188.425 143.53C189.541 143.53 190.279 143.998 190.279 145.438V151ZM193.926 146.644C193.926 149.38 195.834 151.216 198.426 151.216C199.83 151.216 201.054 150.766 201.918 149.92L201.162 148.858C200.514 149.524 199.506 149.884 198.588 149.884C196.842 149.884 195.762 148.66 195.636 147.184H202.512V146.788C202.512 144.124 200.892 142.09 198.282 142.09C195.744 142.09 193.926 144.124 193.926 146.644ZM198.282 143.422C200.118 143.422 200.892 144.862 200.928 146.014H195.618C195.708 144.826 196.536 143.422 198.282 143.422ZM209.215 151H216.469V149.416H211.015V138.994H209.215V151ZM217.551 146.644C217.551 149.38 219.459 151.216 222.051 151.216C223.455 151.216 224.679 150.766 225.543 149.92L224.787 148.858C224.139 149.524 223.131 149.884 222.213 149.884C220.467 149.884 219.387 148.66 219.261 147.184H226.137V146.788C226.137 144.124 224.517 142.09 221.907 142.09C219.369 142.09 217.551 144.124 217.551 146.644ZM221.907 143.422C223.743 143.422 224.517 144.862 224.553 146.014H219.243C219.333 144.826 220.161 143.422 221.907 143.422ZM233.527 151H235.147V145.132C235.147 142.918 233.545 142.09 231.655 142.09C230.251 142.09 229.063 142.558 228.091 143.512L228.793 144.628C229.567 143.854 230.413 143.476 231.403 143.476C232.645 143.476 233.527 144.124 233.527 145.204V146.644C232.861 145.87 231.853 145.492 230.683 145.492C229.225 145.492 227.659 146.356 227.659 148.336C227.659 150.244 229.243 151.216 230.683 151.216C231.853 151.216 232.843 150.802 233.527 150.046V151ZM233.527 149.092C233.041 149.74 232.195 150.082 231.295 150.082C230.125 150.082 229.297 149.38 229.297 148.354C229.297 147.328 230.125 146.626 231.295 146.626C232.195 146.626 233.041 146.968 233.527 147.616V149.092ZM237.744 151H239.364V144.952C239.742 144.304 240.84 143.692 241.65 143.692C241.866 143.692 242.046 143.71 242.208 143.746V142.108C241.056 142.108 240.03 142.774 239.364 143.638V142.306H237.744V151ZM249.694 151H251.314V144.898C251.314 143.062 250.36 142.09 248.524 142.09C247.174 142.09 246.022 142.828 245.446 143.53V142.306H243.826V151H245.446V144.79C245.914 144.142 246.832 143.53 247.84 143.53C248.956 143.53 249.694 143.998 249.694 145.438V151ZM254.672 140.848C255.248 140.848 255.716 140.398 255.716 139.822C255.716 139.246 255.248 138.778 254.672 138.778C254.114 138.778 253.628 139.246 253.628 139.822C253.628 140.398 254.114 140.848 254.672 140.848ZM253.88 151H255.5V142.306H253.88V151ZM263.949 151H265.569V144.898C265.569 143.062 264.615 142.09 262.779 142.09C261.429 142.09 260.277 142.828 259.701 143.53V142.306H258.081V151H259.701V144.79C260.169 144.142 261.087 143.53 262.095 143.53C263.211 143.53 263.949 143.998 263.949 145.438V151ZM268.064 153.232C269.108 154.222 270.17 154.528 271.628 154.528C273.77 154.528 275.948 153.646 275.948 150.658V142.306H274.328V143.566C273.626 142.63 272.6 142.09 271.466 142.09C269.216 142.09 267.596 143.782 267.596 146.572C267.596 149.416 269.216 151.072 271.466 151.072C272.636 151.072 273.662 150.442 274.328 149.578V150.712C274.328 152.548 272.978 153.196 271.628 153.196C270.44 153.196 269.558 152.872 268.838 152.044L268.064 153.232ZM274.328 148.336C273.878 149.038 272.888 149.632 271.916 149.632C270.296 149.632 269.288 148.372 269.288 146.572C269.288 144.79 270.296 143.53 271.916 143.53C272.888 143.53 273.878 144.106 274.328 144.808V148.336ZM126.034 171.346H130.354V169.942H126.034V171.346ZM145.431 175H147.411L142.641 162.994H140.391L135.621 175H137.601L138.573 172.516H144.459L145.431 175ZM141.507 164.56L143.937 170.914H139.095L141.507 164.56ZM148.852 175H150.652V162.994H148.852V175ZM126.034 195.346H130.354V193.942H126.034V195.346ZM136.863 199H141.147C144.891 199 147.375 196.48 147.375 193.006C147.375 189.55 144.891 186.994 141.147 186.994H136.863V199ZM138.663 197.416V188.578H141.147C143.973 188.578 145.521 190.54 145.521 193.006C145.521 195.436 143.919 197.416 141.147 197.416H138.663ZM154.883 199H156.503V193.132C156.503 190.918 154.901 190.09 153.011 190.09C151.607 190.09 150.419 190.558 149.447 191.512L150.149 192.628C150.923 191.854 151.769 191.476 152.759 191.476C154.001 191.476 154.883 192.124 154.883 193.204V194.644C154.217 193.87 153.209 193.492 152.039 193.492C150.581 193.492 149.015 194.356 149.015 196.336C149.015 198.244 150.599 199.216 152.039 199.216C153.209 199.216 154.199 198.802 154.883 198.046V199ZM154.883 197.092C154.397 197.74 153.551 198.082 152.651 198.082C151.481 198.082 150.653 197.38 150.653 196.354C150.653 195.328 151.481 194.626 152.651 194.626C153.551 194.626 154.397 194.968 154.883 195.616V197.092ZM161.493 199.216C162.339 199.216 162.843 198.982 163.185 198.658L162.771 197.434C162.609 197.614 162.267 197.776 161.889 197.776C161.331 197.776 161.043 197.326 161.043 196.714V191.728H162.807V190.306H161.043V187.93H159.423V190.306H157.983V191.728H159.423V197.074C159.423 198.442 160.125 199.216 161.493 199.216ZM169.965 199H171.585V193.132C171.585 190.918 169.983 190.09 168.093 190.09C166.689 190.09 165.501 190.558 164.529 191.512L165.231 192.628C166.005 191.854 166.851 191.476 167.841 191.476C169.083 191.476 169.965 192.124 169.965 193.204V194.644C169.299 193.87 168.291 193.492 167.121 193.492C165.663 193.492 164.097 194.356 164.097 196.336C164.097 198.244 165.681 199.216 167.121 199.216C168.291 199.216 169.281 198.802 169.965 198.046V199ZM169.965 197.092C169.479 197.74 168.633 198.082 167.733 198.082C166.563 198.082 165.735 197.38 165.735 196.354C165.735 195.328 166.563 194.626 167.733 194.626C168.633 194.626 169.479 194.968 169.965 195.616V197.092ZM182.386 199H184.636L189.406 186.994H187.354L183.502 197.038L179.668 186.994H177.616L182.386 199ZM191.602 188.848C192.178 188.848 192.646 188.398 192.646 187.822C192.646 187.246 192.178 186.778 191.602 186.778C191.044 186.778 190.558 187.246 190.558 187.822C190.558 188.398 191.044 188.848 191.602 188.848ZM190.81 199H192.43V190.306H190.81V199ZM194.255 197.866C195.137 198.766 196.415 199.216 197.873 199.216C200.159 199.216 201.383 198.046 201.383 196.552C201.383 194.554 199.583 194.14 198.071 193.798C196.991 193.546 196.055 193.294 196.055 192.538C196.055 191.836 196.739 191.404 197.837 191.404C198.935 191.404 199.907 191.854 200.411 192.466L201.131 191.332C200.393 190.63 199.313 190.09 197.819 190.09C195.695 190.09 194.507 191.278 194.507 192.664C194.507 194.536 196.235 194.932 197.711 195.274C198.827 195.526 199.817 195.814 199.817 196.678C199.817 197.416 199.169 197.92 197.945 197.92C196.775 197.92 195.623 197.326 195.029 196.678L194.255 197.866ZM209.299 199H210.919V190.306H209.299V196.552C208.813 197.2 207.895 197.776 206.887 197.776C205.771 197.776 205.051 197.344 205.051 195.904V190.306H203.431V196.444C203.431 198.28 204.349 199.216 206.203 199.216C207.535 199.216 208.633 198.532 209.299 197.812V199ZM218.85 199H220.47V193.132C220.47 190.918 218.868 190.09 216.978 190.09C215.574 190.09 214.386 190.558 213.414 191.512L214.116 192.628C214.89 191.854 215.736 191.476 216.726 191.476C217.968 191.476 218.85 192.124 218.85 193.204V194.644C218.184 193.87 217.176 193.492 216.006 193.492C214.548 193.492 212.982 194.356 212.982 196.336C212.982 198.244 214.566 199.216 216.006 199.216C217.176 199.216 218.166 198.802 218.85 198.046V199ZM218.85 197.092C218.364 197.74 217.518 198.082 216.618 198.082C215.448 198.082 214.62 197.38 214.62 196.354C214.62 195.328 215.448 194.626 216.618 194.626C217.518 194.626 218.364 194.968 218.85 195.616V197.092ZM223.066 199H224.686V186.994H223.066V199ZM228.059 188.848C228.635 188.848 229.103 188.398 229.103 187.822C229.103 187.246 228.635 186.778 228.059 186.778C227.501 186.778 227.015 187.246 227.015 187.822C227.015 188.398 227.501 188.848 228.059 188.848ZM227.267 199H228.887V190.306H227.267V199ZM231.054 199H237.804V197.596H233.16L237.732 191.512V190.306H231.054V191.728H235.59L231.054 197.758V199ZM245.358 199H246.978V193.132C246.978 190.918 245.376 190.09 243.486 190.09C242.082 190.09 240.894 190.558 239.922 191.512L240.624 192.628C241.398 191.854 242.244 191.476 243.234 191.476C244.476 191.476 245.358 192.124 245.358 193.204V194.644C244.692 193.87 243.684 193.492 242.514 193.492C241.056 193.492 239.49 194.356 239.49 196.336C239.49 198.244 241.074 199.216 242.514 199.216C243.684 199.216 244.674 198.802 245.358 198.046V199ZM245.358 197.092C244.872 197.74 244.026 198.082 243.126 198.082C241.956 198.082 241.128 197.38 241.128 196.354C241.128 195.328 241.956 194.626 243.126 194.626C244.026 194.626 244.872 194.968 245.358 195.616V197.092ZM251.968 199.216C252.814 199.216 253.318 198.982 253.66 198.658L253.246 197.434C253.084 197.614 252.742 197.776 252.364 197.776C251.806 197.776 251.518 197.326 251.518 196.714V191.728H253.282V190.306H251.518V187.93H249.898V190.306H248.458V191.728H249.898V197.074C249.898 198.442 250.6 199.216 251.968 199.216ZM255.868 188.848C256.444 188.848 256.912 188.398 256.912 187.822C256.912 187.246 256.444 186.778 255.868 186.778C255.31 186.778 254.824 187.246 254.824 187.822C254.824 188.398 255.31 188.848 255.868 188.848ZM255.076 199H256.696V190.306H255.076V199ZM263.129 199.216C265.847 199.216 267.521 197.164 267.521 194.644C267.521 192.142 265.847 190.09 263.129 190.09C260.429 190.09 258.737 192.142 258.737 194.644C258.737 197.164 260.429 199.216 263.129 199.216ZM263.129 197.776C261.401 197.776 260.429 196.3 260.429 194.644C260.429 193.006 261.401 191.53 263.129 191.53C264.875 191.53 265.829 193.006 265.829 194.644C265.829 196.3 264.875 197.776 263.129 197.776ZM275.445 199H277.065V192.898C277.065 191.062 276.111 190.09 274.275 190.09C272.925 190.09 271.773 190.828 271.197 191.53V190.306H269.577V199H271.197V192.79C271.665 192.142 272.583 191.53 273.591 191.53C274.707 191.53 275.445 191.998 275.445 193.438V199ZM126.034 219.346H130.354V217.942H126.034V219.346ZM136.863 223H142.641C144.855 223 146.115 221.65 146.115 219.76C146.115 218.302 145.071 217.006 143.793 216.808C144.891 216.574 145.881 215.566 145.881 214.054C145.881 212.308 144.639 210.994 142.497 210.994H136.863V223ZM138.663 216.088V212.578H142.155C143.361 212.578 144.027 213.352 144.027 214.342C144.027 215.332 143.361 216.088 142.155 216.088H138.663ZM138.663 221.416V217.672H142.245C143.577 217.672 144.261 218.536 144.261 219.526C144.261 220.696 143.505 221.416 142.245 221.416H138.663ZM148.342 223H150.142V210.994H148.342V223ZM160.399 223H162.199V212.578H165.907V210.994H156.673V212.578H160.399V223ZM169.613 223.216C172.331 223.216 174.005 221.164 174.005 218.644C174.005 216.142 172.331 214.09 169.613 214.09C166.913 214.09 165.221 216.142 165.221 218.644C165.221 221.164 166.913 223.216 169.613 223.216ZM169.613 221.776C167.885 221.776 166.913 220.3 166.913 218.644C166.913 217.006 167.885 215.53 169.613 215.53C171.359 215.53 172.313 217.006 172.313 218.644C172.313 220.3 171.359 221.776 169.613 221.776ZM179.914 223.216C182.632 223.216 184.306 221.164 184.306 218.644C184.306 216.142 182.632 214.09 179.914 214.09C177.214 214.09 175.522 216.142 175.522 218.644C175.522 221.164 177.214 223.216 179.914 223.216ZM179.914 221.776C178.186 221.776 177.214 220.3 177.214 218.644C177.214 217.006 178.186 215.53 179.914 215.53C181.66 215.53 182.614 217.006 182.614 218.644C182.614 220.3 181.66 221.776 179.914 221.776ZM186.363 223H187.983V210.994H186.363V223ZM189.808 221.866C190.69 222.766 191.968 223.216 193.426 223.216C195.712 223.216 196.936 222.046 196.936 220.552C196.936 218.554 195.136 218.14 193.624 217.798C192.544 217.546 191.608 217.294 191.608 216.538C191.608 215.836 192.292 215.404 193.39 215.404C194.488 215.404 195.46 215.854 195.964 216.466L196.684 215.332C195.946 214.63 194.866 214.09 193.372 214.09C191.248 214.09 190.06 215.278 190.06 216.664C190.06 218.536 191.788 218.932 193.264 219.274C194.38 219.526 195.37 219.814 195.37 220.678C195.37 221.416 194.722 221.92 193.498 221.92C192.328 221.92 191.176 221.326 190.582 220.678L189.808 221.866ZM205.73 226.582L206.72 225.826C205.55 223.576 204.866 221.542 204.866 218.626C204.866 215.71 205.55 213.676 206.72 211.408L205.73 210.67C204.074 212.83 203.102 215.728 203.102 218.626C203.102 221.524 204.074 224.44 205.73 226.582ZM209.127 212.848C209.703 212.848 210.171 212.398 210.171 211.822C210.171 211.246 209.703 210.778 209.127 210.778C208.569 210.778 208.083 211.246 208.083 211.822C208.083 212.398 208.569 212.848 209.127 212.848ZM208.335 223H209.955V214.306H208.335V223ZM212.248 222.064C212.248 222.676 212.752 223.198 213.364 223.198C213.976 223.198 214.498 222.676 214.498 222.064C214.498 221.452 213.976 220.948 213.364 220.948C212.752 220.948 212.248 221.452 212.248 222.064ZM216.18 218.644C216.18 221.38 218.088 223.216 220.68 223.216C222.084 223.216 223.308 222.766 224.172 221.92L223.416 220.858C222.768 221.524 221.76 221.884 220.842 221.884C219.096 221.884 218.016 220.66 217.89 219.184H224.766V218.788C224.766 216.124 223.146 214.09 220.536 214.09C217.998 214.09 216.18 216.124 216.18 218.644ZM220.536 215.422C222.372 215.422 223.146 216.862 223.182 218.014H217.872C217.962 216.826 218.79 215.422 220.536 215.422ZM226.399 222.064C226.399 222.676 226.903 223.198 227.515 223.198C228.127 223.198 228.649 222.676 228.649 222.064C228.649 221.452 228.127 220.948 227.515 220.948C226.903 220.948 226.399 221.452 226.399 222.064ZM238.587 223H240.387V212.578H244.095V210.994H234.861V212.578H238.587V223ZM249.682 223H251.302V217.132C251.302 214.918 249.7 214.09 247.81 214.09C246.406 214.09 245.218 214.558 244.246 215.512L244.948 216.628C245.722 215.854 246.568 215.476 247.558 215.476C248.8 215.476 249.682 216.124 249.682 217.204V218.644C249.016 217.87 248.008 217.492 246.838 217.492C245.38 217.492 243.814 218.356 243.814 220.336C243.814 222.244 245.398 223.216 246.838 223.216C248.008 223.216 248.998 222.802 249.682 222.046V223ZM249.682 221.092C249.196 221.74 248.35 222.082 247.45 222.082C246.28 222.082 245.452 221.38 245.452 220.354C245.452 219.328 246.28 218.626 247.45 218.626C248.35 218.626 249.196 218.968 249.682 219.616V221.092ZM253.898 223H255.518V221.758C256.166 222.622 257.192 223.216 258.362 223.216C260.612 223.216 262.232 221.506 262.232 218.662C262.232 215.872 260.63 214.09 258.362 214.09C257.228 214.09 256.202 214.63 255.518 215.566V210.994H253.898V223ZM255.518 220.516V216.826C255.95 216.124 256.94 215.53 257.93 215.53C259.55 215.53 260.558 216.844 260.558 218.662C260.558 220.48 259.55 221.776 257.93 221.776C256.94 221.776 255.95 221.218 255.518 220.516ZM264.304 223H265.924V210.994H264.304V223ZM267.965 218.644C267.965 221.38 269.873 223.216 272.465 223.216C273.869 223.216 275.093 222.766 275.957 221.92L275.201 220.858C274.553 221.524 273.545 221.884 272.627 221.884C270.881 221.884 269.801 220.66 269.675 219.184H276.551V218.788C276.551 216.124 274.931 214.09 272.321 214.09C269.783 214.09 267.965 216.124 267.965 218.644ZM272.321 215.422C274.157 215.422 274.931 216.862 274.967 218.014H269.657C269.747 216.826 270.575 215.422 272.321 215.422ZM284.445 223H286.065V214.306H284.445V220.552C283.959 221.2 283.041 221.776 282.033 221.776C280.917 221.776 280.197 221.344 280.197 219.904V214.306H278.577V220.444C278.577 222.28 279.495 223.216 281.349 223.216C282.681 223.216 283.779 222.532 284.445 221.812V223ZM289.514 218.626C289.514 221.542 288.83 223.576 287.642 225.826L288.632 226.582C290.306 224.44 291.278 221.524 291.278 218.626C291.278 215.728 290.306 212.83 288.632 210.67L287.642 211.408C288.83 213.676 289.514 215.71 289.514 218.626ZM126.034 243.346H130.354V241.942H126.034V243.346ZM136.125 245.308C137.151 246.442 138.717 247.216 140.859 247.216C144.099 247.216 145.395 245.47 145.395 243.598C145.395 241.042 143.109 240.43 141.147 239.908C139.653 239.53 138.357 239.188 138.357 238.108C138.357 237.1 139.275 236.416 140.607 236.416C141.903 236.416 143.163 236.848 144.081 237.82L145.125 236.488C144.063 235.408 142.605 234.814 140.751 234.814C138.249 234.814 136.503 236.254 136.503 238.234C136.503 240.682 138.735 241.24 140.661 241.744C142.191 242.14 143.559 242.5 143.559 243.76C143.559 244.624 142.875 245.614 140.931 245.614C139.257 245.614 137.961 244.822 137.151 243.922L136.125 245.308ZM147.124 248.944L146.872 250.402C147.124 250.474 147.61 250.528 147.88 250.528C149.14 250.51 150.094 250.024 150.652 248.656L154.936 238.306H153.19L150.472 245.128L147.754 238.306H146.026L149.608 247.09L149.104 248.242C148.834 248.89 148.438 249.088 147.844 249.088C147.628 249.088 147.322 249.034 147.124 248.944ZM162.119 247H163.739V240.898C163.739 239.062 162.785 238.09 160.949 238.09C159.599 238.09 158.447 238.828 157.871 239.53V238.306H156.251V247H157.871V240.79C158.339 240.142 159.257 239.53 160.265 239.53C161.381 239.53 162.119 239.998 162.119 241.438V247ZM168.7 247.216C169.546 247.216 170.05 246.982 170.392 246.658L169.978 245.434C169.816 245.614 169.474 245.776 169.096 245.776C168.538 245.776 168.25 245.326 168.25 244.714V239.728H170.014V238.306H168.25V235.93H166.63V238.306H165.19V239.728H166.63V245.074C166.63 246.442 167.332 247.216 168.7 247.216ZM177.676 247H179.296V240.862C179.296 239.026 178.36 238.09 176.506 238.09C175.174 238.09 174.004 238.828 173.428 239.53V234.994H171.808V247H173.428V240.79C173.896 240.142 174.814 239.53 175.822 239.53C176.938 239.53 177.676 239.962 177.676 241.402V247ZM181.34 242.644C181.34 245.38 183.248 247.216 185.84 247.216C187.244 247.216 188.468 246.766 189.332 245.92L188.576 244.858C187.928 245.524 186.92 245.884 186.002 245.884C184.256 245.884 183.176 244.66 183.05 243.184H189.926V242.788C189.926 240.124 188.306 238.09 185.696 238.09C183.158 238.09 181.34 240.124 181.34 242.644ZM185.696 239.422C187.532 239.422 188.306 240.862 188.342 242.014H183.032C183.122 240.826 183.95 239.422 185.696 239.422ZM191.196 245.866C192.078 246.766 193.356 247.216 194.814 247.216C197.1 247.216 198.324 246.046 198.324 244.552C198.324 242.554 196.524 242.14 195.012 241.798C193.932 241.546 192.996 241.294 192.996 240.538C192.996 239.836 193.68 239.404 194.778 239.404C195.876 239.404 196.848 239.854 197.352 240.466L198.072 239.332C197.334 238.63 196.254 238.09 194.76 238.09C192.636 238.09 191.448 239.278 191.448 240.664C191.448 242.536 193.176 242.932 194.652 243.274C195.768 243.526 196.758 243.814 196.758 244.678C196.758 245.416 196.11 245.92 194.886 245.92C193.716 245.92 192.564 245.326 191.97 244.678L191.196 245.866ZM201.164 236.848C201.74 236.848 202.208 236.398 202.208 235.822C202.208 235.246 201.74 234.778 201.164 234.778C200.606 234.778 200.12 235.246 200.12 235.822C200.12 236.398 200.606 236.848 201.164 236.848ZM200.372 247H201.992V238.306H200.372V247ZM204.16 247H210.91V245.596H206.266L210.838 239.512V238.306H204.16V239.728H208.696L204.16 245.758V247ZM213.891 236.848C214.467 236.848 214.935 236.398 214.935 235.822C214.935 235.246 214.467 234.778 213.891 234.778C213.333 234.778 212.847 235.246 212.847 235.822C212.847 236.398 213.333 236.848 213.891 236.848ZM213.099 247H214.719V238.306H213.099V247ZM223.168 247H224.788V240.898C224.788 239.062 223.834 238.09 221.998 238.09C220.648 238.09 219.496 238.828 218.92 239.53V238.306H217.3V247H218.92V240.79C219.388 240.142 220.306 239.53 221.314 239.53C222.43 239.53 223.168 239.998 223.168 241.438V247ZM227.283 249.232C228.327 250.222 229.389 250.528 230.847 250.528C232.989 250.528 235.167 249.646 235.167 246.658V238.306H233.547V239.566C232.845 238.63 231.819 238.09 230.685 238.09C228.435 238.09 226.815 239.782 226.815 242.572C226.815 245.416 228.435 247.072 230.685 247.072C231.855 247.072 232.881 246.442 233.547 245.578V246.712C233.547 248.548 232.197 249.196 230.847 249.196C229.659 249.196 228.777 248.872 228.057 248.044L227.283 249.232ZM233.547 244.336C233.097 245.038 232.107 245.632 231.135 245.632C229.515 245.632 228.507 244.372 228.507 242.572C228.507 240.79 229.515 239.53 231.135 239.53C232.107 239.53 233.097 240.106 233.547 240.808V244.336ZM242.42 247H246.704C250.448 247 252.932 244.48 252.932 241.006C252.932 237.55 250.448 234.994 246.704 234.994H242.42V247ZM244.22 245.416V236.578H246.704C249.53 236.578 251.078 238.54 251.078 241.006C251.078 243.436 249.476 245.416 246.704 245.416H244.22ZM260.44 247H262.06V241.132C262.06 238.918 260.458 238.09 258.568 238.09C257.164 238.09 255.976 238.558 255.004 239.512L255.706 240.628C256.48 239.854 257.326 239.476 258.316 239.476C259.558 239.476 260.44 240.124 260.44 241.204V242.644C259.774 241.87 258.766 241.492 257.596 241.492C256.138 241.492 254.572 242.356 254.572 244.336C254.572 246.244 256.156 247.216 257.596 247.216C258.766 247.216 259.756 246.802 260.44 246.046V247ZM260.44 245.092C259.954 245.74 259.108 246.082 258.208 246.082C257.038 246.082 256.21 245.38 256.21 244.354C256.21 243.328 257.038 242.626 258.208 242.626C259.108 242.626 259.954 242.968 260.44 243.616V245.092ZM267.05 247.216C267.896 247.216 268.4 246.982 268.742 246.658L268.328 245.434C268.166 245.614 267.824 245.776 267.446 245.776C266.888 245.776 266.6 245.326 266.6 244.714V239.728H268.364V238.306H266.6V235.93H264.98V238.306H263.54V239.728H264.98V245.074C264.98 246.442 265.682 247.216 267.05 247.216ZM275.522 247H277.142V241.132C277.142 238.918 275.54 238.09 273.65 238.09C272.246 238.09 271.058 238.558 270.086 239.512L270.788 240.628C271.562 239.854 272.408 239.476 273.398 239.476C274.64 239.476 275.522 240.124 275.522 241.204V242.644C274.856 241.87 273.848 241.492 272.678 241.492C271.22 241.492 269.654 242.356 269.654 244.336C269.654 246.244 271.238 247.216 272.678 247.216C273.848 247.216 274.838 246.802 275.522 246.046V247ZM275.522 245.092C275.036 245.74 274.19 246.082 273.29 246.082C272.12 246.082 271.292 245.38 271.292 244.354C271.292 243.328 272.12 242.626 273.29 242.626C274.19 242.626 275.036 242.968 275.522 243.616V245.092ZM126.034 267.346H130.354V265.942H126.034V267.346ZM136.863 266.302C136.863 269.254 138.555 271.216 141.921 271.216C145.287 271.216 146.961 269.272 146.961 266.284V258.994H145.143V266.248C145.143 268.3 144.027 269.614 141.921 269.614C139.815 269.614 138.681 268.3 138.681 266.248V258.994H136.863V266.302ZM155.475 271H157.095V264.898C157.095 263.062 156.141 262.09 154.305 262.09C152.955 262.09 151.803 262.828 151.227 263.53V262.306H149.607V271H151.227V264.79C151.695 264.142 152.613 263.53 153.621 263.53C154.737 263.53 155.475 263.998 155.475 265.438V271ZM158.905 269.866C159.787 270.766 161.065 271.216 162.523 271.216C164.809 271.216 166.033 270.046 166.033 268.552C166.033 266.554 164.233 266.14 162.721 265.798C161.641 265.546 160.705 265.294 160.705 264.538C160.705 263.836 161.389 263.404 162.487 263.404C163.585 263.404 164.557 263.854 165.061 264.466L165.781 263.332C165.043 262.63 163.963 262.09 162.469 262.09C160.345 262.09 159.157 263.278 159.157 264.664C159.157 266.536 160.885 266.932 162.361 267.274C163.477 267.526 164.467 267.814 164.467 268.678C164.467 269.416 163.819 269.92 162.595 269.92C161.425 269.92 160.273 269.326 159.679 268.678L158.905 269.866ZM170.475 271.216C171.321 271.216 171.825 270.982 172.167 270.658L171.753 269.434C171.591 269.614 171.249 269.776 170.871 269.776C170.313 269.776 170.025 269.326 170.025 268.714V263.728H171.789V262.306H170.025V259.93H168.405V262.306H166.965V263.728H168.405V269.074C168.405 270.442 169.107 271.216 170.475 271.216ZM173.583 271H175.203V264.952C175.581 264.304 176.679 263.692 177.489 263.692C177.705 263.692 177.885 263.71 178.047 263.746V262.108C176.895 262.108 175.869 262.774 175.203 263.638V262.306H173.583V271ZM185.533 271H187.153V262.306H185.533V268.552C185.047 269.2 184.129 269.776 183.121 269.776C182.005 269.776 181.285 269.344 181.285 267.904V262.306H179.665V268.444C179.665 270.28 180.583 271.216 182.437 271.216C183.769 271.216 184.867 270.532 185.533 269.812V271ZM189.18 266.644C189.18 269.254 190.98 271.216 193.608 271.216C195.246 271.216 196.236 270.532 196.866 269.686L195.786 268.696C195.264 269.416 194.562 269.776 193.68 269.776C191.97 269.776 190.872 268.444 190.872 266.644C190.872 264.844 191.97 263.53 193.68 263.53C194.562 263.53 195.264 263.872 195.786 264.61L196.866 263.62C196.236 262.774 195.246 262.09 193.608 262.09C190.98 262.09 189.18 264.034 189.18 266.644ZM201.044 271.216C201.89 271.216 202.394 270.982 202.736 270.658L202.322 269.434C202.16 269.614 201.818 269.776 201.44 269.776C200.882 269.776 200.594 269.326 200.594 268.714V263.728H202.358V262.306H200.594V259.93H198.974V262.306H197.534V263.728H198.974V269.074C198.974 270.442 199.676 271.216 201.044 271.216ZM210.02 271H211.64V262.306H210.02V268.552C209.534 269.2 208.616 269.776 207.608 269.776C206.492 269.776 205.772 269.344 205.772 267.904V262.306H204.152V268.444C204.152 270.28 205.07 271.216 206.924 271.216C208.256 271.216 209.354 270.532 210.02 269.812V271ZM214.206 271H215.826V264.952C216.204 264.304 217.302 263.692 218.112 263.692C218.328 263.692 218.508 263.71 218.67 263.746V262.108C217.518 262.108 216.492 262.774 215.826 263.638V262.306H214.206V271ZM219.748 266.644C219.748 269.38 221.656 271.216 224.248 271.216C225.652 271.216 226.876 270.766 227.74 269.92L226.984 268.858C226.336 269.524 225.328 269.884 224.41 269.884C222.664 269.884 221.584 268.66 221.458 267.184H228.334V266.788C228.334 264.124 226.714 262.09 224.104 262.09C221.566 262.09 219.748 264.124 219.748 266.644ZM224.104 263.422C225.94 263.422 226.714 264.862 226.75 266.014H221.44C221.53 264.826 222.358 263.422 224.104 263.422ZM236.553 271H238.173V258.994H236.553V263.566C235.851 262.63 234.825 262.09 233.709 262.09C231.441 262.09 229.821 263.872 229.821 266.662C229.821 269.506 231.441 271.216 233.709 271.216C234.861 271.216 235.905 270.622 236.553 269.758V271ZM236.553 268.516C236.103 269.218 235.131 269.776 234.141 269.776C232.521 269.776 231.513 268.462 231.513 266.662C231.513 264.844 232.521 263.53 234.141 263.53C235.131 263.53 236.103 264.106 236.553 264.808V268.516ZM245.444 271H249.728C253.472 271 255.956 268.48 255.956 265.006C255.956 261.55 253.472 258.994 249.728 258.994H245.444V271ZM247.244 269.416V260.578H249.728C252.554 260.578 254.102 262.54 254.102 265.006C254.102 267.436 252.5 269.416 249.728 269.416H247.244ZM263.463 271H265.083V265.132C265.083 262.918 263.481 262.09 261.591 262.09C260.187 262.09 258.999 262.558 258.027 263.512L258.729 264.628C259.503 263.854 260.349 263.476 261.339 263.476C262.581 263.476 263.463 264.124 263.463 265.204V266.644C262.797 265.87 261.789 265.492 260.619 265.492C259.161 265.492 257.595 266.356 257.595 268.336C257.595 270.244 259.179 271.216 260.619 271.216C261.789 271.216 262.779 270.802 263.463 270.046V271ZM263.463 269.092C262.977 269.74 262.131 270.082 261.231 270.082C260.061 270.082 259.233 269.38 259.233 268.354C259.233 267.328 260.061 266.626 261.231 266.626C262.131 266.626 262.977 266.968 263.463 267.616V269.092ZM270.073 271.216C270.919 271.216 271.423 270.982 271.765 270.658L271.351 269.434C271.189 269.614 270.847 269.776 270.469 269.776C269.911 269.776 269.623 269.326 269.623 268.714V263.728H271.387V262.306H269.623V259.93H268.003V262.306H266.563V263.728H268.003V269.074C268.003 270.442 268.705 271.216 270.073 271.216ZM278.545 271H280.165V265.132C280.165 262.918 278.563 262.09 276.673 262.09C275.269 262.09 274.081 262.558 273.109 263.512L273.811 264.628C274.585 263.854 275.431 263.476 276.421 263.476C277.663 263.476 278.545 264.124 278.545 265.204V266.644C277.879 265.87 276.871 265.492 275.701 265.492C274.243 265.492 272.677 266.356 272.677 268.336C272.677 270.244 274.261 271.216 275.701 271.216C276.871 271.216 277.861 270.802 278.545 270.046V271ZM278.545 269.092C278.059 269.74 277.213 270.082 276.313 270.082C275.143 270.082 274.315 269.38 274.315 268.354C274.315 267.328 275.143 266.626 276.313 266.626C277.213 266.626 278.059 266.968 278.545 267.616V269.092Z" fill="#FEFEFE"/>
<path d="M1.584 19H7.896C12.912 19 16.392 15.832 16.392 11.008C16.392 6.184 12.912 2.992 7.896 2.992H1.584V19ZM4.992 16V5.992H7.896C11.184 5.992 12.912 8.176 12.912 11.008C12.912 13.72 11.064 16 7.896 16H4.992ZM25.6986 19H28.7466V11.512C28.7466 8.176 26.3226 7.12 23.6826 7.12C21.8586 7.12 20.0346 7.696 18.6186 8.944L19.7706 10.984C20.7546 10.072 21.9066 9.616 23.1546 9.616C24.6906 9.616 25.6986 10.384 25.6986 11.56V13.168C24.9306 12.232 23.5626 11.752 22.0266 11.752C20.1786 11.752 17.9946 12.736 17.9946 15.448C17.9946 18.04 20.1786 19.288 22.0266 19.288C23.5386 19.288 24.9066 18.736 25.6986 17.8V19ZM25.6986 16.216C25.1946 16.888 24.2346 17.224 23.2506 17.224C22.0506 17.224 21.0666 16.6 21.0666 15.52C21.0666 14.416 22.0506 13.768 23.2506 13.768C24.2346 13.768 25.1946 14.104 25.6986 14.776V16.216ZM35.6578 19.288C36.9298 19.288 37.7458 18.952 38.2018 18.544L37.5538 16.24C37.3858 16.408 36.9538 16.576 36.4978 16.576C35.8258 16.576 35.4418 16.024 35.4418 15.304V10.072H37.7938V7.408H35.4418V4.24H32.3698V7.408H30.4498V10.072H32.3698V16.12C32.3698 18.184 33.5218 19.288 35.6578 19.288ZM46.8392 19H49.8872V11.512C49.8872 8.176 47.4632 7.12 44.8232 7.12C42.9992 7.12 41.1752 7.696 39.7592 8.944L40.9112 10.984C41.8952 10.072 43.0472 9.616 44.2952 9.616C45.8312 9.616 46.8392 10.384 46.8392 11.56V13.168C46.0712 12.232 44.7032 11.752 43.1672 11.752C41.3192 11.752 39.1352 12.736 39.1352 15.448C39.1352 18.04 41.3192 19.288 43.1672 19.288C44.6792 19.288 46.0472 18.736 46.8392 17.8V19ZM46.8392 16.216C46.3352 16.888 45.3752 17.224 44.3912 17.224C43.1912 17.224 42.2072 16.6 42.2072 15.52C42.2072 14.416 43.1912 13.768 44.3912 13.768C45.3752 13.768 46.3352 14.104 46.8392 14.776V16.216ZM58.0191 16.744C59.5311 18.256 61.7391 19.288 64.8111 19.288C69.1311 19.288 71.2191 17.08 71.2191 14.152C71.2191 10.6 67.8591 9.808 65.2191 9.208C63.3711 8.776 62.0271 8.44 62.0271 7.36C62.0271 6.4 62.8431 5.728 64.3791 5.728C65.9391 5.728 67.6671 6.28 68.9631 7.48L70.8591 4.984C69.2751 3.52 67.1631 2.752 64.6191 2.752C60.8511 2.752 58.5471 4.912 58.5471 7.576C58.5471 11.152 61.9071 11.872 64.5231 12.472C66.3711 12.904 67.7631 13.312 67.7631 14.512C67.7631 15.424 66.8511 16.312 64.9791 16.312C62.7711 16.312 61.0191 15.328 59.8911 14.152L58.0191 16.744ZM72.6977 13.192C72.6977 16.768 75.2657 19.288 78.8417 19.288C81.2177 19.288 82.6577 18.256 83.4257 17.176L81.4337 15.328C80.8817 16.096 80.0417 16.576 78.9857 16.576C77.1377 16.576 75.8417 15.208 75.8417 13.192C75.8417 11.176 77.1377 9.832 78.9857 9.832C80.0417 9.832 80.8817 10.288 81.4337 11.08L83.4257 9.232C82.6577 8.152 81.2177 7.12 78.8417 7.12C75.2657 7.12 72.6977 9.64 72.6977 13.192ZM86.9303 5.704C87.9383 5.704 88.7543 4.888 88.7543 3.88C88.7543 2.872 87.9383 2.056 86.9303 2.056C85.9463 2.056 85.1063 2.872 85.1063 3.88C85.1063 4.888 85.9463 5.704 86.9303 5.704ZM85.4183 19H88.4663V7.408H85.4183V19ZM90.7446 13.192C90.7446 16.912 93.4086 19.288 96.9366 19.288C98.7366 19.288 100.537 18.76 101.713 17.68L100.369 15.712C99.6246 16.432 98.3526 16.864 97.2726 16.864C95.3046 16.864 94.1286 15.64 93.9366 14.176H102.553V13.504C102.553 9.712 100.201 7.12 96.7446 7.12C93.2166 7.12 90.7446 9.832 90.7446 13.192ZM96.7446 9.544C98.7606 9.544 99.5286 11.008 99.6006 12.112H93.8886C94.0326 10.96 94.8486 9.544 96.7446 9.544ZM112.578 19H115.626V10.816C115.626 8.56 114.402 7.12 111.858 7.12C109.962 7.12 108.546 8.032 107.802 8.92V7.408H104.754V19H107.802V11.2C108.306 10.504 109.242 9.832 110.442 9.832C111.738 9.832 112.578 10.384 112.578 11.992V19ZM122.541 19.288C123.813 19.288 124.629 18.952 125.085 18.544L124.437 16.24C124.269 16.408 123.837 16.576 123.381 16.576C122.709 16.576 122.325 16.024 122.325 15.304V10.072H124.677V7.408H122.325V4.24H119.253V7.408H117.333V10.072H119.253V16.12C119.253 18.184 120.405 19.288 122.541 19.288ZM128.274 5.704C129.282 5.704 130.098 4.888 130.098 3.88C130.098 2.872 129.282 2.056 128.274 2.056C127.29 2.056 126.45 2.872 126.45 3.88C126.45 4.888 127.29 5.704 128.274 5.704ZM126.762 19H129.81V7.408H126.762V19ZM131.824 17.488C133.048 18.616 134.992 19.288 137.008 19.288C140.224 19.288 142.024 17.704 142.024 15.568C142.024 12.688 139.36 12.16 137.368 11.776C136.072 11.512 135.16 11.248 135.16 10.528C135.16 9.856 135.88 9.448 136.984 9.448C138.4 9.448 139.72 10.048 140.416 10.792L141.616 8.704C140.488 7.792 138.928 7.12 136.96 7.12C133.912 7.12 132.208 8.824 132.208 10.768C132.208 13.528 134.776 14.008 136.768 14.392C138.088 14.656 139.096 14.944 139.096 15.76C139.096 16.48 138.472 16.936 137.152 16.936C135.712 16.936 133.984 16.144 133.144 15.352L131.824 17.488ZM148.158 19.288C149.43 19.288 150.246 18.952 150.702 18.544L150.054 16.24C149.886 16.408 149.454 16.576 148.998 16.576C148.326 16.576 147.942 16.024 147.942 15.304V10.072H150.294V7.408H147.942V4.24H144.87V7.408H142.95V10.072H144.87V16.12C144.87 18.184 146.022 19.288 148.158 19.288ZM151.371 17.488C152.595 18.616 154.539 19.288 156.555 19.288C159.771 19.288 161.571 17.704 161.571 15.568C161.571 12.688 158.907 12.16 156.915 11.776C155.619 11.512 154.707 11.248 154.707 10.528C154.707 9.856 155.427 9.448 156.531 9.448C157.947 9.448 159.267 10.048 159.963 10.792L161.163 8.704C160.035 7.792 158.475 7.12 156.507 7.12C153.459 7.12 151.755 8.824 151.755 10.768C151.755 13.528 154.323 14.008 156.315 14.392C157.635 14.656 158.643 14.944 158.643 15.76C158.643 16.48 158.019 16.936 156.699 16.936C155.259 16.936 153.531 16.144 152.691 15.352L151.371 17.488Z" fill="#F25187"/>
<g clip-path="url(#clip1)">
<path d="M88.98 77.6C83.1982 77.6 78.4944 82 77.8085 87.8H66.343C66.049 84.3 64.6771 81 62.5212 78.4L78.6904 61.9C81.5323 63.9 85.5501 63.6 88.098 61C90.9399 58.1 90.9399 53.3 88.098 50.4C85.2561 47.5 80.5523 47.5 77.7105 50.4C75.1626 53 74.8686 57 76.8285 60L60.6592 76.5C58.1114 74.3 54.9755 72.9 51.4477 72.6V61C57.0334 60.3 61.4432 55.5 61.4432 49.6C61.4432 43.2 56.3474 38 50.1737 38C44 38 38.8062 43.2 38.8062 49.5C38.8062 55.4 43.118 60.2 48.8018 60.9V72.6C45.3719 72.9 42.1381 74.3 39.5902 76.5L36.7483 73.6C38.7082 70.7 38.4143 66.6 35.8664 64C33.0245 61.1 28.3207 61.1 25.4788 64C22.637 66.9 22.637 71.7 25.4788 74.6C28.0267 77.2 31.9465 77.5 34.8864 75.5L37.7283 78.4C35.5724 81 34.2004 84.2 33.9065 87.8H22.539C21.853 82.1 17.1492 77.6 11.3675 77.6C5.09577 77.6 0 82.8 0 89.2C0 95.6 5.09577 100.7 11.2695 100.7C17.0512 100.7 21.755 96.3 22.441 90.5H33.9065C34.2004 94 35.5724 97.3 37.7283 99.9L34.8864 102.8C32.0445 100.8 28.0267 101.1 25.4788 103.7C22.637 106.6 22.637 111.4 25.4788 114.3C28.3207 117.2 33.0245 117.2 35.8664 114.3C38.4143 111.7 38.7082 107.7 36.7483 104.7L39.5902 101.8C42.1381 104 45.2739 105.4 48.8018 105.7V117.4C43.216 118.1 38.8062 122.9 38.8062 128.8C38.8062 135.1 43.902 140.3 50.0757 140.3C56.2494 140.3 61.3452 135.1 61.3452 128.8C61.3452 122.9 57.0334 118.1 51.3497 117.4V105.7C54.7795 105.4 58.0134 104 60.5612 101.8L63.4031 104.7C61.4432 107.6 61.7372 111.7 64.2851 114.3C67.1269 117.2 71.8307 117.2 74.6726 114.3C77.5145 111.4 77.5145 106.6 74.6726 103.7C72.1247 101.1 68.2049 100.8 65.265 102.8L62.4232 99.9C64.5791 97.3 65.951 94.1 66.245 90.5H77.7105C78.3964 96.2 83.1002 100.7 88.882 100.7C95.0557 100.7 100.151 95.5 100.151 89.2C100.151 82.9 95.2517 77.6 88.98 77.6Z" fill="#F25187"/>
</g>
</g>
<defs>
<clipPath id="clip0">
<rect width="450" height="250" fill="white"/>
</clipPath>
<clipPath id="clip1">
<rect width="100.347" height="102.4" fill="white" transform="translate(0 38)"/>
</clipPath>
</defs>
</svg>
