<svg width="450" height="250" viewBox="0 0 450 250" fill="none" xmlns="http://www.w3.org/2000/svg">
<g clip-path="url(#clip0)">
<path d="M116.54 49.5726H120.86V48.1686H116.54V49.5726ZM127.369 48.5286C127.369 51.4806 129.061 53.4426 132.427 53.4426C135.793 53.4426 137.467 51.4986 137.467 48.5106V41.2206H135.649V48.4746C135.649 50.5266 134.533 51.8406 132.427 51.8406C130.321 51.8406 129.187 50.5266 129.187 48.4746V41.2206H127.369V48.5286ZM139.356 52.0926C140.238 52.9926 141.516 53.4426 142.974 53.4426C145.26 53.4426 146.484 52.2726 146.484 50.7786C146.484 48.7806 144.684 48.3666 143.172 48.0246C142.092 47.7726 141.156 47.5206 141.156 46.7646C141.156 46.0626 141.84 45.6306 142.938 45.6306C144.036 45.6306 145.008 46.0806 145.512 46.6926L146.232 45.5586C145.494 44.8566 144.414 44.3166 142.92 44.3166C140.796 44.3166 139.608 45.5046 139.608 46.8906C139.608 48.7626 141.336 49.1586 142.812 49.5006C143.928 49.7526 144.918 50.0406 144.918 50.9046C144.918 51.6426 144.27 52.1466 143.046 52.1466C141.876 52.1466 140.724 51.5526 140.13 50.9046L139.356 52.0926ZM147.992 48.8706C147.992 51.6066 149.9 53.4426 152.492 53.4426C153.896 53.4426 155.12 52.9926 155.984 52.1466L155.228 51.0846C154.58 51.7506 153.572 52.1106 152.654 52.1106C150.908 52.1106 149.828 50.8866 149.702 49.4106H156.578V49.0146C156.578 46.3506 154.958 44.3166 152.348 44.3166C149.81 44.3166 147.992 46.3506 147.992 48.8706ZM152.348 45.6486C154.184 45.6486 154.958 47.0886 154.994 48.2406H149.684C149.774 47.0526 150.602 45.6486 152.348 45.6486ZM158.605 53.2266H160.225V47.1786C160.603 46.5306 161.701 45.9186 162.511 45.9186C162.727 45.9186 162.907 45.9366 163.069 45.9726V44.3346C161.917 44.3346 160.891 45.0006 160.225 45.8646V44.5326H158.605V53.2266ZM176.275 53.2266H178.363L175.285 48.4206C176.815 48.2226 178.273 47.0706 178.273 44.9106C178.273 42.6966 176.707 41.2206 174.421 41.2206H169.363V53.2266H171.163V48.6006H173.413L176.275 53.2266ZM176.419 44.9106C176.419 46.1706 175.483 47.0166 174.187 47.0166H171.163V42.8046H174.187C175.483 42.8046 176.419 43.6506 176.419 44.9106ZM179.369 48.8706C179.369 51.6066 181.277 53.4426 183.869 53.4426C185.273 53.4426 186.497 52.9926 187.361 52.1466L186.605 51.0846C185.957 51.7506 184.949 52.1106 184.031 52.1106C182.285 52.1106 181.205 50.8866 181.079 49.4106H187.955V49.0146C187.955 46.3506 186.335 44.3166 183.725 44.3166C181.187 44.3166 179.369 46.3506 179.369 48.8706ZM183.725 45.6486C185.561 45.6486 186.335 47.0886 186.371 48.2406H181.061C181.151 47.0526 181.979 45.6486 183.725 45.6486ZM189.226 52.0926C190.108 52.9926 191.386 53.4426 192.844 53.4426C195.13 53.4426 196.354 52.2726 196.354 50.7786C196.354 48.7806 194.554 48.3666 193.042 48.0246C191.962 47.7726 191.026 47.5206 191.026 46.7646C191.026 46.0626 191.71 45.6306 192.808 45.6306C193.906 45.6306 194.878 46.0806 195.382 46.6926L196.102 45.5586C195.364 44.8566 194.284 44.3166 192.79 44.3166C190.666 44.3166 189.478 45.5046 189.478 46.8906C189.478 48.7626 191.206 49.1586 192.682 49.5006C193.798 49.7526 194.788 50.0406 194.788 50.9046C194.788 51.6426 194.14 52.1466 192.916 52.1466C191.746 52.1466 190.594 51.5526 190 50.9046L189.226 52.0926ZM197.861 48.8706C197.861 51.6066 199.769 53.4426 202.361 53.4426C203.765 53.4426 204.989 52.9926 205.853 52.1466L205.097 51.0846C204.449 51.7506 203.441 52.1106 202.523 52.1106C200.777 52.1106 199.697 50.8866 199.571 49.4106H206.447V49.0146C206.447 46.3506 204.827 44.3166 202.217 44.3166C199.679 44.3166 197.861 46.3506 197.861 48.8706ZM202.217 45.6486C204.053 45.6486 204.827 47.0886 204.863 48.2406H199.553C199.643 47.0526 200.471 45.6486 202.217 45.6486ZM213.838 53.2266H215.458V47.3586C215.458 45.1446 213.856 44.3166 211.966 44.3166C210.562 44.3166 209.374 44.7846 208.402 45.7386L209.104 46.8546C209.878 46.0806 210.724 45.7026 211.714 45.7026C212.956 45.7026 213.838 46.3506 213.838 47.4306V48.8706C213.172 48.0966 212.164 47.7186 210.994 47.7186C209.536 47.7186 207.97 48.5826 207.97 50.5626C207.97 52.4706 209.554 53.4426 210.994 53.4426C212.164 53.4426 213.154 53.0286 213.838 52.2726V53.2266ZM213.838 51.3186C213.352 51.9666 212.506 52.3086 211.606 52.3086C210.436 52.3086 209.608 51.6066 209.608 50.5806C209.608 49.5546 210.436 48.8526 211.606 48.8526C212.506 48.8526 213.352 49.1946 213.838 49.8426V51.3186ZM218.054 53.2266H219.674V47.1786C220.052 46.5306 221.15 45.9186 221.96 45.9186C222.176 45.9186 222.356 45.9366 222.518 45.9726V44.3346C221.366 44.3346 220.34 45.0006 219.674 45.8646V44.5326H218.054V53.2266ZM223.596 48.8706C223.596 51.4806 225.396 53.4426 228.024 53.4426C229.662 53.4426 230.652 52.7586 231.282 51.9126L230.202 50.9226C229.68 51.6426 228.978 52.0026 228.096 52.0026C226.386 52.0026 225.288 50.6706 225.288 48.8706C225.288 47.0706 226.386 45.7566 228.096 45.7566C228.978 45.7566 229.68 46.0986 230.202 46.8366L231.282 45.8466C230.652 45.0006 229.662 44.3166 228.024 44.3166C225.396 44.3166 223.596 46.2606 223.596 48.8706ZM238.934 53.2266H240.554V47.0886C240.554 45.2526 239.618 44.3166 237.764 44.3166C236.432 44.3166 235.262 45.0546 234.686 45.7566V41.2206H233.066V53.2266H234.686V47.0166C235.154 46.3686 236.072 45.7566 237.08 45.7566C238.196 45.7566 238.934 46.1886 238.934 47.6286V53.2266ZM116.54 73.5726H120.86V72.1686H116.54V73.5726ZM127.369 77.2266H129.169V65.2206H127.369V77.2266ZM137.684 77.2266H139.304V71.1246C139.304 69.2886 138.35 68.3166 136.514 68.3166C135.164 68.3166 134.012 69.0546 133.436 69.7566V68.5326H131.816V77.2266H133.436V71.0166C133.904 70.3686 134.822 69.7566 135.83 69.7566C136.946 69.7566 137.684 70.2246 137.684 71.6646V77.2266ZM144.264 77.4426C145.11 77.4426 145.614 77.2086 145.956 76.8846L145.542 75.6606C145.38 75.8406 145.038 76.0026 144.66 76.0026C144.102 76.0026 143.814 75.5526 143.814 74.9406V69.9546H145.578V68.5326H143.814V66.1566H142.194V68.5326H140.754V69.9546H142.194V75.3006C142.194 76.6686 142.896 77.4426 144.264 77.4426ZM146.832 72.8706C146.832 75.6066 148.74 77.4426 151.332 77.4426C152.736 77.4426 153.96 76.9926 154.824 76.1466L154.068 75.0846C153.42 75.7506 152.412 76.1106 151.494 76.1106C149.748 76.1106 148.668 74.8866 148.542 73.4106H155.418V73.0146C155.418 70.3506 153.798 68.3166 151.188 68.3166C148.65 68.3166 146.832 70.3506 146.832 72.8706ZM151.188 69.6486C153.024 69.6486 153.798 71.0886 153.834 72.2406H148.524C148.614 71.0526 149.442 69.6486 151.188 69.6486ZM157.444 77.2266H159.064V71.1786C159.442 70.5306 160.54 69.9186 161.35 69.9186C161.566 69.9186 161.746 69.9366 161.908 69.9726V68.3346C160.756 68.3346 159.73 69.0006 159.064 69.8646V68.5326H157.444V77.2266ZM168.89 77.2266H170.51V71.3586C170.51 69.1446 168.908 68.3166 167.018 68.3166C165.614 68.3166 164.426 68.7846 163.454 69.7386L164.156 70.8546C164.93 70.0806 165.776 69.7026 166.766 69.7026C168.008 69.7026 168.89 70.3506 168.89 71.4306V72.8706C168.224 72.0966 167.216 71.7186 166.046 71.7186C164.588 71.7186 163.022 72.5826 163.022 74.5626C163.022 76.4706 164.606 77.4426 166.046 77.4426C167.216 77.4426 168.206 77.0286 168.89 76.2726V77.2266ZM168.89 75.3186C168.404 75.9666 167.558 76.3086 166.658 76.3086C165.488 76.3086 164.66 75.6066 164.66 74.5806C164.66 73.5546 165.488 72.8526 166.658 72.8526C167.558 72.8526 168.404 73.1946 168.89 73.8426V75.3186ZM172.567 72.8706C172.567 75.4806 174.367 77.4426 176.995 77.4426C178.633 77.4426 179.623 76.7586 180.253 75.9126L179.173 74.9226C178.651 75.6426 177.949 76.0026 177.067 76.0026C175.357 76.0026 174.259 74.6706 174.259 72.8706C174.259 71.0706 175.357 69.7566 177.067 69.7566C177.949 69.7566 178.651 70.0986 179.173 70.8366L180.253 69.8466C179.623 69.0006 178.633 68.3166 176.995 68.3166C174.367 68.3166 172.567 70.2606 172.567 72.8706ZM184.43 77.4426C185.276 77.4426 185.78 77.2086 186.122 76.8846L185.708 75.6606C185.546 75.8406 185.204 76.0026 184.826 76.0026C184.268 76.0026 183.98 75.5526 183.98 74.9406V69.9546H185.744V68.5326H183.98V66.1566H182.36V68.5326H180.92V69.9546H182.36V75.3006C182.36 76.6686 183.062 77.4426 184.43 77.4426ZM188.33 67.0746C188.906 67.0746 189.374 66.6246 189.374 66.0486C189.374 65.4726 188.906 65.0046 188.33 65.0046C187.772 65.0046 187.286 65.4726 187.286 66.0486C187.286 66.6246 187.772 67.0746 188.33 67.0746ZM187.538 77.2266H189.158V68.5326H187.538V77.2266ZM195.591 77.4426C198.309 77.4426 199.983 75.3906 199.983 72.8706C199.983 70.3686 198.309 68.3166 195.591 68.3166C192.891 68.3166 191.199 70.3686 191.199 72.8706C191.199 75.3906 192.891 77.4426 195.591 77.4426ZM195.591 76.0026C193.863 76.0026 192.891 74.5266 192.891 72.8706C192.891 71.2326 193.863 69.7566 195.591 69.7566C197.337 69.7566 198.291 71.2326 198.291 72.8706C198.291 74.5266 197.337 76.0026 195.591 76.0026ZM207.908 77.2266H209.528V71.1246C209.528 69.2886 208.574 68.3166 206.738 68.3166C205.388 68.3166 204.236 69.0546 203.66 69.7566V68.5326H202.04V77.2266H203.66V71.0166C204.128 70.3686 205.046 69.7566 206.054 69.7566C207.17 69.7566 207.908 70.2246 207.908 71.6646V77.2266ZM216.771 77.2266H221.055C224.799 77.2266 227.283 74.7066 227.283 71.2326C227.283 67.7766 224.799 65.2206 221.055 65.2206H216.771V77.2266ZM218.571 75.6426V66.8046H221.055C223.881 66.8046 225.429 68.7666 225.429 71.2326C225.429 73.6626 223.827 75.6426 221.055 75.6426H218.571ZM228.887 72.8706C228.887 75.6066 230.795 77.4426 233.387 77.4426C234.791 77.4426 236.015 76.9926 236.879 76.1466L236.123 75.0846C235.475 75.7506 234.467 76.1106 233.549 76.1106C231.803 76.1106 230.723 74.8866 230.597 73.4106H237.473V73.0146C237.473 70.3506 235.853 68.3166 233.243 68.3166C230.705 68.3166 228.887 70.3506 228.887 72.8706ZM233.243 69.6486C235.079 69.6486 235.853 71.0886 235.889 72.2406H230.579C230.669 71.0526 231.497 69.6486 233.243 69.6486ZM238.743 76.0926C239.625 76.9926 240.903 77.4426 242.361 77.4426C244.647 77.4426 245.871 76.2726 245.871 74.7786C245.871 72.7806 244.071 72.3666 242.559 72.0246C241.479 71.7726 240.543 71.5206 240.543 70.7646C240.543 70.0626 241.227 69.6306 242.325 69.6306C243.423 69.6306 244.395 70.0806 244.899 70.6926L245.619 69.5586C244.881 68.8566 243.801 68.3166 242.307 68.3166C240.183 68.3166 238.995 69.5046 238.995 70.8906C238.995 72.7626 240.723 73.1586 242.199 73.5006C243.315 73.7526 244.305 74.0406 244.305 74.9046C244.305 75.6426 243.657 76.1466 242.433 76.1466C241.263 76.1466 240.111 75.5526 239.517 74.9046L238.743 76.0926ZM248.711 67.0746C249.287 67.0746 249.755 66.6246 249.755 66.0486C249.755 65.4726 249.287 65.0046 248.711 65.0046C248.153 65.0046 247.667 65.4726 247.667 66.0486C247.667 66.6246 248.153 67.0746 248.711 67.0746ZM247.919 77.2266H249.539V68.5326H247.919V77.2266ZM252.048 79.4586C253.092 80.4486 254.154 80.7546 255.612 80.7546C257.754 80.7546 259.932 79.8726 259.932 76.8846V68.5326H258.312V69.7926C257.61 68.8566 256.584 68.3166 255.45 68.3166C253.2 68.3166 251.58 70.0086 251.58 72.7986C251.58 75.6426 253.2 77.2986 255.45 77.2986C256.62 77.2986 257.646 76.6686 258.312 75.8046V76.9386C258.312 78.7746 256.962 79.4226 255.612 79.4226C254.424 79.4226 253.542 79.0986 252.822 78.2706L252.048 79.4586ZM258.312 74.5626C257.862 75.2646 256.872 75.8586 255.9 75.8586C254.28 75.8586 253.272 74.5986 253.272 72.7986C253.272 71.0166 254.28 69.7566 255.9 69.7566C256.872 69.7566 257.862 70.3326 258.312 71.0346V74.5626ZM268.377 77.2266H269.997V71.1246C269.997 69.2886 269.043 68.3166 267.207 68.3166C265.857 68.3166 264.705 69.0546 264.129 69.7566V68.5326H262.509V77.2266H264.129V71.0166C264.597 70.3686 265.515 69.7566 266.523 69.7566C267.639 69.7566 268.377 70.2246 268.377 71.6646V77.2266ZM116.54 97.5726H120.86V96.1686H116.54V97.5726ZM127.369 101.227H131.653C135.397 101.227 137.881 98.7066 137.881 95.2326C137.881 91.7766 135.397 89.2206 131.653 89.2206H127.369V101.227ZM129.169 99.6426V90.8046H131.653C134.479 90.8046 136.027 92.7666 136.027 95.2326C136.027 97.6626 134.425 99.6426 131.653 99.6426H129.169ZM139.485 96.8706C139.485 99.6066 141.393 101.443 143.985 101.443C145.389 101.443 146.613 100.993 147.477 100.147L146.721 99.0846C146.073 99.7506 145.065 100.111 144.147 100.111C142.401 100.111 141.321 98.8866 141.195 97.4106H148.071V97.0146C148.071 94.3506 146.451 92.3166 143.841 92.3166C141.303 92.3166 139.485 94.3506 139.485 96.8706ZM143.841 93.6486C145.677 93.6486 146.451 95.0886 146.487 96.2406H141.177C141.267 95.0526 142.095 93.6486 143.841 93.6486ZM149.341 100.093C150.223 100.993 151.501 101.443 152.959 101.443C155.245 101.443 156.469 100.273 156.469 98.7786C156.469 96.7806 154.669 96.3666 153.157 96.0246C152.077 95.7726 151.141 95.5206 151.141 94.7646C151.141 94.0626 151.825 93.6306 152.923 93.6306C154.021 93.6306 154.993 94.0806 155.497 94.6926L156.217 93.5586C155.479 92.8566 154.399 92.3166 152.905 92.3166C150.781 92.3166 149.593 93.5046 149.593 94.8906C149.593 96.7626 151.321 97.1586 152.797 97.5006C153.913 97.7526 154.903 98.0406 154.903 98.9046C154.903 99.6426 154.255 100.147 153.031 100.147C151.861 100.147 150.709 99.5526 150.115 98.9046L149.341 100.093ZM159.309 91.0746C159.885 91.0746 160.353 90.6246 160.353 90.0486C160.353 89.4726 159.885 89.0046 159.309 89.0046C158.751 89.0046 158.265 89.4726 158.265 90.0486C158.265 90.6246 158.751 91.0746 159.309 91.0746ZM158.517 101.227H160.137V92.5326H158.517V101.227ZM162.646 103.459C163.69 104.449 164.752 104.755 166.21 104.755C168.352 104.755 170.53 103.873 170.53 100.885V92.5326H168.91V93.7926C168.208 92.8566 167.182 92.3166 166.048 92.3166C163.798 92.3166 162.178 94.0086 162.178 96.7986C162.178 99.6426 163.798 101.299 166.048 101.299C167.218 101.299 168.244 100.669 168.91 99.8046V100.939C168.91 102.775 167.56 103.423 166.21 103.423C165.022 103.423 164.14 103.099 163.42 102.271L162.646 103.459ZM168.91 98.5626C168.46 99.2646 167.47 99.8586 166.498 99.8586C164.878 99.8586 163.87 98.5986 163.87 96.7986C163.87 95.0166 164.878 93.7566 166.498 93.7566C167.47 93.7566 168.46 94.3326 168.91 95.0346V98.5626ZM178.975 101.227H180.595V95.1246C180.595 93.2886 179.641 92.3166 177.805 92.3166C176.455 92.3166 175.303 93.0546 174.727 93.7566V92.5326H173.107V101.227H174.727V95.0166C175.195 94.3686 176.113 93.7566 177.121 93.7566C178.237 93.7566 178.975 94.2246 178.975 95.6646V101.227ZM187.1 99.5346C188.126 100.669 189.692 101.443 191.834 101.443C195.074 101.443 196.37 99.6966 196.37 97.8246C196.37 95.2686 194.084 94.6566 192.122 94.1346C190.628 93.7566 189.332 93.4146 189.332 92.3346C189.332 91.3266 190.25 90.6426 191.582 90.6426C192.878 90.6426 194.138 91.0746 195.056 92.0466L196.1 90.7146C195.038 89.6346 193.58 89.0406 191.726 89.0406C189.224 89.0406 187.478 90.4806 187.478 92.4606C187.478 94.9086 189.71 95.4666 191.636 95.9706C193.166 96.3666 194.534 96.7266 194.534 97.9866C194.534 98.8506 193.85 99.8406 191.906 99.8406C190.232 99.8406 188.936 99.0486 188.126 98.1486L187.1 99.5346ZM198.098 103.171L197.846 104.629C198.098 104.701 198.584 104.755 198.854 104.755C200.114 104.737 201.068 104.251 201.626 102.883L205.91 92.5326H204.164L201.446 99.3546L198.728 92.5326H197L200.582 101.317L200.078 102.469C199.808 103.117 199.412 103.315 198.818 103.315C198.602 103.315 198.296 103.261 198.098 103.171ZM206.47 100.093C207.352 100.993 208.63 101.443 210.088 101.443C212.374 101.443 213.598 100.273 213.598 98.7786C213.598 96.7806 211.798 96.3666 210.286 96.0246C209.206 95.7726 208.27 95.5206 208.27 94.7646C208.27 94.0626 208.954 93.6306 210.052 93.6306C211.15 93.6306 212.122 94.0806 212.626 94.6926L213.346 93.5586C212.608 92.8566 211.528 92.3166 210.034 92.3166C207.91 92.3166 206.722 93.5046 206.722 94.8906C206.722 96.7626 208.45 97.1586 209.926 97.5006C211.042 97.7526 212.032 98.0406 212.032 98.9046C212.032 99.6426 211.384 100.147 210.16 100.147C208.99 100.147 207.838 99.5526 207.244 98.9046L206.47 100.093ZM218.04 101.443C218.886 101.443 219.39 101.209 219.732 100.885L219.318 99.6606C219.156 99.8406 218.814 100.003 218.436 100.003C217.878 100.003 217.59 99.5526 217.59 98.9406V93.9546H219.354V92.5326H217.59V90.1566H215.97V92.5326H214.53V93.9546H215.97V99.3006C215.97 100.669 216.672 101.443 218.04 101.443ZM220.608 96.8706C220.608 99.6066 222.516 101.443 225.108 101.443C226.512 101.443 227.736 100.993 228.6 100.147L227.844 99.0846C227.196 99.7506 226.188 100.111 225.27 100.111C223.524 100.111 222.444 98.8866 222.318 97.4106H229.194V97.0146C229.194 94.3506 227.574 92.3166 224.964 92.3166C222.426 92.3166 220.608 94.3506 220.608 96.8706ZM224.964 93.6486C226.8 93.6486 227.574 95.0886 227.61 96.2406H222.3C222.39 95.0526 223.218 93.6486 224.964 93.6486ZM241.786 101.227H243.406V94.9446C243.406 93.1986 242.542 92.3166 240.94 92.3166C239.662 92.3166 238.51 93.1266 238.006 93.9366C237.736 93.0006 236.962 92.3166 235.648 92.3166C234.352 92.3166 233.2 93.2166 232.84 93.7566V92.5326H231.22V101.227H232.84V95.0166C233.272 94.3866 234.118 93.7566 234.964 93.7566C236.062 93.7566 236.494 94.4226 236.494 95.4306V101.227H238.114V94.9986C238.528 94.3686 239.392 93.7566 240.274 93.7566C241.336 93.7566 241.786 94.4226 241.786 95.4306V101.227ZM245.229 100.093C246.111 100.993 247.389 101.443 248.847 101.443C251.133 101.443 252.357 100.273 252.357 98.7786C252.357 96.7806 250.557 96.3666 249.045 96.0246C247.965 95.7726 247.029 95.5206 247.029 94.7646C247.029 94.0626 247.713 93.6306 248.811 93.6306C249.909 93.6306 250.881 94.0806 251.385 94.6926L252.105 93.5586C251.367 92.8566 250.287 92.3166 248.793 92.3166C246.669 92.3166 245.481 93.5046 245.481 94.8906C245.481 96.7626 247.209 97.1586 248.685 97.5006C249.801 97.7526 250.791 98.0406 250.791 98.9046C250.791 99.6426 250.143 100.147 248.919 100.147C247.749 100.147 246.597 99.5526 246.003 98.9046L245.229 100.093ZM116.54 121.573H120.86V120.169H116.54V121.573ZM127.369 125.227H129.169V113.221H127.369V125.227ZM137.684 125.227H139.304V119.125C139.304 117.289 138.35 116.317 136.514 116.317C135.164 116.317 134.012 117.055 133.436 117.757V116.533H131.816V125.227H133.436V119.017C133.904 118.369 134.822 117.757 135.83 117.757C136.946 117.757 137.684 118.225 137.684 119.665V125.227ZM142.266 125.227H143.886V117.955H145.65V116.533H143.886V115.957C143.886 114.913 144.372 114.373 145.182 114.373C145.47 114.373 145.74 114.445 145.956 114.571L146.334 113.365C145.956 113.149 145.47 113.041 144.912 113.041C143.364 113.041 142.266 114.085 142.266 115.957V116.533H140.826V117.955H142.266V125.227ZM151.048 125.443C153.766 125.443 155.44 123.391 155.44 120.871C155.44 118.369 153.766 116.317 151.048 116.317C148.348 116.317 146.656 118.369 146.656 120.871C146.656 123.391 148.348 125.443 151.048 125.443ZM151.048 124.003C149.32 124.003 148.348 122.527 148.348 120.871C148.348 119.233 149.32 117.757 151.048 117.757C152.794 117.757 153.748 119.233 153.748 120.871C153.748 122.527 152.794 124.003 151.048 124.003ZM157.497 125.227H159.117V119.179C159.495 118.531 160.593 117.919 161.403 117.919C161.619 117.919 161.799 117.937 161.961 117.973V116.335C160.809 116.335 159.783 117.001 159.117 117.865V116.533H157.497V125.227ZM174.145 125.227H175.765V118.945C175.765 117.199 174.901 116.317 173.299 116.317C172.021 116.317 170.869 117.127 170.365 117.937C170.095 117.001 169.321 116.317 168.007 116.317C166.711 116.317 165.559 117.217 165.199 117.757V116.533H163.579V125.227H165.199V119.017C165.631 118.387 166.477 117.757 167.323 117.757C168.421 117.757 168.853 118.423 168.853 119.431V125.227H170.473V118.999C170.887 118.369 171.751 117.757 172.633 117.757C173.695 117.757 174.145 118.423 174.145 119.431V125.227ZM183.709 125.227H185.329V119.359C185.329 117.145 183.727 116.317 181.837 116.317C180.433 116.317 179.245 116.785 178.273 117.739L178.975 118.855C179.749 118.081 180.595 117.703 181.585 117.703C182.827 117.703 183.709 118.351 183.709 119.431V120.871C183.043 120.097 182.035 119.719 180.865 119.719C179.407 119.719 177.841 120.583 177.841 122.563C177.841 124.471 179.425 125.443 180.865 125.443C182.035 125.443 183.025 125.029 183.709 124.273V125.227ZM183.709 123.319C183.223 123.967 182.377 124.309 181.477 124.309C180.307 124.309 179.479 123.607 179.479 122.581C179.479 121.555 180.307 120.853 181.477 120.853C182.377 120.853 183.223 121.195 183.709 121.843V123.319ZM190.319 125.443C191.165 125.443 191.669 125.209 192.011 124.885L191.597 123.661C191.435 123.841 191.093 124.003 190.715 124.003C190.157 124.003 189.869 123.553 189.869 122.941V117.955H191.633V116.533H189.869V114.157H188.249V116.533H186.809V117.955H188.249V123.301C188.249 124.669 188.951 125.443 190.319 125.443ZM194.219 115.075C194.795 115.075 195.263 114.625 195.263 114.049C195.263 113.473 194.795 113.005 194.219 113.005C193.661 113.005 193.175 113.473 193.175 114.049C193.175 114.625 193.661 115.075 194.219 115.075ZM193.427 125.227H195.047V116.533H193.427V125.227ZM201.48 125.443C204.198 125.443 205.872 123.391 205.872 120.871C205.872 118.369 204.198 116.317 201.48 116.317C198.78 116.317 197.088 118.369 197.088 120.871C197.088 123.391 198.78 125.443 201.48 125.443ZM201.48 124.003C199.752 124.003 198.78 122.527 198.78 120.871C198.78 119.233 199.752 117.757 201.48 117.757C203.226 117.757 204.18 119.233 204.18 120.871C204.18 122.527 203.226 124.003 201.48 124.003ZM213.797 125.227H215.417V119.125C215.417 117.289 214.463 116.317 212.627 116.317C211.277 116.317 210.125 117.055 209.549 117.757V116.533H207.929V125.227H209.549V119.017C210.017 118.369 210.935 117.757 211.943 117.757C213.059 117.757 213.797 118.225 213.797 119.665V125.227ZM231.228 125.227H233.208L228.438 113.221H226.188L221.418 125.227H223.398L224.37 122.743H230.256L231.228 125.227ZM227.304 114.787L229.734 121.141H224.892L227.304 114.787ZM234.612 125.227H236.232V119.179C236.61 118.531 237.708 117.919 238.518 117.919C238.734 117.919 238.914 117.937 239.076 117.973V116.335C237.924 116.335 236.898 117.001 236.232 117.865V116.533H234.612V125.227ZM240.154 120.871C240.154 123.481 241.954 125.443 244.582 125.443C246.22 125.443 247.21 124.759 247.84 123.913L246.76 122.923C246.238 123.643 245.536 124.003 244.654 124.003C242.944 124.003 241.846 122.671 241.846 120.871C241.846 119.071 242.944 117.757 244.654 117.757C245.536 117.757 246.238 118.099 246.76 118.837L247.84 117.847C247.21 117.001 246.22 116.317 244.582 116.317C241.954 116.317 240.154 118.261 240.154 120.871ZM255.492 125.227H257.112V119.089C257.112 117.253 256.176 116.317 254.322 116.317C252.99 116.317 251.82 117.055 251.244 117.757V113.221H249.624V125.227H251.244V119.017C251.712 118.369 252.63 117.757 253.638 117.757C254.754 117.757 255.492 118.189 255.492 119.629V125.227ZM260.488 115.075C261.064 115.075 261.532 114.625 261.532 114.049C261.532 113.473 261.064 113.005 260.488 113.005C259.93 113.005 259.444 113.473 259.444 114.049C259.444 114.625 259.93 115.075 260.488 115.075ZM259.696 125.227H261.316V116.533H259.696V125.227ZM266.292 125.443C267.138 125.443 267.642 125.209 267.984 124.885L267.57 123.661C267.408 123.841 267.066 124.003 266.688 124.003C266.13 124.003 265.842 123.553 265.842 122.941V117.955H267.606V116.533H265.842V114.157H264.222V116.533H262.782V117.955H264.222V123.301C264.222 124.669 264.924 125.443 266.292 125.443ZM268.86 120.871C268.86 123.607 270.768 125.443 273.36 125.443C274.764 125.443 275.988 124.993 276.852 124.147L276.096 123.085C275.448 123.751 274.44 124.111 273.522 124.111C271.776 124.111 270.696 122.887 270.57 121.411H277.446V121.015C277.446 118.351 275.826 116.317 273.216 116.317C270.678 116.317 268.86 118.351 268.86 120.871ZM273.216 117.649C275.052 117.649 275.826 119.089 275.862 120.241H270.552C270.642 119.053 271.47 117.649 273.216 117.649ZM278.932 120.871C278.932 123.481 280.732 125.443 283.36 125.443C284.998 125.443 285.988 124.759 286.618 123.913L285.538 122.923C285.016 123.643 284.314 124.003 283.432 124.003C281.722 124.003 280.624 122.671 280.624 120.871C280.624 119.071 281.722 117.757 283.432 117.757C284.314 117.757 285.016 118.099 285.538 118.837L286.618 117.847C285.988 117.001 284.998 116.317 283.36 116.317C280.732 116.317 278.932 118.261 278.932 120.871ZM290.795 125.443C291.641 125.443 292.145 125.209 292.487 124.885L292.073 123.661C291.911 123.841 291.569 124.003 291.191 124.003C290.633 124.003 290.345 123.553 290.345 122.941V117.955H292.109V116.533H290.345V114.157H288.725V116.533H287.285V117.955H288.725V123.301C288.725 124.669 289.427 125.443 290.795 125.443ZM299.771 125.227H301.391V116.533H299.771V122.779C299.285 123.427 298.367 124.003 297.359 124.003C296.243 124.003 295.523 123.571 295.523 122.131V116.533H293.903V122.671C293.903 124.507 294.821 125.443 296.675 125.443C298.007 125.443 299.105 124.759 299.771 124.039V125.227ZM303.958 125.227H305.578V119.179C305.956 118.531 307.054 117.919 307.864 117.919C308.08 117.919 308.26 117.937 308.422 117.973V116.335C307.27 116.335 306.244 117.001 305.578 117.865V116.533H303.958V125.227ZM309.5 120.871C309.5 123.607 311.408 125.443 314 125.443C315.404 125.443 316.628 124.993 317.492 124.147L316.736 123.085C316.088 123.751 315.08 124.111 314.162 124.111C312.416 124.111 311.336 122.887 311.21 121.411H318.086V121.015C318.086 118.351 316.466 116.317 313.856 116.317C311.318 116.317 309.5 118.351 309.5 120.871ZM313.856 117.649C315.692 117.649 316.466 119.089 316.502 120.241H311.192C311.282 119.053 312.11 117.649 313.856 117.649ZM116.54 145.573H120.86V144.169H116.54V145.573ZM127.369 144.529C127.369 147.481 129.061 149.443 132.427 149.443C135.793 149.443 137.467 147.499 137.467 144.511V137.221H135.649V144.475C135.649 146.527 134.533 147.841 132.427 147.841C130.321 147.841 129.187 146.527 129.187 144.475V137.221H127.369V144.529ZM140.148 149.227H141.948V137.221H140.148V149.227ZM147.939 149.587H149.181L153.447 136.861H152.205L147.939 149.587ZM162.942 149.227H165.192L169.962 137.221H167.91L164.058 147.265L160.224 137.221H158.172L162.942 149.227ZM172.158 139.075C172.734 139.075 173.202 138.625 173.202 138.049C173.202 137.473 172.734 137.005 172.158 137.005C171.6 137.005 171.114 137.473 171.114 138.049C171.114 138.625 171.6 139.075 172.158 139.075ZM171.366 149.227H172.986V140.533H171.366V149.227ZM174.811 148.093C175.693 148.993 176.971 149.443 178.429 149.443C180.715 149.443 181.939 148.273 181.939 146.779C181.939 144.781 180.139 144.367 178.627 144.025C177.547 143.773 176.611 143.521 176.611 142.765C176.611 142.063 177.295 141.631 178.393 141.631C179.491 141.631 180.463 142.081 180.967 142.693L181.687 141.559C180.949 140.857 179.869 140.317 178.375 140.317C176.251 140.317 175.063 141.505 175.063 142.891C175.063 144.763 176.791 145.159 178.267 145.501C179.383 145.753 180.373 146.041 180.373 146.905C180.373 147.643 179.725 148.147 178.501 148.147C177.331 148.147 176.179 147.553 175.585 146.905L174.811 148.093ZM189.855 149.227H191.475V140.533H189.855V146.779C189.369 147.427 188.451 148.003 187.443 148.003C186.327 148.003 185.607 147.571 185.607 146.131V140.533H183.987V146.671C183.987 148.507 184.905 149.443 186.759 149.443C188.091 149.443 189.189 148.759 189.855 148.039V149.227ZM199.406 149.227H201.026V143.359C201.026 141.145 199.424 140.317 197.534 140.317C196.13 140.317 194.942 140.785 193.97 141.739L194.672 142.855C195.446 142.081 196.292 141.703 197.282 141.703C198.524 141.703 199.406 142.351 199.406 143.431V144.871C198.74 144.097 197.732 143.719 196.562 143.719C195.104 143.719 193.538 144.583 193.538 146.563C193.538 148.471 195.122 149.443 196.562 149.443C197.732 149.443 198.722 149.029 199.406 148.273V149.227ZM199.406 147.319C198.92 147.967 198.074 148.309 197.174 148.309C196.004 148.309 195.176 147.607 195.176 146.581C195.176 145.555 196.004 144.853 197.174 144.853C198.074 144.853 198.92 145.195 199.406 145.843V147.319ZM203.622 149.227H205.242V137.221H203.622V149.227ZM212.5 149.227H216.784C220.528 149.227 223.012 146.707 223.012 143.233C223.012 139.777 220.528 137.221 216.784 137.221H212.5V149.227ZM214.3 147.643V138.805H216.784C219.61 138.805 221.158 140.767 221.158 143.233C221.158 145.663 219.556 147.643 216.784 147.643H214.3ZM224.615 144.871C224.615 147.607 226.523 149.443 229.115 149.443C230.519 149.443 231.743 148.993 232.607 148.147L231.851 147.085C231.203 147.751 230.195 148.111 229.277 148.111C227.531 148.111 226.451 146.887 226.325 145.411H233.201V145.015C233.201 142.351 231.581 140.317 228.971 140.317C226.433 140.317 224.615 142.351 224.615 144.871ZM228.971 141.649C230.807 141.649 231.581 143.089 231.617 144.241H226.307C226.397 143.053 227.225 141.649 228.971 141.649ZM234.472 148.093C235.354 148.993 236.632 149.443 238.09 149.443C240.376 149.443 241.6 148.273 241.6 146.779C241.6 144.781 239.8 144.367 238.288 144.025C237.208 143.773 236.272 143.521 236.272 142.765C236.272 142.063 236.956 141.631 238.054 141.631C239.152 141.631 240.124 142.081 240.628 142.693L241.348 141.559C240.61 140.857 239.53 140.317 238.036 140.317C235.912 140.317 234.724 141.505 234.724 142.891C234.724 144.763 236.452 145.159 237.928 145.501C239.044 145.753 240.034 146.041 240.034 146.905C240.034 147.643 239.386 148.147 238.162 148.147C236.992 148.147 235.84 147.553 235.246 146.905L234.472 148.093ZM244.44 139.075C245.016 139.075 245.484 138.625 245.484 138.049C245.484 137.473 245.016 137.005 244.44 137.005C243.882 137.005 243.396 137.473 243.396 138.049C243.396 138.625 243.882 139.075 244.44 139.075ZM243.648 149.227H245.268V140.533H243.648V149.227ZM247.777 151.459C248.821 152.449 249.883 152.755 251.341 152.755C253.483 152.755 255.661 151.873 255.661 148.885V140.533H254.041V141.793C253.339 140.857 252.313 140.317 251.179 140.317C248.929 140.317 247.309 142.009 247.309 144.799C247.309 147.643 248.929 149.299 251.179 149.299C252.349 149.299 253.375 148.669 254.041 147.805V148.939C254.041 150.775 252.691 151.423 251.341 151.423C250.153 151.423 249.271 151.099 248.551 150.271L247.777 151.459ZM254.041 146.563C253.591 147.265 252.601 147.859 251.629 147.859C250.009 147.859 249.001 146.599 249.001 144.799C249.001 143.017 250.009 141.757 251.629 141.757C252.601 141.757 253.591 142.333 254.041 143.035V146.563ZM264.105 149.227H265.725V143.125C265.725 141.289 264.771 140.317 262.935 140.317C261.585 140.317 260.433 141.055 259.857 141.757V140.533H258.237V149.227H259.857V143.017C260.325 142.369 261.243 141.757 262.251 141.757C263.367 141.757 264.105 142.225 264.105 143.665V149.227ZM116.54 169.573H120.86V168.169H116.54V169.573ZM127.369 168.529C127.369 171.481 129.061 173.443 132.427 173.443C135.793 173.443 137.467 171.499 137.467 168.511V161.221H135.649V168.475C135.649 170.527 134.533 171.841 132.427 171.841C130.321 171.841 129.187 170.527 129.187 168.475V161.221H127.369V168.529ZM148.32 173.227H150.48L145.908 167.053L150.21 161.221H148.032L144.72 165.829L141.39 161.221H139.212L143.55 167.071L138.942 173.227H141.12L144.72 168.331L148.32 173.227ZM155.864 171.535C156.89 172.669 158.456 173.443 160.598 173.443C163.838 173.443 165.134 171.697 165.134 169.825C165.134 167.269 162.848 166.657 160.886 166.135C159.392 165.757 158.096 165.415 158.096 164.335C158.096 163.327 159.014 162.643 160.346 162.643C161.642 162.643 162.902 163.075 163.82 164.047L164.864 162.715C163.802 161.635 162.344 161.041 160.49 161.041C157.988 161.041 156.242 162.481 156.242 164.461C156.242 166.909 158.474 167.467 160.4 167.971C161.93 168.367 163.298 168.727 163.298 169.987C163.298 170.851 162.614 171.841 160.67 171.841C158.996 171.841 157.7 171.049 156.89 170.149L155.864 171.535ZM169.295 173.443C170.141 173.443 170.645 173.209 170.987 172.885L170.573 171.661C170.411 171.841 170.069 172.003 169.691 172.003C169.133 172.003 168.845 171.553 168.845 170.941V165.955H170.609V164.533H168.845V162.157H167.225V164.533H165.785V165.955H167.225V171.301C167.225 172.669 167.927 173.443 169.295 173.443ZM172.403 173.227H174.023V167.179C174.401 166.531 175.499 165.919 176.309 165.919C176.525 165.919 176.705 165.937 176.867 165.973V164.335C175.715 164.335 174.689 165.001 174.023 165.865V164.533H172.403V173.227ZM183.849 173.227H185.469V167.359C185.469 165.145 183.867 164.317 181.977 164.317C180.573 164.317 179.385 164.785 178.413 165.739L179.115 166.855C179.889 166.081 180.735 165.703 181.725 165.703C182.967 165.703 183.849 166.351 183.849 167.431V168.871C183.183 168.097 182.175 167.719 181.005 167.719C179.547 167.719 177.981 168.583 177.981 170.563C177.981 172.471 179.565 173.443 181.005 173.443C182.175 173.443 183.165 173.029 183.849 172.273V173.227ZM183.849 171.319C183.363 171.967 182.517 172.309 181.617 172.309C180.447 172.309 179.619 171.607 179.619 170.581C179.619 169.555 180.447 168.853 181.617 168.853C182.517 168.853 183.363 169.195 183.849 169.843V171.319ZM190.46 173.443C191.306 173.443 191.81 173.209 192.152 172.885L191.738 171.661C191.576 171.841 191.234 172.003 190.856 172.003C190.298 172.003 190.01 171.553 190.01 170.941V165.955H191.774V164.533H190.01V162.157H188.39V164.533H186.95V165.955H188.39V171.301C188.39 172.669 189.092 173.443 190.46 173.443ZM193.027 168.871C193.027 171.607 194.935 173.443 197.527 173.443C198.931 173.443 200.155 172.993 201.019 172.147L200.263 171.085C199.615 171.751 198.607 172.111 197.689 172.111C195.943 172.111 194.863 170.887 194.737 169.411H201.613V169.015C201.613 166.351 199.993 164.317 197.383 164.317C194.845 164.317 193.027 166.351 193.027 168.871ZM197.383 165.649C199.219 165.649 199.993 167.089 200.029 168.241H194.719C194.809 167.053 195.637 165.649 197.383 165.649ZM203.568 175.459C204.612 176.449 205.674 176.755 207.132 176.755C209.274 176.755 211.452 175.873 211.452 172.885V164.533H209.832V165.793C209.13 164.857 208.104 164.317 206.97 164.317C204.72 164.317 203.1 166.009 203.1 168.799C203.1 171.643 204.72 173.299 206.97 173.299C208.14 173.299 209.166 172.669 209.832 171.805V172.939C209.832 174.775 208.482 175.423 207.132 175.423C205.944 175.423 205.062 175.099 204.342 174.271L203.568 175.459ZM209.832 170.563C209.382 171.265 208.392 171.859 207.42 171.859C205.8 171.859 204.792 170.599 204.792 168.799C204.792 167.017 205.8 165.757 207.42 165.757C208.392 165.757 209.382 166.333 209.832 167.035V170.563ZM213.848 175.171L213.596 176.629C213.848 176.701 214.334 176.755 214.604 176.755C215.864 176.737 216.818 176.251 217.376 174.883L221.66 164.533H219.914L217.196 171.355L214.478 164.533H212.75L216.332 173.317L215.828 174.469C215.558 175.117 215.162 175.315 214.568 175.315C214.352 175.315 214.046 175.261 213.848 175.171ZM116.54 193.573H120.86V192.169H116.54V193.573ZM127.369 197.227H129.169V192.601H132.427C134.875 192.601 136.261 190.909 136.261 188.911C136.261 186.913 134.893 185.221 132.427 185.221H127.369V197.227ZM134.407 188.911C134.407 190.171 133.489 191.017 132.193 191.017H129.169V186.805H132.193C133.489 186.805 134.407 187.651 134.407 188.911ZM138.073 197.227H139.693V191.179C140.071 190.531 141.169 189.919 141.979 189.919C142.195 189.919 142.375 189.937 142.537 189.973V188.335C141.385 188.335 140.359 189.001 139.693 189.865V188.533H138.073V197.227ZM148.007 197.443C150.725 197.443 152.399 195.391 152.399 192.871C152.399 190.369 150.725 188.317 148.007 188.317C145.307 188.317 143.615 190.369 143.615 192.871C143.615 195.391 145.307 197.443 148.007 197.443ZM148.007 196.003C146.279 196.003 145.307 194.527 145.307 192.871C145.307 191.233 146.279 189.757 148.007 189.757C149.753 189.757 150.707 191.233 150.707 192.871C150.707 194.527 149.753 196.003 148.007 196.003ZM156.85 197.443C157.696 197.443 158.2 197.209 158.542 196.885L158.128 195.661C157.966 195.841 157.624 196.003 157.246 196.003C156.688 196.003 156.4 195.553 156.4 194.941V189.955H158.164V188.533H156.4V186.157H154.78V188.533H153.34V189.955H154.78V195.301C154.78 196.669 155.482 197.443 156.85 197.443ZM163.81 197.443C166.528 197.443 168.202 195.391 168.202 192.871C168.202 190.369 166.528 188.317 163.81 188.317C161.11 188.317 159.418 190.369 159.418 192.871C159.418 195.391 161.11 197.443 163.81 197.443ZM163.81 196.003C162.082 196.003 161.11 194.527 161.11 192.871C161.11 191.233 162.082 189.757 163.81 189.757C165.556 189.757 166.51 191.233 166.51 192.871C166.51 194.527 165.556 196.003 163.81 196.003ZM172.653 197.443C173.499 197.443 174.003 197.209 174.345 196.885L173.931 195.661C173.769 195.841 173.427 196.003 173.049 196.003C172.491 196.003 172.203 195.553 172.203 194.941V189.955H173.967V188.533H172.203V186.157H170.583V188.533H169.143V189.955H170.583V195.301C170.583 196.669 171.285 197.443 172.653 197.443ZM175.581 199.171L175.329 200.629C175.581 200.701 176.067 200.755 176.337 200.755C177.597 200.737 178.551 200.251 179.109 198.883L183.393 188.533H181.647L178.929 195.355L176.211 188.533H174.483L178.065 197.317L177.561 198.469C177.291 199.117 176.895 199.315 176.301 199.315C176.085 199.315 175.779 199.261 175.581 199.171ZM186.328 200.539V195.967C187.03 196.921 188.038 197.443 189.172 197.443C191.44 197.443 193.042 195.715 193.042 192.871C193.042 190.027 191.44 188.317 189.172 188.317C188.002 188.317 186.958 188.911 186.328 189.775V188.533H184.708V200.539H186.328ZM191.35 192.871C191.35 194.689 190.36 196.003 188.74 196.003C187.75 196.003 186.76 195.409 186.328 194.725V191.035C186.76 190.333 187.75 189.757 188.74 189.757C190.36 189.757 191.35 191.071 191.35 192.871ZM195.889 187.075C196.465 187.075 196.933 186.625 196.933 186.049C196.933 185.473 196.465 185.005 195.889 185.005C195.331 185.005 194.845 185.473 194.845 186.049C194.845 186.625 195.331 187.075 195.889 187.075ZM195.097 197.227H196.717V188.533H195.097V197.227ZM205.166 197.227H206.786V191.125C206.786 189.289 205.832 188.317 203.996 188.317C202.646 188.317 201.494 189.055 200.918 189.757V188.533H199.298V197.227H200.918V191.017C201.386 190.369 202.304 189.757 203.312 189.757C204.428 189.757 205.166 190.225 205.166 191.665V197.227ZM209.281 199.459C210.325 200.449 211.387 200.755 212.845 200.755C214.987 200.755 217.165 199.873 217.165 196.885V188.533H215.545V189.793C214.843 188.857 213.817 188.317 212.683 188.317C210.433 188.317 208.813 190.009 208.813 192.799C208.813 195.643 210.433 197.299 212.683 197.299C213.853 197.299 214.879 196.669 215.545 195.805V196.939C215.545 198.775 214.195 199.423 212.845 199.423C211.657 199.423 210.775 199.099 210.055 198.271L209.281 199.459ZM215.545 194.563C215.095 195.265 214.105 195.859 213.133 195.859C211.513 195.859 210.505 194.599 210.505 192.799C210.505 191.017 211.513 189.757 213.133 189.757C214.105 189.757 215.095 190.333 215.545 191.035V194.563ZM116.54 217.573H120.86V216.169H116.54V217.573ZM135.811 221.227H137.611V209.221H135.811V214.261H129.169V209.221H127.369V221.227H129.169V215.863H135.811V221.227ZM143.205 221.227H145.005V210.805H148.713V209.221H139.479V210.805H143.205V221.227ZM160.922 221.227H162.722V209.221H160.148L156.656 217.843L153.164 209.221H150.59V221.227H152.39V211.687L156.278 221.227H157.034L160.922 211.687V221.227ZM165.391 221.227H172.645V219.643H167.191V209.221H165.391V221.227ZM173.287 221.587H174.529L178.795 208.861H177.553L173.287 221.587ZM185.773 221.443C188.131 221.443 189.589 220.309 190.543 218.905L189.013 218.095C188.383 219.103 187.195 219.841 185.773 219.841C183.343 219.841 181.471 217.915 181.471 215.233C181.471 212.533 183.343 210.625 185.773 210.625C187.195 210.625 188.383 211.363 189.013 212.371L190.543 211.561C189.607 210.157 188.131 209.023 185.773 209.023C182.353 209.023 179.617 211.543 179.617 215.233C179.617 218.923 182.353 221.443 185.773 221.443ZM191.6 219.535C192.626 220.669 194.192 221.443 196.334 221.443C199.574 221.443 200.87 219.697 200.87 217.825C200.87 215.269 198.584 214.657 196.622 214.135C195.128 213.757 193.832 213.415 193.832 212.335C193.832 211.327 194.75 210.643 196.082 210.643C197.378 210.643 198.638 211.075 199.556 212.047L200.6 210.715C199.538 209.635 198.08 209.041 196.226 209.041C193.724 209.041 191.978 210.481 191.978 212.461C191.978 214.909 194.21 215.467 196.136 215.971C197.666 216.367 199.034 216.727 199.034 217.987C199.034 218.851 198.35 219.841 196.406 219.841C194.732 219.841 193.436 219.049 192.626 218.149L191.6 219.535ZM202.217 219.535C203.243 220.669 204.809 221.443 206.951 221.443C210.191 221.443 211.487 219.697 211.487 217.825C211.487 215.269 209.201 214.657 207.239 214.135C205.745 213.757 204.449 213.415 204.449 212.335C204.449 211.327 205.367 210.643 206.699 210.643C207.995 210.643 209.255 211.075 210.173 212.047L211.217 210.715C210.155 209.635 208.697 209.041 206.843 209.041C204.341 209.041 202.595 210.481 202.595 212.461C202.595 214.909 204.827 215.467 206.753 215.971C208.283 216.367 209.651 216.727 209.651 217.987C209.651 218.851 208.967 219.841 207.023 219.841C205.349 219.841 204.053 219.049 203.243 218.149L202.217 219.535Z" fill="#FEFEFE"/>
<path d="M1.584 20H7.896C12.912 20 16.392 16.832 16.392 12.008C16.392 7.184 12.912 3.992 7.896 3.992H1.584V20ZM4.992 17V6.992H7.896C11.184 6.992 12.912 9.176 12.912 12.008C12.912 14.72 11.064 17 7.896 17H4.992ZM17.9946 14.192C17.9946 17.912 20.6586 20.288 24.1866 20.288C25.9866 20.288 27.7866 19.76 28.9626 18.68L27.6186 16.712C26.8746 17.432 25.6026 17.864 24.5226 17.864C22.5546 17.864 21.3786 16.64 21.1866 15.176H29.8026V14.504C29.8026 10.712 27.4506 8.12 23.9946 8.12C20.4666 8.12 17.9946 10.832 17.9946 14.192ZM23.9946 10.544C26.0106 10.544 26.7786 12.008 26.8506 13.112H21.1386C21.2826 11.96 22.0986 10.544 23.9946 10.544ZM30.9962 18.488C32.2202 19.616 34.1642 20.288 36.1802 20.288C39.3962 20.288 41.1962 18.704 41.1962 16.568C41.1962 13.688 38.5322 13.16 36.5402 12.776C35.2442 12.512 34.3322 12.248 34.3322 11.528C34.3322 10.856 35.0522 10.448 36.1562 10.448C37.5722 10.448 38.8922 11.048 39.5882 11.792L40.7882 9.704C39.6602 8.792 38.1002 8.12 36.1322 8.12C33.0842 8.12 31.3802 9.824 31.3802 11.768C31.3802 14.528 33.9482 15.008 35.9402 15.392C37.2602 15.656 38.2682 15.944 38.2682 16.76C38.2682 17.48 37.6442 17.936 36.3242 17.936C34.8842 17.936 33.1562 17.144 32.3162 16.352L30.9962 18.488ZM44.9537 6.704C45.9617 6.704 46.7777 5.888 46.7777 4.88C46.7777 3.872 45.9617 3.056 44.9537 3.056C43.9697 3.056 43.1297 3.872 43.1297 4.88C43.1297 5.888 43.9697 6.704 44.9537 6.704ZM43.4417 20H46.4897V8.408H43.4417V20ZM49.272 22.976C50.712 24.248 52.272 24.704 54.264 24.704C57.12 24.704 60.528 23.624 60.528 19.208V8.408H57.456V9.896C56.52 8.72 55.272 8.12 53.88 8.12C50.952 8.12 48.768 10.232 48.768 14.024C48.768 17.888 50.976 19.928 53.88 19.928C55.296 19.928 56.544 19.256 57.456 18.104V19.28C57.456 21.56 55.728 22.208 54.264 22.208C52.8 22.208 51.576 21.8 50.64 20.768L49.272 22.976ZM57.456 15.896C56.952 16.64 55.848 17.216 54.84 17.216C53.112 17.216 51.912 16.016 51.912 14.024C51.912 12.032 53.112 10.832 54.84 10.832C55.848 10.832 56.952 11.384 57.456 12.152V15.896ZM71.3751 20H74.4231V11.816C74.4231 9.56 73.1991 8.12 70.6551 8.12C68.7591 8.12 67.3431 9.032 66.5991 9.92V8.408H63.5511V20H66.5991V12.2C67.1031 11.504 68.0391 10.832 69.2391 10.832C70.5351 10.832 71.3751 11.384 71.3751 12.992V20ZM76.7055 14.192C76.7055 17.912 79.3695 20.288 82.8975 20.288C84.6975 20.288 86.4975 19.76 87.6735 18.68L86.3295 16.712C85.5855 17.432 84.3135 17.864 83.2335 17.864C81.2655 17.864 80.0895 16.64 79.8975 15.176H88.5135V14.504C88.5135 10.712 86.1615 8.12 82.7055 8.12C79.1775 8.12 76.7055 10.832 76.7055 14.192ZM82.7055 10.544C84.7215 10.544 85.4895 12.008 85.5615 13.112H79.8495C79.9935 11.96 80.8095 10.544 82.7055 10.544ZM90.7151 20H93.7631V12.344C94.2671 11.6 95.6111 11.048 96.6191 11.048C96.9551 11.048 97.2431 11.072 97.4591 11.12V8.144C96.0191 8.144 94.5791 8.96 93.7631 9.992V8.408H90.7151V20ZM98.3556 18.488C99.5796 19.616 101.524 20.288 103.54 20.288C106.756 20.288 108.556 18.704 108.556 16.568C108.556 13.688 105.892 13.16 103.9 12.776C102.604 12.512 101.692 12.248 101.692 11.528C101.692 10.856 102.412 10.448 103.516 10.448C104.932 10.448 106.252 11.048 106.948 11.792L108.148 9.704C107.02 8.792 105.46 8.12 103.492 8.12C100.444 8.12 98.7396 9.824 98.7396 11.768C98.7396 14.528 101.308 15.008 103.3 15.392C104.62 15.656 105.628 15.944 105.628 16.76C105.628 17.48 105.004 17.936 103.684 17.936C102.244 17.936 100.516 17.144 99.6756 16.352L98.3556 18.488Z" fill="#F25187"/>
<g clip-path="url(#clip1)">
<path d="M63.2939 42.9116L61.8804 42.1143V58.8579L59.6188 60.6519H49.8185L47.4627 58.8579V42.2139L46.0492 43.0112C37.097 48.0941 33.7046 59.8546 38.5105 69.3227C40.3952 73.11 43.4106 76.0999 47.0858 77.7942C47.0858 77.9936 47.0858 78.2926 47.0858 78.4919V116.464H60.8438V78.3922C70.3614 74.7046 75.3558 63.6418 71.9634 53.5757C70.4557 48.9911 67.346 45.2039 63.2939 42.9116Z" fill="#F25187"/>
<path d="M22.8678 46.9978C22.8678 44.1075 20.6062 41.7156 17.8734 41.7156C17.7792 41.7156 17.685 41.7156 17.685 41.7156H17.5907C14.9522 41.8152 12.8791 44.1075 12.8791 46.8981C12.8791 47.8948 12.8791 48.8914 12.8791 49.8881H12.3137C9.10973 49.8881 6.56542 52.579 6.47119 55.868C6.28272 61.0505 6.00002 70.9173 6.37696 77.8939C6.37696 78.5915 6.84812 79.1895 7.41353 79.3888C7.41353 79.4885 7.69623 79.5882 7.88469 79.5882C8.73279 79.4885 9.39243 78.7909 9.39243 77.7942C9.01549 70.9173 9.2982 61.2499 9.48666 56.0673C9.5809 54.4727 10.8059 53.2767 12.3137 53.177H12.8791C12.8791 61.8479 12.8791 95.3352 12.8791 105.9V106.498L17.7792 116.165C17.8734 116.364 18.1561 116.464 18.3446 116.364C18.4388 116.364 18.5331 116.265 18.5331 116.165L23.0563 106.498V105.9C22.8678 89.9533 22.7736 57.0639 22.8678 46.9978ZM20.7004 105.999L17.8734 111.979L14.858 105.999H20.7004Z" fill="#F25187"/>
</g>
</g>
<defs>
<clipPath id="clip0">
<rect width="450" height="250" fill="white"/>
</clipPath>
<clipPath id="clip1">
<rect width="67" height="74.6489" fill="white" transform="translate(6 41.7156)"/>
</clipPath>
</defs>
</svg>
