<svg width="450" height="250" viewBox="0 0 450 250" fill="none" xmlns="http://www.w3.org/2000/svg">
<g clip-path="url(#clip0)">
<path d="M127.54 52.346H131.86V50.942H127.54V52.346ZM132.936 52.346H137.256V50.942H132.936V52.346ZM143.262 50.006C143.262 53.75 146.052 56.234 149.49 56.234C151.524 56.234 153.18 55.388 154.332 54.11V49.7H148.68V51.284H152.532V53.444C151.956 53.984 150.822 54.632 149.49 54.632C146.988 54.632 145.116 52.688 145.116 50.006C145.116 47.306 146.988 45.398 149.49 45.398C150.894 45.398 152.1 46.1 152.784 47.018L154.242 46.172C153.234 44.822 151.74 43.796 149.49 43.796C146.052 43.796 143.262 46.262 143.262 50.006ZM156.597 56H158.217V49.952C158.595 49.304 159.693 48.692 160.503 48.692C160.719 48.692 160.899 48.71 161.061 48.746V47.108C159.909 47.108 158.883 47.774 158.217 48.638V47.306H156.597V56ZM168.043 56H169.663V50.132C169.663 47.918 168.061 47.09 166.171 47.09C164.767 47.09 163.579 47.558 162.607 48.512L163.309 49.628C164.083 48.854 164.929 48.476 165.919 48.476C167.161 48.476 168.043 49.124 168.043 50.204V51.644C167.377 50.87 166.369 50.492 165.199 50.492C163.741 50.492 162.175 51.356 162.175 53.336C162.175 55.244 163.759 56.216 165.199 56.216C166.369 56.216 167.359 55.802 168.043 55.046V56ZM168.043 54.092C167.557 54.74 166.711 55.082 165.811 55.082C164.641 55.082 163.813 54.38 163.813 53.354C163.813 52.328 164.641 51.626 165.811 51.626C166.711 51.626 167.557 51.968 168.043 52.616V54.092ZM173.879 59.312V54.74C174.581 55.694 175.589 56.216 176.723 56.216C178.991 56.216 180.593 54.488 180.593 51.644C180.593 48.8 178.991 47.09 176.723 47.09C175.553 47.09 174.509 47.684 173.879 48.548V47.306H172.259V59.312H173.879ZM178.901 51.644C178.901 53.462 177.911 54.776 176.291 54.776C175.301 54.776 174.311 54.182 173.879 53.498V49.808C174.311 49.106 175.301 48.53 176.291 48.53C177.911 48.53 178.901 49.844 178.901 51.644ZM188.516 56H190.136V49.862C190.136 48.026 189.2 47.09 187.346 47.09C186.014 47.09 184.844 47.828 184.268 48.53V43.994H182.648V56H184.268V49.79C184.736 49.142 185.654 48.53 186.662 48.53C187.778 48.53 188.516 48.962 188.516 50.402V56ZM197.396 56H201.68C205.424 56 207.908 53.48 207.908 50.006C207.908 46.55 205.424 43.994 201.68 43.994H197.396V56ZM199.196 54.416V45.578H201.68C204.506 45.578 206.054 47.54 206.054 50.006C206.054 52.436 204.452 54.416 201.68 54.416H199.196ZM215.416 56H217.036V50.132C217.036 47.918 215.434 47.09 213.544 47.09C212.14 47.09 210.952 47.558 209.98 48.512L210.682 49.628C211.456 48.854 212.302 48.476 213.292 48.476C214.534 48.476 215.416 49.124 215.416 50.204V51.644C214.75 50.87 213.742 50.492 212.572 50.492C211.114 50.492 209.548 51.356 209.548 53.336C209.548 55.244 211.132 56.216 212.572 56.216C213.742 56.216 214.732 55.802 215.416 55.046V56ZM215.416 54.092C214.93 54.74 214.084 55.082 213.184 55.082C212.014 55.082 211.186 54.38 211.186 53.354C211.186 52.328 212.014 51.626 213.184 51.626C214.084 51.626 214.93 51.968 215.416 52.616V54.092ZM222.026 56.216C222.872 56.216 223.376 55.982 223.718 55.658L223.304 54.434C223.142 54.614 222.8 54.776 222.422 54.776C221.864 54.776 221.576 54.326 221.576 53.714V48.728H223.34V47.306H221.576V44.93H219.956V47.306H218.516V48.728H219.956V54.074C219.956 55.442 220.658 56.216 222.026 56.216ZM230.498 56H232.118V50.132C232.118 47.918 230.516 47.09 228.626 47.09C227.222 47.09 226.034 47.558 225.062 48.512L225.764 49.628C226.538 48.854 227.384 48.476 228.374 48.476C229.616 48.476 230.498 49.124 230.498 50.204V51.644C229.832 50.87 228.824 50.492 227.654 50.492C226.196 50.492 224.63 51.356 224.63 53.336C224.63 55.244 226.214 56.216 227.654 56.216C228.824 56.216 229.814 55.802 230.498 55.046V56ZM230.498 54.092C230.012 54.74 229.166 55.082 228.266 55.082C227.096 55.082 226.268 54.38 226.268 53.354C226.268 52.328 227.096 51.626 228.266 51.626C229.166 51.626 230.012 51.968 230.498 52.616V54.092ZM234.714 56H236.334V54.758C236.982 55.622 238.008 56.216 239.178 56.216C241.428 56.216 243.048 54.506 243.048 51.662C243.048 48.872 241.446 47.09 239.178 47.09C238.044 47.09 237.018 47.63 236.334 48.566V43.994H234.714V56ZM236.334 53.516V49.826C236.766 49.124 237.756 48.53 238.746 48.53C240.366 48.53 241.374 49.844 241.374 51.662C241.374 53.48 240.366 54.776 238.746 54.776C237.756 54.776 236.766 54.218 236.334 53.516ZM250.484 56H252.104V50.132C252.104 47.918 250.502 47.09 248.612 47.09C247.208 47.09 246.02 47.558 245.048 48.512L245.75 49.628C246.524 48.854 247.37 48.476 248.36 48.476C249.602 48.476 250.484 49.124 250.484 50.204V51.644C249.818 50.87 248.81 50.492 247.64 50.492C246.182 50.492 244.616 51.356 244.616 53.336C244.616 55.244 246.2 56.216 247.64 56.216C248.81 56.216 249.8 55.802 250.484 55.046V56ZM250.484 54.092C249.998 54.74 249.152 55.082 248.252 55.082C247.082 55.082 246.254 54.38 246.254 53.354C246.254 52.328 247.082 51.626 248.252 51.626C249.152 51.626 249.998 51.968 250.484 52.616V54.092ZM253.944 54.866C254.826 55.766 256.104 56.216 257.562 56.216C259.848 56.216 261.072 55.046 261.072 53.552C261.072 51.554 259.272 51.14 257.76 50.798C256.68 50.546 255.744 50.294 255.744 49.538C255.744 48.836 256.428 48.404 257.526 48.404C258.624 48.404 259.596 48.854 260.1 49.466L260.82 48.332C260.082 47.63 259.002 47.09 257.508 47.09C255.384 47.09 254.196 48.278 254.196 49.664C254.196 51.536 255.924 51.932 257.4 52.274C258.516 52.526 259.506 52.814 259.506 53.678C259.506 54.416 258.858 54.92 257.634 54.92C256.464 54.92 255.312 54.326 254.718 53.678L253.944 54.866ZM262.58 51.644C262.58 54.38 264.488 56.216 267.08 56.216C268.484 56.216 269.708 55.766 270.572 54.92L269.816 53.858C269.168 54.524 268.16 54.884 267.242 54.884C265.496 54.884 264.416 53.66 264.29 52.184H271.166V51.788C271.166 49.124 269.546 47.09 266.936 47.09C264.398 47.09 262.58 49.124 262.58 51.644ZM266.936 48.422C268.772 48.422 269.546 49.862 269.582 51.014H264.272C264.362 49.826 265.19 48.422 266.936 48.422ZM272.436 54.866C273.318 55.766 274.596 56.216 276.054 56.216C278.34 56.216 279.564 55.046 279.564 53.552C279.564 51.554 277.764 51.14 276.252 50.798C275.172 50.546 274.236 50.294 274.236 49.538C274.236 48.836 274.92 48.404 276.018 48.404C277.116 48.404 278.088 48.854 278.592 49.466L279.312 48.332C278.574 47.63 277.494 47.09 276 47.09C273.876 47.09 272.688 48.278 272.688 49.664C272.688 51.536 274.416 51.932 275.892 52.274C277.008 52.526 277.998 52.814 277.998 53.678C277.998 54.416 277.35 54.92 276.126 54.92C274.956 54.92 273.804 54.326 273.21 53.678L272.436 54.866ZM127.54 76.346H131.86V74.942H127.54V76.346ZM148.701 80H150.501V67.994H147.927L144.435 76.616L140.943 67.994H138.369V80H140.169V70.46L144.057 80H144.813L148.701 70.46V80ZM158.498 80H160.118V74.132C160.118 71.918 158.516 71.09 156.626 71.09C155.222 71.09 154.034 71.558 153.062 72.512L153.764 73.628C154.538 72.854 155.384 72.476 156.374 72.476C157.616 72.476 158.498 73.124 158.498 74.204V75.644C157.832 74.87 156.824 74.492 155.654 74.492C154.196 74.492 152.63 75.356 152.63 77.336C152.63 79.244 154.214 80.216 155.654 80.216C156.824 80.216 157.814 79.802 158.498 79.046V80ZM158.498 78.092C158.012 78.74 157.166 79.082 156.266 79.082C155.096 79.082 154.268 78.38 154.268 77.354C154.268 76.328 155.096 75.626 156.266 75.626C157.166 75.626 158.012 75.968 158.498 76.616V78.092ZM162.174 75.644C162.174 78.254 163.974 80.216 166.602 80.216C168.24 80.216 169.23 79.532 169.86 78.686L168.78 77.696C168.258 78.416 167.556 78.776 166.674 78.776C164.964 78.776 163.866 77.444 163.866 75.644C163.866 73.844 164.964 72.53 166.674 72.53C167.556 72.53 168.258 72.872 168.78 73.61L169.86 72.62C169.23 71.774 168.24 71.09 166.602 71.09C163.974 71.09 162.174 73.034 162.174 75.644ZM177.512 80H179.132V73.862C179.132 72.026 178.196 71.09 176.342 71.09C175.01 71.09 173.84 71.828 173.264 72.53V67.994H171.644V80H173.264V73.79C173.732 73.142 174.65 72.53 175.658 72.53C176.774 72.53 177.512 72.962 177.512 74.402V80ZM182.508 69.848C183.084 69.848 183.552 69.398 183.552 68.822C183.552 68.246 183.084 67.778 182.508 67.778C181.95 67.778 181.464 68.246 181.464 68.822C181.464 69.398 181.95 69.848 182.508 69.848ZM181.716 80H183.336V71.306H181.716V80ZM191.785 80H193.405V73.898C193.405 72.062 192.451 71.09 190.615 71.09C189.265 71.09 188.113 71.828 187.537 72.53V71.306H185.917V80H187.537V73.79C188.005 73.142 188.923 72.53 189.931 72.53C191.047 72.53 191.785 72.998 191.785 74.438V80ZM195.432 75.644C195.432 78.38 197.34 80.216 199.932 80.216C201.336 80.216 202.56 79.766 203.424 78.92L202.668 77.858C202.02 78.524 201.012 78.884 200.094 78.884C198.348 78.884 197.268 77.66 197.142 76.184H204.018V75.788C204.018 73.124 202.398 71.09 199.788 71.09C197.25 71.09 195.432 73.124 195.432 75.644ZM199.788 72.422C201.624 72.422 202.398 73.862 202.434 75.014H197.124C197.214 73.826 198.042 72.422 199.788 72.422ZM210.721 80H217.975V78.416H212.521V67.994H210.721V80ZM219.057 75.644C219.057 78.38 220.965 80.216 223.557 80.216C224.961 80.216 226.185 79.766 227.049 78.92L226.293 77.858C225.645 78.524 224.637 78.884 223.719 78.884C221.973 78.884 220.893 77.66 220.767 76.184H227.643V75.788C227.643 73.124 226.023 71.09 223.413 71.09C220.875 71.09 219.057 73.124 219.057 75.644ZM223.413 72.422C225.249 72.422 226.023 73.862 226.059 75.014H220.749C220.839 73.826 221.667 72.422 223.413 72.422ZM235.033 80H236.653V74.132C236.653 71.918 235.051 71.09 233.161 71.09C231.757 71.09 230.569 71.558 229.597 72.512L230.299 73.628C231.073 72.854 231.919 72.476 232.909 72.476C234.151 72.476 235.033 73.124 235.033 74.204V75.644C234.367 74.87 233.359 74.492 232.189 74.492C230.731 74.492 229.165 75.356 229.165 77.336C229.165 79.244 230.749 80.216 232.189 80.216C233.359 80.216 234.349 79.802 235.033 79.046V80ZM235.033 78.092C234.547 78.74 233.701 79.082 232.801 79.082C231.631 79.082 230.803 78.38 230.803 77.354C230.803 76.328 231.631 75.626 232.801 75.626C233.701 75.626 234.547 75.968 235.033 76.616V78.092ZM239.249 80H240.869V73.952C241.247 73.304 242.345 72.692 243.155 72.692C243.371 72.692 243.551 72.71 243.713 72.746V71.108C242.561 71.108 241.535 71.774 240.869 72.638V71.306H239.249V80ZM251.199 80H252.819V73.898C252.819 72.062 251.865 71.09 250.029 71.09C248.679 71.09 247.527 71.828 246.951 72.53V71.306H245.331V80H246.951V73.79C247.419 73.142 248.337 72.53 249.345 72.53C250.461 72.53 251.199 72.998 251.199 74.438V80ZM256.178 69.848C256.754 69.848 257.222 69.398 257.222 68.822C257.222 68.246 256.754 67.778 256.178 67.778C255.62 67.778 255.134 68.246 255.134 68.822C255.134 69.398 255.62 69.848 256.178 69.848ZM255.386 80H257.006V71.306H255.386V80ZM265.455 80H267.075V73.898C267.075 72.062 266.121 71.09 264.285 71.09C262.935 71.09 261.783 71.828 261.207 72.53V71.306H259.587V80H261.207V73.79C261.675 73.142 262.593 72.53 263.601 72.53C264.717 72.53 265.455 72.998 265.455 74.438V80ZM269.57 82.232C270.614 83.222 271.676 83.528 273.134 83.528C275.276 83.528 277.454 82.646 277.454 79.658V71.306H275.834V72.566C275.132 71.63 274.106 71.09 272.972 71.09C270.722 71.09 269.102 72.782 269.102 75.572C269.102 78.416 270.722 80.072 272.972 80.072C274.142 80.072 275.168 79.442 275.834 78.578V79.712C275.834 81.548 274.484 82.196 273.134 82.196C271.946 82.196 271.064 81.872 270.344 81.044L269.57 82.232ZM275.834 77.336C275.384 78.038 274.394 78.632 273.422 78.632C271.802 78.632 270.794 77.372 270.794 75.572C270.794 73.79 271.802 72.53 273.422 72.53C274.394 72.53 275.384 73.106 275.834 73.808V77.336ZM127.54 100.346H131.86V98.942H127.54V100.346ZM145.281 104H147.369L144.291 99.194C145.821 98.996 147.279 97.844 147.279 95.684C147.279 93.47 145.713 91.994 143.427 91.994H138.369V104H140.169V99.374H142.419L145.281 104ZM145.425 95.684C145.425 96.944 144.489 97.79 143.193 97.79H140.169V93.578H143.193C144.489 93.578 145.425 94.424 145.425 95.684ZM148.375 99.644C148.375 102.38 150.283 104.216 152.875 104.216C154.279 104.216 155.503 103.766 156.367 102.92L155.611 101.858C154.963 102.524 153.955 102.884 153.037 102.884C151.291 102.884 150.211 101.66 150.085 100.184H156.961V99.788C156.961 97.124 155.341 95.09 152.731 95.09C150.193 95.09 148.375 97.124 148.375 99.644ZM152.731 96.422C154.567 96.422 155.341 97.862 155.377 99.014H150.067C150.157 97.826 150.985 96.422 152.731 96.422ZM164.351 104H165.971V98.132C165.971 95.918 164.369 95.09 162.479 95.09C161.075 95.09 159.887 95.558 158.915 96.512L159.617 97.628C160.391 96.854 161.237 96.476 162.227 96.476C163.469 96.476 164.351 97.124 164.351 98.204V99.644C163.685 98.87 162.677 98.492 161.507 98.492C160.049 98.492 158.483 99.356 158.483 101.336C158.483 103.244 160.067 104.216 161.507 104.216C162.677 104.216 163.667 103.802 164.351 103.046V104ZM164.351 102.092C163.865 102.74 163.019 103.082 162.119 103.082C160.949 103.082 160.121 102.38 160.121 101.354C160.121 100.328 160.949 99.626 162.119 99.626C163.019 99.626 163.865 99.968 164.351 100.616V102.092ZM168.027 99.644C168.027 102.254 169.827 104.216 172.455 104.216C174.093 104.216 175.083 103.532 175.713 102.686L174.633 101.696C174.111 102.416 173.409 102.776 172.527 102.776C170.817 102.776 169.719 101.444 169.719 99.644C169.719 97.844 170.817 96.53 172.527 96.53C173.409 96.53 174.111 96.872 174.633 97.61L175.713 96.62C175.083 95.774 174.093 95.09 172.455 95.09C169.827 95.09 168.027 97.034 168.027 99.644ZM179.891 104.216C180.737 104.216 181.241 103.982 181.583 103.658L181.169 102.434C181.007 102.614 180.665 102.776 180.287 102.776C179.729 102.776 179.441 102.326 179.441 101.714V96.728H181.205V95.306H179.441V92.93H177.821V95.306H176.381V96.728H177.821V102.074C177.821 103.442 178.523 104.216 179.891 104.216ZM187.676 104H194.93V102.416H189.476V91.994H187.676V104ZM197.66 93.848C198.236 93.848 198.704 93.398 198.704 92.822C198.704 92.246 198.236 91.778 197.66 91.778C197.102 91.778 196.616 92.246 196.616 92.822C196.616 93.398 197.102 93.848 197.66 93.848ZM196.868 104H198.488V95.306H196.868V104ZM201.069 104H202.689V102.758C203.337 103.622 204.363 104.216 205.533 104.216C207.783 104.216 209.403 102.506 209.403 99.662C209.403 96.872 207.801 95.09 205.533 95.09C204.399 95.09 203.373 95.63 202.689 96.566V91.994H201.069V104ZM202.689 101.516V97.826C203.121 97.124 204.111 96.53 205.101 96.53C206.721 96.53 207.729 97.844 207.729 99.662C207.729 101.48 206.721 102.776 205.101 102.776C204.111 102.776 203.121 102.218 202.689 101.516ZM211.476 104H213.096V97.952C213.474 97.304 214.572 96.692 215.382 96.692C215.598 96.692 215.778 96.71 215.94 96.746V95.108C214.788 95.108 213.762 95.774 213.096 96.638V95.306H211.476V104ZM222.922 104H224.542V98.132C224.542 95.918 222.94 95.09 221.05 95.09C219.646 95.09 218.458 95.558 217.486 96.512L218.188 97.628C218.962 96.854 219.808 96.476 220.798 96.476C222.04 96.476 222.922 97.124 222.922 98.204V99.644C222.256 98.87 221.248 98.492 220.078 98.492C218.62 98.492 217.054 99.356 217.054 101.336C217.054 103.244 218.638 104.216 220.078 104.216C221.248 104.216 222.238 103.802 222.922 103.046V104ZM222.922 102.092C222.436 102.74 221.59 103.082 220.69 103.082C219.52 103.082 218.692 102.38 218.692 101.354C218.692 100.328 219.52 99.626 220.69 99.626C221.59 99.626 222.436 99.968 222.922 100.616V102.092ZM227.138 104H228.758V97.952C229.136 97.304 230.234 96.692 231.044 96.692C231.26 96.692 231.44 96.71 231.602 96.746V95.108C230.45 95.108 229.424 95.774 228.758 96.638V95.306H227.138V104ZM234.012 93.848C234.588 93.848 235.056 93.398 235.056 92.822C235.056 92.246 234.588 91.778 234.012 91.778C233.454 91.778 232.968 92.246 232.968 92.822C232.968 93.398 233.454 93.848 234.012 93.848ZM233.22 104H234.84V95.306H233.22V104ZM236.881 99.644C236.881 102.38 238.789 104.216 241.381 104.216C242.785 104.216 244.009 103.766 244.873 102.92L244.117 101.858C243.469 102.524 242.461 102.884 241.543 102.884C239.797 102.884 238.717 101.66 238.591 100.184H245.467V99.788C245.467 97.124 243.847 95.09 241.237 95.09C238.699 95.09 236.881 97.124 236.881 99.644ZM241.237 96.422C243.073 96.422 243.847 97.862 243.883 99.014H238.573C238.663 97.826 239.491 96.422 241.237 96.422ZM246.737 102.866C247.619 103.766 248.897 104.216 250.355 104.216C252.641 104.216 253.865 103.046 253.865 101.552C253.865 99.554 252.065 99.14 250.553 98.798C249.473 98.546 248.537 98.294 248.537 97.538C248.537 96.836 249.221 96.404 250.319 96.404C251.417 96.404 252.389 96.854 252.893 97.466L253.613 96.332C252.875 95.63 251.795 95.09 250.301 95.09C248.177 95.09 246.989 96.278 246.989 97.664C246.989 99.536 248.717 99.932 250.193 100.274C251.309 100.526 252.299 100.814 252.299 101.678C252.299 102.416 251.651 102.92 250.427 102.92C249.257 102.92 248.105 102.326 247.511 101.678L246.737 102.866ZM127.54 124.346H131.86V122.942H127.54V124.346ZM141.303 128H143.103V117.578H146.811V115.994H137.577V117.578H141.303V128ZM146.125 123.644C146.125 126.38 148.033 128.216 150.625 128.216C152.029 128.216 153.253 127.766 154.117 126.92L153.361 125.858C152.713 126.524 151.705 126.884 150.787 126.884C149.041 126.884 147.961 125.66 147.835 124.184H154.711V123.788C154.711 121.124 153.091 119.09 150.481 119.09C147.943 119.09 146.125 121.124 146.125 123.644ZM150.481 120.422C152.317 120.422 153.091 121.862 153.127 123.014H147.817C147.907 121.826 148.735 120.422 150.481 120.422ZM155.981 126.866C156.863 127.766 158.141 128.216 159.599 128.216C161.885 128.216 163.109 127.046 163.109 125.552C163.109 123.554 161.309 123.14 159.797 122.798C158.717 122.546 157.781 122.294 157.781 121.538C157.781 120.836 158.465 120.404 159.563 120.404C160.661 120.404 161.633 120.854 162.137 121.466L162.857 120.332C162.119 119.63 161.039 119.09 159.545 119.09C157.421 119.09 156.233 120.278 156.233 121.664C156.233 123.536 157.961 123.932 159.437 124.274C160.553 124.526 161.543 124.814 161.543 125.678C161.543 126.416 160.895 126.92 159.671 126.92C158.501 126.92 157.349 126.326 156.755 125.678L155.981 126.866ZM167.551 128.216C168.397 128.216 168.901 127.982 169.243 127.658L168.829 126.434C168.667 126.614 168.325 126.776 167.947 126.776C167.389 126.776 167.101 126.326 167.101 125.714V120.728H168.865V119.306H167.101V116.93H165.481V119.306H164.041V120.728H165.481V126.074C165.481 127.442 166.183 128.216 167.551 128.216ZM171.451 117.848C172.027 117.848 172.495 117.398 172.495 116.822C172.495 116.246 172.027 115.778 171.451 115.778C170.893 115.778 170.407 116.246 170.407 116.822C170.407 117.398 170.893 117.848 171.451 117.848ZM170.659 128H172.279V119.306H170.659V128ZM180.728 128H182.348V121.898C182.348 120.062 181.394 119.09 179.558 119.09C178.208 119.09 177.056 119.828 176.48 120.53V119.306H174.86V128H176.48V121.79C176.948 121.142 177.866 120.53 178.874 120.53C179.99 120.53 180.728 120.998 180.728 122.438V128ZM184.843 130.232C185.887 131.222 186.949 131.528 188.407 131.528C190.549 131.528 192.727 130.646 192.727 127.658V119.306H191.107V120.566C190.405 119.63 189.379 119.09 188.245 119.09C185.995 119.09 184.375 120.782 184.375 123.572C184.375 126.416 185.995 128.072 188.245 128.072C189.415 128.072 190.441 127.442 191.107 126.578V127.712C191.107 129.548 189.757 130.196 188.407 130.196C187.219 130.196 186.337 129.872 185.617 129.044L184.843 130.232ZM191.107 125.336C190.657 126.038 189.667 126.632 188.695 126.632C187.075 126.632 186.067 125.372 186.067 123.572C186.067 121.79 187.075 120.53 188.695 120.53C189.667 120.53 190.657 121.106 191.107 121.808V125.336ZM127.54 148.346H131.86V146.942H127.54V148.346ZM144.021 152.216C146.379 152.216 147.837 151.082 148.791 149.678L147.261 148.868C146.631 149.876 145.443 150.614 144.021 150.614C141.591 150.614 139.719 148.688 139.719 146.006C139.719 143.306 141.591 141.398 144.021 141.398C145.443 141.398 146.631 142.136 147.261 143.144L148.791 142.334C147.855 140.93 146.379 139.796 144.021 139.796C140.601 139.796 137.865 142.316 137.865 146.006C137.865 149.696 140.601 152.216 144.021 152.216ZM150.586 152H152.386V139.994H150.586V152ZM158.377 152.36H159.619L163.885 139.634H162.643L158.377 152.36ZM175.504 152.216C177.862 152.216 179.32 151.082 180.274 149.678L178.744 148.868C178.114 149.876 176.926 150.614 175.504 150.614C173.074 150.614 171.202 148.688 171.202 146.006C171.202 143.306 173.074 141.398 175.504 141.398C176.926 141.398 178.114 142.136 178.744 143.144L180.274 142.334C179.338 140.93 177.862 139.796 175.504 139.796C172.084 139.796 169.348 142.316 169.348 146.006C169.348 149.696 172.084 152.216 175.504 152.216ZM182.068 152H186.352C190.096 152 192.58 149.48 192.58 146.006C192.58 142.55 190.096 139.994 186.352 139.994H182.068V152ZM183.868 150.416V141.578H186.352C189.178 141.578 190.726 143.54 190.726 146.006C190.726 148.436 189.124 150.416 186.352 150.416H183.868ZM127.54 172.346H131.86V170.942H127.54V172.346ZM148.701 176H150.501V163.994H147.927L144.435 172.616L140.943 163.994H138.369V176H140.169V166.46L144.057 176H144.813L148.701 166.46V176ZM156.986 176.216C159.704 176.216 161.378 174.164 161.378 171.644C161.378 169.142 159.704 167.09 156.986 167.09C154.286 167.09 152.594 169.142 152.594 171.644C152.594 174.164 154.286 176.216 156.986 176.216ZM156.986 174.776C155.258 174.776 154.286 173.3 154.286 171.644C154.286 170.006 155.258 168.53 156.986 168.53C158.732 168.53 159.686 170.006 159.686 171.644C159.686 173.3 158.732 174.776 156.986 174.776ZM163.435 176H165.055V174.758C165.703 175.622 166.729 176.216 167.899 176.216C170.149 176.216 171.769 174.506 171.769 171.662C171.769 168.872 170.167 167.09 167.899 167.09C166.765 167.09 165.739 167.63 165.055 168.566V163.994H163.435V176ZM165.055 173.516V169.826C165.487 169.124 166.477 168.53 167.467 168.53C169.087 168.53 170.095 169.844 170.095 171.662C170.095 173.48 169.087 174.776 167.467 174.776C166.477 174.776 165.487 174.218 165.055 173.516ZM174.633 165.848C175.209 165.848 175.677 165.398 175.677 164.822C175.677 164.246 175.209 163.778 174.633 163.778C174.075 163.778 173.589 164.246 173.589 164.822C173.589 165.398 174.075 165.848 174.633 165.848ZM173.841 176H175.461V167.306H173.841V176ZM178.042 176H179.662V163.994H178.042V176ZM181.703 171.644C181.703 174.38 183.611 176.216 186.203 176.216C187.607 176.216 188.831 175.766 189.695 174.92L188.939 173.858C188.291 174.524 187.283 174.884 186.365 174.884C184.619 174.884 183.539 173.66 183.413 172.184H190.289V171.788C190.289 169.124 188.669 167.09 186.059 167.09C183.521 167.09 181.703 169.124 181.703 171.644ZM186.059 168.422C187.895 168.422 188.669 169.862 188.705 171.014H183.395C183.485 169.826 184.313 168.422 186.059 168.422ZM196.992 176H201.276C205.02 176 207.504 173.48 207.504 170.006C207.504 166.55 205.02 163.994 201.276 163.994H196.992V176ZM198.792 174.416V165.578H201.276C204.102 165.578 205.65 167.54 205.65 170.006C205.65 172.436 204.048 174.416 201.276 174.416H198.792ZM209.108 171.644C209.108 174.38 211.016 176.216 213.608 176.216C215.012 176.216 216.236 175.766 217.1 174.92L216.344 173.858C215.696 174.524 214.688 174.884 213.77 174.884C212.024 174.884 210.944 173.66 210.818 172.184H217.694V171.788C217.694 169.124 216.074 167.09 213.464 167.09C210.926 167.09 209.108 169.124 209.108 171.644ZM213.464 168.422C215.3 168.422 216.074 169.862 216.11 171.014H210.8C210.89 169.826 211.718 168.422 213.464 168.422ZM222.024 176H223.77L227.352 167.306H225.606L222.888 174.128L220.17 167.306H218.442L222.024 176ZM228.127 171.644C228.127 174.38 230.035 176.216 232.627 176.216C234.031 176.216 235.255 175.766 236.119 174.92L235.363 173.858C234.715 174.524 233.707 174.884 232.789 174.884C231.043 174.884 229.963 173.66 229.837 172.184H236.713V171.788C236.713 169.124 235.093 167.09 232.483 167.09C229.945 167.09 228.127 169.124 228.127 171.644ZM232.483 168.422C234.319 168.422 235.093 169.862 235.129 171.014H229.819C229.909 169.826 230.737 168.422 232.483 168.422ZM238.739 176H240.359V163.994H238.739V176ZM246.793 176.216C249.511 176.216 251.185 174.164 251.185 171.644C251.185 169.142 249.511 167.09 246.793 167.09C244.093 167.09 242.401 169.142 242.401 171.644C242.401 174.164 244.093 176.216 246.793 176.216ZM246.793 174.776C245.065 174.776 244.093 173.3 244.093 171.644C244.093 170.006 245.065 168.53 246.793 168.53C248.539 168.53 249.493 170.006 249.493 171.644C249.493 173.3 248.539 174.776 246.793 174.776ZM254.861 179.312V174.74C255.563 175.694 256.571 176.216 257.705 176.216C259.973 176.216 261.575 174.488 261.575 171.644C261.575 168.8 259.973 167.09 257.705 167.09C256.535 167.09 255.491 167.684 254.861 168.548V167.306H253.241V179.312H254.861ZM259.883 171.644C259.883 173.462 258.893 174.776 257.273 174.776C256.283 174.776 255.293 174.182 254.861 173.498V169.808C255.293 169.106 256.283 168.53 257.273 168.53C258.893 168.53 259.883 169.844 259.883 171.644ZM274.196 176H275.816V169.718C275.816 167.972 274.952 167.09 273.35 167.09C272.072 167.09 270.92 167.9 270.416 168.71C270.146 167.774 269.372 167.09 268.058 167.09C266.762 167.09 265.61 167.99 265.25 168.53V167.306H263.63V176H265.25V169.79C265.682 169.16 266.528 168.53 267.374 168.53C268.472 168.53 268.904 169.196 268.904 170.204V176H270.524V169.772C270.938 169.142 271.802 168.53 272.684 168.53C273.746 168.53 274.196 169.196 274.196 170.204V176ZM277.856 171.644C277.856 174.38 279.764 176.216 282.356 176.216C283.76 176.216 284.984 175.766 285.848 174.92L285.092 173.858C284.444 174.524 283.436 174.884 282.518 174.884C280.772 174.884 279.692 173.66 279.566 172.184H286.442V171.788C286.442 169.124 284.822 167.09 282.212 167.09C279.674 167.09 277.856 169.124 277.856 171.644ZM282.212 168.422C284.048 168.422 284.822 169.862 284.858 171.014H279.548C279.638 169.826 280.466 168.422 282.212 168.422ZM294.336 176H295.956V169.898C295.956 168.062 295.002 167.09 293.166 167.09C291.816 167.09 290.664 167.828 290.088 168.53V167.306H288.468V176H290.088V169.79C290.556 169.142 291.474 168.53 292.482 168.53C293.598 168.53 294.336 168.998 294.336 170.438V176ZM300.917 176.216C301.763 176.216 302.267 175.982 302.609 175.658L302.195 174.434C302.033 174.614 301.691 174.776 301.313 174.776C300.755 174.776 300.467 174.326 300.467 173.714V168.728H302.231V167.306H300.467V164.93H298.847V167.306H297.407V168.728H298.847V174.074C298.847 175.442 299.549 176.216 300.917 176.216ZM127.54 196.346H131.86V194.942H127.54V196.346ZM146.937 200H148.917L144.147 187.994H141.897L137.127 200H139.107L140.079 197.516H145.965L146.937 200ZM143.013 189.56L145.443 195.914H140.601L143.013 189.56ZM155.978 200H157.598V191.306H155.978V197.552C155.492 198.2 154.574 198.776 153.566 198.776C152.45 198.776 151.73 198.344 151.73 196.904V191.306H150.11V197.444C150.11 199.28 151.028 200.216 152.882 200.216C154.214 200.216 155.312 199.532 155.978 198.812V200ZM162.559 200.216C163.405 200.216 163.909 199.982 164.251 199.658L163.837 198.434C163.675 198.614 163.333 198.776 162.955 198.776C162.397 198.776 162.109 198.326 162.109 197.714V192.728H163.873V191.306H162.109V188.93H160.489V191.306H159.049V192.728H160.489V198.074C160.489 199.442 161.191 200.216 162.559 200.216ZM171.535 200H173.155V193.862C173.155 192.026 172.219 191.09 170.365 191.09C169.033 191.09 167.863 191.828 167.287 192.53V187.994H165.667V200H167.287V193.79C167.755 193.142 168.673 192.53 169.681 192.53C170.797 192.53 171.535 192.962 171.535 194.402V200ZM175.199 195.644C175.199 198.38 177.107 200.216 179.699 200.216C181.103 200.216 182.327 199.766 183.191 198.92L182.435 197.858C181.787 198.524 180.779 198.884 179.861 198.884C178.115 198.884 177.035 197.66 176.909 196.184H183.785V195.788C183.785 193.124 182.165 191.09 179.555 191.09C177.017 191.09 175.199 193.124 175.199 195.644ZM179.555 192.422C181.391 192.422 182.165 193.862 182.201 195.014H176.891C176.981 193.826 177.809 192.422 179.555 192.422ZM191.68 200H193.3V193.898C193.3 192.062 192.346 191.09 190.51 191.09C189.16 191.09 188.008 191.828 187.432 192.53V191.306H185.812V200H187.432V193.79C187.9 193.142 188.818 192.53 189.826 192.53C190.942 192.53 191.68 192.998 191.68 194.438V200ZM198.26 200.216C199.106 200.216 199.61 199.982 199.952 199.658L199.538 198.434C199.376 198.614 199.034 198.776 198.656 198.776C198.098 198.776 197.81 198.326 197.81 197.714V192.728H199.574V191.306H197.81V188.93H196.19V191.306H194.75V192.728H196.19V198.074C196.19 199.442 196.892 200.216 198.26 200.216ZM202.16 189.848C202.736 189.848 203.204 189.398 203.204 188.822C203.204 188.246 202.736 187.778 202.16 187.778C201.602 187.778 201.116 188.246 201.116 188.822C201.116 189.398 201.602 189.848 202.16 189.848ZM201.368 200H202.988V191.306H201.368V200ZM205.029 195.644C205.029 198.254 206.829 200.216 209.457 200.216C211.095 200.216 212.085 199.532 212.715 198.686L211.635 197.696C211.113 198.416 210.411 198.776 209.529 198.776C207.819 198.776 206.721 197.444 206.721 195.644C206.721 193.844 207.819 192.53 209.529 192.53C210.411 192.53 211.113 192.872 211.635 193.61L212.715 192.62C212.085 191.774 211.095 191.09 209.457 191.09C206.829 191.09 205.029 193.034 205.029 195.644ZM219.863 200H221.483V194.132C221.483 191.918 219.881 191.09 217.991 191.09C216.587 191.09 215.399 191.558 214.427 192.512L215.129 193.628C215.903 192.854 216.749 192.476 217.739 192.476C218.981 192.476 219.863 193.124 219.863 194.204V195.644C219.197 194.87 218.189 194.492 217.019 194.492C215.561 194.492 213.995 195.356 213.995 197.336C213.995 199.244 215.579 200.216 217.019 200.216C218.189 200.216 219.179 199.802 219.863 199.046V200ZM219.863 198.092C219.377 198.74 218.531 199.082 217.631 199.082C216.461 199.082 215.633 198.38 215.633 197.354C215.633 196.328 216.461 195.626 217.631 195.626C218.531 195.626 219.377 195.968 219.863 196.616V198.092ZM226.473 200.216C227.319 200.216 227.823 199.982 228.165 199.658L227.751 198.434C227.589 198.614 227.247 198.776 226.869 198.776C226.311 198.776 226.023 198.326 226.023 197.714V192.728H227.787V191.306H226.023V188.93H224.403V191.306H222.963V192.728H224.403V198.074C224.403 199.442 225.105 200.216 226.473 200.216ZM230.373 189.848C230.949 189.848 231.417 189.398 231.417 188.822C231.417 188.246 230.949 187.778 230.373 187.778C229.815 187.778 229.329 188.246 229.329 188.822C229.329 189.398 229.815 189.848 230.373 189.848ZM229.581 200H231.201V191.306H229.581V200ZM237.634 200.216C240.352 200.216 242.026 198.164 242.026 195.644C242.026 193.142 240.352 191.09 237.634 191.09C234.934 191.09 233.242 193.142 233.242 195.644C233.242 198.164 234.934 200.216 237.634 200.216ZM237.634 198.776C235.906 198.776 234.934 197.3 234.934 195.644C234.934 194.006 235.906 192.53 237.634 192.53C239.38 192.53 240.334 194.006 240.334 195.644C240.334 197.3 239.38 198.776 237.634 198.776ZM249.951 200H251.571V193.898C251.571 192.062 250.617 191.09 248.781 191.09C247.431 191.09 246.279 191.828 245.703 192.53V191.306H244.083V200H245.703V193.79C246.171 193.142 247.089 192.53 248.097 192.53C249.213 192.53 249.951 192.998 249.951 194.438V200ZM127.54 220.346H131.86V218.942H127.54V220.346ZM144.021 224.216C146.379 224.216 147.837 223.082 148.791 221.678L147.261 220.868C146.631 221.876 145.443 222.614 144.021 222.614C141.591 222.614 139.719 220.688 139.719 218.006C139.719 215.306 141.591 213.398 144.021 213.398C145.443 213.398 146.631 214.136 147.261 215.144L148.791 214.334C147.855 212.93 146.379 211.796 144.021 211.796C140.601 211.796 137.865 214.316 137.865 218.006C137.865 221.696 140.601 224.216 144.021 224.216ZM149.848 222.308C150.874 223.442 152.44 224.216 154.582 224.216C157.822 224.216 159.118 222.47 159.118 220.598C159.118 218.042 156.832 217.43 154.87 216.908C153.376 216.53 152.08 216.188 152.08 215.108C152.08 214.1 152.998 213.416 154.33 213.416C155.626 213.416 156.886 213.848 157.804 214.82L158.848 213.488C157.786 212.408 156.328 211.814 154.474 211.814C151.972 211.814 150.226 213.254 150.226 215.234C150.226 217.682 152.458 218.24 154.384 218.744C155.914 219.14 157.282 219.5 157.282 220.76C157.282 221.624 156.598 222.614 154.654 222.614C152.98 222.614 151.684 221.822 150.874 220.922L149.848 222.308ZM160.465 222.308C161.491 223.442 163.057 224.216 165.199 224.216C168.439 224.216 169.735 222.47 169.735 220.598C169.735 218.042 167.449 217.43 165.487 216.908C163.993 216.53 162.697 216.188 162.697 215.108C162.697 214.1 163.615 213.416 164.947 213.416C166.243 213.416 167.503 213.848 168.421 214.82L169.465 213.488C168.403 212.408 166.945 211.814 165.091 211.814C162.589 211.814 160.843 213.254 160.843 215.234C160.843 217.682 163.075 218.24 165.001 218.744C166.531 219.14 167.899 219.5 167.899 220.76C167.899 221.624 167.215 222.614 165.271 222.614C163.597 222.614 162.301 221.822 161.491 220.922L160.465 222.308ZM127.54 244.346H131.86V242.942H127.54V244.346ZM137.865 242.006C137.865 245.75 140.655 248.234 144.093 248.234C146.127 248.234 147.783 247.388 148.935 246.11V241.7H143.283V243.284H147.135V245.444C146.559 245.984 145.425 246.632 144.093 246.632C141.591 246.632 139.719 244.688 139.719 242.006C139.719 239.306 141.591 237.398 144.093 237.398C145.497 237.398 146.703 238.1 147.387 239.018L148.845 238.172C147.837 236.822 146.343 235.796 144.093 235.796C140.655 235.796 137.865 238.262 137.865 242.006ZM151.236 248H153.036V235.994H151.236V248ZM158.653 248H160.453V237.578H164.161V235.994H154.927V237.578H158.653V248ZM176.006 248H177.626V242.132C177.626 239.918 176.024 239.09 174.134 239.09C172.73 239.09 171.542 239.558 170.57 240.512L171.272 241.628C172.046 240.854 172.892 240.476 173.882 240.476C175.124 240.476 176.006 241.124 176.006 242.204V243.644C175.34 242.87 174.332 242.492 173.162 242.492C171.704 242.492 170.138 243.356 170.138 245.336C170.138 247.244 171.722 248.216 173.162 248.216C174.332 248.216 175.322 247.802 176.006 247.046V248ZM176.006 246.092C175.52 246.74 174.674 247.082 173.774 247.082C172.604 247.082 171.776 246.38 171.776 245.354C171.776 244.328 172.604 243.626 173.774 243.626C174.674 243.626 175.52 243.968 176.006 244.616V246.092ZM186.09 248H187.71V241.898C187.71 240.062 186.756 239.09 184.92 239.09C183.57 239.09 182.418 239.828 181.842 240.53V239.306H180.222V248H181.842V241.79C182.31 241.142 183.228 240.53 184.236 240.53C185.352 240.53 186.09 240.998 186.09 242.438V248ZM196.468 248H198.088V235.994H196.468V240.566C195.766 239.63 194.74 239.09 193.624 239.09C191.356 239.09 189.736 240.872 189.736 243.662C189.736 246.506 191.356 248.216 193.624 248.216C194.776 248.216 195.82 247.622 196.468 246.758V248ZM196.468 245.516C196.018 246.218 195.046 246.776 194.056 246.776C192.436 246.776 191.428 245.462 191.428 243.662C191.428 241.844 192.436 240.53 194.056 240.53C195.046 240.53 196.018 241.106 196.468 241.808V245.516ZM205.359 248H209.643C213.387 248 215.871 245.48 215.871 242.006C215.871 238.55 213.387 235.994 209.643 235.994H205.359V248ZM207.159 246.416V237.578H209.643C212.469 237.578 214.017 239.54 214.017 242.006C214.017 244.436 212.415 246.416 209.643 246.416H207.159ZM217.475 243.644C217.475 246.38 219.383 248.216 221.975 248.216C223.379 248.216 224.603 247.766 225.467 246.92L224.711 245.858C224.063 246.524 223.055 246.884 222.137 246.884C220.391 246.884 219.311 245.66 219.185 244.184H226.061V243.788C226.061 241.124 224.441 239.09 221.831 239.09C219.293 239.09 217.475 241.124 217.475 243.644ZM221.831 240.422C223.667 240.422 224.441 241.862 224.477 243.014H219.167C219.257 241.826 220.085 240.422 221.831 240.422ZM228.087 248H229.707V246.758C230.355 247.622 231.381 248.216 232.551 248.216C234.801 248.216 236.421 246.506 236.421 243.662C236.421 240.872 234.819 239.09 232.551 239.09C231.417 239.09 230.391 239.63 229.707 240.566V235.994H228.087V248ZM229.707 245.516V241.826C230.139 241.124 231.129 240.53 232.119 240.53C233.739 240.53 234.747 241.844 234.747 243.662C234.747 245.48 233.739 246.776 232.119 246.776C231.129 246.776 230.139 246.218 229.707 245.516ZM244.361 248H245.981V239.306H244.361V245.552C243.875 246.2 242.957 246.776 241.949 246.776C240.833 246.776 240.113 246.344 240.113 244.904V239.306H238.493V245.444C238.493 247.28 239.411 248.216 241.265 248.216C242.597 248.216 243.695 247.532 244.361 246.812V248ZM248.476 250.232C249.52 251.222 250.582 251.528 252.04 251.528C254.182 251.528 256.36 250.646 256.36 247.658V239.306H254.74V240.566C254.038 239.63 253.012 239.09 251.878 239.09C249.628 239.09 248.008 240.782 248.008 243.572C248.008 246.416 249.628 248.072 251.878 248.072C253.048 248.072 254.074 247.442 254.74 246.578V247.712C254.74 249.548 253.39 250.196 252.04 250.196C250.852 250.196 249.97 249.872 249.25 249.044L248.476 250.232ZM254.74 245.336C254.29 246.038 253.3 246.632 252.328 246.632C250.708 246.632 249.7 245.372 249.7 243.572C249.7 241.79 250.708 240.53 252.328 240.53C253.3 240.53 254.29 241.106 254.74 241.808V245.336ZM258.865 250.232C259.909 251.222 260.971 251.528 262.429 251.528C264.571 251.528 266.749 250.646 266.749 247.658V239.306H265.129V240.566C264.427 239.63 263.401 239.09 262.267 239.09C260.017 239.09 258.397 240.782 258.397 243.572C258.397 246.416 260.017 248.072 262.267 248.072C263.437 248.072 264.463 247.442 265.129 246.578V247.712C265.129 249.548 263.779 250.196 262.429 250.196C261.241 250.196 260.359 249.872 259.639 249.044L258.865 250.232ZM265.129 245.336C264.679 246.038 263.689 246.632 262.717 246.632C261.097 246.632 260.089 245.372 260.089 243.572C260.089 241.79 261.097 240.53 262.717 240.53C263.689 240.53 264.679 241.106 265.129 241.808V245.336ZM270.117 237.848C270.693 237.848 271.161 237.398 271.161 236.822C271.161 236.246 270.693 235.778 270.117 235.778C269.559 235.778 269.073 236.246 269.073 236.822C269.073 237.398 269.559 237.848 270.117 237.848ZM269.325 248H270.945V239.306H269.325V248ZM279.394 248H281.014V241.898C281.014 240.062 280.06 239.09 278.224 239.09C276.874 239.09 275.722 239.828 275.146 240.53V239.306H273.526V248H275.146V241.79C275.614 241.142 276.532 240.53 277.54 240.53C278.656 240.53 279.394 240.998 279.394 242.438V248ZM283.509 250.232C284.553 251.222 285.615 251.528 287.073 251.528C289.215 251.528 291.393 250.646 291.393 247.658V239.306H289.773V240.566C289.071 239.63 288.045 239.09 286.911 239.09C284.661 239.09 283.041 240.782 283.041 243.572C283.041 246.416 284.661 248.072 286.911 248.072C288.081 248.072 289.107 247.442 289.773 246.578V247.712C289.773 249.548 288.423 250.196 287.073 250.196C285.885 250.196 285.003 249.872 284.283 249.044L283.509 250.232ZM289.773 245.336C289.323 246.038 288.333 246.632 287.361 246.632C285.741 246.632 284.733 245.372 284.733 243.572C284.733 241.79 285.741 240.53 287.361 240.53C288.333 240.53 289.323 241.106 289.773 241.808V245.336Z" fill="#FEFEFE"/>
<path d="M1.584 19H12.912V16.048H4.992V12.328H12.744V9.4H4.992V5.92H12.912V2.992H1.584V19ZM23.3282 19H26.3762V10.816C26.3762 8.56 25.1522 7.12 22.6082 7.12C20.7122 7.12 19.2962 8.032 18.5522 8.92V7.408H15.5042V19H18.5522V11.2C19.0562 10.504 19.9922 9.832 21.1922 9.832C22.4882 9.832 23.3282 10.384 23.3282 11.992V19ZM29.1626 21.976C30.6026 23.248 32.1626 23.704 34.1546 23.704C37.0106 23.704 40.4186 22.624 40.4186 18.208V7.408H37.3466V8.896C36.4106 7.72 35.1626 7.12 33.7706 7.12C30.8426 7.12 28.6586 9.232 28.6586 13.024C28.6586 16.888 30.8666 18.928 33.7706 18.928C35.1866 18.928 36.4346 18.256 37.3466 17.104V18.28C37.3466 20.56 35.6186 21.208 34.1546 21.208C32.6906 21.208 31.4666 20.8 30.5306 19.768L29.1626 21.976ZM37.3466 14.896C36.8426 15.64 35.7386 16.216 34.7306 16.216C33.0026 16.216 31.8026 15.016 31.8026 13.024C31.8026 11.032 33.0026 9.832 34.7306 9.832C35.7386 9.832 36.8426 10.384 37.3466 11.152V14.896ZM44.9537 5.704C45.9617 5.704 46.7777 4.888 46.7777 3.88C46.7777 2.872 45.9617 2.056 44.9537 2.056C43.9697 2.056 43.1297 2.872 43.1297 3.88C43.1297 4.888 43.9697 5.704 44.9537 5.704ZM43.4417 19H46.4897V7.408H43.4417V19ZM57.336 19H60.384V10.816C60.384 8.56 59.16 7.12 56.616 7.12C54.72 7.12 53.304 8.032 52.56 8.92V7.408H49.512V19H52.56V11.2C53.064 10.504 54 9.832 55.2 9.832C56.496 9.832 57.336 10.384 57.336 11.992V19ZM62.6664 13.192C62.6664 16.912 65.3304 19.288 68.8584 19.288C70.6584 19.288 72.4584 18.76 73.6344 17.68L72.2904 15.712C71.5464 16.432 70.2744 16.864 69.1944 16.864C67.2264 16.864 66.0504 15.64 65.8584 14.176H74.4744V13.504C74.4744 9.712 72.1224 7.12 68.6664 7.12C65.1384 7.12 62.6664 9.832 62.6664 13.192ZM68.6664 9.544C70.6824 9.544 71.4504 11.008 71.5224 12.112H65.8104C65.9544 10.96 66.7704 9.544 68.6664 9.544ZM75.9321 13.192C75.9321 16.912 78.5961 19.288 82.1241 19.288C83.9241 19.288 85.7241 18.76 86.9001 17.68L85.5561 15.712C84.8121 16.432 83.5401 16.864 82.4601 16.864C80.4921 16.864 79.3161 15.64 79.1241 14.176H87.7401V13.504C87.7401 9.712 85.3881 7.12 81.9321 7.12C78.4041 7.12 75.9321 9.832 75.9321 13.192ZM81.9321 9.544C83.9481 9.544 84.7161 11.008 84.7881 12.112H79.0761C79.2201 10.96 80.0361 9.544 81.9321 9.544ZM89.9417 19H92.9897V11.344C93.4937 10.6 94.8377 10.048 95.8457 10.048C96.1817 10.048 96.4697 10.072 96.6857 10.12V7.144C95.2457 7.144 93.8057 7.96 92.9897 8.992V7.408H89.9417V19ZM97.5821 17.488C98.8061 18.616 100.75 19.288 102.766 19.288C105.982 19.288 107.782 17.704 107.782 15.568C107.782 12.688 105.118 12.16 103.126 11.776C101.83 11.512 100.918 11.248 100.918 10.528C100.918 9.856 101.638 9.448 102.742 9.448C104.158 9.448 105.478 10.048 106.174 10.792L107.374 8.704C106.246 7.792 104.686 7.12 102.718 7.12C99.6701 7.12 97.9661 8.824 97.9661 10.768C97.9661 13.528 100.534 14.008 102.526 14.392C103.846 14.656 104.854 14.944 104.854 15.76C104.854 16.48 104.23 16.936 102.91 16.936C101.47 16.936 99.7421 16.144 98.9021 15.352L97.5821 17.488Z" fill="#F25187"/>
<g clip-path="url(#clip1)">
<path d="M42.6762 39.1875L32.0734 108.445L31.9409 109.312H42.9413L53.5441 40.055L53.8091 39.1875H42.6762ZM26.772 49.7424L23.9888 51.7666L2.51816 66.37L0 68.105V80.5396L2.51816 82.13L23.9888 96.7334L26.772 98.7576V84.8772L11.2655 74.3223L26.772 63.7674C26.772 63.6228 26.772 49.7424 26.772 49.7424ZM58.978 49.7424V63.6228L74.4845 74.1777L58.978 84.7326V98.613L61.7612 96.5888L83.2318 81.9854L85.75 80.395V68.105L83.2318 66.5146L61.7612 51.7666L58.978 49.7424Z" fill="#F25187"/>
</g>
</g>
<defs>
<clipPath id="clip0">
<rect width="450" height="250" fill="white"/>
</clipPath>
<clipPath id="clip1">
<rect width="85.75" height="70.125" fill="white" transform="translate(0 39.1875)"/>
</clipPath>
</defs>
</svg>
