<svg width="450" height="250" viewBox="0 0 450 250" fill="none" xmlns="http://www.w3.org/2000/svg">
<g clip-path="url(#clip0)">
<path d="M111.902 56.346H116.222V54.942H111.902V56.346ZM124.729 60H126.529V47.994H124.945L121.723 51.288L122.785 52.386L124.729 50.352V60ZM128.876 52.314C128.876 52.908 129.38 53.43 129.992 53.43C130.604 53.43 131.126 52.908 131.126 52.314C131.126 51.702 130.604 51.18 129.992 51.18C129.38 51.18 128.876 51.702 128.876 52.314ZM128.876 59.064C128.876 59.676 129.38 60.198 129.992 60.198C130.604 60.198 131.126 59.676 131.126 59.064C131.126 58.452 130.604 57.948 129.992 57.948C129.38 57.948 128.876 58.452 128.876 59.064ZM135.487 60H137.287V47.994H135.703L132.481 51.288L133.543 52.386L135.487 50.352V60ZM154.93 60H156.73V47.994H154.156L150.664 56.616L147.172 47.994H144.598V60H146.398V50.46L150.286 60H151.042L154.93 50.46V60ZM158.823 55.644C158.823 58.38 160.731 60.216 163.323 60.216C164.727 60.216 165.951 59.766 166.815 58.92L166.059 57.858C165.411 58.524 164.403 58.884 163.485 58.884C161.739 58.884 160.659 57.66 160.533 56.184H167.409V55.788C167.409 53.124 165.789 51.09 163.179 51.09C160.641 51.09 158.823 53.124 158.823 55.644ZM163.179 52.422C165.015 52.422 165.789 53.862 165.825 55.014H160.515C160.605 53.826 161.433 52.422 163.179 52.422ZM175.303 60H176.923V53.898C176.923 52.062 175.969 51.09 174.133 51.09C172.783 51.09 171.631 51.828 171.055 52.53V51.306H169.435V60H171.055V53.79C171.523 53.142 172.441 52.53 173.449 52.53C174.565 52.53 175.303 52.998 175.303 54.438V60ZM181.884 60.216C182.73 60.216 183.234 59.982 183.576 59.658L183.162 58.434C183 58.614 182.658 58.776 182.28 58.776C181.722 58.776 181.434 58.326 181.434 57.714V52.728H183.198V51.306H181.434V48.93H179.814V51.306H178.374V52.728H179.814V58.074C179.814 59.442 180.516 60.216 181.884 60.216ZM188.844 60.216C191.562 60.216 193.236 58.164 193.236 55.644C193.236 53.142 191.562 51.09 188.844 51.09C186.144 51.09 184.452 53.142 184.452 55.644C184.452 58.164 186.144 60.216 188.844 60.216ZM188.844 58.776C187.116 58.776 186.144 57.3 186.144 55.644C186.144 54.006 187.116 52.53 188.844 52.53C190.59 52.53 191.544 54.006 191.544 55.644C191.544 57.3 190.59 58.776 188.844 58.776ZM195.292 60H196.912V53.952C197.29 53.304 198.388 52.692 199.198 52.692C199.414 52.692 199.594 52.71 199.756 52.746V51.108C198.604 51.108 197.578 51.774 196.912 52.638V51.306H195.292V60ZM202.166 49.848C202.742 49.848 203.21 49.398 203.21 48.822C203.21 48.246 202.742 47.778 202.166 47.778C201.608 47.778 201.122 48.246 201.122 48.822C201.122 49.398 201.608 49.848 202.166 49.848ZM201.374 60H202.994V51.306H201.374V60ZM211.444 60H213.064V53.898C213.064 52.062 212.11 51.09 210.274 51.09C208.924 51.09 207.772 51.828 207.196 52.53V51.306H205.576V60H207.196V53.79C207.664 53.142 208.582 52.53 209.59 52.53C210.706 52.53 211.444 52.998 211.444 54.438V60ZM215.558 62.232C216.602 63.222 217.664 63.528 219.122 63.528C221.264 63.528 223.442 62.646 223.442 59.658V51.306H221.822V52.566C221.12 51.63 220.094 51.09 218.96 51.09C216.71 51.09 215.09 52.782 215.09 55.572C215.09 58.416 216.71 60.072 218.96 60.072C220.13 60.072 221.156 59.442 221.822 58.578V59.712C221.822 61.548 220.472 62.196 219.122 62.196C217.934 62.196 217.052 61.872 216.332 61.044L215.558 62.232ZM221.822 57.336C221.372 58.038 220.382 58.632 219.41 58.632C217.79 58.632 216.782 57.372 216.782 55.572C216.782 53.79 217.79 52.53 219.41 52.53C220.382 52.53 221.372 53.106 221.822 53.808V57.336ZM111.902 80.346H116.222V78.942H111.902V80.346ZM122.227 78.006C122.227 81.75 125.017 84.234 128.455 84.234C130.489 84.234 132.145 83.388 133.297 82.11V77.7H127.645V79.284H131.497V81.444C130.921 81.984 129.787 82.632 128.455 82.632C125.953 82.632 124.081 80.688 124.081 78.006C124.081 75.306 125.953 73.398 128.455 73.398C129.859 73.398 131.065 74.1 131.749 75.018L133.207 74.172C132.199 72.822 130.705 71.796 128.455 71.796C125.017 71.796 122.227 74.262 122.227 78.006ZM135.562 84H137.182V77.952C137.56 77.304 138.658 76.692 139.468 76.692C139.684 76.692 139.864 76.71 140.026 76.746V75.108C138.874 75.108 137.848 75.774 137.182 76.638V75.306H135.562V84ZM145.496 84.216C148.214 84.216 149.888 82.164 149.888 79.644C149.888 77.142 148.214 75.09 145.496 75.09C142.796 75.09 141.104 77.142 141.104 79.644C141.104 82.164 142.796 84.216 145.496 84.216ZM145.496 82.776C143.768 82.776 142.796 81.3 142.796 79.644C142.796 78.006 143.768 76.53 145.496 76.53C147.242 76.53 148.196 78.006 148.196 79.644C148.196 81.3 147.242 82.776 145.496 82.776ZM157.813 84H159.433V75.306H157.813V81.552C157.327 82.2 156.409 82.776 155.401 82.776C154.285 82.776 153.565 82.344 153.565 80.904V75.306H151.945V81.444C151.945 83.28 152.863 84.216 154.717 84.216C156.049 84.216 157.147 83.532 157.813 82.812V84ZM163.619 87.312V82.74C164.321 83.694 165.329 84.216 166.463 84.216C168.731 84.216 170.333 82.488 170.333 79.644C170.333 76.8 168.731 75.09 166.463 75.09C165.293 75.09 164.249 75.684 163.619 76.548V75.306H161.999V87.312H163.619ZM168.641 79.644C168.641 81.462 167.651 82.776 166.031 82.776C165.041 82.776 164.051 82.182 163.619 81.498V77.808C164.051 77.106 165.041 76.53 166.031 76.53C167.651 76.53 168.641 77.844 168.641 79.644ZM177.065 84H178.865V79.374H182.123C184.571 79.374 185.957 77.682 185.957 75.684C185.957 73.686 184.589 71.994 182.123 71.994H177.065V84ZM184.103 75.684C184.103 76.944 183.185 77.79 181.889 77.79H178.865V73.578H181.889C183.185 73.578 184.103 74.424 184.103 75.684ZM187.769 84H189.389V77.952C189.767 77.304 190.865 76.692 191.675 76.692C191.891 76.692 192.071 76.71 192.233 76.746V75.108C191.081 75.108 190.055 75.774 189.389 76.638V75.306H187.769V84ZM193.311 79.644C193.311 82.38 195.219 84.216 197.811 84.216C199.215 84.216 200.439 83.766 201.303 82.92L200.547 81.858C199.899 82.524 198.891 82.884 197.973 82.884C196.227 82.884 195.147 81.66 195.021 80.184H201.897V79.788C201.897 77.124 200.277 75.09 197.667 75.09C195.129 75.09 193.311 77.124 193.311 79.644ZM197.667 76.422C199.503 76.422 200.277 77.862 200.313 79.014H195.003C195.093 77.826 195.921 76.422 197.667 76.422ZM203.167 82.866C204.049 83.766 205.327 84.216 206.785 84.216C209.071 84.216 210.295 83.046 210.295 81.552C210.295 79.554 208.495 79.14 206.983 78.798C205.903 78.546 204.967 78.294 204.967 77.538C204.967 76.836 205.651 76.404 206.749 76.404C207.847 76.404 208.819 76.854 209.323 77.466L210.043 76.332C209.305 75.63 208.225 75.09 206.731 75.09C204.607 75.09 203.419 76.278 203.419 77.664C203.419 79.536 205.147 79.932 206.623 80.274C207.739 80.526 208.729 80.814 208.729 81.678C208.729 82.416 208.081 82.92 206.857 82.92C205.687 82.92 204.535 82.326 203.941 81.678L203.167 82.866ZM211.803 79.644C211.803 82.38 213.711 84.216 216.303 84.216C217.707 84.216 218.931 83.766 219.795 82.92L219.039 81.858C218.391 82.524 217.383 82.884 216.465 82.884C214.719 82.884 213.639 81.66 213.513 80.184H220.389V79.788C220.389 77.124 218.769 75.09 216.159 75.09C213.621 75.09 211.803 77.124 211.803 79.644ZM216.159 76.422C217.995 76.422 218.769 77.862 218.805 79.014H213.495C213.585 77.826 214.413 76.422 216.159 76.422ZM228.284 84H229.904V77.898C229.904 76.062 228.95 75.09 227.114 75.09C225.764 75.09 224.612 75.828 224.036 76.53V75.306H222.416V84H224.036V77.79C224.504 77.142 225.422 76.53 226.43 76.53C227.546 76.53 228.284 76.998 228.284 78.438V84ZM234.864 84.216C235.71 84.216 236.214 83.982 236.556 83.658L236.142 82.434C235.98 82.614 235.638 82.776 235.26 82.776C234.702 82.776 234.414 82.326 234.414 81.714V76.728H236.178V75.306H234.414V72.93H232.794V75.306H231.354V76.728H232.794V82.074C232.794 83.442 233.496 84.216 234.864 84.216ZM243.336 84H244.956V78.132C244.956 75.918 243.354 75.09 241.464 75.09C240.06 75.09 238.872 75.558 237.9 76.512L238.602 77.628C239.376 76.854 240.222 76.476 241.212 76.476C242.454 76.476 243.336 77.124 243.336 78.204V79.644C242.67 78.87 241.662 78.492 240.492 78.492C239.034 78.492 237.468 79.356 237.468 81.336C237.468 83.244 239.052 84.216 240.492 84.216C241.662 84.216 242.652 83.802 243.336 83.046V84ZM243.336 82.092C242.85 82.74 242.004 83.082 241.104 83.082C239.934 83.082 239.106 82.38 239.106 81.354C239.106 80.328 239.934 79.626 241.104 79.626C242.004 79.626 242.85 79.968 243.336 80.616V82.092ZM249.946 84.216C250.792 84.216 251.296 83.982 251.638 83.658L251.224 82.434C251.062 82.614 250.72 82.776 250.342 82.776C249.784 82.776 249.496 82.326 249.496 81.714V76.728H251.26V75.306H249.496V72.93H247.876V75.306H246.436V76.728H247.876V82.074C247.876 83.442 248.578 84.216 249.946 84.216ZM253.846 73.848C254.422 73.848 254.89 73.398 254.89 72.822C254.89 72.246 254.422 71.778 253.846 71.778C253.288 71.778 252.802 72.246 252.802 72.822C252.802 73.398 253.288 73.848 253.846 73.848ZM253.054 84H254.674V75.306H253.054V84ZM261.107 84.216C263.825 84.216 265.499 82.164 265.499 79.644C265.499 77.142 263.825 75.09 261.107 75.09C258.407 75.09 256.715 77.142 256.715 79.644C256.715 82.164 258.407 84.216 261.107 84.216ZM261.107 82.776C259.379 82.776 258.407 81.3 258.407 79.644C258.407 78.006 259.379 76.53 261.107 76.53C262.853 76.53 263.807 78.006 263.807 79.644C263.807 81.3 262.853 82.776 261.107 82.776ZM273.424 84H275.044V77.898C275.044 76.062 274.09 75.09 272.254 75.09C270.904 75.09 269.752 75.828 269.176 76.53V75.306H267.556V84H269.176V77.79C269.644 77.142 270.562 76.53 271.57 76.53C272.686 76.53 273.424 76.998 273.424 78.438V84ZM276.855 82.866C277.737 83.766 279.015 84.216 280.473 84.216C282.759 84.216 283.983 83.046 283.983 81.552C283.983 79.554 282.183 79.14 280.671 78.798C279.591 78.546 278.655 78.294 278.655 77.538C278.655 76.836 279.339 76.404 280.437 76.404C281.535 76.404 282.507 76.854 283.011 77.466L283.731 76.332C282.993 75.63 281.913 75.09 280.419 75.09C278.295 75.09 277.107 76.278 277.107 77.664C277.107 79.536 278.835 79.932 280.311 80.274C281.427 80.526 282.417 80.814 282.417 81.678C282.417 82.416 281.769 82.92 280.545 82.92C279.375 82.92 278.223 82.326 277.629 81.678L276.855 82.866ZM111.902 104.346H116.222V102.942H111.902V104.346ZM121.993 106.308C123.019 107.442 124.585 108.216 126.727 108.216C129.967 108.216 131.263 106.47 131.263 104.598C131.263 102.042 128.977 101.43 127.015 100.908C125.521 100.53 124.225 100.188 124.225 99.108C124.225 98.1 125.143 97.416 126.475 97.416C127.771 97.416 129.031 97.848 129.949 98.82L130.993 97.488C129.931 96.408 128.473 95.814 126.619 95.814C124.117 95.814 122.371 97.254 122.371 99.234C122.371 101.682 124.603 102.24 126.529 102.744C128.059 103.14 129.427 103.5 129.427 104.76C129.427 105.624 128.743 106.614 126.799 106.614C125.125 106.614 123.829 105.822 123.019 104.922L121.993 106.308ZM134.932 111.312V106.74C135.634 107.694 136.642 108.216 137.776 108.216C140.044 108.216 141.646 106.488 141.646 103.644C141.646 100.8 140.044 99.09 137.776 99.09C136.606 99.09 135.562 99.684 134.932 100.548V99.306H133.312V111.312H134.932ZM139.954 103.644C139.954 105.462 138.964 106.776 137.344 106.776C136.354 106.776 135.364 106.182 134.932 105.498V101.808C135.364 101.106 136.354 100.53 137.344 100.53C138.964 100.53 139.954 101.844 139.954 103.644ZM143.701 108H145.321V101.952C145.699 101.304 146.797 100.692 147.607 100.692C147.823 100.692 148.003 100.71 148.165 100.746V99.108C147.013 99.108 145.987 99.774 145.321 100.638V99.306H143.701V108ZM150.575 97.848C151.151 97.848 151.619 97.398 151.619 96.822C151.619 96.246 151.151 95.778 150.575 95.778C150.017 95.778 149.531 96.246 149.531 96.822C149.531 97.398 150.017 97.848 150.575 97.848ZM149.783 108H151.403V99.306H149.783V108ZM159.852 108H161.472V101.898C161.472 100.062 160.518 99.09 158.682 99.09C157.332 99.09 156.18 99.828 155.604 100.53V99.306H153.984V108H155.604V101.79C156.072 101.142 156.99 100.53 157.998 100.53C159.114 100.53 159.852 100.998 159.852 102.438V108ZM166.433 108.216C167.279 108.216 167.783 107.982 168.125 107.658L167.711 106.434C167.549 106.614 167.207 106.776 166.829 106.776C166.271 106.776 165.983 106.326 165.983 105.714V100.728H167.747V99.306H165.983V96.93H164.363V99.306H162.923V100.728H164.363V106.074C164.363 107.442 165.065 108.216 166.433 108.216ZM174.217 108H176.017V103.374H179.275C181.723 103.374 183.109 101.682 183.109 99.684C183.109 97.686 181.741 95.994 179.275 95.994H174.217V108ZM181.255 99.684C181.255 100.944 180.337 101.79 179.041 101.79H176.017V97.578H179.041C180.337 97.578 181.255 98.424 181.255 99.684ZM184.921 108H186.541V95.994H184.921V108ZM194.487 108H196.107V102.132C196.107 99.918 194.505 99.09 192.615 99.09C191.211 99.09 190.023 99.558 189.051 100.512L189.753 101.628C190.527 100.854 191.373 100.476 192.363 100.476C193.605 100.476 194.487 101.124 194.487 102.204V103.644C193.821 102.87 192.813 102.492 191.643 102.492C190.185 102.492 188.619 103.356 188.619 105.336C188.619 107.244 190.203 108.216 191.643 108.216C192.813 108.216 193.803 107.802 194.487 107.046V108ZM194.487 106.092C194.001 106.74 193.155 107.082 192.255 107.082C191.085 107.082 190.257 106.38 190.257 105.354C190.257 104.328 191.085 103.626 192.255 103.626C193.155 103.626 194.001 103.968 194.487 104.616V106.092ZM204.571 108H206.191V101.898C206.191 100.062 205.237 99.09 203.401 99.09C202.051 99.09 200.899 99.828 200.323 100.53V99.306H198.703V108H200.323V101.79C200.791 101.142 201.709 100.53 202.717 100.53C203.833 100.53 204.571 100.998 204.571 102.438V108ZM214.625 108H216.245V101.898C216.245 100.062 215.291 99.09 213.455 99.09C212.105 99.09 210.953 99.828 210.377 100.53V99.306H208.757V108H210.377V101.79C210.845 101.142 211.763 100.53 212.771 100.53C213.887 100.53 214.625 100.998 214.625 102.438V108ZM219.604 97.848C220.18 97.848 220.648 97.398 220.648 96.822C220.648 96.246 220.18 95.778 219.604 95.778C219.046 95.778 218.56 96.246 218.56 96.822C218.56 97.398 219.046 97.848 219.604 97.848ZM218.812 108H220.432V99.306H218.812V108ZM228.881 108H230.501V101.898C230.501 100.062 229.547 99.09 227.711 99.09C226.361 99.09 225.209 99.828 224.633 100.53V99.306H223.013V108H224.633V101.79C225.101 101.142 226.019 100.53 227.027 100.53C228.143 100.53 228.881 100.998 228.881 102.438V108ZM232.996 110.232C234.04 111.222 235.102 111.528 236.56 111.528C238.702 111.528 240.88 110.646 240.88 107.658V99.306H239.26V100.566C238.558 99.63 237.532 99.09 236.398 99.09C234.148 99.09 232.528 100.782 232.528 103.572C232.528 106.416 234.148 108.072 236.398 108.072C237.568 108.072 238.594 107.442 239.26 106.578V107.712C239.26 109.548 237.91 110.196 236.56 110.196C235.372 110.196 234.49 109.872 233.77 109.044L232.996 110.232ZM239.26 105.336C238.81 106.038 237.82 106.632 236.848 106.632C235.228 106.632 234.22 105.372 234.22 103.572C234.22 101.79 235.228 100.53 236.848 100.53C237.82 100.53 238.81 101.106 239.26 101.808V105.336ZM111.902 128.346H116.222V126.942H111.902V128.346ZM122.731 132H127.015C130.759 132 133.243 129.48 133.243 126.006C133.243 122.55 130.759 119.994 127.015 119.994H122.731V132ZM124.531 130.416V121.578H127.015C129.841 121.578 131.389 123.54 131.389 126.006C131.389 128.436 129.787 130.416 127.015 130.416H124.531ZM134.846 127.644C134.846 130.38 136.754 132.216 139.346 132.216C140.75 132.216 141.974 131.766 142.838 130.92L142.082 129.858C141.434 130.524 140.426 130.884 139.508 130.884C137.762 130.884 136.682 129.66 136.556 128.184H143.432V127.788C143.432 125.124 141.812 123.09 139.202 123.09C136.664 123.09 134.846 125.124 134.846 127.644ZM139.202 124.422C141.038 124.422 141.812 125.862 141.848 127.014H136.538C136.628 125.826 137.456 124.422 139.202 124.422ZM144.702 130.866C145.584 131.766 146.862 132.216 148.32 132.216C150.606 132.216 151.83 131.046 151.83 129.552C151.83 127.554 150.03 127.14 148.518 126.798C147.438 126.546 146.502 126.294 146.502 125.538C146.502 124.836 147.186 124.404 148.284 124.404C149.382 124.404 150.354 124.854 150.858 125.466L151.578 124.332C150.84 123.63 149.76 123.09 148.266 123.09C146.142 123.09 144.954 124.278 144.954 125.664C144.954 127.536 146.682 127.932 148.158 128.274C149.274 128.526 150.264 128.814 150.264 129.678C150.264 130.416 149.616 130.92 148.392 130.92C147.222 130.92 146.07 130.326 145.476 129.678L144.702 130.866ZM154.67 121.848C155.246 121.848 155.714 121.398 155.714 120.822C155.714 120.246 155.246 119.778 154.67 119.778C154.112 119.778 153.626 120.246 153.626 120.822C153.626 121.398 154.112 121.848 154.67 121.848ZM153.878 132H155.498V123.306H153.878V132ZM158.008 134.232C159.052 135.222 160.114 135.528 161.572 135.528C163.714 135.528 165.892 134.646 165.892 131.658V123.306H164.272V124.566C163.57 123.63 162.544 123.09 161.41 123.09C159.16 123.09 157.54 124.782 157.54 127.572C157.54 130.416 159.16 132.072 161.41 132.072C162.58 132.072 163.606 131.442 164.272 130.578V131.712C164.272 133.548 162.922 134.196 161.572 134.196C160.384 134.196 159.502 133.872 158.782 133.044L158.008 134.232ZM164.272 129.336C163.822 130.038 162.832 130.632 161.86 130.632C160.24 130.632 159.232 129.372 159.232 127.572C159.232 125.79 160.24 124.53 161.86 124.53C162.832 124.53 163.822 125.106 164.272 125.808V129.336ZM174.336 132H175.956V125.898C175.956 124.062 175.002 123.09 173.166 123.09C171.816 123.09 170.664 123.828 170.088 124.53V123.306H168.468V132H170.088V125.79C170.556 125.142 171.474 124.53 172.482 124.53C173.598 124.53 174.336 124.998 174.336 126.438V132ZM190.112 132H192.2L189.122 127.194C190.652 126.996 192.11 125.844 192.11 123.684C192.11 121.47 190.544 119.994 188.258 119.994H183.2V132H185V127.374H187.25L190.112 132ZM190.256 123.684C190.256 124.944 189.32 125.79 188.024 125.79H185V121.578H188.024C189.32 121.578 190.256 122.424 190.256 123.684ZM193.206 127.644C193.206 130.38 195.114 132.216 197.706 132.216C199.11 132.216 200.334 131.766 201.198 130.92L200.442 129.858C199.794 130.524 198.786 130.884 197.868 130.884C196.122 130.884 195.042 129.66 194.916 128.184H201.792V127.788C201.792 125.124 200.172 123.09 197.562 123.09C195.024 123.09 193.206 125.124 193.206 127.644ZM197.562 124.422C199.398 124.422 200.172 125.862 200.208 127.014H194.898C194.988 125.826 195.816 124.422 197.562 124.422ZM206.122 132H207.868L211.45 123.306H209.704L206.986 130.128L204.268 123.306H202.54L206.122 132ZM213.557 121.848C214.133 121.848 214.601 121.398 214.601 120.822C214.601 120.246 214.133 119.778 213.557 119.778C212.999 119.778 212.513 120.246 212.513 120.822C212.513 121.398 212.999 121.848 213.557 121.848ZM212.765 132H214.385V123.306H212.765V132ZM216.426 127.644C216.426 130.38 218.334 132.216 220.926 132.216C222.33 132.216 223.554 131.766 224.418 130.92L223.662 129.858C223.014 130.524 222.006 130.884 221.088 130.884C219.342 130.884 218.262 129.66 218.136 128.184H225.012V127.788C225.012 125.124 223.392 123.09 220.782 123.09C218.244 123.09 216.426 125.124 216.426 127.644ZM220.782 124.422C222.618 124.422 223.392 125.862 223.428 127.014H218.118C218.208 125.826 219.036 124.422 220.782 124.422ZM234.581 132H236.255L238.991 123.306H237.299L235.319 129.93L233.141 123.306H231.737L229.559 129.93L227.579 123.306H225.887L228.623 132H230.297L232.439 125.322L234.581 132ZM111.902 152.346H116.222V150.942H111.902V152.346ZM122.731 156H129.985V154.416H124.531V143.994H122.731V156ZM132.715 145.848C133.291 145.848 133.759 145.398 133.759 144.822C133.759 144.246 133.291 143.778 132.715 143.778C132.157 143.778 131.671 144.246 131.671 144.822C131.671 145.398 132.157 145.848 132.715 145.848ZM131.923 156H133.543V147.306H131.923V156ZM136.052 158.232C137.096 159.222 138.158 159.528 139.616 159.528C141.758 159.528 143.936 158.646 143.936 155.658V147.306H142.316V148.566C141.614 147.63 140.588 147.09 139.454 147.09C137.204 147.09 135.584 148.782 135.584 151.572C135.584 154.416 137.204 156.072 139.454 156.072C140.624 156.072 141.65 155.442 142.316 154.578V155.712C142.316 157.548 140.966 158.196 139.616 158.196C138.428 158.196 137.546 157.872 136.826 157.044L136.052 158.232ZM142.316 153.336C141.866 154.038 140.876 154.632 139.904 154.632C138.284 154.632 137.276 153.372 137.276 151.572C137.276 149.79 138.284 148.53 139.904 148.53C140.876 148.53 141.866 149.106 142.316 149.808V153.336ZM152.381 156H154.001V149.862C154.001 148.026 153.065 147.09 151.211 147.09C149.879 147.09 148.709 147.828 148.133 148.53V143.994H146.513V156H148.133V149.79C148.601 149.142 149.519 148.53 150.527 148.53C151.643 148.53 152.381 148.962 152.381 150.402V156ZM158.979 156.216C159.825 156.216 160.329 155.982 160.671 155.658L160.257 154.434C160.095 154.614 159.753 154.776 159.375 154.776C158.817 154.776 158.529 154.326 158.529 153.714V148.728H160.293V147.306H158.529V144.93H156.909V147.306H155.469V148.728H156.909V154.074C156.909 155.442 157.611 156.216 158.979 156.216ZM161.547 151.644C161.547 154.38 163.455 156.216 166.047 156.216C167.451 156.216 168.675 155.766 169.539 154.92L168.783 153.858C168.135 154.524 167.127 154.884 166.209 154.884C164.463 154.884 163.383 153.66 163.257 152.184H170.133V151.788C170.133 149.124 168.513 147.09 165.903 147.09C163.365 147.09 161.547 149.124 161.547 151.644ZM165.903 148.422C167.739 148.422 168.513 149.862 168.549 151.014H163.239C163.329 149.826 164.157 148.422 165.903 148.422ZM178.028 156H179.648V149.898C179.648 148.062 178.694 147.09 176.858 147.09C175.508 147.09 174.356 147.828 173.78 148.53V147.306H172.16V156H173.78V149.79C174.248 149.142 175.166 148.53 176.174 148.53C177.29 148.53 178.028 148.998 178.028 150.438V156ZM183.006 145.848C183.582 145.848 184.05 145.398 184.05 144.822C184.05 144.246 183.582 143.778 183.006 143.778C182.448 143.778 181.962 144.246 181.962 144.822C181.962 145.398 182.448 145.848 183.006 145.848ZM182.214 156H183.834V147.306H182.214V156ZM192.284 156H193.904V149.898C193.904 148.062 192.95 147.09 191.114 147.09C189.764 147.09 188.612 147.828 188.036 148.53V147.306H186.416V156H188.036V149.79C188.504 149.142 189.422 148.53 190.43 148.53C191.546 148.53 192.284 148.998 192.284 150.438V156ZM196.398 158.232C197.442 159.222 198.504 159.528 199.962 159.528C202.104 159.528 204.282 158.646 204.282 155.658V147.306H202.662V148.566C201.96 147.63 200.934 147.09 199.8 147.09C197.55 147.09 195.93 148.782 195.93 151.572C195.93 154.416 197.55 156.072 199.8 156.072C200.97 156.072 201.996 155.442 202.662 154.578V155.712C202.662 157.548 201.312 158.196 199.962 158.196C198.774 158.196 197.892 157.872 197.172 157.044L196.398 158.232ZM202.662 153.336C202.212 154.038 201.222 154.632 200.25 154.632C198.63 154.632 197.622 153.372 197.622 151.572C197.622 149.79 198.63 148.53 200.25 148.53C201.222 148.53 202.212 149.106 202.662 149.808V153.336ZM213.893 156.216C214.739 156.216 215.243 155.982 215.585 155.658L215.171 154.434C215.009 154.614 214.667 154.776 214.289 154.776C213.731 154.776 213.443 154.326 213.443 153.714V148.728H215.207V147.306H213.443V144.93H211.823V147.306H210.383V148.728H211.823V154.074C211.823 155.442 212.525 156.216 213.893 156.216ZM222.365 156H223.985V150.132C223.985 147.918 222.383 147.09 220.493 147.09C219.089 147.09 217.901 147.558 216.929 148.512L217.631 149.628C218.405 148.854 219.251 148.476 220.241 148.476C221.483 148.476 222.365 149.124 222.365 150.204V151.644C221.699 150.87 220.691 150.492 219.521 150.492C218.063 150.492 216.497 151.356 216.497 153.336C216.497 155.244 218.081 156.216 219.521 156.216C220.691 156.216 221.681 155.802 222.365 155.046V156ZM222.365 154.092C221.879 154.74 221.033 155.082 220.133 155.082C218.963 155.082 218.135 154.38 218.135 153.354C218.135 152.328 218.963 151.626 220.133 151.626C221.033 151.626 221.879 151.968 222.365 152.616V154.092ZM226.582 156H228.202V143.994H226.582V156ZM236.615 156H238.667L234.887 151.248L238.631 147.306H236.597L232.403 151.716V143.994H230.783V156H232.403V153.588L233.717 152.256L236.615 156ZM246.881 159.582L247.871 158.826C246.701 156.576 246.017 154.542 246.017 151.626C246.017 148.71 246.701 146.676 247.871 144.408L246.881 143.67C245.225 145.83 244.253 148.728 244.253 151.626C244.253 154.524 245.225 157.44 246.881 159.582ZM249.522 156H251.322V151.374H254.58C257.028 151.374 258.414 149.682 258.414 147.684C258.414 145.686 257.046 143.994 254.58 143.994H249.522V156ZM256.56 147.684C256.56 148.944 255.642 149.79 254.346 149.79H251.322V145.578H254.346C255.642 145.578 256.56 146.424 256.56 147.684ZM260.226 156H261.846V149.952C262.224 149.304 263.322 148.692 264.132 148.692C264.348 148.692 264.528 148.71 264.69 148.746V147.108C263.538 147.108 262.512 147.774 261.846 148.638V147.306H260.226V156ZM265.768 151.644C265.768 154.38 267.676 156.216 270.268 156.216C271.672 156.216 272.896 155.766 273.76 154.92L273.004 153.858C272.356 154.524 271.348 154.884 270.43 154.884C268.684 154.884 267.604 153.66 267.478 152.184H274.354V151.788C274.354 149.124 272.734 147.09 270.124 147.09C267.586 147.09 265.768 149.124 265.768 151.644ZM270.124 148.422C271.96 148.422 272.734 149.862 272.77 151.014H267.46C267.55 149.826 268.378 148.422 270.124 148.422ZM275.624 154.866C276.506 155.766 277.784 156.216 279.242 156.216C281.528 156.216 282.752 155.046 282.752 153.552C282.752 151.554 280.952 151.14 279.44 150.798C278.36 150.546 277.424 150.294 277.424 149.538C277.424 148.836 278.108 148.404 279.206 148.404C280.304 148.404 281.276 148.854 281.78 149.466L282.5 148.332C281.762 147.63 280.682 147.09 279.188 147.09C277.064 147.09 275.876 148.278 275.876 149.664C275.876 151.536 277.604 151.932 279.08 152.274C280.196 152.526 281.186 152.814 281.186 153.678C281.186 154.416 280.538 154.92 279.314 154.92C278.144 154.92 276.992 154.326 276.398 153.678L275.624 154.866ZM284.26 151.644C284.26 154.38 286.168 156.216 288.76 156.216C290.164 156.216 291.388 155.766 292.252 154.92L291.496 153.858C290.848 154.524 289.84 154.884 288.922 154.884C287.176 154.884 286.096 153.66 285.97 152.184H292.846V151.788C292.846 149.124 291.226 147.09 288.616 147.09C286.078 147.09 284.26 149.124 284.26 151.644ZM288.616 148.422C290.452 148.422 291.226 149.862 291.262 151.014H285.952C286.042 149.826 286.87 148.422 288.616 148.422ZM300.741 156H302.361V149.898C302.361 148.062 301.407 147.09 299.571 147.09C298.221 147.09 297.069 147.828 296.493 148.53V147.306H294.873V156H296.493V149.79C296.961 149.142 297.879 148.53 298.887 148.53C300.003 148.53 300.741 148.998 300.741 150.438V156ZM307.321 156.216C308.167 156.216 308.671 155.982 309.013 155.658L308.599 154.434C308.437 154.614 308.095 154.776 307.717 154.776C307.159 154.776 306.871 154.326 306.871 153.714V148.728H308.635V147.306H306.871V144.93H305.251V147.306H303.811V148.728H305.251V154.074C305.251 155.442 305.953 156.216 307.321 156.216ZM309.889 151.644C309.889 154.38 311.797 156.216 314.389 156.216C315.793 156.216 317.017 155.766 317.881 154.92L317.125 153.858C316.477 154.524 315.469 154.884 314.551 154.884C312.805 154.884 311.725 153.66 311.599 152.184H318.475V151.788C318.475 149.124 316.855 147.09 314.245 147.09C311.707 147.09 309.889 149.124 309.889 151.644ZM314.245 148.422C316.081 148.422 316.855 149.862 316.891 151.014H311.581C311.671 149.826 312.499 148.422 314.245 148.422ZM320.501 156H322.121V149.952C322.499 149.304 323.597 148.692 324.407 148.692C324.623 148.692 324.803 148.71 324.965 148.746V147.108C323.813 147.108 322.787 147.774 322.121 148.638V147.306H320.501V156ZM327.465 151.626C327.465 154.542 326.781 156.576 325.593 158.826L326.583 159.582C328.257 157.44 329.229 154.524 329.229 151.626C329.229 148.728 328.257 145.83 326.583 143.67L325.593 144.408C326.781 146.676 327.465 148.71 327.465 151.626ZM111.902 176.346H116.222V174.942H111.902V176.346ZM122.731 180H129.985V178.416H124.531V167.994H122.731V180ZM132.715 169.848C133.291 169.848 133.759 169.398 133.759 168.822C133.759 168.246 133.291 167.778 132.715 167.778C132.157 167.778 131.671 168.246 131.671 168.822C131.671 169.398 132.157 169.848 132.715 169.848ZM131.923 180H133.543V171.306H131.923V180ZM136.052 182.232C137.096 183.222 138.158 183.528 139.616 183.528C141.758 183.528 143.936 182.646 143.936 179.658V171.306H142.316V172.566C141.614 171.63 140.588 171.09 139.454 171.09C137.204 171.09 135.584 172.782 135.584 175.572C135.584 178.416 137.204 180.072 139.454 180.072C140.624 180.072 141.65 179.442 142.316 178.578V179.712C142.316 181.548 140.966 182.196 139.616 182.196C138.428 182.196 137.546 181.872 136.826 181.044L136.052 182.232ZM142.316 177.336C141.866 178.038 140.876 178.632 139.904 178.632C138.284 178.632 137.276 177.372 137.276 175.572C137.276 173.79 138.284 172.53 139.904 172.53C140.876 172.53 141.866 173.106 142.316 173.808V177.336ZM152.381 180H154.001V173.862C154.001 172.026 153.065 171.09 151.211 171.09C149.879 171.09 148.709 171.828 148.133 172.53V167.994H146.513V180H148.133V173.79C148.601 173.142 149.519 172.53 150.527 172.53C151.643 172.53 152.381 172.962 152.381 174.402V180ZM158.979 180.216C159.825 180.216 160.329 179.982 160.671 179.658L160.257 178.434C160.095 178.614 159.753 178.776 159.375 178.776C158.817 178.776 158.529 178.326 158.529 177.714V172.728H160.293V171.306H158.529V168.93H156.909V171.306H155.469V172.728H156.909V178.074C156.909 179.442 157.611 180.216 158.979 180.216ZM161.547 175.644C161.547 178.38 163.455 180.216 166.047 180.216C167.451 180.216 168.675 179.766 169.539 178.92L168.783 177.858C168.135 178.524 167.127 178.884 166.209 178.884C164.463 178.884 163.383 177.66 163.257 176.184H170.133V175.788C170.133 173.124 168.513 171.09 165.903 171.09C163.365 171.09 161.547 173.124 161.547 175.644ZM165.903 172.422C167.739 172.422 168.513 173.862 168.549 175.014H163.239C163.329 173.826 164.157 172.422 165.903 172.422ZM178.028 180H179.648V173.898C179.648 172.062 178.694 171.09 176.858 171.09C175.508 171.09 174.356 171.828 173.78 172.53V171.306H172.16V180H173.78V173.79C174.248 173.142 175.166 172.53 176.174 172.53C177.29 172.53 178.028 172.998 178.028 174.438V180ZM183.006 169.848C183.582 169.848 184.05 169.398 184.05 168.822C184.05 168.246 183.582 167.778 183.006 167.778C182.448 167.778 181.962 168.246 181.962 168.822C181.962 169.398 182.448 169.848 183.006 169.848ZM182.214 180H183.834V171.306H182.214V180ZM192.284 180H193.904V173.898C193.904 172.062 192.95 171.09 191.114 171.09C189.764 171.09 188.612 171.828 188.036 172.53V171.306H186.416V180H188.036V173.79C188.504 173.142 189.422 172.53 190.43 172.53C191.546 172.53 192.284 172.998 192.284 174.438V180ZM196.398 182.232C197.442 183.222 198.504 183.528 199.962 183.528C202.104 183.528 204.282 182.646 204.282 179.658V171.306H202.662V172.566C201.96 171.63 200.934 171.09 199.8 171.09C197.55 171.09 195.93 172.782 195.93 175.572C195.93 178.416 197.55 180.072 199.8 180.072C200.97 180.072 201.996 179.442 202.662 178.578V179.712C202.662 181.548 201.312 182.196 199.962 182.196C198.774 182.196 197.892 181.872 197.172 181.044L196.398 182.232ZM202.662 177.336C202.212 178.038 201.222 178.632 200.25 178.632C198.63 178.632 197.622 177.372 197.622 175.572C197.622 173.79 198.63 172.53 200.25 172.53C201.222 172.53 202.212 173.106 202.662 173.808V177.336ZM213.893 180.216C214.739 180.216 215.243 179.982 215.585 179.658L215.171 178.434C215.009 178.614 214.667 178.776 214.289 178.776C213.731 178.776 213.443 178.326 213.443 177.714V172.728H215.207V171.306H213.443V168.93H211.823V171.306H210.383V172.728H211.823V178.074C211.823 179.442 212.525 180.216 213.893 180.216ZM222.365 180H223.985V174.132C223.985 171.918 222.383 171.09 220.493 171.09C219.089 171.09 217.901 171.558 216.929 172.512L217.631 173.628C218.405 172.854 219.251 172.476 220.241 172.476C221.483 172.476 222.365 173.124 222.365 174.204V175.644C221.699 174.87 220.691 174.492 219.521 174.492C218.063 174.492 216.497 175.356 216.497 177.336C216.497 179.244 218.081 180.216 219.521 180.216C220.691 180.216 221.681 179.802 222.365 179.046V180ZM222.365 178.092C221.879 178.74 221.033 179.082 220.133 179.082C218.963 179.082 218.135 178.38 218.135 177.354C218.135 176.328 218.963 175.626 220.133 175.626C221.033 175.626 221.879 175.968 222.365 176.616V178.092ZM226.582 180H228.202V167.994H226.582V180ZM236.615 180H238.667L234.887 175.248L238.631 171.306H236.597L232.403 175.716V167.994H230.783V180H232.403V177.588L233.717 176.256L236.615 180ZM246.881 183.582L247.871 182.826C246.701 180.576 246.017 178.542 246.017 175.626C246.017 172.71 246.701 170.676 247.871 168.408L246.881 167.67C245.225 169.83 244.253 172.728 244.253 175.626C244.253 178.524 245.225 181.44 246.881 183.582ZM258.09 180H260.07L255.3 167.994H253.05L248.28 180H250.26L251.232 177.516H257.118L258.09 180ZM254.166 169.56L256.596 175.914H251.754L254.166 169.56ZM267.131 180H268.751V171.306H267.131V177.552C266.645 178.2 265.727 178.776 264.719 178.776C263.603 178.776 262.883 178.344 262.883 176.904V171.306H261.263V177.444C261.263 179.28 262.181 180.216 264.035 180.216C265.367 180.216 266.465 179.532 267.131 178.812V180ZM277.51 180H279.13V167.994H277.51V172.566C276.808 171.63 275.782 171.09 274.666 171.09C272.398 171.09 270.778 172.872 270.778 175.662C270.778 178.506 272.398 180.216 274.666 180.216C275.818 180.216 276.862 179.622 277.51 178.758V180ZM277.51 177.516C277.06 178.218 276.088 178.776 275.098 178.776C273.478 178.776 272.47 177.462 272.47 175.662C272.47 173.844 273.478 172.53 275.098 172.53C276.088 172.53 277.06 173.106 277.51 173.808V177.516ZM282.516 169.848C283.092 169.848 283.56 169.398 283.56 168.822C283.56 168.246 283.092 167.778 282.516 167.778C281.958 167.778 281.472 168.246 281.472 168.822C281.472 169.398 281.958 169.848 282.516 169.848ZM281.724 180H283.344V171.306H281.724V180ZM285.385 175.644C285.385 178.38 287.293 180.216 289.885 180.216C291.289 180.216 292.513 179.766 293.377 178.92L292.621 177.858C291.973 178.524 290.965 178.884 290.047 178.884C288.301 178.884 287.221 177.66 287.095 176.184H293.971V175.788C293.971 173.124 292.351 171.09 289.741 171.09C287.203 171.09 285.385 173.124 285.385 175.644ZM289.741 172.422C291.577 172.422 292.351 173.862 292.387 175.014H287.077C287.167 173.826 287.995 172.422 289.741 172.422ZM301.866 180H303.486V173.898C303.486 172.062 302.532 171.09 300.696 171.09C299.346 171.09 298.194 171.828 297.618 172.53V171.306H295.998V180H297.618V173.79C298.086 173.142 299.004 172.53 300.012 172.53C301.128 172.53 301.866 172.998 301.866 174.438V180ZM305.512 175.644C305.512 178.254 307.312 180.216 309.94 180.216C311.578 180.216 312.568 179.532 313.198 178.686L312.118 177.696C311.596 178.416 310.894 178.776 310.012 178.776C308.302 178.776 307.204 177.444 307.204 175.644C307.204 173.844 308.302 172.53 310.012 172.53C310.894 172.53 311.596 172.872 312.118 173.61L313.198 172.62C312.568 171.774 311.578 171.09 309.94 171.09C307.312 171.09 305.512 173.034 305.512 175.644ZM314.442 175.644C314.442 178.38 316.35 180.216 318.942 180.216C320.346 180.216 321.57 179.766 322.434 178.92L321.678 177.858C321.03 178.524 320.022 178.884 319.104 178.884C317.358 178.884 316.278 177.66 316.152 176.184H323.028V175.788C323.028 173.124 321.408 171.09 318.798 171.09C316.26 171.09 314.442 173.124 314.442 175.644ZM318.798 172.422C320.634 172.422 321.408 173.862 321.444 175.014H316.134C316.224 173.826 317.052 172.422 318.798 172.422ZM325.936 175.626C325.936 178.542 325.252 180.576 324.064 182.826L325.054 183.582C326.728 181.44 327.7 178.524 327.7 175.626C327.7 172.728 326.728 169.83 325.054 167.67L324.064 168.408C325.252 170.676 325.936 172.71 325.936 175.626ZM111.902 200.346H116.222V198.942H111.902V200.346ZM122.731 204H124.531V191.994H122.731V204ZM133.045 204H134.665V197.898C134.665 196.062 133.711 195.09 131.875 195.09C130.525 195.09 129.373 195.828 128.797 196.53V195.306H127.177V204H128.797V197.79C129.265 197.142 130.183 196.53 131.191 196.53C132.307 196.53 133.045 196.998 133.045 198.438V204ZM139.626 204.216C140.472 204.216 140.976 203.982 141.318 203.658L140.904 202.434C140.742 202.614 140.4 202.776 140.022 202.776C139.464 202.776 139.176 202.326 139.176 201.714V196.728H140.94V195.306H139.176V192.93H137.556V195.306H136.116V196.728H137.556V202.074C137.556 203.442 138.258 204.216 139.626 204.216ZM142.194 199.644C142.194 202.38 144.102 204.216 146.694 204.216C148.098 204.216 149.322 203.766 150.186 202.92L149.43 201.858C148.782 202.524 147.774 202.884 146.856 202.884C145.11 202.884 144.03 201.66 143.904 200.184H150.78V199.788C150.78 197.124 149.16 195.09 146.55 195.09C144.012 195.09 142.194 197.124 142.194 199.644ZM146.55 196.422C148.386 196.422 149.16 197.862 149.196 199.014H143.886C143.976 197.826 144.804 196.422 146.55 196.422ZM152.806 204H154.426V197.952C154.804 197.304 155.902 196.692 156.712 196.692C156.928 196.692 157.108 196.71 157.27 196.746V195.108C156.118 195.108 155.092 195.774 154.426 196.638V195.306H152.806V204ZM161.192 204H162.938L166.52 195.306H164.774L162.056 202.128L159.338 195.306H157.61L161.192 204ZM168.627 193.848C169.203 193.848 169.671 193.398 169.671 192.822C169.671 192.246 169.203 191.778 168.627 191.778C168.069 191.778 167.583 192.246 167.583 192.822C167.583 193.398 168.069 193.848 168.627 193.848ZM167.835 204H169.455V195.306H167.835V204ZM171.497 199.644C171.497 202.38 173.405 204.216 175.997 204.216C177.401 204.216 178.625 203.766 179.489 202.92L178.733 201.858C178.085 202.524 177.077 202.884 176.159 202.884C174.413 202.884 173.333 201.66 173.207 200.184H180.083V199.788C180.083 197.124 178.463 195.09 175.853 195.09C173.315 195.09 171.497 197.124 171.497 199.644ZM175.853 196.422C177.689 196.422 178.463 197.862 178.499 199.014H173.189C173.279 197.826 174.107 196.422 175.853 196.422ZM189.651 204H191.325L194.061 195.306H192.369L190.389 201.93L188.211 195.306H186.807L184.629 201.93L182.649 195.306H180.957L183.693 204H185.367L187.509 197.322L189.651 204ZM200.18 204H201.98V199.374H205.238C207.686 199.374 209.072 197.682 209.072 195.684C209.072 193.686 207.704 191.994 205.238 191.994H200.18V204ZM207.218 195.684C207.218 196.944 206.3 197.79 205.004 197.79H201.98V193.578H205.004C206.3 193.578 207.218 194.424 207.218 195.684ZM210.884 204H212.504V197.952C212.882 197.304 213.98 196.692 214.79 196.692C215.006 196.692 215.186 196.71 215.348 196.746V195.108C214.196 195.108 213.17 195.774 212.504 196.638V195.306H210.884V204ZM216.426 199.644C216.426 202.38 218.334 204.216 220.926 204.216C222.33 204.216 223.554 203.766 224.418 202.92L223.662 201.858C223.014 202.524 222.006 202.884 221.088 202.884C219.342 202.884 218.262 201.66 218.136 200.184H225.012V199.788C225.012 197.124 223.392 195.09 220.782 195.09C218.244 195.09 216.426 197.124 216.426 199.644ZM220.782 196.422C222.618 196.422 223.392 197.862 223.428 199.014H218.118C218.208 197.826 219.036 196.422 220.782 196.422ZM228.659 207.312V202.74C229.361 203.694 230.369 204.216 231.503 204.216C233.771 204.216 235.373 202.488 235.373 199.644C235.373 196.8 233.771 195.09 231.503 195.09C230.333 195.09 229.289 195.684 228.659 196.548V195.306H227.039V207.312H228.659ZM233.681 199.644C233.681 201.462 232.691 202.776 231.071 202.776C230.081 202.776 229.091 202.182 228.659 201.498V197.808C229.091 197.106 230.081 196.53 231.071 196.53C232.691 196.53 233.681 197.844 233.681 199.644ZM111.902 224.346H116.222V222.942H111.902V224.346ZM121.579 226.902C122.407 227.838 123.469 228.216 124.729 228.216C126.961 228.216 128.653 226.956 128.653 224.292V215.994H126.853V224.274C126.853 225.678 125.989 226.614 124.603 226.614C123.613 226.614 122.947 226.11 122.443 225.534L121.579 226.902ZM135.143 228.216C137.861 228.216 139.535 226.164 139.535 223.644C139.535 221.142 137.861 219.09 135.143 219.09C132.443 219.09 130.751 221.142 130.751 223.644C130.751 226.164 132.443 228.216 135.143 228.216ZM135.143 226.776C133.415 226.776 132.443 225.3 132.443 223.644C132.443 222.006 133.415 220.53 135.143 220.53C136.889 220.53 137.843 222.006 137.843 223.644C137.843 225.3 136.889 226.776 135.143 226.776ZM141.591 228H143.211V226.758C143.859 227.622 144.885 228.216 146.055 228.216C148.305 228.216 149.925 226.506 149.925 223.662C149.925 220.872 148.323 219.09 146.055 219.09C144.921 219.09 143.895 219.63 143.211 220.566V215.994H141.591V228ZM143.211 225.516V221.826C143.643 221.124 144.633 220.53 145.623 220.53C147.243 220.53 148.251 221.844 148.251 223.662C148.251 225.48 147.243 226.776 145.623 226.776C144.633 226.776 143.643 226.218 143.211 225.516ZM167.006 228H168.806V215.994H166.232L162.74 224.616L159.248 215.994H156.674V228H158.474V218.46L162.362 228H163.118L167.006 218.46V228ZM176.803 228H178.423V222.132C178.423 219.918 176.821 219.09 174.931 219.09C173.527 219.09 172.339 219.558 171.367 220.512L172.069 221.628C172.843 220.854 173.689 220.476 174.679 220.476C175.921 220.476 176.803 221.124 176.803 222.204V223.644C176.137 222.87 175.129 222.492 173.959 222.492C172.501 222.492 170.935 223.356 170.935 225.336C170.935 227.244 172.519 228.216 173.959 228.216C175.129 228.216 176.119 227.802 176.803 227.046V228ZM176.803 226.092C176.317 226.74 175.471 227.082 174.571 227.082C173.401 227.082 172.573 226.38 172.573 225.354C172.573 224.328 173.401 223.626 174.571 223.626C175.471 223.626 176.317 223.968 176.803 224.616V226.092ZM181.019 228H182.639V221.952C183.017 221.304 184.115 220.692 184.925 220.692C185.141 220.692 185.321 220.71 185.483 220.746V219.108C184.331 219.108 183.305 219.774 182.639 220.638V219.306H181.019V228ZM192.933 228H194.985L191.205 223.248L194.949 219.306H192.915L188.721 223.716V215.994H187.101V228H188.721V225.588L190.035 224.256L192.933 228ZM195.473 223.644C195.473 226.38 197.381 228.216 199.973 228.216C201.377 228.216 202.601 227.766 203.465 226.92L202.709 225.858C202.061 226.524 201.053 226.884 200.135 226.884C198.389 226.884 197.309 225.66 197.183 224.184H204.059V223.788C204.059 221.124 202.439 219.09 199.829 219.09C197.291 219.09 195.473 221.124 195.473 223.644ZM199.829 220.422C201.665 220.422 202.439 221.862 202.475 223.014H197.165C197.255 221.826 198.083 220.422 199.829 220.422ZM208.479 228.216C209.325 228.216 209.829 227.982 210.171 227.658L209.757 226.434C209.595 226.614 209.253 226.776 208.875 226.776C208.317 226.776 208.029 226.326 208.029 225.714V220.728H209.793V219.306H208.029V216.93H206.409V219.306H204.969V220.728H206.409V226.074C206.409 227.442 207.111 228.216 208.479 228.216ZM224.832 228H226.812L222.042 215.994H219.792L215.022 228H217.002L217.974 225.516H223.86L224.832 228ZM220.908 217.56L223.338 223.914H218.496L220.908 217.56ZM234.408 228H236.028V215.994H234.408V220.566C233.706 219.63 232.68 219.09 231.564 219.09C229.296 219.09 227.676 220.872 227.676 223.662C227.676 226.506 229.296 228.216 231.564 228.216C232.716 228.216 233.76 227.622 234.408 226.758V228ZM234.408 225.516C233.958 226.218 232.986 226.776 231.996 226.776C230.376 226.776 229.368 225.462 229.368 223.662C229.368 221.844 230.376 220.53 231.996 220.53C232.986 220.53 233.958 221.106 234.408 221.808V225.516ZM240.927 228H242.673L246.255 219.306H244.509L241.791 226.128L239.073 219.306H237.345L240.927 228ZM248.362 217.848C248.938 217.848 249.406 217.398 249.406 216.822C249.406 216.246 248.938 215.778 248.362 215.778C247.804 215.778 247.318 216.246 247.318 216.822C247.318 217.398 247.804 217.848 248.362 217.848ZM247.57 228H249.19V219.306H247.57V228ZM251.231 223.644C251.231 226.254 253.031 228.216 255.659 228.216C257.297 228.216 258.287 227.532 258.917 226.686L257.837 225.696C257.315 226.416 256.613 226.776 255.731 226.776C254.021 226.776 252.923 225.444 252.923 223.644C252.923 221.844 254.021 220.53 255.731 220.53C256.613 220.53 257.315 220.872 257.837 221.61L258.917 220.62C258.287 219.774 257.297 219.09 255.659 219.09C253.031 219.09 251.231 221.034 251.231 223.644ZM260.161 223.644C260.161 226.38 262.069 228.216 264.661 228.216C266.065 228.216 267.289 227.766 268.153 226.92L267.397 225.858C266.749 226.524 265.741 226.884 264.823 226.884C263.077 226.884 261.997 225.66 261.871 224.184H268.747V223.788C268.747 221.124 267.127 219.09 264.517 219.09C261.979 219.09 260.161 221.124 260.161 223.644ZM264.517 220.422C266.353 220.422 267.127 221.862 267.163 223.014H261.853C261.943 221.826 262.771 220.422 264.517 220.422ZM111.902 248.346H116.222V246.942H111.902V248.346ZM122.731 252H127.015C130.759 252 133.243 249.48 133.243 246.006C133.243 242.55 130.759 239.994 127.015 239.994H122.731V252ZM124.531 250.416V241.578H127.015C129.841 241.578 131.389 243.54 131.389 246.006C131.389 248.436 129.787 250.416 127.015 250.416H124.531ZM139.238 252.216C141.956 252.216 143.63 250.164 143.63 247.644C143.63 245.142 141.956 243.09 139.238 243.09C136.538 243.09 134.846 245.142 134.846 247.644C134.846 250.164 136.538 252.216 139.238 252.216ZM139.238 250.776C137.51 250.776 136.538 249.3 136.538 247.644C136.538 246.006 137.51 244.53 139.238 244.53C140.984 244.53 141.938 246.006 141.938 247.644C141.938 249.3 140.984 250.776 139.238 250.776ZM145.147 247.644C145.147 250.254 146.947 252.216 149.575 252.216C151.213 252.216 152.203 251.532 152.833 250.686L151.753 249.696C151.231 250.416 150.529 250.776 149.647 250.776C147.937 250.776 146.839 249.444 146.839 247.644C146.839 245.844 147.937 244.53 149.647 244.53C150.529 244.53 151.231 244.872 151.753 245.61L152.833 244.62C152.203 243.774 151.213 243.09 149.575 243.09C146.947 243.09 145.147 245.034 145.147 247.644ZM160.485 252H162.105V243.306H160.485V249.552C159.999 250.2 159.081 250.776 158.073 250.776C156.957 250.776 156.237 250.344 156.237 248.904V243.306H154.617V249.444C154.617 251.28 155.535 252.216 157.389 252.216C158.721 252.216 159.819 251.532 160.485 250.812V252ZM175.237 252H176.857V245.718C176.857 243.972 175.993 243.09 174.391 243.09C173.113 243.09 171.961 243.9 171.457 244.71C171.187 243.774 170.413 243.09 169.099 243.09C167.803 243.09 166.651 243.99 166.291 244.53V243.306H164.671V252H166.291V245.79C166.723 245.16 167.569 244.53 168.415 244.53C169.513 244.53 169.945 245.196 169.945 246.204V252H171.565V245.772C171.979 245.142 172.843 244.53 173.725 244.53C174.787 244.53 175.237 245.196 175.237 246.204V252ZM178.897 247.644C178.897 250.38 180.805 252.216 183.397 252.216C184.801 252.216 186.025 251.766 186.889 250.92L186.133 249.858C185.485 250.524 184.477 250.884 183.559 250.884C181.813 250.884 180.733 249.66 180.607 248.184H187.483V247.788C187.483 245.124 185.863 243.09 183.253 243.09C180.715 243.09 178.897 245.124 178.897 247.644ZM183.253 244.422C185.089 244.422 185.863 245.862 185.899 247.014H180.589C180.679 245.826 181.507 244.422 183.253 244.422ZM195.377 252H196.997V245.898C196.997 244.062 196.043 243.09 194.207 243.09C192.857 243.09 191.705 243.828 191.129 244.53V243.306H189.509V252H191.129V245.79C191.597 245.142 192.515 244.53 193.523 244.53C194.639 244.53 195.377 244.998 195.377 246.438V252ZM201.958 252.216C202.804 252.216 203.308 251.982 203.65 251.658L203.236 250.434C203.074 250.614 202.732 250.776 202.354 250.776C201.796 250.776 201.508 250.326 201.508 249.714V244.728H203.272V243.306H201.508V240.93H199.888V243.306H198.448V244.728H199.888V250.074C199.888 251.442 200.59 252.216 201.958 252.216ZM210.43 252H212.05V246.132C212.05 243.918 210.448 243.09 208.558 243.09C207.154 243.09 205.966 243.558 204.994 244.512L205.696 245.628C206.47 244.854 207.316 244.476 208.306 244.476C209.548 244.476 210.43 245.124 210.43 246.204V247.644C209.764 246.87 208.756 246.492 207.586 246.492C206.128 246.492 204.562 247.356 204.562 249.336C204.562 251.244 206.146 252.216 207.586 252.216C208.756 252.216 209.746 251.802 210.43 251.046V252ZM210.43 250.092C209.944 250.74 209.098 251.082 208.198 251.082C207.028 251.082 206.2 250.38 206.2 249.354C206.2 248.328 207.028 247.626 208.198 247.626C209.098 247.626 209.944 247.968 210.43 248.616V250.092ZM217.04 252.216C217.886 252.216 218.39 251.982 218.732 251.658L218.318 250.434C218.156 250.614 217.814 250.776 217.436 250.776C216.878 250.776 216.59 250.326 216.59 249.714V244.728H218.354V243.306H216.59V240.93H214.97V243.306H213.53V244.728H214.97V250.074C214.97 251.442 215.672 252.216 217.04 252.216ZM220.94 241.848C221.516 241.848 221.984 241.398 221.984 240.822C221.984 240.246 221.516 239.778 220.94 239.778C220.382 239.778 219.896 240.246 219.896 240.822C219.896 241.398 220.382 241.848 220.94 241.848ZM220.148 252H221.768V243.306H220.148V252ZM228.201 252.216C230.919 252.216 232.593 250.164 232.593 247.644C232.593 245.142 230.919 243.09 228.201 243.09C225.501 243.09 223.809 245.142 223.809 247.644C223.809 250.164 225.501 252.216 228.201 252.216ZM228.201 250.776C226.473 250.776 225.501 249.3 225.501 247.644C225.501 246.006 226.473 244.53 228.201 244.53C229.947 244.53 230.901 246.006 230.901 247.644C230.901 249.3 229.947 250.776 228.201 250.776ZM240.518 252H242.138V245.898C242.138 244.062 241.184 243.09 239.348 243.09C237.998 243.09 236.846 243.828 236.27 244.53V243.306H234.65V252H236.27V245.79C236.738 245.142 237.656 244.53 238.664 244.53C239.78 244.53 240.518 244.998 240.518 246.438V252ZM256.293 252H258.381L255.303 247.194C256.833 246.996 258.291 245.844 258.291 243.684C258.291 241.47 256.725 239.994 254.439 239.994H249.381V252H251.181V247.374H253.431L256.293 252ZM256.437 243.684C256.437 244.944 255.501 245.79 254.205 245.79H251.181V241.578H254.205C255.501 241.578 256.437 242.424 256.437 243.684ZM259.387 247.644C259.387 250.38 261.295 252.216 263.887 252.216C265.291 252.216 266.515 251.766 267.379 250.92L266.623 249.858C265.975 250.524 264.967 250.884 264.049 250.884C262.303 250.884 261.223 249.66 261.097 248.184H267.973V247.788C267.973 245.124 266.353 243.09 263.743 243.09C261.205 243.09 259.387 245.124 259.387 247.644ZM263.743 244.422C265.579 244.422 266.353 245.862 266.389 247.014H261.079C261.169 245.826 261.997 244.422 263.743 244.422ZM272.303 252H274.049L277.631 243.306H275.885L273.167 250.128L270.449 243.306H268.721L272.303 252ZM279.739 241.848C280.315 241.848 280.783 241.398 280.783 240.822C280.783 240.246 280.315 239.778 279.739 239.778C279.181 239.778 278.695 240.246 278.695 240.822C278.695 241.398 279.181 241.848 279.739 241.848ZM278.947 252H280.567V243.306H278.947V252ZM282.608 247.644C282.608 250.38 284.516 252.216 287.108 252.216C288.512 252.216 289.736 251.766 290.6 250.92L289.844 249.858C289.196 250.524 288.188 250.884 287.27 250.884C285.524 250.884 284.444 249.66 284.318 248.184H291.194V247.788C291.194 245.124 289.574 243.09 286.964 243.09C284.426 243.09 282.608 245.124 282.608 247.644ZM286.964 244.422C288.8 244.422 289.574 245.862 289.61 247.014H284.3C284.39 245.826 285.218 244.422 286.964 244.422ZM300.762 252H302.436L305.172 243.306H303.48L301.5 249.93L299.322 243.306H297.918L295.74 249.93L293.76 243.306H292.068L294.804 252H296.478L298.62 245.322L300.762 252Z" fill="#FEFEFE"/>
<path d="M15.504 19H18.936V2.992H14.136L10.248 12.976L6.36 2.992H1.584V19H4.992V7.48L9.504 19H10.992L15.504 7.48V19ZM21.2993 13.192C21.2993 16.912 23.9633 19.288 27.4913 19.288C29.2913 19.288 31.0913 18.76 32.2673 17.68L30.9233 15.712C30.1793 16.432 28.9073 16.864 27.8273 16.864C25.8593 16.864 24.6833 15.64 24.4913 14.176H33.1073V13.504C33.1073 9.712 30.7553 7.12 27.2993 7.12C23.7713 7.12 21.2993 9.832 21.2993 13.192ZM27.2993 9.544C29.3153 9.544 30.0833 11.008 30.1553 12.112H24.4433C24.5873 10.96 25.4033 9.544 27.2993 9.544ZM43.1329 19H46.1809V10.816C46.1809 8.56 44.9569 7.12 42.4129 7.12C40.5169 7.12 39.1009 8.032 38.3569 8.92V7.408H35.3089V19H38.3569V11.2C38.8609 10.504 39.7969 9.832 40.9969 9.832C42.2929 9.832 43.1329 10.384 43.1329 11.992V19ZM53.0953 19.288C54.3673 19.288 55.1833 18.952 55.6393 18.544L54.9913 16.24C54.8233 16.408 54.3913 16.576 53.9353 16.576C53.2633 16.576 52.8793 16.024 52.8793 15.304V10.072H55.2313V7.408H52.8793V4.24H49.8073V7.408H47.8873V10.072H49.8073V16.12C49.8073 18.184 50.9593 19.288 53.0953 19.288ZM62.6927 19.288C66.5327 19.288 68.8367 16.504 68.8367 13.192C68.8367 9.904 66.5327 7.12 62.6927 7.12C58.8767 7.12 56.5727 9.904 56.5727 13.192C56.5727 16.504 58.8767 19.288 62.6927 19.288ZM62.6927 16.576C60.7967 16.576 59.7407 15.016 59.7407 13.192C59.7407 11.392 60.7967 9.832 62.6927 9.832C64.5887 9.832 65.6687 11.392 65.6687 13.192C65.6687 15.016 64.5887 16.576 62.6927 16.576ZM71.0979 19H74.1459V11.344C74.6499 10.6 75.9939 10.048 77.0019 10.048C77.3379 10.048 77.6259 10.072 77.8419 10.12V7.144C76.4019 7.144 74.9619 7.96 74.1459 8.992V7.408H71.0979V19ZM78.7384 17.488C79.9624 18.616 81.9064 19.288 83.9224 19.288C87.1384 19.288 88.9384 17.704 88.9384 15.568C88.9384 12.688 86.2744 12.16 84.2824 11.776C82.9864 11.512 82.0744 11.248 82.0744 10.528C82.0744 9.856 82.7944 9.448 83.8984 9.448C85.3144 9.448 86.6344 10.048 87.3304 10.792L88.5304 8.704C87.4024 7.792 85.8424 7.12 83.8744 7.12C80.8264 7.12 79.1224 8.824 79.1224 10.768C79.1224 13.528 81.6904 14.008 83.6824 14.392C85.0024 14.656 86.0104 14.944 86.0104 15.76C86.0104 16.48 85.3864 16.936 84.0664 16.936C82.6264 16.936 80.8984 16.144 80.0584 15.352L78.7384 17.488Z" fill="#F25187"/>
<g clip-path="url(#clip1)">
<path d="M0 94.2819V47.8788C0 45.1684 2.36413 43 5.3193 43H58.1577C53.6658 47.3367 52.8384 53.9503 56.2663 59.0459C55.4389 59.3712 54.6115 59.8048 53.9022 60.3469L47.9919 64.7921L42.1998 60.5638C38.0625 57.5281 32.034 58.1786 28.7242 61.9732C25.4144 65.7679 26.0055 71.4056 30.2609 74.4413C30.3791 74.4413 30.3791 74.5497 30.4973 74.5497L42.1998 83.0064C45.2731 85.2832 49.6468 85.5 53.0748 83.6569V99.0523H5.3193C2.36413 99.1607 0 96.9923 0 94.2819ZM68.678 60.4554C73.6427 60.4554 77.6617 56.7691 77.6617 52.2156C77.6617 47.662 73.6427 43.9758 68.678 43.9758C63.7134 43.9758 59.6943 47.662 59.6943 52.2156C59.6943 56.7691 63.7134 60.4554 68.678 60.4554ZM74.4702 127.675C76.8343 127.675 78.7256 125.94 78.7256 123.772V91.7883C81.9172 91.2462 84.2813 88.6441 84.2813 85.6084V69.7793C84.2813 66.3099 81.2079 63.4911 77.4253 63.4911H59.9308C58.9851 63.4911 58.0395 63.8163 57.3302 64.3584L47.8737 71.514L38.6536 64.6837C36.8805 63.3827 34.3981 63.7079 32.9796 65.2258C32.8614 65.3342 32.7432 65.4426 32.625 65.6594C31.5612 67.2857 32.034 69.3457 33.6889 70.5383L45.5095 78.9949C47.0462 80.0791 49.174 80.0791 50.5924 78.9949L58.5123 72.9235V123.772C58.3941 125.94 60.1672 127.783 62.4131 127.892C64.7772 128 66.7867 126.374 66.9049 124.314C66.9049 124.097 66.9049 123.989 66.9049 123.772V101.004C66.9049 100.245 67.6142 99.5944 68.4416 99.5944C68.5598 99.5944 68.678 99.5944 68.678 99.5944C69.3873 99.7028 69.9783 100.353 69.9783 101.112V123.88C70.2147 125.94 72.106 127.675 74.4702 127.675Z" fill="#F25187"/>
</g>
</g>
<defs>
<clipPath id="clip0">
<rect width="450" height="250" fill="white"/>
</clipPath>
<clipPath id="clip1">
<rect width="84.2813" height="85" fill="white" transform="translate(0 43)"/>
</clipPath>
</defs>
</svg>
