<svg width="1039" height="455" viewBox="0 0 1039 455" fill="none" xmlns="http://www.w3.org/2000/svg">
<rect y="2" width="333" height="453" fill="#1F1216" fill-opacity="0.8"/>
<path d="M107.158 342.624C108.256 342.624 109.156 341.724 109.156 340.644C109.156 339.546 108.256 338.646 107.158 338.646C106.06 338.646 105.16 339.546 105.16 340.644C105.16 341.724 106.06 342.624 107.158 342.624ZM116.342 345H120.626C124.37 345 126.854 342.48 126.854 339.006C126.854 335.55 124.37 332.994 120.626 332.994H116.342V345ZM118.142 343.416V334.578H120.626C123.452 334.578 125 336.54 125 339.006C125 341.436 123.398 343.416 120.626 343.416H118.142ZM128.457 340.644C128.457 343.38 130.365 345.216 132.957 345.216C134.361 345.216 135.585 344.766 136.449 343.92L135.693 342.858C135.045 343.524 134.037 343.884 133.119 343.884C131.373 343.884 130.293 342.66 130.167 341.184H137.043V340.788C137.043 338.124 135.423 336.09 132.813 336.09C130.275 336.09 128.457 338.124 128.457 340.644ZM132.813 337.422C134.649 337.422 135.423 338.862 135.459 340.014H130.149C130.239 338.826 131.067 337.422 132.813 337.422ZM138.313 343.866C139.195 344.766 140.473 345.216 141.931 345.216C144.217 345.216 145.441 344.046 145.441 342.552C145.441 340.554 143.641 340.14 142.129 339.798C141.049 339.546 140.113 339.294 140.113 338.538C140.113 337.836 140.797 337.404 141.895 337.404C142.993 337.404 143.965 337.854 144.469 338.466L145.189 337.332C144.451 336.63 143.371 336.09 141.877 336.09C139.753 336.09 138.565 337.278 138.565 338.664C138.565 340.536 140.293 340.932 141.769 341.274C142.885 341.526 143.875 341.814 143.875 342.678C143.875 343.416 143.227 343.92 142.003 343.92C140.833 343.92 139.681 343.326 139.087 342.678L138.313 343.866ZM148.281 334.848C148.857 334.848 149.325 334.398 149.325 333.822C149.325 333.246 148.857 332.778 148.281 332.778C147.723 332.778 147.237 333.246 147.237 333.822C147.237 334.398 147.723 334.848 148.281 334.848ZM147.489 345H149.109V336.306H147.489V345ZM151.619 347.232C152.663 348.222 153.725 348.528 155.183 348.528C157.325 348.528 159.503 347.646 159.503 344.658V336.306H157.883V337.566C157.181 336.63 156.155 336.09 155.021 336.09C152.771 336.09 151.151 337.782 151.151 340.572C151.151 343.416 152.771 345.072 155.021 345.072C156.191 345.072 157.217 344.442 157.883 343.578V344.712C157.883 346.548 156.533 347.196 155.183 347.196C153.995 347.196 153.113 346.872 152.393 346.044L151.619 347.232ZM157.883 342.336C157.433 343.038 156.443 343.632 155.471 343.632C153.851 343.632 152.843 342.372 152.843 340.572C152.843 338.79 153.851 337.53 155.471 337.53C156.443 337.53 157.433 338.106 157.883 338.808V342.336ZM167.947 345H169.567V338.898C169.567 337.062 168.613 336.09 166.777 336.09C165.427 336.09 164.275 336.828 163.699 337.53V336.306H162.079V345H163.699V338.79C164.167 338.142 165.085 337.53 166.093 337.53C167.209 337.53 167.947 337.998 167.947 339.438V345ZM176.073 343.308C177.099 344.442 178.665 345.216 180.807 345.216C184.047 345.216 185.343 343.47 185.343 341.598C185.343 339.042 183.057 338.43 181.095 337.908C179.601 337.53 178.305 337.188 178.305 336.108C178.305 335.1 179.223 334.416 180.555 334.416C181.851 334.416 183.111 334.848 184.029 335.82L185.073 334.488C184.011 333.408 182.553 332.814 180.699 332.814C178.197 332.814 176.451 334.254 176.451 336.234C176.451 338.682 178.683 339.24 180.609 339.744C182.139 340.14 183.507 340.5 183.507 341.76C183.507 342.624 182.823 343.614 180.879 343.614C179.205 343.614 177.909 342.822 177.099 341.922L176.073 343.308ZM187.071 346.944L186.819 348.402C187.071 348.474 187.557 348.528 187.827 348.528C189.087 348.51 190.041 348.024 190.599 346.656L194.883 336.306H193.137L190.419 343.128L187.701 336.306H185.973L189.555 345.09L189.051 346.242C188.781 346.89 188.385 347.088 187.791 347.088C187.575 347.088 187.269 347.034 187.071 346.944ZM195.442 343.866C196.324 344.766 197.602 345.216 199.06 345.216C201.346 345.216 202.57 344.046 202.57 342.552C202.57 340.554 200.77 340.14 199.258 339.798C198.178 339.546 197.242 339.294 197.242 338.538C197.242 337.836 197.926 337.404 199.024 337.404C200.122 337.404 201.094 337.854 201.598 338.466L202.318 337.332C201.58 336.63 200.5 336.09 199.006 336.09C196.882 336.09 195.694 337.278 195.694 338.664C195.694 340.536 197.422 340.932 198.898 341.274C200.014 341.526 201.004 341.814 201.004 342.678C201.004 343.416 200.356 343.92 199.132 343.92C197.962 343.92 196.81 343.326 196.216 342.678L195.442 343.866ZM207.012 345.216C207.858 345.216 208.362 344.982 208.704 344.658L208.29 343.434C208.128 343.614 207.786 343.776 207.408 343.776C206.85 343.776 206.562 343.326 206.562 342.714V337.728H208.326V336.306H206.562V333.93H204.942V336.306H203.502V337.728H204.942V343.074C204.942 344.442 205.644 345.216 207.012 345.216ZM209.58 340.644C209.58 343.38 211.488 345.216 214.08 345.216C215.484 345.216 216.708 344.766 217.572 343.92L216.816 342.858C216.168 343.524 215.16 343.884 214.242 343.884C212.496 343.884 211.416 342.66 211.29 341.184H218.166V340.788C218.166 338.124 216.546 336.09 213.936 336.09C211.398 336.09 209.58 338.124 209.58 340.644ZM213.936 337.422C215.772 337.422 216.546 338.862 216.582 340.014H211.272C211.362 338.826 212.19 337.422 213.936 337.422ZM230.758 345H232.378V338.718C232.378 336.972 231.514 336.09 229.912 336.09C228.634 336.09 227.482 336.9 226.978 337.71C226.708 336.774 225.934 336.09 224.62 336.09C223.324 336.09 222.172 336.99 221.812 337.53V336.306H220.192V345H221.812V338.79C222.244 338.16 223.09 337.53 223.936 337.53C225.034 337.53 225.466 338.196 225.466 339.204V345H227.086V338.772C227.5 338.142 228.364 337.53 229.246 337.53C230.308 337.53 230.758 338.196 230.758 339.204V345ZM234.202 343.866C235.084 344.766 236.362 345.216 237.82 345.216C240.106 345.216 241.33 344.046 241.33 342.552C241.33 340.554 239.53 340.14 238.018 339.798C236.938 339.546 236.002 339.294 236.002 338.538C236.002 337.836 236.686 337.404 237.784 337.404C238.882 337.404 239.854 337.854 240.358 338.466L241.078 337.332C240.34 336.63 239.26 336.09 237.766 336.09C235.642 336.09 234.454 337.278 234.454 338.664C234.454 340.536 236.182 340.932 237.658 341.274C238.774 341.526 239.764 341.814 239.764 342.678C239.764 343.416 239.116 343.92 237.892 343.92C236.722 343.92 235.57 343.326 234.976 342.678L234.202 343.866ZM107.501 370.624C108.599 370.624 109.499 369.724 109.499 368.644C109.499 367.546 108.599 366.646 107.501 366.646C106.403 366.646 105.503 367.546 105.503 368.644C105.503 369.724 106.403 370.624 107.501 370.624ZM116.685 373H123.939V371.416H118.485V360.994H116.685V373ZM131.03 373H132.65V367.132C132.65 364.918 131.048 364.09 129.158 364.09C127.754 364.09 126.566 364.558 125.594 365.512L126.296 366.628C127.07 365.854 127.916 365.476 128.906 365.476C130.148 365.476 131.03 366.124 131.03 367.204V368.644C130.364 367.87 129.356 367.492 128.186 367.492C126.728 367.492 125.162 368.356 125.162 370.336C125.162 372.244 126.746 373.216 128.186 373.216C129.356 373.216 130.346 372.802 131.03 372.046V373ZM131.03 371.092C130.544 371.74 129.698 372.082 128.798 372.082C127.628 372.082 126.8 371.38 126.8 370.354C126.8 369.328 127.628 368.626 128.798 368.626C129.698 368.626 130.544 368.968 131.03 369.616V371.092ZM135.246 373H136.866V366.952C137.244 366.304 138.342 365.692 139.152 365.692C139.368 365.692 139.548 365.71 139.71 365.746V364.108C138.558 364.108 137.532 364.774 136.866 365.638V364.306H135.246V373ZM141.256 375.232C142.3 376.222 143.362 376.528 144.82 376.528C146.962 376.528 149.14 375.646 149.14 372.658V364.306H147.52V365.566C146.818 364.63 145.792 364.09 144.658 364.09C142.408 364.09 140.788 365.782 140.788 368.572C140.788 371.416 142.408 373.072 144.658 373.072C145.828 373.072 146.854 372.442 147.52 371.578V372.712C147.52 374.548 146.17 375.196 144.82 375.196C143.632 375.196 142.75 374.872 142.03 374.044L141.256 375.232ZM147.52 370.336C147.07 371.038 146.08 371.632 145.108 371.632C143.488 371.632 142.48 370.372 142.48 368.572C142.48 366.79 143.488 365.53 145.108 365.53C146.08 365.53 147.07 366.106 147.52 366.808V370.336ZM151.177 368.644C151.177 371.38 153.085 373.216 155.677 373.216C157.081 373.216 158.305 372.766 159.169 371.92L158.413 370.858C157.765 371.524 156.757 371.884 155.839 371.884C154.093 371.884 153.013 370.66 152.887 369.184H159.763V368.788C159.763 366.124 158.143 364.09 155.533 364.09C152.995 364.09 151.177 366.124 151.177 368.644ZM155.533 365.422C157.369 365.422 158.143 366.862 158.179 368.014H152.869C152.959 366.826 153.787 365.422 155.533 365.422ZM166.466 373H170.75C174.494 373 176.978 370.48 176.978 367.006C176.978 363.55 174.494 360.994 170.75 360.994H166.466V373ZM168.266 371.416V362.578H170.75C173.576 362.578 175.124 364.54 175.124 367.006C175.124 369.436 173.522 371.416 170.75 371.416H168.266ZM184.485 373H186.105V367.132C186.105 364.918 184.503 364.09 182.613 364.09C181.209 364.09 180.021 364.558 179.049 365.512L179.751 366.628C180.525 365.854 181.371 365.476 182.361 365.476C183.603 365.476 184.485 366.124 184.485 367.204V368.644C183.819 367.87 182.811 367.492 181.641 367.492C180.183 367.492 178.617 368.356 178.617 370.336C178.617 372.244 180.201 373.216 181.641 373.216C182.811 373.216 183.801 372.802 184.485 372.046V373ZM184.485 371.092C183.999 371.74 183.153 372.082 182.253 372.082C181.083 372.082 180.255 371.38 180.255 370.354C180.255 369.328 181.083 368.626 182.253 368.626C183.153 368.626 183.999 368.968 184.485 369.616V371.092ZM191.095 373.216C191.941 373.216 192.445 372.982 192.787 372.658L192.373 371.434C192.211 371.614 191.869 371.776 191.491 371.776C190.933 371.776 190.645 371.326 190.645 370.714V365.728H192.409V364.306H190.645V361.93H189.025V364.306H187.585V365.728H189.025V371.074C189.025 372.442 189.727 373.216 191.095 373.216ZM199.567 373H201.187V367.132C201.187 364.918 199.585 364.09 197.695 364.09C196.291 364.09 195.103 364.558 194.131 365.512L194.833 366.628C195.607 365.854 196.453 365.476 197.443 365.476C198.685 365.476 199.567 366.124 199.567 367.204V368.644C198.901 367.87 197.893 367.492 196.723 367.492C195.265 367.492 193.699 368.356 193.699 370.336C193.699 372.244 195.283 373.216 196.723 373.216C197.893 373.216 198.883 372.802 199.567 372.046V373ZM199.567 371.092C199.081 371.74 198.235 372.082 197.335 372.082C196.165 372.082 195.337 371.38 195.337 370.354C195.337 369.328 196.165 368.626 197.335 368.626C198.235 368.626 199.081 368.968 199.567 369.616V371.092ZM207.722 371.308C208.748 372.442 210.314 373.216 212.456 373.216C215.696 373.216 216.992 371.47 216.992 369.598C216.992 367.042 214.706 366.43 212.744 365.908C211.25 365.53 209.954 365.188 209.954 364.108C209.954 363.1 210.872 362.416 212.204 362.416C213.5 362.416 214.76 362.848 215.678 363.82L216.722 362.488C215.66 361.408 214.202 360.814 212.348 360.814C209.846 360.814 208.1 362.254 208.1 364.234C208.1 366.682 210.332 367.24 212.258 367.744C213.788 368.14 215.156 368.5 215.156 369.76C215.156 370.624 214.472 371.614 212.528 371.614C210.854 371.614 209.558 370.822 208.748 369.922L207.722 371.308ZM218.501 368.644C218.501 371.38 220.409 373.216 223.001 373.216C224.405 373.216 225.629 372.766 226.493 371.92L225.737 370.858C225.089 371.524 224.081 371.884 223.163 371.884C221.417 371.884 220.337 370.66 220.211 369.184H227.087V368.788C227.087 366.124 225.467 364.09 222.857 364.09C220.319 364.09 218.501 366.124 218.501 368.644ZM222.857 365.422C224.693 365.422 225.467 366.862 225.503 368.014H220.193C220.283 366.826 221.111 365.422 222.857 365.422ZM231.507 373.216C232.353 373.216 232.857 372.982 233.199 372.658L232.785 371.434C232.623 371.614 232.281 371.776 231.903 371.776C231.345 371.776 231.057 371.326 231.057 370.714V365.728H232.821V364.306H231.057V361.93H229.437V364.306H227.997V365.728H229.437V371.074C229.437 372.442 230.139 373.216 231.507 373.216ZM233.859 371.866C234.741 372.766 236.019 373.216 237.477 373.216C239.763 373.216 240.987 372.046 240.987 370.552C240.987 368.554 239.187 368.14 237.675 367.798C236.595 367.546 235.659 367.294 235.659 366.538C235.659 365.836 236.343 365.404 237.441 365.404C238.539 365.404 239.511 365.854 240.015 366.466L240.735 365.332C239.997 364.63 238.917 364.09 237.423 364.09C235.299 364.09 234.111 365.278 234.111 366.664C234.111 368.536 235.839 368.932 237.315 369.274C238.431 369.526 239.421 369.814 239.421 370.678C239.421 371.416 238.773 371.92 237.549 371.92C236.379 371.92 235.227 371.326 234.633 370.678L233.859 371.866ZM85.0886 398.624C86.1866 398.624 87.0866 397.724 87.0866 396.644C87.0866 395.546 86.1866 394.646 85.0886 394.646C83.9906 394.646 83.0906 395.546 83.0906 396.644C83.0906 397.724 83.9906 398.624 85.0886 398.624ZM93.5344 399.308C94.5604 400.442 96.1264 401.216 98.2684 401.216C101.508 401.216 102.804 399.47 102.804 397.598C102.804 395.042 100.518 394.43 98.5564 393.908C97.0624 393.53 95.7664 393.188 95.7664 392.108C95.7664 391.1 96.6844 390.416 98.0164 390.416C99.3124 390.416 100.572 390.848 101.49 391.82L102.534 390.488C101.472 389.408 100.014 388.814 98.1604 388.814C95.6584 388.814 93.9124 390.254 93.9124 392.234C93.9124 394.682 96.1444 395.24 98.0704 395.744C99.6004 396.14 100.968 396.5 100.968 397.76C100.968 398.624 100.284 399.614 98.3404 399.614C96.6664 399.614 95.3704 398.822 94.5604 397.922L93.5344 399.308ZM108.706 401.216C111.424 401.216 113.098 399.164 113.098 396.644C113.098 394.142 111.424 392.09 108.706 392.09C106.006 392.09 104.314 394.142 104.314 396.644C104.314 399.164 106.006 401.216 108.706 401.216ZM108.706 399.776C106.978 399.776 106.006 398.3 106.006 396.644C106.006 395.006 106.978 393.53 108.706 393.53C110.452 393.53 111.406 395.006 111.406 396.644C111.406 398.3 110.452 399.776 108.706 399.776ZM115.55 401H117.17V393.728H118.934V392.306H117.17V391.73C117.17 390.686 117.656 390.146 118.466 390.146C118.754 390.146 119.024 390.218 119.24 390.344L119.618 389.138C119.24 388.922 118.754 388.814 118.196 388.814C116.648 388.814 115.55 389.858 115.55 391.73V392.306H114.11V393.728H115.55V401ZM122.875 401.216C123.721 401.216 124.225 400.982 124.567 400.658L124.153 399.434C123.991 399.614 123.649 399.776 123.271 399.776C122.713 399.776 122.425 399.326 122.425 398.714V393.728H124.189V392.306H122.425V389.93H120.805V392.306H119.365V393.728H120.805V399.074C120.805 400.442 121.507 401.216 122.875 401.216ZM133.525 401H135.199L137.935 392.306H136.243L134.263 398.93L132.085 392.306H130.681L128.503 398.93L126.523 392.306H124.831L127.567 401H129.241L131.383 394.322L133.525 401ZM144.741 401H146.361V395.132C146.361 392.918 144.759 392.09 142.869 392.09C141.465 392.09 140.277 392.558 139.305 393.512L140.007 394.628C140.781 393.854 141.627 393.476 142.617 393.476C143.859 393.476 144.741 394.124 144.741 395.204V396.644C144.075 395.87 143.067 395.492 141.897 395.492C140.439 395.492 138.873 396.356 138.873 398.336C138.873 400.244 140.457 401.216 141.897 401.216C143.067 401.216 144.057 400.802 144.741 400.046V401ZM144.741 399.092C144.255 399.74 143.409 400.082 142.509 400.082C141.339 400.082 140.511 399.38 140.511 398.354C140.511 397.328 141.339 396.626 142.509 396.626C143.409 396.626 144.255 396.968 144.741 397.616V399.092ZM148.957 401H150.577V394.952C150.955 394.304 152.053 393.692 152.863 393.692C153.079 393.692 153.259 393.71 153.421 393.746V392.108C152.269 392.108 151.243 392.774 150.577 393.638V392.306H148.957V401ZM154.499 396.644C154.499 399.38 156.407 401.216 158.999 401.216C160.403 401.216 161.627 400.766 162.491 399.92L161.735 398.858C161.087 399.524 160.079 399.884 159.161 399.884C157.415 399.884 156.335 398.66 156.209 397.184H163.085V396.788C163.085 394.124 161.465 392.09 158.855 392.09C156.317 392.09 154.499 394.124 154.499 396.644ZM158.855 393.422C160.691 393.422 161.465 394.862 161.501 396.014H156.191C156.281 394.826 157.109 393.422 158.855 393.422ZM170.148 401H171.768V393.728H173.532V392.306H171.768V391.73C171.768 390.686 172.254 390.146 173.064 390.146C173.352 390.146 173.622 390.218 173.838 390.344L174.216 389.138C173.838 388.922 173.352 388.814 172.794 388.814C171.246 388.814 170.148 389.858 170.148 391.73V392.306H168.708V393.728H170.148V401ZM178.93 401.216C181.648 401.216 183.322 399.164 183.322 396.644C183.322 394.142 181.648 392.09 178.93 392.09C176.23 392.09 174.538 394.142 174.538 396.644C174.538 399.164 176.23 401.216 178.93 401.216ZM178.93 399.776C177.202 399.776 176.23 398.3 176.23 396.644C176.23 395.006 177.202 393.53 178.93 393.53C180.676 393.53 181.63 395.006 181.63 396.644C181.63 398.3 180.676 399.776 178.93 399.776ZM185.379 401H186.999V394.952C187.377 394.304 188.475 393.692 189.285 393.692C189.501 393.692 189.681 393.71 189.843 393.746V392.108C188.691 392.108 187.665 392.774 186.999 393.638V392.306H185.379V401ZM196.138 401H203.392V399.416H197.938V388.994H196.138V401ZM204.474 396.644C204.474 399.38 206.382 401.216 208.974 401.216C210.378 401.216 211.602 400.766 212.466 399.92L211.71 398.858C211.062 399.524 210.054 399.884 209.136 399.884C207.39 399.884 206.31 398.66 206.184 397.184H213.06V396.788C213.06 394.124 211.44 392.09 208.83 392.09C206.292 392.09 204.474 394.124 204.474 396.644ZM208.83 393.422C210.666 393.422 211.44 394.862 211.476 396.014H206.166C206.256 394.826 207.084 393.422 208.83 393.422ZM220.45 401H222.07V395.132C222.07 392.918 220.468 392.09 218.578 392.09C217.174 392.09 215.986 392.558 215.014 393.512L215.716 394.628C216.49 393.854 217.336 393.476 218.326 393.476C219.568 393.476 220.45 394.124 220.45 395.204V396.644C219.784 395.87 218.776 395.492 217.606 395.492C216.148 395.492 214.582 396.356 214.582 398.336C214.582 400.244 216.166 401.216 217.606 401.216C218.776 401.216 219.766 400.802 220.45 400.046V401ZM220.45 399.092C219.964 399.74 219.118 400.082 218.218 400.082C217.048 400.082 216.22 399.38 216.22 398.354C216.22 397.328 217.048 396.626 218.218 396.626C219.118 396.626 219.964 396.968 220.45 397.616V399.092ZM224.666 401H226.286V394.952C226.664 394.304 227.762 393.692 228.572 393.692C228.788 393.692 228.968 393.71 229.13 393.746V392.108C227.978 392.108 226.952 392.774 226.286 393.638V392.306H224.666V401ZM236.616 401H238.236V394.898C238.236 393.062 237.282 392.09 235.446 392.09C234.096 392.09 232.944 392.828 232.368 393.53V392.306H230.748V401H232.368V394.79C232.836 394.142 233.754 393.53 234.762 393.53C235.878 393.53 236.616 393.998 236.616 395.438V401ZM241.595 390.848C242.171 390.848 242.639 390.398 242.639 389.822C242.639 389.246 242.171 388.778 241.595 388.778C241.037 388.778 240.551 389.246 240.551 389.822C240.551 390.398 241.037 390.848 241.595 390.848ZM240.803 401H242.423V392.306H240.803V401ZM250.872 401H252.492V394.898C252.492 393.062 251.538 392.09 249.702 392.09C248.352 392.09 247.2 392.828 246.624 393.53V392.306H245.004V401H246.624V394.79C247.092 394.142 248.01 393.53 249.018 393.53C250.134 393.53 250.872 393.998 250.872 395.438V401ZM254.987 403.232C256.031 404.222 257.093 404.528 258.551 404.528C260.693 404.528 262.871 403.646 262.871 400.658V392.306H261.251V393.566C260.549 392.63 259.523 392.09 258.389 392.09C256.139 392.09 254.519 393.782 254.519 396.572C254.519 399.416 256.139 401.072 258.389 401.072C259.559 401.072 260.585 400.442 261.251 399.578V400.712C261.251 402.548 259.901 403.196 258.551 403.196C257.363 403.196 256.481 402.872 255.761 402.044L254.987 403.232ZM261.251 398.336C260.801 399.038 259.811 399.632 258.839 399.632C257.219 399.632 256.211 398.372 256.211 396.572C256.211 394.79 257.219 393.53 258.839 393.53C259.811 393.53 260.801 394.106 261.251 394.808V398.336Z" fill="#FEFEFE"/>
<path d="M36.1223 265.288C39.7703 265.288 41.7863 263.344 42.9383 261.352L40.0103 259.936C39.3383 261.256 37.8983 262.264 36.1223 262.264C33.3383 262.264 31.2263 260.032 31.2263 257.008C31.2263 253.984 33.3383 251.752 36.1223 251.752C37.8983 251.752 39.3383 252.784 40.0103 254.08L42.9383 252.64C41.8103 250.648 39.7703 248.728 36.1223 248.728C31.4423 248.728 27.7223 252.088 27.7223 257.008C27.7223 261.928 31.4423 265.288 36.1223 265.288ZM50.2708 265.288C54.1108 265.288 56.4148 262.504 56.4148 259.192C56.4148 255.904 54.1108 253.12 50.2708 253.12C46.4548 253.12 44.1508 255.904 44.1508 259.192C44.1508 262.504 46.4548 265.288 50.2708 265.288ZM50.2708 262.576C48.3748 262.576 47.3188 261.016 47.3188 259.192C47.3188 257.392 48.3748 255.832 50.2708 255.832C52.1668 255.832 53.2468 257.392 53.2468 259.192C53.2468 261.016 52.1668 262.576 50.2708 262.576ZM66.5001 265H69.5481V256.816C69.5481 254.56 68.3241 253.12 65.7801 253.12C63.8841 253.12 62.4681 254.032 61.7241 254.92V253.408H58.6761V265H61.7241V257.2C62.2281 256.504 63.1641 255.832 64.3641 255.832C65.6601 255.832 66.5001 256.384 66.5001 257.992V265ZM76.4625 265.288C77.7345 265.288 78.5505 264.952 79.0065 264.544L78.3585 262.24C78.1905 262.408 77.7585 262.576 77.3025 262.576C76.6305 262.576 76.2465 262.024 76.2465 261.304V256.072H78.5985V253.408H76.2465V250.24H73.1745V253.408H71.2545V256.072H73.1745V262.12C73.1745 264.184 74.3265 265.288 76.4625 265.288ZM80.6839 265H83.7319V257.344C84.2359 256.6 85.5799 256.048 86.5879 256.048C86.9239 256.048 87.2119 256.072 87.4279 256.12V253.144C85.9879 253.144 84.5479 253.96 83.7319 254.992V253.408H80.6839V265ZM90.8443 251.704C91.8523 251.704 92.6683 250.888 92.6683 249.88C92.6683 248.872 91.8523 248.056 90.8443 248.056C89.8603 248.056 89.0203 248.872 89.0203 249.88C89.0203 250.888 89.8603 251.704 90.8443 251.704ZM89.3323 265H92.3803V253.408H89.3323V265ZM95.4026 265H98.4506V263.536C99.3626 264.664 100.635 265.288 102.027 265.288C104.955 265.288 107.163 263.08 107.163 259.216C107.163 255.424 104.979 253.12 102.027 253.12C100.659 253.12 99.3626 253.72 98.4506 254.896V248.992H95.4026V265ZM98.4506 261.28V257.176C98.9546 256.408 100.083 255.832 101.067 255.832C102.843 255.832 104.019 257.2 104.019 259.216C104.019 261.232 102.843 262.576 101.067 262.576C100.083 262.576 98.9546 262.024 98.4506 261.28ZM117.289 265H120.337V253.408H117.289V261.256C116.761 261.928 115.825 262.576 114.649 262.576C113.353 262.576 112.513 262.048 112.513 260.44V253.408H109.465V261.64C109.465 263.896 110.665 265.288 113.209 265.288C115.105 265.288 116.497 264.424 117.289 263.536V265ZM127.252 265.288C128.524 265.288 129.34 264.952 129.796 264.544L129.148 262.24C128.98 262.408 128.548 262.576 128.092 262.576C127.42 262.576 127.036 262.024 127.036 261.304V256.072H129.388V253.408H127.036V250.24H123.964V253.408H122.044V256.072H123.964V262.12C123.964 264.184 125.116 265.288 127.252 265.288ZM130.729 259.192C130.729 262.912 133.393 265.288 136.921 265.288C138.721 265.288 140.521 264.76 141.697 263.68L140.353 261.712C139.609 262.432 138.337 262.864 137.257 262.864C135.289 262.864 134.113 261.64 133.921 260.176H142.537V259.504C142.537 255.712 140.185 253.12 136.729 253.12C133.201 253.12 130.729 255.832 130.729 259.192ZM136.729 255.544C138.745 255.544 139.513 257.008 139.585 258.112H133.873C134.017 256.96 134.833 255.544 136.729 255.544ZM154.767 265.288C156.039 265.288 156.855 264.952 157.311 264.544L156.663 262.24C156.495 262.408 156.063 262.576 155.607 262.576C154.935 262.576 154.551 262.024 154.551 261.304V256.072H156.903V253.408H154.551V250.24H151.479V253.408H149.559V256.072H151.479V262.12C151.479 264.184 152.631 265.288 154.767 265.288ZM164.365 265.288C168.205 265.288 170.509 262.504 170.509 259.192C170.509 255.904 168.205 253.12 164.365 253.12C160.549 253.12 158.245 255.904 158.245 259.192C158.245 262.504 160.549 265.288 164.365 265.288ZM164.365 262.576C162.469 262.576 161.413 261.016 161.413 259.192C161.413 257.392 162.469 255.832 164.365 255.832C166.261 255.832 167.341 257.392 167.341 259.192C167.341 261.016 166.261 262.576 164.365 262.576ZM199.043 265H202.475V248.992H197.675L193.787 258.976L189.899 248.992H185.123V265H188.531V253.48L193.043 265H194.531L199.043 253.48V265ZM204.838 259.192C204.838 262.912 207.502 265.288 211.03 265.288C212.83 265.288 214.63 264.76 215.806 263.68L214.462 261.712C213.718 262.432 212.446 262.864 211.366 262.864C209.398 262.864 208.222 261.64 208.03 260.176H216.646V259.504C216.646 255.712 214.294 253.12 210.838 253.12C207.31 253.12 204.838 255.832 204.838 259.192ZM210.838 255.544C212.854 255.544 213.622 257.008 213.694 258.112H207.982C208.126 256.96 208.942 255.544 210.838 255.544ZM225.808 265H228.856V257.512C228.856 254.176 226.432 253.12 223.792 253.12C221.968 253.12 220.144 253.696 218.728 254.944L219.88 256.984C220.864 256.072 222.016 255.616 223.264 255.616C224.8 255.616 225.808 256.384 225.808 257.56V259.168C225.04 258.232 223.672 257.752 222.136 257.752C220.288 257.752 218.104 258.736 218.104 261.448C218.104 264.04 220.288 265.288 222.136 265.288C223.648 265.288 225.016 264.736 225.808 263.8V265ZM225.808 262.216C225.304 262.888 224.344 263.224 223.36 263.224C222.16 263.224 221.176 262.6 221.176 261.52C221.176 260.416 222.16 259.768 223.36 259.768C224.344 259.768 225.304 260.104 225.808 260.776V262.216ZM239.703 265H242.751V256.816C242.751 254.56 241.527 253.12 238.983 253.12C237.087 253.12 235.671 254.032 234.927 254.92V253.408H231.879V265H234.927V257.2C235.431 256.504 236.367 255.832 237.567 255.832C238.863 255.832 239.703 256.384 239.703 257.992V265ZM247.29 251.704C248.298 251.704 249.114 250.888 249.114 249.88C249.114 248.872 248.298 248.056 247.29 248.056C246.306 248.056 245.466 248.872 245.466 249.88C245.466 250.888 246.306 251.704 247.29 251.704ZM245.778 265H248.826V253.408H245.778V265ZM259.672 265H262.72V256.816C262.72 254.56 261.496 253.12 258.952 253.12C257.056 253.12 255.64 254.032 254.896 254.92V253.408H251.848V265H254.896V257.2C255.4 256.504 256.336 255.832 257.536 255.832C258.832 255.832 259.672 256.384 259.672 257.992V265ZM265.506 267.976C266.946 269.248 268.506 269.704 270.498 269.704C273.354 269.704 276.762 268.624 276.762 264.208V253.408H273.69V254.896C272.754 253.72 271.506 253.12 270.114 253.12C267.186 253.12 265.002 255.232 265.002 259.024C265.002 262.888 267.21 264.928 270.114 264.928C271.53 264.928 272.778 264.256 273.69 263.104V264.28C273.69 266.56 271.962 267.208 270.498 267.208C269.034 267.208 267.81 266.8 266.874 265.768L265.506 267.976ZM273.69 260.896C273.186 261.64 272.082 262.216 271.074 262.216C269.346 262.216 268.146 261.016 268.146 259.024C268.146 257.032 269.346 255.832 271.074 255.832C272.082 255.832 273.186 256.384 273.69 257.152V260.896ZM280.457 265H283.529V256.072H285.881V253.408H283.529V252.832C283.529 251.728 284.105 251.152 284.969 251.152C285.329 251.152 285.689 251.224 285.953 251.392L286.577 249.232C286.025 248.944 285.233 248.752 284.369 248.752C282.089 248.752 280.457 250.264 280.457 252.784V253.408H278.537V256.072H280.457V265ZM295.461 265H298.509V253.408H295.461V261.256C294.933 261.928 293.997 262.576 292.821 262.576C291.525 262.576 290.685 262.048 290.685 260.44V253.408H287.637V261.64C287.637 263.896 288.837 265.288 291.381 265.288C293.277 265.288 294.669 264.424 295.461 263.536V265ZM301.535 265H304.583V248.992H301.535V265ZM119.639 289H123.047V283.264H127.127C130.583 283.264 132.503 280.936 132.503 278.152C132.503 275.344 130.607 272.992 127.127 272.992H119.639V289ZM129.023 278.128C129.023 279.472 128.015 280.336 126.671 280.336H123.047V275.92H126.671C128.015 275.92 129.023 276.808 129.023 278.128ZM134.543 289H137.591V281.344C138.095 280.6 139.439 280.048 140.447 280.048C140.783 280.048 141.071 280.072 141.287 280.12V277.144C139.847 277.144 138.407 277.96 137.591 278.992V277.408H134.543V289ZM148.568 289.288C152.408 289.288 154.712 286.504 154.712 283.192C154.712 279.904 152.408 277.12 148.568 277.12C144.752 277.12 142.448 279.904 142.448 283.192C142.448 286.504 144.752 289.288 148.568 289.288ZM148.568 286.576C146.672 286.576 145.616 285.016 145.616 283.192C145.616 281.392 146.672 279.832 148.568 279.832C150.464 279.832 151.544 281.392 151.544 283.192C151.544 285.016 150.464 286.576 148.568 286.576ZM164.941 289H168.013V272.992H164.941V278.896C164.029 277.72 162.733 277.12 161.365 277.12C158.413 277.12 156.229 279.424 156.229 283.216C156.229 287.08 158.437 289.288 161.365 289.288C162.757 289.288 164.029 288.664 164.941 287.536V289ZM164.941 285.256C164.413 286.024 163.333 286.576 162.301 286.576C160.573 286.576 159.373 285.208 159.373 283.216C159.373 281.2 160.573 279.832 162.301 279.832C163.333 279.832 164.413 280.384 164.941 281.152V285.256ZM178.859 289H181.907V277.408H178.859V285.256C178.331 285.928 177.395 286.576 176.219 286.576C174.923 286.576 174.083 286.048 174.083 284.44V277.408H171.035V285.64C171.035 287.896 172.235 289.288 174.779 289.288C176.675 289.288 178.067 288.424 178.859 287.536V289ZM184.19 283.192C184.19 286.768 186.758 289.288 190.334 289.288C192.71 289.288 194.15 288.256 194.918 287.176L192.926 285.328C192.374 286.096 191.534 286.576 190.478 286.576C188.63 286.576 187.334 285.208 187.334 283.192C187.334 281.176 188.63 279.832 190.478 279.832C191.534 279.832 192.374 280.288 192.926 281.08L194.918 279.232C194.15 278.152 192.71 277.12 190.334 277.12C186.758 277.12 184.19 279.64 184.19 283.192ZM200.798 289.288C202.07 289.288 202.886 288.952 203.342 288.544L202.694 286.24C202.526 286.408 202.094 286.576 201.638 286.576C200.966 286.576 200.582 286.024 200.582 285.304V280.072H202.934V277.408H200.582V274.24H197.51V277.408H195.59V280.072H197.51V286.12C197.51 288.184 198.662 289.288 200.798 289.288ZM204.012 287.488C205.236 288.616 207.18 289.288 209.196 289.288C212.412 289.288 214.212 287.704 214.212 285.568C214.212 282.688 211.548 282.16 209.556 281.776C208.26 281.512 207.348 281.248 207.348 280.528C207.348 279.856 208.068 279.448 209.172 279.448C210.588 279.448 211.908 280.048 212.604 280.792L213.804 278.704C212.676 277.792 211.116 277.12 209.148 277.12C206.1 277.12 204.396 278.824 204.396 280.768C204.396 283.528 206.964 284.008 208.956 284.392C210.276 284.656 211.284 284.944 211.284 285.76C211.284 286.48 210.66 286.936 209.34 286.936C207.9 286.936 206.172 286.144 205.332 285.352L204.012 287.488Z" fill="#FEFEFE"/>
<line x1="0.5" y1="-0.5" x2="162.855" y2="-0.5" transform="matrix(0.999925 -0.0122432 0.00410799 0.999992 84 311.572)" stroke="#FEFEFE" stroke-linecap="square" stroke-dasharray="6 12"/>
<path d="M230.597 141.093L221.195 121.374C220.787 120.547 220.105 119.857 219.151 119.582L185.223 107.585L193.126 99.5869C196.26 96.4153 197.895 92.1406 197.759 87.728C197.622 83.1774 195.715 79.1785 192.308 76.1448C186.04 70.629 176.366 71.0427 170.234 77.1101L169.962 77.5238L169.144 76.6964C166.01 73.5248 161.65 71.8701 157.426 72.008C152.929 72.1459 148.978 74.0764 145.98 77.5238C140.53 83.8669 140.938 93.6574 146.934 99.8627L154.564 107.585L120.772 119.582C119.818 119.857 119.137 120.547 118.728 121.374L109.326 141.093C108.917 142.058 108.917 143.024 109.19 143.989C109.735 144.954 110.416 145.782 111.37 146.057L118.319 148.54V182.324C118.319 183.841 119.273 185.22 120.772 185.771L168.735 202.87C169.144 203.008 169.553 203.008 169.962 203.008C170.37 203.008 170.779 203.008 171.188 202.87L219.151 185.771C220.514 185.22 221.604 183.841 221.604 182.324V148.54L228.553 146.057C229.507 145.782 230.325 144.954 230.733 143.989C231.006 143.162 231.006 142.058 230.597 141.093ZM151.294 82.2122C152.929 80.2817 155.109 79.3164 157.562 79.1785C157.698 79.1785 157.698 79.1785 157.835 79.1785C160.151 79.1785 162.331 80.1438 163.966 81.7985L167.236 85.108C168.599 86.4869 170.916 86.4869 172.278 85.108L175.412 82.0743C178.819 78.6269 184.269 78.3511 187.675 81.3848C189.583 83.0396 190.537 85.2459 190.673 87.728C190.809 90.2101 189.856 92.5543 188.084 94.3469L169.962 112.825L151.975 94.6227C148.569 91.1753 148.296 85.7974 151.294 82.2122ZM117.502 140.68L123.77 127.442L164.92 142.058L158.652 155.296L117.502 140.68ZM166.419 194.321L125.541 179.842V151.16L159.333 163.156C159.742 163.294 160.151 163.294 160.56 163.294C161.922 163.294 163.149 162.467 163.83 161.226L166.419 155.71V194.321ZM169.962 136.129L132.763 122.891L160.151 113.101L165.056 118.065C166.419 119.444 168.19 120.133 169.825 120.133C171.461 120.133 173.368 119.444 174.595 118.065L179.5 113.101L207.024 122.891L169.962 136.129ZM214.382 179.842L173.504 194.321V155.848L176.093 161.364C176.638 162.605 178.001 163.432 179.364 163.432C179.772 163.432 180.181 163.432 180.59 163.294L214.382 151.297V179.842ZM181.135 155.296L174.867 142.058L216.017 127.442L222.285 140.68L181.135 155.296Z" fill="#FEFEFE"/>
<rect x="352" y="2" width="338" height="453" fill="#1F1216" fill-opacity="0.8"/>
<path d="M437.128 342.624C438.226 342.624 439.126 341.724 439.126 340.644C439.126 339.546 438.226 338.646 437.128 338.646C436.03 338.646 435.13 339.546 435.13 340.644C435.13 341.724 436.03 342.624 437.128 342.624ZM446.311 345H450.595C454.339 345 456.823 342.48 456.823 339.006C456.823 335.55 454.339 332.994 450.595 332.994H446.311V345ZM448.111 343.416V334.578H450.595C453.421 334.578 454.969 336.54 454.969 339.006C454.969 341.436 453.367 343.416 450.595 343.416H448.111ZM464.331 345H465.951V339.132C465.951 336.918 464.349 336.09 462.459 336.09C461.055 336.09 459.867 336.558 458.895 337.512L459.597 338.628C460.371 337.854 461.217 337.476 462.207 337.476C463.449 337.476 464.331 338.124 464.331 339.204V340.644C463.665 339.87 462.657 339.492 461.487 339.492C460.029 339.492 458.463 340.356 458.463 342.336C458.463 344.244 460.047 345.216 461.487 345.216C462.657 345.216 463.647 344.802 464.331 344.046V345ZM464.331 343.092C463.845 343.74 462.999 344.082 462.099 344.082C460.929 344.082 460.101 343.38 460.101 342.354C460.101 341.328 460.929 340.626 462.099 340.626C462.999 340.626 463.845 340.968 464.331 341.616V343.092ZM469.339 334.848C469.915 334.848 470.383 334.398 470.383 333.822C470.383 333.246 469.915 332.778 469.339 332.778C468.781 332.778 468.295 333.246 468.295 333.822C468.295 334.398 468.781 334.848 469.339 334.848ZM468.547 345H470.167V336.306H468.547V345ZM472.748 345H474.368V332.994H472.748V345ZM476.769 346.944L476.517 348.402C476.769 348.474 477.255 348.528 477.525 348.528C478.785 348.51 479.739 348.024 480.297 346.656L484.581 336.306H482.835L480.117 343.128L477.399 336.306H475.671L479.253 345.09L478.749 346.242C478.479 346.89 478.083 347.088 477.489 347.088C477.273 347.088 476.967 347.034 476.769 346.944ZM490.573 345H494.857C498.601 345 501.085 342.48 501.085 339.006C501.085 335.55 498.601 332.994 494.857 332.994H490.573V345ZM492.373 343.416V334.578H494.857C497.683 334.578 499.231 336.54 499.231 339.006C499.231 341.436 497.629 343.416 494.857 343.416H492.373ZM504.021 334.848C504.597 334.848 505.065 334.398 505.065 333.822C505.065 333.246 504.597 332.778 504.021 332.778C503.463 332.778 502.977 333.246 502.977 333.822C502.977 334.398 503.463 334.848 504.021 334.848ZM503.229 345H504.849V336.306H503.229V345ZM506.674 343.866C507.556 344.766 508.834 345.216 510.292 345.216C512.578 345.216 513.802 344.046 513.802 342.552C513.802 340.554 512.002 340.14 510.49 339.798C509.41 339.546 508.474 339.294 508.474 338.538C508.474 337.836 509.158 337.404 510.256 337.404C511.354 337.404 512.326 337.854 512.83 338.466L513.55 337.332C512.812 336.63 511.732 336.09 510.238 336.09C508.114 336.09 506.926 337.278 506.926 338.664C506.926 340.536 508.654 340.932 510.13 341.274C511.246 341.526 512.236 341.814 512.236 342.678C512.236 343.416 511.588 343.92 510.364 343.92C509.194 343.92 508.042 343.326 507.448 342.678L506.674 343.866ZM515.31 340.644C515.31 343.254 517.11 345.216 519.738 345.216C521.376 345.216 522.366 344.532 522.996 343.686L521.916 342.696C521.394 343.416 520.692 343.776 519.81 343.776C518.1 343.776 517.002 342.444 517.002 340.644C517.002 338.844 518.1 337.53 519.81 337.53C520.692 337.53 521.394 337.872 521.916 338.61L522.996 337.62C522.366 336.774 521.376 336.09 519.738 336.09C517.11 336.09 515.31 338.034 515.31 340.644ZM528.631 345.216C531.349 345.216 533.023 343.164 533.023 340.644C533.023 338.142 531.349 336.09 528.631 336.09C525.931 336.09 524.239 338.142 524.239 340.644C524.239 343.164 525.931 345.216 528.631 345.216ZM528.631 343.776C526.903 343.776 525.931 342.3 525.931 340.644C525.931 339.006 526.903 337.53 528.631 337.53C530.377 337.53 531.331 339.006 531.331 340.644C531.331 342.3 530.377 343.776 528.631 343.776ZM537.384 345H539.13L542.712 336.306H540.966L538.248 343.128L535.53 336.306H533.802L537.384 345ZM543.487 340.644C543.487 343.38 545.395 345.216 547.987 345.216C549.391 345.216 550.615 344.766 551.479 343.92L550.723 342.858C550.075 343.524 549.067 343.884 548.149 343.884C546.403 343.884 545.323 342.66 545.197 341.184H552.073V340.788C552.073 338.124 550.453 336.09 547.843 336.09C545.305 336.09 543.487 338.124 543.487 340.644ZM547.843 337.422C549.679 337.422 550.453 338.862 550.489 340.014H545.179C545.269 338.826 546.097 337.422 547.843 337.422ZM554.1 345H555.72V338.952C556.098 338.304 557.196 337.692 558.006 337.692C558.222 337.692 558.402 337.71 558.564 337.746V336.108C557.412 336.108 556.386 336.774 555.72 337.638V336.306H554.1V345ZM560.002 346.944L559.75 348.402C560.002 348.474 560.488 348.528 560.758 348.528C562.018 348.51 562.972 348.024 563.53 346.656L567.814 336.306H566.068L563.35 343.128L560.632 336.306H558.904L562.486 345.09L561.982 346.242C561.712 346.89 561.316 347.088 560.722 347.088C560.506 347.088 560.2 347.034 560.002 346.944ZM576.74 345H578.54V334.578H582.248V332.994H573.014V334.578H576.74V345ZM584.88 334.848C585.456 334.848 585.924 334.398 585.924 333.822C585.924 333.246 585.456 332.778 584.88 332.778C584.322 332.778 583.836 333.246 583.836 333.822C583.836 334.398 584.322 334.848 584.88 334.848ZM584.088 345H585.708V336.306H584.088V345ZM598.855 345H600.475V338.718C600.475 336.972 599.611 336.09 598.009 336.09C596.731 336.09 595.579 336.9 595.075 337.71C594.805 336.774 594.031 336.09 592.717 336.09C591.421 336.09 590.269 336.99 589.909 337.53V336.306H588.289V345H589.909V338.79C590.341 338.16 591.187 337.53 592.033 337.53C593.131 337.53 593.563 338.196 593.563 339.204V345H595.183V338.772C595.597 338.142 596.461 337.53 597.343 337.53C598.405 337.53 598.855 338.196 598.855 339.204V345ZM602.515 340.644C602.515 343.38 604.423 345.216 607.015 345.216C608.419 345.216 609.643 344.766 610.507 343.92L609.751 342.858C609.103 343.524 608.095 343.884 607.177 343.884C605.431 343.884 604.351 342.66 604.225 341.184H611.101V340.788C611.101 338.124 609.481 336.09 606.871 336.09C604.333 336.09 602.515 338.124 602.515 340.644ZM606.871 337.422C608.707 337.422 609.481 338.862 609.517 340.014H604.207C604.297 338.826 605.125 337.422 606.871 337.422ZM465.771 370.624C466.869 370.624 467.769 369.724 467.769 368.644C467.769 367.546 466.869 366.646 465.771 366.646C464.673 366.646 463.773 367.546 463.773 368.644C463.773 369.724 464.673 370.624 465.771 370.624ZM474.955 373H482.209V371.416H476.755V360.994H474.955V373ZM484.94 362.848C485.516 362.848 485.984 362.398 485.984 361.822C485.984 361.246 485.516 360.778 484.94 360.778C484.382 360.778 483.896 361.246 483.896 361.822C483.896 362.398 484.382 362.848 484.94 362.848ZM484.148 373H485.768V364.306H484.148V373ZM488.277 375.232C489.321 376.222 490.383 376.528 491.841 376.528C493.983 376.528 496.161 375.646 496.161 372.658V364.306H494.541V365.566C493.839 364.63 492.813 364.09 491.679 364.09C489.429 364.09 487.809 365.782 487.809 368.572C487.809 371.416 489.429 373.072 491.679 373.072C492.849 373.072 493.875 372.442 494.541 371.578V372.712C494.541 374.548 493.191 375.196 491.841 375.196C490.653 375.196 489.771 374.872 489.051 374.044L488.277 375.232ZM494.541 370.336C494.091 371.038 493.101 371.632 492.129 371.632C490.509 371.632 489.501 370.372 489.501 368.572C489.501 366.79 490.509 365.53 492.129 365.53C493.101 365.53 494.091 366.106 494.541 366.808V370.336ZM504.605 373H506.225V366.862C506.225 365.026 505.289 364.09 503.435 364.09C502.103 364.09 500.933 364.828 500.357 365.53V360.994H498.737V373H500.357V366.79C500.825 366.142 501.743 365.53 502.751 365.53C503.867 365.53 504.605 365.962 504.605 367.402V373ZM511.204 373.216C512.05 373.216 512.554 372.982 512.896 372.658L512.482 371.434C512.32 371.614 511.978 371.776 511.6 371.776C511.042 371.776 510.754 371.326 510.754 370.714V365.728H512.518V364.306H510.754V361.93H509.134V364.306H507.694V365.728H509.134V371.074C509.134 372.442 509.836 373.216 511.204 373.216ZM520.18 373H521.8V366.898C521.8 365.062 520.846 364.09 519.01 364.09C517.66 364.09 516.508 364.828 515.932 365.53V364.306H514.312V373H515.932V366.79C516.4 366.142 517.318 365.53 518.326 365.53C519.442 365.53 520.18 365.998 520.18 367.438V373ZM525.158 362.848C525.734 362.848 526.202 362.398 526.202 361.822C526.202 361.246 525.734 360.778 525.158 360.778C524.6 360.778 524.114 361.246 524.114 361.822C524.114 362.398 524.6 362.848 525.158 362.848ZM524.366 373H525.986V364.306H524.366V373ZM534.435 373H536.055V366.898C536.055 365.062 535.101 364.09 533.265 364.09C531.915 364.09 530.763 364.828 530.187 365.53V364.306H528.567V373H530.187V366.79C530.655 366.142 531.573 365.53 532.581 365.53C533.697 365.53 534.435 365.998 534.435 367.438V373ZM538.55 375.232C539.594 376.222 540.656 376.528 542.114 376.528C544.256 376.528 546.434 375.646 546.434 372.658V364.306H544.814V365.566C544.112 364.63 543.086 364.09 541.952 364.09C539.702 364.09 538.082 365.782 538.082 368.572C538.082 371.416 539.702 373.072 541.952 373.072C543.122 373.072 544.148 372.442 544.814 371.578V372.712C544.814 374.548 543.464 375.196 542.114 375.196C540.926 375.196 540.044 374.872 539.324 374.044L538.55 375.232ZM544.814 370.336C544.364 371.038 543.374 371.632 542.402 371.632C540.782 371.632 539.774 370.372 539.774 368.572C539.774 366.79 540.782 365.53 542.402 365.53C543.374 365.53 544.364 366.106 544.814 366.808V370.336ZM556.621 373H558.421V362.578H562.129V360.994H552.895V362.578H556.621V373ZM567.717 373H569.337V367.132C569.337 364.918 567.735 364.09 565.845 364.09C564.441 364.09 563.253 364.558 562.281 365.512L562.983 366.628C563.757 365.854 564.603 365.476 565.593 365.476C566.835 365.476 567.717 366.124 567.717 367.204V368.644C567.051 367.87 566.043 367.492 564.873 367.492C563.415 367.492 561.849 368.356 561.849 370.336C561.849 372.244 563.433 373.216 564.873 373.216C566.043 373.216 567.033 372.802 567.717 372.046V373ZM567.717 371.092C567.231 371.74 566.385 372.082 565.485 372.082C564.315 372.082 563.487 371.38 563.487 370.354C563.487 369.328 564.315 368.626 565.485 368.626C566.385 368.626 567.231 368.968 567.717 369.616V371.092ZM571.933 373H573.553V360.994H571.933V373ZM581.966 373H584.018L580.238 368.248L583.982 364.306H581.948L577.754 368.716V360.994H576.134V373H577.754V370.588L579.068 369.256L581.966 373ZM584.589 371.866C585.471 372.766 586.749 373.216 588.207 373.216C590.493 373.216 591.717 372.046 591.717 370.552C591.717 368.554 589.917 368.14 588.405 367.798C587.325 367.546 586.389 367.294 586.389 366.538C586.389 365.836 587.073 365.404 588.171 365.404C589.269 365.404 590.241 365.854 590.745 366.466L591.465 365.332C590.727 364.63 589.647 364.09 588.153 364.09C586.029 364.09 584.841 365.278 584.841 366.664C584.841 368.536 586.569 368.932 588.045 369.274C589.161 369.526 590.151 369.814 590.151 370.678C590.151 371.416 589.503 371.92 588.279 371.92C587.109 371.92 585.957 371.326 585.363 370.678L584.589 371.866ZM451.928 398.624C453.026 398.624 453.926 397.724 453.926 396.644C453.926 395.546 453.026 394.646 451.928 394.646C450.83 394.646 449.93 395.546 449.93 396.644C449.93 397.724 450.83 398.624 451.928 398.624ZM461.112 401H468.366V399.416H462.912V388.994H461.112V401ZM471.097 390.848C471.673 390.848 472.141 390.398 472.141 389.822C472.141 389.246 471.673 388.778 471.097 388.778C470.539 388.778 470.053 389.246 470.053 389.822C470.053 390.398 470.539 390.848 471.097 390.848ZM470.305 401H471.925V392.306H470.305V401ZM480.374 401H481.994V394.898C481.994 393.062 481.04 392.09 479.204 392.09C477.854 392.09 476.702 392.828 476.126 393.53V392.306H474.506V401H476.126V394.79C476.594 394.142 477.512 393.53 478.52 393.53C479.636 393.53 480.374 393.998 480.374 395.438V401ZM490.393 401H492.445L488.665 396.248L492.409 392.306H490.375L486.181 396.716V388.994H484.561V401H486.181V398.588L487.495 397.256L490.393 401ZM492.933 396.644C492.933 399.38 494.841 401.216 497.433 401.216C498.837 401.216 500.061 400.766 500.925 399.92L500.169 398.858C499.521 399.524 498.513 399.884 497.595 399.884C495.849 399.884 494.769 398.66 494.643 397.184H501.519V396.788C501.519 394.124 499.899 392.09 497.289 392.09C494.751 392.09 492.933 394.124 492.933 396.644ZM497.289 393.422C499.125 393.422 499.899 394.862 499.935 396.014H494.625C494.715 394.826 495.543 393.422 497.289 393.422ZM509.737 401H511.357V388.994H509.737V393.566C509.035 392.63 508.009 392.09 506.893 392.09C504.625 392.09 503.005 393.872 503.005 396.662C503.005 399.506 504.625 401.216 506.893 401.216C508.045 401.216 509.089 400.622 509.737 399.758V401ZM509.737 398.516C509.287 399.218 508.315 399.776 507.325 399.776C505.705 399.776 504.697 398.462 504.697 396.662C504.697 394.844 505.705 393.53 507.325 393.53C508.315 393.53 509.287 394.106 509.737 394.808V398.516ZM513.987 401H515.787V388.994H513.987V401ZM524.302 401H525.922V394.898C525.922 393.062 524.968 392.09 523.132 392.09C521.782 392.09 520.63 392.828 520.054 393.53V392.306H518.434V401H520.054V394.79C520.522 394.142 521.44 393.53 522.448 393.53C523.564 393.53 524.302 393.998 524.302 395.438V401ZM533.165 401H541.229V399.416H534.965V395.672H541.103V394.088H534.965V390.578H541.229V388.994H533.165V401ZM549.009 401H550.845L547.569 396.536L550.647 392.306H548.811L546.579 395.438L544.329 392.306H542.493L545.553 396.536L542.295 401H544.131L546.579 397.616L549.009 401ZM553.909 404.312V399.74C554.611 400.694 555.619 401.216 556.753 401.216C559.021 401.216 560.623 399.488 560.623 396.644C560.623 393.8 559.021 392.09 556.753 392.09C555.583 392.09 554.539 392.684 553.909 393.548V392.306H552.289V404.312H553.909ZM558.931 396.644C558.931 398.462 557.941 399.776 556.321 399.776C555.331 399.776 554.341 399.182 553.909 398.498V394.808C554.341 394.106 555.331 393.53 556.321 393.53C557.941 393.53 558.931 394.844 558.931 396.644ZM566.53 401.216C569.248 401.216 570.922 399.164 570.922 396.644C570.922 394.142 569.248 392.09 566.53 392.09C563.83 392.09 562.138 394.142 562.138 396.644C562.138 399.164 563.83 401.216 566.53 401.216ZM566.53 399.776C564.802 399.776 563.83 398.3 563.83 396.644C563.83 395.006 564.802 393.53 566.53 393.53C568.276 393.53 569.23 395.006 569.23 396.644C569.23 398.3 568.276 399.776 566.53 399.776ZM572.223 399.866C573.105 400.766 574.383 401.216 575.841 401.216C578.127 401.216 579.351 400.046 579.351 398.552C579.351 396.554 577.551 396.14 576.039 395.798C574.959 395.546 574.023 395.294 574.023 394.538C574.023 393.836 574.707 393.404 575.805 393.404C576.903 393.404 577.875 393.854 578.379 394.466L579.099 393.332C578.361 392.63 577.281 392.09 575.787 392.09C573.663 392.09 572.475 393.278 572.475 394.664C572.475 396.536 574.203 396.932 575.679 397.274C576.795 397.526 577.785 397.814 577.785 398.678C577.785 399.416 577.137 399.92 575.913 399.92C574.743 399.92 573.591 399.326 572.997 398.678L572.223 399.866ZM587.267 401H588.887V392.306H587.267V398.552C586.781 399.2 585.863 399.776 584.855 399.776C583.739 399.776 583.019 399.344 583.019 397.904V392.306H581.399V398.444C581.399 400.28 582.317 401.216 584.171 401.216C585.503 401.216 586.601 400.532 587.267 399.812V401ZM591.453 401H593.073V394.952C593.451 394.304 594.549 393.692 595.359 393.692C595.575 393.692 595.755 393.71 595.917 393.746V392.108C594.765 392.108 593.739 392.774 593.073 393.638V392.306H591.453V401ZM596.995 396.644C596.995 399.38 598.903 401.216 601.495 401.216C602.899 401.216 604.123 400.766 604.987 399.92L604.231 398.858C603.583 399.524 602.575 399.884 601.657 399.884C599.911 399.884 598.831 398.66 598.705 397.184H605.581V396.788C605.581 394.124 603.961 392.09 601.351 392.09C598.813 392.09 596.995 394.124 596.995 396.644ZM601.351 393.422C603.187 393.422 603.961 394.862 603.997 396.014H598.687C598.777 394.826 599.605 393.422 601.351 393.422Z" fill="#FEFEFE"/>
<path d="M416.943 289.288C420.591 289.288 422.607 287.344 423.759 285.352L420.831 283.936C420.159 285.256 418.719 286.264 416.943 286.264C414.159 286.264 412.047 284.032 412.047 281.008C412.047 277.984 414.159 275.752 416.943 275.752C418.719 275.752 420.159 276.784 420.831 278.08L423.759 276.64C422.631 274.648 420.591 272.728 416.943 272.728C412.263 272.728 408.543 276.088 408.543 281.008C408.543 285.928 412.263 289.288 416.943 289.288ZM431.091 289.288C434.931 289.288 437.235 286.504 437.235 283.192C437.235 279.904 434.931 277.12 431.091 277.12C427.275 277.12 424.971 279.904 424.971 283.192C424.971 286.504 427.275 289.288 431.091 289.288ZM431.091 286.576C429.195 286.576 428.139 285.016 428.139 283.192C428.139 281.392 429.195 279.832 431.091 279.832C432.987 279.832 434.067 281.392 434.067 283.192C434.067 285.016 432.987 286.576 431.091 286.576ZM447.32 289H450.368V280.816C450.368 278.56 449.144 277.12 446.6 277.12C444.704 277.12 443.288 278.032 442.544 278.92V277.408H439.496V289H442.544V281.2C443.048 280.504 443.984 279.832 445.184 279.832C446.48 279.832 447.32 280.384 447.32 281.992V289ZM457.283 289.288C458.555 289.288 459.371 288.952 459.827 288.544L459.179 286.24C459.011 286.408 458.579 286.576 458.123 286.576C457.451 286.576 457.067 286.024 457.067 285.304V280.072H459.419V277.408H457.067V274.24H453.995V277.408H452.075V280.072H453.995V286.12C453.995 288.184 455.147 289.288 457.283 289.288ZM463.016 275.704C464.024 275.704 464.84 274.888 464.84 273.88C464.84 272.872 464.024 272.056 463.016 272.056C462.032 272.056 461.192 272.872 461.192 273.88C461.192 274.888 462.032 275.704 463.016 275.704ZM461.504 289H464.552V277.408H461.504V289ZM475.399 289H478.447V280.816C478.447 278.56 477.223 277.12 474.679 277.12C472.783 277.12 471.367 278.032 470.623 278.92V277.408H467.575V289H470.623V281.2C471.127 280.504 472.062 279.832 473.263 279.832C474.559 279.832 475.399 280.384 475.399 281.992V289ZM489.297 289H492.345V277.408H489.297V285.256C488.769 285.928 487.833 286.576 486.657 286.576C485.361 286.576 484.521 286.048 484.521 284.44V277.408H481.473V285.64C481.473 287.896 482.673 289.288 485.217 289.288C487.113 289.288 488.505 288.424 489.297 287.536V289ZM500.747 289.288C504.587 289.288 506.891 286.504 506.891 283.192C506.891 279.904 504.587 277.12 500.747 277.12C496.931 277.12 494.627 279.904 494.627 283.192C494.627 286.504 496.931 289.288 500.747 289.288ZM500.747 286.576C498.851 286.576 497.795 285.016 497.795 283.192C497.795 281.392 498.851 279.832 500.747 279.832C502.643 279.832 503.723 281.392 503.723 283.192C503.723 285.016 502.643 286.576 500.747 286.576ZM516.977 289H520.025V277.408H516.977V285.256C516.449 285.928 515.513 286.576 514.337 286.576C513.041 286.576 512.201 286.048 512.201 284.44V277.408H509.153V285.64C509.153 287.896 510.353 289.288 512.897 289.288C514.793 289.288 516.185 288.424 516.977 287.536V289ZM522.043 287.488C523.267 288.616 525.211 289.288 527.227 289.288C530.443 289.288 532.243 287.704 532.243 285.568C532.243 282.688 529.579 282.16 527.587 281.776C526.291 281.512 525.379 281.248 525.379 280.528C525.379 279.856 526.099 279.448 527.203 279.448C528.619 279.448 529.939 280.048 530.635 280.792L531.835 278.704C530.707 277.792 529.147 277.12 527.179 277.12C524.131 277.12 522.427 278.824 522.427 280.768C522.427 283.528 524.995 284.008 526.987 284.392C528.307 284.656 529.315 284.944 529.315 285.76C529.315 286.48 528.691 286.936 527.371 286.936C525.931 286.936 524.203 286.144 523.363 285.352L522.043 287.488ZM540.701 289H550.877V286H544.109V272.992H540.701V289ZM552.19 283.192C552.19 286.912 554.854 289.288 558.382 289.288C560.182 289.288 561.982 288.76 563.158 287.68L561.814 285.712C561.07 286.432 559.798 286.864 558.718 286.864C556.75 286.864 555.574 285.64 555.382 284.176H563.998V283.504C563.998 279.712 561.646 277.12 558.19 277.12C554.662 277.12 552.19 279.832 552.19 283.192ZM558.19 279.544C560.206 279.544 560.974 281.008 561.046 282.112H555.334C555.478 280.96 556.294 279.544 558.19 279.544ZM573.16 289H576.208V281.512C576.208 278.176 573.784 277.12 571.144 277.12C569.32 277.12 567.496 277.696 566.08 278.944L567.232 280.984C568.215 280.072 569.368 279.616 570.616 279.616C572.152 279.616 573.16 280.384 573.16 281.56V283.168C572.392 282.232 571.023 281.752 569.488 281.752C567.64 281.752 565.456 282.736 565.456 285.448C565.456 288.04 567.64 289.288 569.488 289.288C571 289.288 572.368 288.736 573.16 287.8V289ZM573.16 286.216C572.656 286.888 571.696 287.224 570.712 287.224C569.512 287.224 568.528 286.6 568.528 285.52C568.528 284.416 569.512 283.768 570.712 283.768C571.696 283.768 572.656 284.104 573.16 284.776V286.216ZM579.231 289H582.279V281.344C582.783 280.6 584.127 280.048 585.135 280.048C585.471 280.048 585.759 280.072 585.975 280.12V277.144C584.535 277.144 583.095 277.96 582.279 278.992V277.408H579.231V289ZM595.703 289H598.751V280.816C598.751 278.56 597.527 277.12 594.983 277.12C593.087 277.12 591.671 278.032 590.927 278.92V277.408H587.879V289H590.927V281.2C591.431 280.504 592.367 279.832 593.567 279.832C594.863 279.832 595.703 280.384 595.703 281.992V289ZM603.29 275.704C604.298 275.704 605.114 274.888 605.114 273.88C605.114 272.872 604.298 272.056 603.29 272.056C602.306 272.056 601.466 272.872 601.466 273.88C601.466 274.888 602.306 275.704 603.29 275.704ZM601.778 289H604.826V277.408H601.778V289ZM615.672 289H618.72V280.816C618.72 278.56 617.496 277.12 614.952 277.12C613.056 277.12 611.64 278.032 610.896 278.92V277.408H607.848V289H610.896V281.2C611.4 280.504 612.336 279.832 613.536 279.832C614.832 279.832 615.672 280.384 615.672 281.992V289ZM621.506 291.976C622.946 293.248 624.506 293.704 626.498 293.704C629.354 293.704 632.762 292.624 632.762 288.208V277.408H629.69V278.896C628.754 277.72 627.506 277.12 626.114 277.12C623.186 277.12 621.002 279.232 621.002 283.024C621.002 286.888 623.21 288.928 626.114 288.928C627.53 288.928 628.778 288.256 629.69 287.104V288.28C629.69 290.56 627.962 291.208 626.498 291.208C625.034 291.208 623.81 290.8 622.874 289.768L621.506 291.976ZM629.69 284.896C629.186 285.64 628.082 286.216 627.074 286.216C625.346 286.216 624.146 285.016 624.146 283.024C624.146 281.032 625.346 279.832 627.074 279.832C628.082 279.832 629.186 280.384 629.69 281.152V284.896Z" fill="#FEFEFE"/>
<line x1="0.5" y1="-0.5" x2="167.855" y2="-0.5" transform="matrix(0.999929 -0.0119506 0.00420858 0.999991 436 311.572)" stroke="#FEFEFE" stroke-linecap="square" stroke-dasharray="6 12"/>
<g clip-path="url(#clip0)">
<path d="M491.853 199H565.377C566.508 199 567.356 198.139 567.356 196.991C567.356 178.762 569.477 160.676 573.86 142.878C574.85 138.859 575.274 134.696 575.274 130.534C574.992 101.683 552.086 78.2871 523.666 78C499.064 78 477.997 95.5113 472.907 119.912C472.341 123.07 464.14 161.824 463.999 162.255C463.716 163.403 464.423 164.408 465.554 164.695C465.696 164.695 465.837 164.695 465.978 164.695H477.855V184.79C477.855 192.684 484.077 198.856 491.853 199ZM468.382 160.676C470.22 152.064 476.3 123.501 476.866 120.773C481.39 98.2384 500.902 82.1625 523.525 82.019C549.824 82.019 571.174 103.693 571.174 130.534C571.174 134.409 570.75 138.141 569.76 141.873C565.518 159.241 563.397 177.039 563.256 194.837H539.644C541.623 192.972 542.896 190.531 543.461 187.804L549.4 160.963L545.582 160.102L539.644 186.943C538.654 191.536 534.554 194.837 529.888 194.837H491.853C486.339 194.837 481.956 190.388 481.956 184.79V176.752H483.087C488.601 176.609 493.691 174.168 497.367 170.006L494.398 167.279C491.57 170.58 487.47 172.59 483.087 172.59H481.956V162.542C481.956 161.394 481.107 160.533 479.976 160.533H468.382V160.676Z" fill="#FEFEFE"/>
<path d="M491.854 134.409H532.575L543.886 149.768C544.31 150.342 544.876 150.629 545.442 150.629H549.401C557.036 150.629 563.257 144.313 563.257 136.562V126.515C563.257 105.272 546.431 88.0475 525.505 88.0475H521.546C500.762 88.0475 483.936 105.272 483.795 126.371C483.795 130.821 487.471 134.409 491.854 134.409ZM549.401 146.466H546.431L543.462 142.447H557.319C555.339 145.031 552.511 146.466 549.401 146.466ZM559.298 136.419C559.298 137.136 559.298 137.711 559.157 138.428H540.493L537.524 134.409H559.298V136.419ZM490.299 113.453C492.42 116.467 495.954 118.333 499.631 118.333V114.314C496.661 114.314 494.116 112.592 492.844 110.008L492.42 109.147C496.237 102.545 502.034 97.5208 508.963 94.6501C510.659 97.3773 511.649 100.535 511.649 103.836V104.267H515.608V103.836C515.608 100.104 514.618 96.516 512.922 93.3583C515.749 92.6406 518.719 92.21 521.546 92.21H525.505C528.333 92.21 531.302 92.6406 533.989 93.3583C531.868 96.6596 531.02 100.535 531.444 104.554L535.403 104.123C534.979 100.822 535.827 97.3773 537.948 94.6501C547.704 98.6691 555.056 106.851 557.884 117.042L557.743 116.898C555.622 119.051 552.653 120.343 549.542 120.343H549.259V124.362H549.542C552.794 124.362 556.046 123.214 558.732 121.348C559.015 123.07 559.157 124.792 559.157 126.371V130.39H537.382C536.958 126.802 535.403 123.501 532.858 120.917L530.03 123.788C531.727 125.654 532.999 127.95 533.282 130.39H525.505C521.122 130.39 517.587 126.802 517.587 122.352C517.587 117.903 521.122 114.314 525.505 114.314H539.503C539.786 116.18 540.634 118.046 541.765 119.625L545.017 117.185C542.897 114.314 542.897 110.295 545.017 107.425L541.765 104.985C540.634 106.563 539.927 108.286 539.503 110.295H527.343C526.919 106.707 525.364 103.406 522.819 100.822L519.991 103.693C521.829 105.559 522.96 107.999 523.243 110.582C519.85 111.157 516.88 113.31 515.184 116.324C511.79 115.176 509.528 112.018 509.528 108.429H505.569C505.569 113.74 508.821 118.333 513.77 120.056C512.922 123.788 514.053 127.807 516.598 130.534H507.549C507.124 126.945 505.569 123.644 503.024 121.061L500.196 123.931C501.893 125.797 503.165 128.094 503.448 130.534H491.713C489.45 130.534 487.754 128.668 487.754 126.515C487.895 121.922 488.744 117.472 490.299 113.453Z" fill="#FEFEFE"/>
<path d="M497.464 138C493.081 138 489.546 141.588 489.546 146.038C489.546 150.488 493.081 154.076 497.464 154.076C501.847 154.076 505.382 150.488 505.382 146.038C505.382 141.588 501.847 138 497.464 138ZM497.464 150.2C495.202 150.2 493.505 148.335 493.505 146.181C493.505 144.028 495.343 142.163 497.464 142.163C499.727 142.163 501.423 144.028 501.423 146.181C501.423 148.335 499.585 150.2 497.464 150.2Z" fill="#FEFEFE"/>
</g>
<rect x="705" width="334" height="455" fill="#1F1216" fill-opacity="0.8"/>
<path d="M758.79 340.624C759.888 340.624 760.788 339.724 760.788 338.644C760.788 337.546 759.888 336.646 758.79 336.646C757.692 336.646 756.792 337.546 756.792 338.644C756.792 339.724 757.692 340.624 758.79 340.624ZM767.974 343H772.258C776.002 343 778.486 340.48 778.486 337.006C778.486 333.55 776.002 330.994 772.258 330.994H767.974V343ZM769.774 341.416V332.578H772.258C775.084 332.578 776.632 334.54 776.632 337.006C776.632 339.436 775.03 341.416 772.258 341.416H769.774ZM780.089 338.644C780.089 341.38 781.997 343.216 784.589 343.216C785.993 343.216 787.217 342.766 788.081 341.92L787.325 340.858C786.677 341.524 785.669 341.884 784.751 341.884C783.005 341.884 781.925 340.66 781.799 339.184H788.675V338.788C788.675 336.124 787.055 334.09 784.445 334.09C781.907 334.09 780.089 336.124 780.089 338.644ZM784.445 335.422C786.281 335.422 787.055 336.862 787.091 338.014H781.781C781.871 336.826 782.699 335.422 784.445 335.422ZM789.945 341.866C790.827 342.766 792.105 343.216 793.563 343.216C795.849 343.216 797.073 342.046 797.073 340.552C797.073 338.554 795.273 338.14 793.761 337.798C792.681 337.546 791.745 337.294 791.745 336.538C791.745 335.836 792.429 335.404 793.527 335.404C794.625 335.404 795.597 335.854 796.101 336.466L796.821 335.332C796.083 334.63 795.003 334.09 793.509 334.09C791.385 334.09 790.197 335.278 790.197 336.664C790.197 338.536 791.925 338.932 793.401 339.274C794.517 339.526 795.507 339.814 795.507 340.678C795.507 341.416 794.859 341.92 793.635 341.92C792.465 341.92 791.313 341.326 790.719 340.678L789.945 341.866ZM799.913 332.848C800.489 332.848 800.957 332.398 800.957 331.822C800.957 331.246 800.489 330.778 799.913 330.778C799.355 330.778 798.869 331.246 798.869 331.822C798.869 332.398 799.355 332.848 799.913 332.848ZM799.121 343H800.741V334.306H799.121V343ZM803.25 345.232C804.294 346.222 805.356 346.528 806.814 346.528C808.956 346.528 811.134 345.646 811.134 342.658V334.306H809.514V335.566C808.812 334.63 807.786 334.09 806.652 334.09C804.402 334.09 802.782 335.782 802.782 338.572C802.782 341.416 804.402 343.072 806.652 343.072C807.822 343.072 808.848 342.442 809.514 341.578V342.712C809.514 344.548 808.164 345.196 806.814 345.196C805.626 345.196 804.744 344.872 804.024 344.044L803.25 345.232ZM809.514 340.336C809.064 341.038 808.074 341.632 807.102 341.632C805.482 341.632 804.474 340.372 804.474 338.572C804.474 336.79 805.482 335.53 807.102 335.53C808.074 335.53 809.064 336.106 809.514 336.808V340.336ZM819.579 343H821.199V336.898C821.199 335.062 820.245 334.09 818.409 334.09C817.059 334.09 815.907 334.828 815.331 335.53V334.306H813.711V343H815.331V336.79C815.799 336.142 816.717 335.53 817.725 335.53C818.841 335.53 819.579 335.998 819.579 337.438V343ZM833.77 343H835.39V337.132C835.39 334.918 833.788 334.09 831.898 334.09C830.494 334.09 829.306 334.558 828.334 335.512L829.036 336.628C829.81 335.854 830.656 335.476 831.646 335.476C832.888 335.476 833.77 336.124 833.77 337.204V338.644C833.104 337.87 832.096 337.492 830.926 337.492C829.468 337.492 827.902 338.356 827.902 340.336C827.902 342.244 829.486 343.216 830.926 343.216C832.096 343.216 833.086 342.802 833.77 342.046V343ZM833.77 341.092C833.284 341.74 832.438 342.082 831.538 342.082C830.368 342.082 829.54 341.38 829.54 340.354C829.54 339.328 830.368 338.626 831.538 338.626C832.438 338.626 833.284 338.968 833.77 339.616V341.092ZM843.854 343H845.474V336.898C845.474 335.062 844.52 334.09 842.684 334.09C841.334 334.09 840.182 334.828 839.606 335.53V334.306H837.986V343H839.606V336.79C840.074 336.142 840.992 335.53 842 335.53C843.116 335.53 843.854 335.998 843.854 337.438V343ZM854.233 343H855.853V330.994H854.233V335.566C853.531 334.63 852.505 334.09 851.389 334.09C849.121 334.09 847.501 335.872 847.501 338.662C847.501 341.506 849.121 343.216 851.389 343.216C852.541 343.216 853.585 342.622 854.233 341.758V343ZM854.233 340.516C853.783 341.218 852.811 341.776 851.821 341.776C850.201 341.776 849.193 340.462 849.193 338.662C849.193 336.844 850.201 335.53 851.821 335.53C852.811 335.53 853.783 336.106 854.233 336.808V340.516ZM863.124 343H871.188V341.416H864.924V337.672H871.062V336.088H864.924V332.578H871.188V330.994H863.124V343ZM879.274 343H880.894V336.898C880.894 335.062 879.94 334.09 878.104 334.09C876.754 334.09 875.602 334.828 875.026 335.53V334.306H873.406V343H875.026V336.79C875.494 336.142 876.412 335.53 877.42 335.53C878.536 335.53 879.274 335.998 879.274 337.438V343ZM883.389 345.232C884.433 346.222 885.495 346.528 886.953 346.528C889.095 346.528 891.273 345.646 891.273 342.658V334.306H889.653V335.566C888.951 334.63 887.925 334.09 886.791 334.09C884.541 334.09 882.921 335.782 882.921 338.572C882.921 341.416 884.541 343.072 886.791 343.072C887.961 343.072 888.987 342.442 889.653 341.578V342.712C889.653 344.548 888.303 345.196 886.953 345.196C885.765 345.196 884.883 344.872 884.163 344.044L883.389 345.232ZM889.653 340.336C889.203 341.038 888.213 341.632 887.241 341.632C885.621 341.632 884.613 340.372 884.613 338.572C884.613 336.79 885.621 335.53 887.241 335.53C888.213 335.53 889.203 336.106 889.653 336.808V340.336ZM894.642 332.848C895.218 332.848 895.686 332.398 895.686 331.822C895.686 331.246 895.218 330.778 894.642 330.778C894.084 330.778 893.598 331.246 893.598 331.822C893.598 332.398 894.084 332.848 894.642 332.848ZM893.85 343H895.47V334.306H893.85V343ZM903.919 343H905.539V336.898C905.539 335.062 904.585 334.09 902.749 334.09C901.399 334.09 900.247 334.828 899.671 335.53V334.306H898.051V343H899.671V336.79C900.139 336.142 901.057 335.53 902.065 335.53C903.181 335.53 903.919 335.998 903.919 337.438V343ZM907.566 338.644C907.566 341.38 909.474 343.216 912.066 343.216C913.47 343.216 914.694 342.766 915.558 341.92L914.802 340.858C914.154 341.524 913.146 341.884 912.228 341.884C910.482 341.884 909.402 340.66 909.276 339.184H916.152V338.788C916.152 336.124 914.532 334.09 911.922 334.09C909.384 334.09 907.566 336.124 907.566 338.644ZM911.922 335.422C913.758 335.422 914.532 336.862 914.568 338.014H909.258C909.348 336.826 910.176 335.422 911.922 335.422ZM917.638 338.644C917.638 341.38 919.546 343.216 922.138 343.216C923.542 343.216 924.766 342.766 925.63 341.92L924.874 340.858C924.226 341.524 923.218 341.884 922.3 341.884C920.554 341.884 919.474 340.66 919.348 339.184H926.224V338.788C926.224 336.124 924.604 334.09 921.994 334.09C919.456 334.09 917.638 336.124 917.638 338.644ZM921.994 335.422C923.83 335.422 924.604 336.862 924.64 338.014H919.33C919.42 336.826 920.248 335.422 921.994 335.422ZM928.25 343H929.87V336.952C930.248 336.304 931.346 335.692 932.156 335.692C932.372 335.692 932.552 335.71 932.714 335.746V334.108C931.562 334.108 930.536 334.774 929.87 335.638V334.306H928.25V343ZM935.124 332.848C935.7 332.848 936.168 332.398 936.168 331.822C936.168 331.246 935.7 330.778 935.124 330.778C934.566 330.778 934.08 331.246 934.08 331.822C934.08 332.398 934.566 332.848 935.124 332.848ZM934.332 343H935.952V334.306H934.332V343ZM944.401 343H946.021V336.898C946.021 335.062 945.067 334.09 943.231 334.09C941.881 334.09 940.729 334.828 940.153 335.53V334.306H938.533V343H940.153V336.79C940.621 336.142 941.539 335.53 942.547 335.53C943.663 335.53 944.401 335.998 944.401 337.438V343ZM948.516 345.232C949.56 346.222 950.622 346.528 952.08 346.528C954.222 346.528 956.4 345.646 956.4 342.658V334.306H954.78V335.566C954.078 334.63 953.052 334.09 951.918 334.09C949.668 334.09 948.048 335.782 948.048 338.572C948.048 341.416 949.668 343.072 951.918 343.072C953.088 343.072 954.114 342.442 954.78 341.578V342.712C954.78 344.548 953.43 345.196 952.08 345.196C950.892 345.196 950.01 344.872 949.29 344.044L948.516 345.232ZM954.78 340.336C954.33 341.038 953.34 341.632 952.368 341.632C950.748 341.632 949.74 340.372 949.74 338.572C949.74 336.79 950.748 335.53 952.368 335.53C953.34 335.53 954.33 336.106 954.78 336.808V340.336ZM971.159 343H972.833L975.569 334.306H973.877L971.897 340.93L969.719 334.306H968.315L966.137 340.93L964.157 334.306H962.465L965.201 343H966.875L969.017 336.322L971.159 343ZM980.864 343.216C983.582 343.216 985.256 341.164 985.256 338.644C985.256 336.142 983.582 334.09 980.864 334.09C978.164 334.09 976.472 336.142 976.472 338.644C976.472 341.164 978.164 343.216 980.864 343.216ZM980.864 341.776C979.136 341.776 978.164 340.3 978.164 338.644C978.164 337.006 979.136 335.53 980.864 335.53C982.61 335.53 983.564 337.006 983.564 338.644C983.564 340.3 982.61 341.776 980.864 341.776ZM987.313 343H988.933V336.952C989.311 336.304 990.409 335.692 991.219 335.692C991.435 335.692 991.615 335.71 991.777 335.746V334.108C990.625 334.108 989.599 334.774 988.933 335.638V334.306H987.313V343ZM999.227 343H1001.28L997.499 338.248L1001.24 334.306H999.209L995.015 338.716V330.994H993.395V343H995.015V340.588L996.329 339.256L999.227 343ZM833.782 367H835.402V360.862C835.402 359.026 834.466 358.09 832.612 358.09C831.28 358.09 830.11 358.828 829.534 359.53V354.994H827.914V367H829.534V360.79C830.002 360.142 830.92 359.53 831.928 359.53C833.044 359.53 833.782 359.962 833.782 361.402V367ZM843.35 367H844.97V361.132C844.97 358.918 843.368 358.09 841.478 358.09C840.074 358.09 838.886 358.558 837.914 359.512L838.616 360.628C839.39 359.854 840.236 359.476 841.226 359.476C842.468 359.476 843.35 360.124 843.35 361.204V362.644C842.684 361.87 841.676 361.492 840.506 361.492C839.048 361.492 837.482 362.356 837.482 364.336C837.482 366.244 839.066 367.216 840.506 367.216C841.676 367.216 842.666 366.802 843.35 366.046V367ZM843.35 365.092C842.864 365.74 842.018 366.082 841.118 366.082C839.948 366.082 839.12 365.38 839.12 364.354C839.12 363.328 839.948 362.626 841.118 362.626C842.018 362.626 842.864 362.968 843.35 363.616V365.092ZM853.435 367H855.055V360.898C855.055 359.062 854.101 358.09 852.265 358.09C850.915 358.09 849.763 358.828 849.187 359.53V358.306H847.567V367H849.187V360.79C849.655 360.142 850.573 359.53 851.581 359.53C852.697 359.53 853.435 359.998 853.435 361.438V367ZM863.813 367H865.433V354.994H863.813V359.566C863.111 358.63 862.085 358.09 860.969 358.09C858.701 358.09 857.081 359.872 857.081 362.662C857.081 365.506 858.701 367.216 860.969 367.216C862.121 367.216 863.165 366.622 863.813 365.758V367ZM863.813 364.516C863.363 365.218 862.391 365.776 861.401 365.776C859.781 365.776 858.773 364.462 858.773 362.662C858.773 360.844 859.781 359.53 861.401 359.53C862.391 359.53 863.363 360.106 863.813 360.808V364.516ZM873.46 356.848C874.036 356.848 874.504 356.398 874.504 355.822C874.504 355.246 874.036 354.778 873.46 354.778C872.902 354.778 872.416 355.246 872.416 355.822C872.416 356.398 872.902 356.848 873.46 356.848ZM872.668 367H874.288V358.306H872.668V367ZM882.737 367H884.357V360.898C884.357 359.062 883.403 358.09 881.567 358.09C880.217 358.09 879.065 358.828 878.489 359.53V358.306H876.869V367H878.489V360.79C878.957 360.142 879.875 359.53 880.883 359.53C881.999 359.53 882.737 359.998 882.737 361.438V367ZM897.433 367H899.053V360.862C899.053 359.026 898.117 358.09 896.263 358.09C894.931 358.09 893.761 358.828 893.185 359.53V354.994H891.565V367H893.185V360.79C893.653 360.142 894.571 359.53 895.579 359.53C896.695 359.53 897.433 359.962 897.433 361.402V367ZM907.001 367H908.621V361.132C908.621 358.918 907.019 358.09 905.129 358.09C903.725 358.09 902.537 358.558 901.565 359.512L902.267 360.628C903.041 359.854 903.887 359.476 904.877 359.476C906.119 359.476 907.001 360.124 907.001 361.204V362.644C906.335 361.87 905.327 361.492 904.157 361.492C902.699 361.492 901.133 362.356 901.133 364.336C901.133 366.244 902.717 367.216 904.157 367.216C905.327 367.216 906.317 366.802 907.001 366.046V367ZM907.001 365.092C906.515 365.74 905.669 366.082 904.769 366.082C903.599 366.082 902.771 365.38 902.771 364.354C902.771 363.328 903.599 362.626 904.769 362.626C905.669 362.626 906.515 362.968 907.001 363.616V365.092ZM917.085 367H918.705V360.898C918.705 359.062 917.751 358.09 915.915 358.09C914.565 358.09 913.413 358.828 912.837 359.53V358.306H911.217V367H912.837V360.79C913.305 360.142 914.223 359.53 915.231 359.53C916.347 359.53 917.085 359.998 917.085 361.438V367ZM927.464 367H929.084V354.994H927.464V359.566C926.762 358.63 925.736 358.09 924.62 358.09C922.352 358.09 920.732 359.872 920.732 362.662C920.732 365.506 922.352 367.216 924.62 367.216C925.772 367.216 926.816 366.622 927.464 365.758V367ZM927.464 364.516C927.014 365.218 926.042 365.776 925.052 365.776C923.432 365.776 922.424 364.462 922.424 362.662C922.424 360.844 923.432 359.53 925.052 359.53C926.042 359.53 927.014 360.106 927.464 360.808V364.516ZM761.831 392.624C762.929 392.624 763.829 391.724 763.829 390.644C763.829 389.546 762.929 388.646 761.831 388.646C760.733 388.646 759.833 389.546 759.833 390.644C759.833 391.724 760.733 392.624 761.831 392.624ZM771.015 395H772.815V390.374H776.073C778.521 390.374 779.907 388.682 779.907 386.684C779.907 384.686 778.539 382.994 776.073 382.994H771.015V395ZM778.053 386.684C778.053 387.944 777.135 388.79 775.839 388.79H772.815V384.578H775.839C777.135 384.578 778.053 385.424 778.053 386.684ZM786.731 395H788.351V389.132C788.351 386.918 786.749 386.09 784.859 386.09C783.455 386.09 782.267 386.558 781.295 387.512L781.997 388.628C782.771 387.854 783.617 387.476 784.607 387.476C785.849 387.476 786.731 388.124 786.731 389.204V390.644C786.065 389.87 785.057 389.492 783.887 389.492C782.429 389.492 780.863 390.356 780.863 392.336C780.863 394.244 782.447 395.216 783.887 395.216C785.057 395.216 786.047 394.802 786.731 394.046V395ZM786.731 393.092C786.245 393.74 785.399 394.082 784.499 394.082C783.329 394.082 782.501 393.38 782.501 392.354C782.501 391.328 783.329 390.626 784.499 390.626C785.399 390.626 786.245 390.968 786.731 391.616V393.092ZM790.947 395H792.567V388.952C792.945 388.304 794.043 387.692 794.853 387.692C795.069 387.692 795.249 387.71 795.411 387.746V386.108C794.259 386.108 793.233 386.774 792.567 387.638V386.306H790.947V395ZM799.423 395.216C800.269 395.216 800.773 394.982 801.115 394.658L800.701 393.434C800.539 393.614 800.197 393.776 799.819 393.776C799.261 393.776 798.973 393.326 798.973 392.714V387.728H800.737V386.306H798.973V383.93H797.353V386.306H795.913V387.728H797.353V393.074C797.353 394.442 798.055 395.216 799.423 395.216ZM803.323 384.848C803.899 384.848 804.367 384.398 804.367 383.822C804.367 383.246 803.899 382.778 803.323 382.778C802.765 382.778 802.279 383.246 802.279 383.822C802.279 384.398 802.765 384.848 803.323 384.848ZM802.531 395H804.151V386.306H802.531V395ZM806.193 390.644C806.193 393.254 807.993 395.216 810.621 395.216C812.259 395.216 813.249 394.532 813.879 393.686L812.799 392.696C812.277 393.416 811.575 393.776 810.693 393.776C808.983 393.776 807.885 392.444 807.885 390.644C807.885 388.844 808.983 387.53 810.693 387.53C811.575 387.53 812.277 387.872 812.799 388.61L813.879 387.62C813.249 386.774 812.259 386.09 810.621 386.09C807.993 386.09 806.193 388.034 806.193 390.644ZM816.454 384.848C817.03 384.848 817.498 384.398 817.498 383.822C817.498 383.246 817.03 382.778 816.454 382.778C815.896 382.778 815.41 383.246 815.41 383.822C815.41 384.398 815.896 384.848 816.454 384.848ZM815.662 395H817.282V386.306H815.662V395ZM821.483 398.312V393.74C822.185 394.694 823.193 395.216 824.327 395.216C826.595 395.216 828.197 393.488 828.197 390.644C828.197 387.8 826.595 386.09 824.327 386.09C823.157 386.09 822.113 386.684 821.483 387.548V386.306H819.863V398.312H821.483ZM826.505 390.644C826.505 392.462 825.515 393.776 823.895 393.776C822.905 393.776 821.915 393.182 821.483 392.498V388.808C821.915 388.106 822.905 387.53 823.895 387.53C825.515 387.53 826.505 388.844 826.505 390.644ZM835.616 395H837.236V389.132C837.236 386.918 835.634 386.09 833.744 386.09C832.34 386.09 831.152 386.558 830.18 387.512L830.882 388.628C831.656 387.854 832.502 387.476 833.492 387.476C834.734 387.476 835.616 388.124 835.616 389.204V390.644C834.95 389.87 833.942 389.492 832.772 389.492C831.314 389.492 829.748 390.356 829.748 392.336C829.748 394.244 831.332 395.216 832.772 395.216C833.942 395.216 834.932 394.802 835.616 394.046V395ZM835.616 393.092C835.13 393.74 834.284 394.082 833.384 394.082C832.214 394.082 831.386 393.38 831.386 392.354C831.386 391.328 832.214 390.626 833.384 390.626C834.284 390.626 835.13 390.968 835.616 391.616V393.092ZM842.226 395.216C843.072 395.216 843.576 394.982 843.918 394.658L843.504 393.434C843.342 393.614 843 393.776 842.622 393.776C842.064 393.776 841.776 393.326 841.776 392.714V387.728H843.54V386.306H841.776V383.93H840.156V386.306H838.716V387.728H840.156V393.074C840.156 394.442 840.858 395.216 842.226 395.216ZM844.794 390.644C844.794 393.38 846.702 395.216 849.294 395.216C850.698 395.216 851.922 394.766 852.786 393.92L852.03 392.858C851.382 393.524 850.374 393.884 849.456 393.884C847.71 393.884 846.63 392.66 846.504 391.184H853.38V390.788C853.38 388.124 851.76 386.09 849.15 386.09C846.612 386.09 844.794 388.124 844.794 390.644ZM849.15 387.422C850.986 387.422 851.76 388.862 851.796 390.014H846.486C846.576 388.826 847.404 387.422 849.15 387.422ZM860.839 384.848C861.415 384.848 861.883 384.398 861.883 383.822C861.883 383.246 861.415 382.778 860.839 382.778C860.281 382.778 859.795 383.246 859.795 383.822C859.795 384.398 860.281 384.848 860.839 384.848ZM860.047 395H861.667V386.306H860.047V395ZM870.116 395H871.736V388.898C871.736 387.062 870.782 386.09 868.946 386.09C867.596 386.09 866.444 386.828 865.868 387.53V386.306H864.248V395H865.868V388.79C866.336 388.142 867.254 387.53 868.262 387.53C869.378 387.53 870.116 387.998 870.116 389.438V395ZM878.241 393.308C879.267 394.442 880.833 395.216 882.975 395.216C886.215 395.216 887.511 393.47 887.511 391.598C887.511 389.042 885.225 388.43 883.263 387.908C881.769 387.53 880.473 387.188 880.473 386.108C880.473 385.1 881.391 384.416 882.723 384.416C884.019 384.416 885.279 384.848 886.197 385.82L887.241 384.488C886.179 383.408 884.721 382.814 882.867 382.814C880.365 382.814 878.619 384.254 878.619 386.234C878.619 388.682 880.851 389.24 882.777 389.744C884.307 390.14 885.675 390.5 885.675 391.76C885.675 392.624 884.991 393.614 883.047 393.614C881.373 393.614 880.077 392.822 879.267 391.922L878.241 393.308ZM891.181 398.312V393.74C891.883 394.694 892.891 395.216 894.025 395.216C896.293 395.216 897.895 393.488 897.895 390.644C897.895 387.8 896.293 386.09 894.025 386.09C892.855 386.09 891.811 386.684 891.181 387.548V386.306H889.561V398.312H891.181ZM896.203 390.644C896.203 392.462 895.213 393.776 893.593 393.776C892.603 393.776 891.613 393.182 891.181 392.498V388.808C891.613 388.106 892.603 387.53 893.593 387.53C895.213 387.53 896.203 388.844 896.203 390.644ZM899.949 395H901.569V388.952C901.947 388.304 903.045 387.692 903.855 387.692C904.071 387.692 904.251 387.71 904.413 387.746V386.108C903.261 386.108 902.235 386.774 901.569 387.638V386.306H899.949V395ZM906.823 384.848C907.399 384.848 907.867 384.398 907.867 383.822C907.867 383.246 907.399 382.778 906.823 382.778C906.265 382.778 905.779 383.246 905.779 383.822C905.779 384.398 906.265 384.848 906.823 384.848ZM906.031 395H907.651V386.306H906.031V395ZM916.101 395H917.721V388.898C917.721 387.062 916.767 386.09 914.931 386.09C913.581 386.09 912.429 386.828 911.853 387.53V386.306H910.233V395H911.853V388.79C912.321 388.142 913.239 387.53 914.247 387.53C915.363 387.53 916.101 387.998 916.101 389.438V395ZM922.681 395.216C923.527 395.216 924.031 394.982 924.373 394.658L923.959 393.434C923.797 393.614 923.455 393.776 923.077 393.776C922.519 393.776 922.231 393.326 922.231 392.714V387.728H923.995V386.306H922.231V383.93H920.611V386.306H919.171V387.728H920.611V393.074C920.611 394.442 921.313 395.216 922.681 395.216ZM930.466 395H932.266V390.374H935.524C937.972 390.374 939.358 388.682 939.358 386.684C939.358 384.686 937.99 382.994 935.524 382.994H930.466V395ZM937.504 386.684C937.504 387.944 936.586 388.79 935.29 388.79H932.266V384.578H935.29C936.586 384.578 937.504 385.424 937.504 386.684ZM941.17 395H942.79V382.994H941.17V395ZM950.735 395H952.355V389.132C952.355 386.918 950.753 386.09 948.863 386.09C947.459 386.09 946.271 386.558 945.299 387.512L946.001 388.628C946.775 387.854 947.621 387.476 948.611 387.476C949.853 387.476 950.735 388.124 950.735 389.204V390.644C950.069 389.87 949.061 389.492 947.891 389.492C946.433 389.492 944.867 390.356 944.867 392.336C944.867 394.244 946.451 395.216 947.891 395.216C949.061 395.216 950.051 394.802 950.735 394.046V395ZM950.735 393.092C950.249 393.74 949.403 394.082 948.503 394.082C947.333 394.082 946.505 393.38 946.505 392.354C946.505 391.328 947.333 390.626 948.503 390.626C949.403 390.626 950.249 390.968 950.735 391.616V393.092ZM960.819 395H962.439V388.898C962.439 387.062 961.485 386.09 959.649 386.09C958.299 386.09 957.147 386.828 956.571 387.53V386.306H954.951V395H956.571V388.79C957.039 388.142 957.957 387.53 958.965 387.53C960.081 387.53 960.819 387.998 960.819 389.438V395ZM970.874 395H972.494V388.898C972.494 387.062 971.54 386.09 969.704 386.09C968.354 386.09 967.202 386.828 966.626 387.53V386.306H965.006V395H966.626V388.79C967.094 388.142 968.012 387.53 969.02 387.53C970.136 387.53 970.874 387.998 970.874 389.438V395ZM975.853 384.848C976.429 384.848 976.897 384.398 976.897 383.822C976.897 383.246 976.429 382.778 975.853 382.778C975.295 382.778 974.809 383.246 974.809 383.822C974.809 384.398 975.295 384.848 975.853 384.848ZM975.061 395H976.681V386.306H975.061V395ZM985.13 395H986.75V388.898C986.75 387.062 985.796 386.09 983.96 386.09C982.61 386.09 981.458 386.828 980.882 387.53V386.306H979.262V395H980.882V388.79C981.35 388.142 982.268 387.53 983.276 387.53C984.392 387.53 985.13 387.998 985.13 389.438V395ZM989.245 397.232C990.289 398.222 991.351 398.528 992.809 398.528C994.951 398.528 997.129 397.646 997.129 394.658V386.306H995.509V387.566C994.807 386.63 993.781 386.09 992.647 386.09C990.397 386.09 988.777 387.782 988.777 390.572C988.777 393.416 990.397 395.072 992.647 395.072C993.817 395.072 994.843 394.442 995.509 393.578V394.712C995.509 396.548 994.159 397.196 992.809 397.196C991.621 397.196 990.739 396.872 990.019 396.044L989.245 397.232ZM995.509 392.336C995.059 393.038 994.069 393.632 993.097 393.632C991.477 393.632 990.469 392.372 990.469 390.572C990.469 388.79 991.477 387.53 993.097 387.53C994.069 387.53 995.059 388.106 995.509 388.808V392.336ZM816.103 420.624C817.201 420.624 818.101 419.724 818.101 418.644C818.101 417.546 817.201 416.646 816.103 416.646C815.005 416.646 814.105 417.546 814.105 418.644C814.105 419.724 815.005 420.624 816.103 420.624ZM825.287 423H827.087V418.374H830.345C832.793 418.374 834.179 416.682 834.179 414.684C834.179 412.686 832.811 410.994 830.345 410.994H825.287V423ZM832.325 414.684C832.325 415.944 831.407 416.79 830.111 416.79H827.087V412.578H830.111C831.407 412.578 832.325 413.424 832.325 414.684ZM835.205 418.644C835.205 421.38 837.113 423.216 839.705 423.216C841.109 423.216 842.333 422.766 843.197 421.92L842.441 420.858C841.793 421.524 840.785 421.884 839.867 421.884C838.121 421.884 837.041 420.66 836.915 419.184H843.791V418.788C843.791 416.124 842.171 414.09 839.561 414.09C837.023 414.09 835.205 416.124 835.205 418.644ZM839.561 415.422C841.397 415.422 842.171 416.862 842.207 418.014H836.897C836.987 416.826 837.815 415.422 839.561 415.422ZM845.277 418.644C845.277 421.38 847.185 423.216 849.777 423.216C851.181 423.216 852.405 422.766 853.269 421.92L852.513 420.858C851.865 421.524 850.857 421.884 849.939 421.884C848.193 421.884 847.113 420.66 846.987 419.184H853.863V418.788C853.863 416.124 852.243 414.09 849.633 414.09C847.095 414.09 845.277 416.124 845.277 418.644ZM849.633 415.422C851.469 415.422 852.243 416.862 852.279 418.014H846.969C847.059 416.826 847.887 415.422 849.633 415.422ZM855.89 423H857.51V416.952C857.888 416.304 858.986 415.692 859.796 415.692C860.012 415.692 860.192 415.71 860.354 415.746V414.108C859.202 414.108 858.176 414.774 857.51 415.638V414.306H855.89V423ZM866.648 423H868.448V417.672H874.586V416.088H868.448V412.578H874.712V410.994H866.648V423ZM876.074 418.644C876.074 421.38 877.982 423.216 880.574 423.216C881.978 423.216 883.202 422.766 884.066 421.92L883.31 420.858C882.662 421.524 881.654 421.884 880.736 421.884C878.99 421.884 877.91 420.66 877.784 419.184H884.66V418.788C884.66 416.124 883.04 414.09 880.43 414.09C877.892 414.09 876.074 416.124 876.074 418.644ZM880.43 415.422C882.266 415.422 883.04 416.862 883.076 418.014H877.766C877.856 416.826 878.684 415.422 880.43 415.422ZM886.147 418.644C886.147 421.38 888.055 423.216 890.647 423.216C892.051 423.216 893.275 422.766 894.139 421.92L893.383 420.858C892.735 421.524 891.727 421.884 890.809 421.884C889.063 421.884 887.983 420.66 887.857 419.184H894.733V418.788C894.733 416.124 893.113 414.09 890.503 414.09C887.965 414.09 886.147 416.124 886.147 418.644ZM890.503 415.422C892.339 415.422 893.113 416.862 893.149 418.014H887.839C887.929 416.826 888.757 415.422 890.503 415.422ZM902.951 423H904.571V410.994H902.951V415.566C902.249 414.63 901.223 414.09 900.107 414.09C897.839 414.09 896.219 415.872 896.219 418.662C896.219 421.506 897.839 423.216 900.107 423.216C901.259 423.216 902.303 422.622 902.951 421.758V423ZM902.951 420.516C902.501 421.218 901.529 421.776 900.539 421.776C898.919 421.776 897.911 420.462 897.911 418.662C897.911 416.844 898.919 415.53 900.539 415.53C901.529 415.53 902.501 416.106 902.951 416.808V420.516ZM907.165 423H908.785V421.758C909.433 422.622 910.459 423.216 911.629 423.216C913.879 423.216 915.499 421.506 915.499 418.662C915.499 415.872 913.897 414.09 911.629 414.09C910.495 414.09 909.469 414.63 908.785 415.566V410.994H907.165V423ZM908.785 420.516V416.826C909.217 416.124 910.207 415.53 911.197 415.53C912.817 415.53 913.825 416.844 913.825 418.662C913.825 420.48 912.817 421.776 911.197 421.776C910.207 421.776 909.217 421.218 908.785 420.516ZM922.935 423H924.555V417.132C924.555 414.918 922.953 414.09 921.063 414.09C919.659 414.09 918.471 414.558 917.499 415.512L918.201 416.628C918.975 415.854 919.821 415.476 920.811 415.476C922.053 415.476 922.935 416.124 922.935 417.204V418.644C922.269 417.87 921.261 417.492 920.091 417.492C918.633 417.492 917.067 418.356 917.067 420.336C917.067 422.244 918.651 423.216 920.091 423.216C921.261 423.216 922.251 422.802 922.935 422.046V423ZM922.935 421.092C922.449 421.74 921.603 422.082 920.703 422.082C919.533 422.082 918.705 421.38 918.705 420.354C918.705 419.328 919.533 418.626 920.703 418.626C921.603 418.626 922.449 418.968 922.935 419.616V421.092ZM926.611 418.644C926.611 421.254 928.411 423.216 931.039 423.216C932.677 423.216 933.667 422.532 934.297 421.686L933.217 420.696C932.695 421.416 931.993 421.776 931.111 421.776C929.401 421.776 928.303 420.444 928.303 418.644C928.303 416.844 929.401 415.53 931.111 415.53C931.993 415.53 932.695 415.872 933.217 416.61L934.297 415.62C933.667 414.774 932.677 414.09 931.039 414.09C928.411 414.09 926.611 416.034 926.611 418.644ZM941.913 423H943.965L940.185 418.248L943.929 414.306H941.895L937.701 418.716V410.994H936.081V423H937.701V420.588L939.015 419.256L941.913 423Z" fill="#FEFEFE"/>
<path d="M818.052 287.288C821.7 287.288 823.716 285.344 824.868 283.352L821.94 281.936C821.268 283.256 819.828 284.264 818.052 284.264C815.268 284.264 813.156 282.032 813.156 279.008C813.156 275.984 815.268 273.752 818.052 273.752C819.828 273.752 821.268 274.784 821.94 276.08L824.868 274.64C823.74 272.648 821.7 270.728 818.052 270.728C813.372 270.728 809.652 274.088 809.652 279.008C809.652 283.928 813.372 287.288 818.052 287.288ZM832.201 287.288C836.041 287.288 838.345 284.504 838.345 281.192C838.345 277.904 836.041 275.12 832.201 275.12C828.385 275.12 826.081 277.904 826.081 281.192C826.081 284.504 828.385 287.288 832.201 287.288ZM832.201 284.576C830.305 284.576 829.249 283.016 829.249 281.192C829.249 279.392 830.305 277.832 832.201 277.832C834.097 277.832 835.177 279.392 835.177 281.192C835.177 283.016 834.097 284.576 832.201 284.576ZM840.606 287H843.654V270.992H840.606V287ZM846.676 287H849.724V270.992H846.676V287ZM859.706 287H862.754V279.512C862.754 276.176 860.33 275.12 857.69 275.12C855.866 275.12 854.042 275.696 852.626 276.944L853.778 278.984C854.762 278.072 855.914 277.616 857.162 277.616C858.698 277.616 859.706 278.384 859.706 279.56V281.168C858.938 280.232 857.57 279.752 856.034 279.752C854.186 279.752 852.002 280.736 852.002 283.448C852.002 286.04 854.186 287.288 856.034 287.288C857.546 287.288 858.914 286.736 859.706 285.8V287ZM859.706 284.216C859.202 284.888 858.242 285.224 857.258 285.224C856.058 285.224 855.074 284.6 855.074 283.52C855.074 282.416 856.058 281.768 857.258 281.768C858.242 281.768 859.202 282.104 859.706 282.776V284.216ZM865.778 287H868.826V285.536C869.738 286.664 871.01 287.288 872.402 287.288C875.33 287.288 877.538 285.08 877.538 281.216C877.538 277.424 875.354 275.12 872.402 275.12C871.034 275.12 869.738 275.72 868.826 276.896V270.992H865.778V287ZM868.826 283.28V279.176C869.33 278.408 870.458 277.832 871.442 277.832C873.218 277.832 874.394 279.2 874.394 281.216C874.394 283.232 873.218 284.576 871.442 284.576C870.458 284.576 869.33 284.024 868.826 283.28ZM885.216 287.288C889.056 287.288 891.36 284.504 891.36 281.192C891.36 277.904 889.056 275.12 885.216 275.12C881.4 275.12 879.096 277.904 879.096 281.192C879.096 284.504 881.4 287.288 885.216 287.288ZM885.216 284.576C883.32 284.576 882.264 283.016 882.264 281.192C882.264 279.392 883.32 277.832 885.216 277.832C887.112 277.832 888.192 279.392 888.192 281.192C888.192 283.016 887.112 284.576 885.216 284.576ZM893.621 287H896.669V279.344C897.173 278.6 898.517 278.048 899.525 278.048C899.861 278.048 900.149 278.072 900.365 278.12V275.144C898.925 275.144 897.485 275.96 896.669 276.992V275.408H893.621V287ZM909.23 287H912.278V279.512C912.278 276.176 909.854 275.12 907.214 275.12C905.39 275.12 903.566 275.696 902.15 276.944L903.302 278.984C904.286 278.072 905.438 277.616 906.686 277.616C908.222 277.616 909.23 278.384 909.23 279.56V281.168C908.462 280.232 907.094 279.752 905.558 279.752C903.71 279.752 901.526 280.736 901.526 283.448C901.526 286.04 903.71 287.288 905.558 287.288C907.07 287.288 908.438 286.736 909.23 285.8V287ZM909.23 284.216C908.726 284.888 907.766 285.224 906.782 285.224C905.582 285.224 904.598 284.6 904.598 283.52C904.598 282.416 905.582 281.768 906.782 281.768C907.766 281.768 908.726 282.104 909.23 282.776V284.216ZM919.189 287.288C920.461 287.288 921.277 286.952 921.733 286.544L921.085 284.24C920.917 284.408 920.485 284.576 920.029 284.576C919.357 284.576 918.973 284.024 918.973 283.304V278.072H921.325V275.408H918.973V272.24H915.901V275.408H913.981V278.072H915.901V284.12C915.901 286.184 917.053 287.288 919.189 287.288ZM922.666 281.192C922.666 284.912 925.33 287.288 928.858 287.288C930.658 287.288 932.458 286.76 933.634 285.68L932.29 283.712C931.546 284.432 930.274 284.864 929.194 284.864C927.226 284.864 926.05 283.64 925.858 282.176H934.474V281.504C934.474 277.712 932.122 275.12 928.666 275.12C925.138 275.12 922.666 277.832 922.666 281.192ZM928.666 277.544C930.682 277.544 931.45 279.008 931.522 280.112H925.81C925.954 278.96 926.77 277.544 928.666 277.544Z" fill="#FEFEFE"/>
<line x1="0.5" y1="-0.5" x2="163.855" y2="-0.5" transform="matrix(0.999926 -0.0121688 0.00413314 0.999991 789 309.572)" stroke="#FEFEFE" stroke-linecap="square" stroke-dasharray="6 12"/>
<path d="M838.564 175.973H864.23C866.781 175.973 869.183 175.21 871.284 173.838L898.6 155.386C900.702 154.013 901.902 151.574 901.902 149.134V148.676C901.902 144.559 898.6 141.204 894.548 141.204C893.197 141.204 891.846 141.661 890.646 142.424L863.329 159.503H854.774C854.174 159.503 853.723 159.198 853.273 158.741L851.172 155.843H860.177C864.23 155.843 867.382 152.488 867.382 148.524C867.382 144.406 864.08 141.204 860.177 141.204H843.367C839.915 141.204 836.463 141.966 833.461 143.644C831.36 144.711 829.409 146.084 827.758 147.914L815 160.571V187.105H821.004L833.011 177.955C834.662 176.735 836.613 175.973 838.564 175.973ZM819.803 183.293H818.602V161.943L830.159 150.201C831.51 148.829 833.161 147.609 834.962 146.694C837.514 145.321 840.365 144.711 843.217 144.711H860.177C862.128 144.711 863.779 146.389 863.779 148.371C863.779 150.354 862.128 152.031 860.177 152.031H846.969L839.315 157.978L841.416 160.876L847.269 156.453L850.571 160.876C851.622 162.248 853.273 163.011 854.924 163.011H864.53L892.597 145.169C893.197 144.711 893.947 144.559 894.548 144.559C896.649 144.559 898.3 146.236 898.3 148.371V148.829C898.3 150.201 897.7 151.269 896.649 152.031L869.183 170.788C867.682 171.856 866.031 172.313 864.23 172.313H838.564C835.863 172.313 833.161 173.228 830.91 174.905L819.803 183.293Z" fill="#FEFEFE"/>
<path d="M833.011 120.007L848.62 102.317C850.271 100.487 851.172 98.1997 851.172 95.7598C851.172 90.4224 846.819 86 841.566 86H840.966C839.014 86 837.213 86.61 835.562 87.6775L833.011 89.3549L830.609 87.6775C829.108 86.61 827.157 86 825.356 86H824.606C819.353 86 815 90.4224 815 95.7598C815 98.1997 815.901 100.487 817.552 102.317L833.011 120.007ZM824.606 89.6599H825.206C826.407 89.6599 827.608 89.9649 828.508 90.7274L833.011 93.7773L837.514 90.7274C838.564 90.1174 839.615 89.6599 840.816 89.6599H841.416C844.718 89.6599 847.42 92.4049 847.42 95.7598C847.42 97.2847 846.819 98.6572 845.919 99.8772L833.011 114.517L820.103 99.8772C819.052 98.8097 818.602 97.2847 818.602 95.7598C818.602 92.4049 821.304 89.6599 824.606 89.6599Z" fill="#FEFEFE"/>
<path d="M917.512 164.993H916.911C914.96 164.993 913.159 165.603 911.508 166.671L908.957 168.348L906.555 166.671C904.904 165.603 903.103 164.993 901.152 164.993H900.551C895.298 164.993 890.946 169.416 890.946 174.753C890.946 177.193 891.846 179.481 893.497 181.311L909.107 199L924.566 181.311C926.217 179.481 927.117 177.193 927.117 174.753C927.117 169.416 922.765 164.993 917.512 164.993ZM921.864 178.871L908.957 193.51L896.049 178.871C894.998 177.803 894.548 176.278 894.548 174.753C894.548 171.398 897.249 168.653 900.551 168.653H901.152C902.353 168.653 903.553 168.958 904.454 169.721L908.957 172.771L913.459 169.721C914.51 169.111 915.56 168.653 916.761 168.653H917.362C920.664 168.653 923.365 171.398 923.365 174.753C923.515 176.278 922.915 177.803 921.864 178.871Z" fill="#FEFEFE"/>
<path d="M869.183 185.123H865.58V188.783H869.183V185.123Z" fill="#FEFEFE"/>
<path d="M869.183 192.595H865.58V196.255H869.183V192.595Z" fill="#FEFEFE"/>
<path d="M872.785 188.935H869.183V192.595H872.785V188.935Z" fill="#FEFEFE"/>
<path d="M865.58 188.935H861.978V192.595H865.58V188.935Z" fill="#FEFEFE"/>
<path d="M825.807 128.242H822.204V131.901H825.807V128.242Z" fill="#FEFEFE"/>
<path d="M825.807 135.561H822.204V139.221H825.807V135.561Z" fill="#FEFEFE"/>
<path d="M829.409 131.901H825.807V135.561H829.409V131.901Z" fill="#FEFEFE"/>
<path d="M822.204 131.901H818.602V135.561H822.204V131.901Z" fill="#FEFEFE"/>
<path d="M916.161 142.881H912.559V146.541H916.161V142.881Z" fill="#FEFEFE"/>
<path d="M916.161 150.354H912.559V154.013H916.161V150.354Z" fill="#FEFEFE"/>
<path d="M919.913 146.694H916.311V150.354H919.913V146.694Z" fill="#FEFEFE"/>
<path d="M912.559 146.694H908.957V150.354H912.559V146.694Z" fill="#FEFEFE"/>
<path d="M901.752 86H898.15V89.6599H901.752V86Z" fill="#FEFEFE"/>
<path d="M901.752 93.3198H898.15V96.9797H901.752V93.3198Z" fill="#FEFEFE"/>
<path d="M905.354 89.6599H901.752V93.3198H905.354V89.6599Z" fill="#FEFEFE"/>
<path d="M898.15 89.6599H894.548V93.3198H898.15V89.6599Z" fill="#FEFEFE"/>
<path d="M840.365 181.463H836.763V185.123H840.365V181.463Z" fill="#FEFEFE"/>
<path d="M840.365 188.935H836.763V192.595H840.365V188.935Z" fill="#FEFEFE"/>
<path d="M843.967 185.123H840.365V188.783H843.967V185.123Z" fill="#FEFEFE"/>
<path d="M836.613 185.123H833.011V188.783H836.613V185.123Z" fill="#FEFEFE"/>
<path d="M921.114 91.4899L909.107 100.64C907.606 101.86 905.654 102.47 903.703 102.47H877.888C875.336 102.47 872.935 103.232 870.834 104.605L843.667 123.209C841.566 124.582 840.365 127.022 840.365 129.462V129.919C840.365 134.036 843.667 137.391 847.72 137.391C849.07 137.391 850.421 136.934 851.622 136.171L878.788 118.939H887.343C887.944 118.939 888.394 119.244 888.844 119.702L890.946 122.599H881.94C877.888 122.599 874.736 125.954 874.736 129.919C874.736 133.884 878.038 137.239 881.94 137.239H898.9C902.353 137.239 905.805 136.476 908.806 134.799C910.908 133.731 912.859 132.359 914.51 130.529L927.117 117.719V91.4899H921.114ZM923.515 116.499L911.958 128.242C910.607 129.614 908.956 130.834 907.155 131.749C904.604 133.121 901.752 133.731 898.9 133.731H881.94C879.989 133.731 878.338 132.054 878.338 130.072C878.338 128.089 879.989 126.412 881.94 126.412H895.148L902.803 120.464L900.702 117.567L894.848 121.989L891.546 117.567C890.495 116.194 888.844 115.432 887.193 115.432H877.588L849.821 133.121C849.221 133.579 848.47 133.731 847.87 133.731C845.768 133.731 844.117 132.054 844.117 129.919V129.462C844.117 128.089 844.718 127.022 845.768 126.259L873.085 107.807C874.586 106.74 876.237 106.282 878.038 106.282H903.553C906.255 106.282 908.956 105.367 911.208 103.69L922.315 95.1498H923.515V116.499Z" fill="#FEFEFE"/>
<defs>
<clipPath id="clip0">
<rect width="111.134" height="121" fill="white" transform="translate(464 78)"/>
</clipPath>
</defs>
</svg>
